<?xml version="1.0" encoding="utf-8"?>
<!-- Generator: Adobe Illustrator 24.0.2, SVG Export Plug-In . SVG Version: 6.00 Build 0)  -->
<svg version="1.1" id="Layer_1" xmlns="http://www.w3.org/2000/svg" xmlns:xlink="http://www.w3.org/1999/xlink" x="0px" y="0px"
	 viewBox="0 0 50 50" style="enable-background:new 0 0 50 50;" xml:space="preserve">
<style type="text/css">
	.st0{fill:#FFFFFF;}
</style>
<g id="surface1">
	<path class="st0" d="M38.9,3c-0.8,0-3.2,0.1-6.9,1.9c-3.7,1.7-8.8,5.1-15.4,11.7S6.6,28.3,4.9,32C3.1,35.7,3,38.2,3,38.9V39
		c0,0.9,0.5,1.5,1,2.2c0.5,0.7,1.2,1.4,1.9,2.1c1.4,1.3,2.9,2.5,3.6,3c1.6,1.1,3.4,0.9,4.3-0.3c0.6-0.8,5.2-7.8,5.9-9c0,0,0,0,0,0
		c0.7-1.1,0.4-2.3-0.2-3.5c-0.5-0.9-1.8-3.2-2.2-3.9c0.3-0.5,1.7-2.5,5.8-6.6l0,0v0c4.2-4.2,6.1-5.5,6.6-5.8c0.7,0.4,3,1.7,3.9,2.2
		c1.1,0.7,2.4,0.9,3.5,0.3l0,0l0,0c0.5-0.3,2.5-1.6,4.6-3c1-0.7,2-1.3,2.8-1.9c0.8-0.5,1.3-0.9,1.6-1.1c1.2-0.8,1.5-2.7,0.3-4.3
		c-0.5-0.7-1.7-2.2-3-3.6c-0.7-0.7-1.4-1.4-2.1-1.9C40.5,3.4,39.9,3,38.9,3z M39.1,5C39,5,39.4,5.1,40,5.5c0.5,0.4,1.2,1,1.8,1.7
		c1.3,1.3,2.5,2.9,2.9,3.4c0.6,0.9,0.2,1.5,0.1,1.5l0,0l0,0c-0.1,0.1-0.7,0.5-1.5,1c-0.8,0.5-1.8,1.2-2.8,1.9
		c-2,1.3-4.1,2.7-4.5,2.9h0c-0.2,0.1-0.8,0.1-1.4-0.3l0,0l0,0c-0.9-0.5-4.4-2.5-4.4-2.5l-0.5-0.3l-0.5,0.3c0,0-2.6,1.5-7.5,6.5
		c0,0,0,0,0,0c0,0,0,0,0,0c-4.9,4.9-6.4,7.4-6.4,7.4l-0.3,0.5l0.3,0.5c0,0,2,3.5,2.5,4.4c0.4,0.8,0.3,1.4,0.3,1.4l0,0l0,0
		c-0.4,0.7-5.6,8.5-5.8,8.9c0,0-0.6,0.5-1.5-0.1c-0.5-0.4-2.1-1.6-3.4-2.8C6.6,41.2,6,40.5,5.6,40c-0.4-0.5-0.6-1-0.6-1
		c0-0.9,0.1-2.7,1.7-6.1C8.3,29.4,11.5,24.5,18,18S29.4,8.3,32.9,6.7S38.2,5,39.1,5z"/>
</g>
</svg>
