<?xml version="1.0" encoding="UTF-8"?>
<svg id="Layer_2" data-name="Layer 2" xmlns="http://www.w3.org/2000/svg" viewBox="0 0 244.92 244.92">
  <defs>
    <style>
      .cls-1 {
        fill: #308cb4;
      }
    </style>
  </defs>
  <g id="Layer_1-2" data-name="Layer 1">
    <path class="cls-1" d="M122.46,0C54.83,0,0,54.83,0,122.46s54.83,122.46,122.46,122.46,122.46-54.83,122.46-122.46S190.1,0,122.46,0Zm48.31,192.22c-24.56,14.32-63.07-5.98-86.01-45.34-22.95-39.36-21.65-82.87,2.91-97.19,5.56-3.24,12.7-1.36,15.94,4.2l11.29,19.36c3.24,5.56,1.36,12.7-4.2,15.94l-13.25,7.73c-3.33,1.94-4.85,5.93-3.7,9.61,5.89,19.01,16.91,37.91,30.55,52.4,2.64,2.81,6.86,3.45,10.19,1.51l13.25-7.73h0c5.56-3.24,12.7-1.36,15.94,4.2l11.29,19.36c3.24,5.56,1.36,12.7-4.2,15.94Z"/>
  </g>
</svg>