<?xml version="1.0" encoding="utf-8"?>
<!-- Generator: Adobe Illustrator 26.4.1, SVG Export Plug-In . SVG Version: 6.00 Build 0)  -->
<svg version="1.1" id="Layer_1" xmlns="http://www.w3.org/2000/svg" xmlns:xlink="http://www.w3.org/1999/xlink" x="0px" y="0px"
	 viewBox="0 0 254 178.9" style="enable-background:new 0 0 254 178.9;" xml:space="preserve">
<style type="text/css">
	.st0{fill:none;stroke:#000000;stroke-width:6;stroke-linecap:round;stroke-linejoin:round;}
</style>
<g id="bf01c340-ea23-413f-8947-8467be475992">
	<g id="a26cc241-6fb4-41eb-92ff-fb5519f8b071">
		<polyline class="st0" points="197.1,112 197.1,175.9 3.7,175.9 		"/>
		<polyline class="st0" points="3,173.2 3,53.5 101.4,125.3 151.9,87.4 		"/>
		<line class="st0" x1="197.1" y1="175.9" x2="120" y2="112"/>
		<line class="st0" x1="3" y1="53.5" x2="141.3" y2="53.5"/>
		<path class="st0" d="M148.9,77.2c11.6,27,42.9,39.5,69.9,28s39.5-42.9,28-69.9c-11.6-27-42.9-39.5-69.9-28
			c-20.4,8.7-33.3,29.3-32.2,51.5"/>
		<line class="st0" x1="3.7" y1="175.9" x2="80.8" y2="112"/>
		<polyline class="st0" points="184,60.8 179.3,56.2 171.1,48.3 168.9,46.1 		"/>
		<polyline class="st0" points="168.9,46.1 189.7,43.1 199,24.3 208.3,43.1 229.1,46.1 214,60.8 217.6,81.5 199,71.7 180.4,81.5 
			184,60.8 		"/>
	</g>
</g>
</svg>
