<?xml version="1.0" encoding="UTF-8"?>
<svg id="Layer_2" data-name="Layer 2" xmlns="http://www.w3.org/2000/svg" viewBox="0 0 244.92 244.92">
  <defs>
    <style>
      .cls-1 {
        fill: #353535;
      }

      .cls-2 {
        fill: #308cb4;
      }
    </style>
  </defs>
  <g id="Layer_1-2" data-name="Layer 1">
    <g>
      <polygon class="cls-2" points="195.97 166.97 195.97 77.41 143.65 119.67 195.97 166.97"/>
      <polygon class="cls-1" points="200.35 67.95 200.35 67.95 200.35 67.95 200.35 67.95"/>
      <path class="cls-2" d="M124.59,135.06c-1.2,.97-3.06,.97-4.26,0l-13.72-11.08-52.25,47.23H190.56l-52.25-47.23-13.72,11.08Z"/>
      <polygon class="cls-2" points="48.95 77.41 48.95 166.97 101.28 119.67 48.95 77.41"/>
      <polygon class="cls-2" points="189.77 73.71 55.15 73.71 122.46 128.07 189.77 73.71"/>
      <path class="cls-2" d="M122.46,0C54.83,0,0,54.83,0,122.46s54.83,122.46,122.46,122.46,122.46-54.83,122.46-122.46S190.1,0,122.46,0Zm80.28,174.67c0,.05,0,.13-.01,.22v.1c-.02,.07-.03,.14-.04,.22l-.02,.1c-.02,.09-.04,.18-.07,.27l-.1,.29s-.03,.07-.05,.12c-.02,.05-.05,.1-.07,.15l-.06,.11c-.04,.07-.08,.14-.13,.21-.08,.12-.14,.2-.2,.28l-.04,.05c-.05,.06-.11,.12-.16,.18l-.05,.05c-.06,.06-.12,.11-.19,.17-.12,.1-.2,.16-.28,.22l-.05,.03c-.06,.04-.13,.08-.21,.13l-.06,.03c-.08,.04-.15,.07-.21,.1l-.09,.04c-.09,.04-.18,.07-.28,.1-.11,.03-.2,.06-.3,.08h-.06c-.1,.03-.18,.04-.26,.05h-.07c-.1,.02-.21,.02-.32,.02H45.57c-.11,0-.21,0-.32-.02h-.05c-.1-.02-.18-.03-.26-.05h-.07c-.1-.03-.19-.06-.28-.09-.11-.03-.21-.07-.3-.11l-.07-.03c-.08-.03-.14-.06-.21-.1l-.08-.04c-.08-.04-.15-.09-.22-.13-.12-.08-.2-.14-.28-.21-.1-.08-.16-.14-.22-.2l-.05-.05c-.06-.06-.12-.13-.18-.19-.16-.19-.27-.36-.37-.54l-.03-.05c-.04-.09-.08-.15-.11-.22l-.06-.15s-.03-.09-.05-.14l-.03-.09c-.03-.1-.06-.2-.08-.3v-.05c-.03-.08-.04-.17-.05-.26v-.07c-.02-.1-.02-.19-.02-.29V70.25s0-.14,.01-.23c.01-.14,.03-.24,.05-.34l.02-.1c.02-.09,.03-.14,.05-.19,.01-.05,.03-.09,.04-.14l.1-.27c.03-.07,.06-.13,.09-.19,.02-.05,.05-.09,.07-.13,.04-.07,.08-.13,.12-.2l.05-.08c.04-.06,.08-.12,.13-.17l.07-.08s.09-.1,.14-.15l.06-.06c.07-.07,.14-.14,.22-.2,.09-.07,.16-.13,.23-.18l.07-.05c.07-.04,.12-.08,.18-.11l.11-.06c.06-.03,.12-.06,.18-.08l.09-.04c.09-.04,.18-.07,.27-.1l.08-.02c.08-.02,.15-.04,.22-.06l.1-.02c.07-.01,.15-.02,.22-.03h.09c.1-.02,.21-.03,.31-.03H199.35c.11,0,.21,0,.31,.02h.08c.09,.02,.16,.03,.23,.04l.11,.02c.07,.02,.14,.03,.2,.05l.09,.03c.09,.03,.18,.06,.27,.1l.08,.04c.08,.04,.14,.06,.19,.09l.1,.06c.06,.03,.11,.06,.16,.1l.1,.06c.07,.05,.15,.1,.22,.16,.09,.07,.16,.14,.23,.21l.04,.05c.06,.06,.11,.12,.16,.18l.05,.06c.05,.06,.1,.12,.14,.19l.04,.05c.11,.17,.21,.35,.29,.53l.03,.07c.03,.07,.04,.11,.06,.15l.05,.17c.02,.07,.04,.14,.05,.21l.02,.1c.02,.1,.04,.2,.05,.3v.06c.01,.07,.02,.16,.02,.25v104.34s0,.05,0,.05Z"/>
    </g>
  </g>
</svg>