<?xml version="1.0" encoding="utf-8"?>
<!-- Generator: Adobe Illustrator 24.0.2, SVG Export Plug-In . SVG Version: 6.00 Build 0)  -->
<svg version="1.1" id="Layer_2_1_" xmlns="http://www.w3.org/2000/svg" xmlns:xlink="http://www.w3.org/1999/xlink" x="0px" y="0px"
	 viewBox="0 0 244.9 244.9" style="enable-background:new 0 0 244.9 244.9;" xml:space="preserve">
<style type="text/css">
	.st0{fill:#308CB4;}
	.st1{fill:#353535;}
	.st2{fill:#FFFFFF;}
</style>
<g id="Layer_1-2">
	<g>
		<polygon class="st0" points="196,167 196,77.4 143.6,119.7 		"/>
		<polygon class="st1" points="200.4,67.9 200.4,67.9 200.4,67.9 		"/>
		<path class="st0" d="M124.6,135.1c-1.2,1-3.1,1-4.3,0L106.6,124l-52.2,47.2h136.2L138.3,124L124.6,135.1z"/>
		<polygon class="st0" points="49,77.4 49,167 101.3,119.7 		"/>
		<polygon class="st0" points="189.8,73.7 55.2,73.7 122.5,128.1 		"/>
		<path class="st2" d="M122.5,0C54.8,0,0,54.8,0,122.5s54.8,122.5,122.5,122.5s122.5-54.8,122.5-122.5S190.1,0,122.5,0z
			 M202.7,174.7c0,0.1,0,0.1,0,0.2v0.1c0,0.1,0,0.1,0,0.2l0,0.1c0,0.1,0,0.2-0.1,0.3l-0.1,0.3c0,0,0,0.1-0.1,0.1
			c0,0.1-0.1,0.1-0.1,0.1l-0.1,0.1c0,0.1-0.1,0.1-0.1,0.2c-0.1,0.1-0.1,0.2-0.2,0.3l0,0.1c-0.1,0.1-0.1,0.1-0.2,0.2l-0.1,0.1
			c-0.1,0.1-0.1,0.1-0.2,0.2c-0.1,0.1-0.2,0.2-0.3,0.2l-0.1,0c-0.1,0-0.1,0.1-0.2,0.1l-0.1,0c-0.1,0-0.1,0.1-0.2,0.1l-0.1,0
			c-0.1,0-0.2,0.1-0.3,0.1c-0.1,0-0.2,0.1-0.3,0.1H200c-0.1,0-0.2,0-0.3,0.1h-0.1c-0.1,0-0.2,0-0.3,0H45.6c-0.1,0-0.2,0-0.3,0h0
			c-0.1,0-0.2,0-0.3-0.1h-0.1c-0.1,0-0.2-0.1-0.3-0.1c-0.1,0-0.2-0.1-0.3-0.1l-0.1,0c-0.1,0-0.1-0.1-0.2-0.1l-0.1,0
			c-0.1,0-0.2-0.1-0.2-0.1c-0.1-0.1-0.2-0.1-0.3-0.2c-0.1-0.1-0.2-0.1-0.2-0.2l0-0.1c-0.1-0.1-0.1-0.1-0.2-0.2
			c-0.2-0.2-0.3-0.4-0.4-0.5l0-0.1c0-0.1-0.1-0.1-0.1-0.2l-0.1-0.1c0,0,0-0.1,0-0.1l0-0.1c0-0.1-0.1-0.2-0.1-0.3v-0.1
			c0-0.1,0-0.2,0-0.3v-0.1c0-0.1,0-0.2,0-0.3V70.2c0,0,0-0.1,0-0.2c0-0.1,0-0.2,0-0.3l0-0.1c0-0.1,0-0.1,0-0.2c0-0.1,0-0.1,0-0.1
			l0.1-0.3c0-0.1,0.1-0.1,0.1-0.2c0-0.1,0-0.1,0.1-0.1c0-0.1,0.1-0.1,0.1-0.2l0-0.1c0-0.1,0.1-0.1,0.1-0.2l0.1-0.1
			c0,0,0.1-0.1,0.1-0.2l0.1-0.1c0.1-0.1,0.1-0.1,0.2-0.2c0.1-0.1,0.2-0.1,0.2-0.2l0.1-0.1c0.1,0,0.1-0.1,0.2-0.1l0.1-0.1
			c0.1,0,0.1-0.1,0.2-0.1l0.1,0c0.1,0,0.2-0.1,0.3-0.1l0.1,0c0.1,0,0.2,0,0.2-0.1l0.1,0c0.1,0,0.2,0,0.2,0h0.1c0.1,0,0.2,0,0.3,0
			h153.8c0.1,0,0.2,0,0.3,0h0.1c0.1,0,0.2,0,0.2,0l0.1,0c0.1,0,0.1,0,0.2,0.1l0.1,0c0.1,0,0.2,0.1,0.3,0.1l0.1,0
			c0.1,0,0.1,0.1,0.2,0.1l0.1,0.1c0.1,0,0.1,0.1,0.2,0.1l0.1,0.1c0.1,0.1,0.1,0.1,0.2,0.2c0.1,0.1,0.2,0.1,0.2,0.2l0,0.1
			c0.1,0.1,0.1,0.1,0.2,0.2l0.1,0.1c0.1,0.1,0.1,0.1,0.1,0.2l0,0.1c0.1,0.2,0.2,0.3,0.3,0.5l0,0.1c0,0.1,0,0.1,0.1,0.2l0.1,0.2
			c0,0.1,0,0.1,0.1,0.2l0,0.1c0,0.1,0,0.2,0.1,0.3V70c0,0.1,0,0.2,0,0.2L202.7,174.7L202.7,174.7L202.7,174.7z"/>
	</g>
</g>
</svg>
