<?xml version="1.0" encoding="utf-8"?>
<!-- Generator: Adobe Illustrator 24.0.2, SVG Export Plug-In . SVG Version: 6.00 Build 0)  -->
<svg version="1.1" id="Layer_1" xmlns="http://www.w3.org/2000/svg" xmlns:xlink="http://www.w3.org/1999/xlink" x="0px" y="0px"
	 viewBox="0 0 50 50" style="enable-background:new 0 0 50 50;" xml:space="preserve">
<style type="text/css">
	.st0{fill:#FFFFFF;}
</style>
<path class="st0" d="M0,7v36h27.5l0.6-2H2v-2.5l14.7-11.6c1.2,1.1,3.4,3,3.7,3.2c1.7,1.5,3.5,1.8,4.6,1.8c1.1,0,2.9-0.4,4.6-1.8
	c0.3-0.2,2.5-2.2,3.7-3.2l4.9,3.9l1.5-1.4l-4.9-3.9C40.1,21,46.3,15.7,48,14.2v12.2c0.8,0.3,1.4,0.7,2,1.2V7H0z M2,9h46v2.5
	c-0.4,0.4-18.2,15.9-19.7,17.1C27,29.8,25.7,30,25,30c-0.7,0-2-0.2-3.3-1.4C20.2,27.4,2.4,11.9,2,11.5V9z M2,14.2
	c1.7,1.5,7.9,6.9,13.1,11.4L2,36V14.2z M45.9,28c-1,0-1.9,0.4-2.7,1.1L43,29.2l-0.1,0.1l-0.3,0.3l-0.7,0.7l-0.2,0.2L30,42.3
	c-0.1,0.1-0.2,0.3-0.3,0.4l-1.7,6c-0.2,0.5,0.1,1.1,0.7,1.2c0.2,0.1,0.4,0.1,0.5,0l6-1.6c0.2,0,0.3-0.1,0.5-0.3l12.8-12.8l0.3-0.2
	c1.6-1.6,1.6-4.2,0-5.8C48,28.3,46.9,28,45.9,28z M45.9,30c0.5,0,1.1,0.2,1.5,0.6c0.8,0.8,0.8,2,0.1,2.8l-2.9-2.9
	C45,30.2,45.4,30,45.9,30z M43.1,31.9l3,3L35.2,45.8l-3-2.9L43.1,31.9z M31.2,44.8l2.1,2.1l-2.9,0.8L31.2,44.8z"/>
</svg>
