<?xml version="1.0" encoding="utf-8"?>
<!-- Generator: Adobe Illustrator 21.0.0, SVG Export Plug-In . SVG Version: 6.00 Build 0)  -->
<svg version="1.1" id="Layer_1" xmlns="http://www.w3.org/2000/svg" xmlns:xlink="http://www.w3.org/1999/xlink" x="0px" y="0px"
	 viewBox="0 0 41.1 39.6" style="enable-background:new 0 0 41.1 39.6;" xml:space="preserve">
<style type="text/css">
	.st0{fill:#000000;}
</style>
<path class="st0" d="M21.2,8.6c-6.3,0-11.4,5.1-11.5,11.3l0,0l0,0C9.8,26,14.8,31,20.9,31c3.8,0,6.9-1.1,9.6-4.2
	c0.3-0.4,0.3-1-0.1-1.4c-0.4-0.3-1-0.3-1.4,0.1c-2.3,2.8-4.6,3.6-8.1,3.6c-5.1,0-9.2-4.1-9.2-9.2c0.1-5.2,4.3-9.4,9.5-9.4
	c2.1,0,4.2,0.7,5.7,2s2.5,3,2.5,5.3V18c0,1.7-0.8,3.2-1.8,4.4c-1.1,1.1-2.5,1.8-3.3,1.8c-0.2,0-0.2,0-0.2-0.1c0,0-0.1-0.1-0.1-0.5
	l0,0l0,0c0,0-0.1-1.1,0.6-2.8l0,0l2.3-5.6c0.2-0.5,0-1.1-0.5-1.3C26.2,14,26,14,25.9,14c-0.4,0-0.7,0.3-0.9,0.6l-0.1,0.3
	c-0.2-0.2-0.4-0.4-0.6-0.6c-0.8-0.6-1.8-0.9-2.9-0.9c-1.4,0-3,0.8-4.3,2.2c-1.4,1.4-2.4,3.4-2.4,6c0,2.5,2,4.5,4.5,4.5
	c1.4,0,2.4-0.6,3.2-1.3c0.1,0.2,0.2,0.4,0.3,0.6c0.4,0.5,1,0.7,1.7,0.7c1.7,0,3.3-1,4.7-2.4c1.4-1.4,2.3-3.4,2.3-5.7v-0.2
	c0-2.9-1.3-5.2-3.2-6.8C26.2,9.4,23.7,8.6,21.2,8.6z M21.3,15.4c0.8,0,1.3,0.2,1.7,0.5c0.3,0.3,0.6,0.7,0.8,1.4l-1.1,2.9L22,21.8
	l0,0c-0.3,0.6-0.7,1.1-1.1,1.6c-0.5,0.5-1,0.7-1.8,0.7c-1.4,0-2.5-1.1-2.5-2.5c0-2,0.9-3.6,1.9-4.6C19.4,16,20.8,15.4,21.3,15.4z"/>
</svg>
