<svg xmlns="http://www.w3.org/2000/svg" viewBox="0 0 60.85 60.03"><defs><style>.cls-1{fill:#d7deed;}</style></defs><title>Asset 1@3x1</title><g id="Layer_2" data-name="Layer 2"><g id="_1" data-name="1"><path class="cls-1" d="M30.38,26.53A3.5,3.5,0,1,1,26.84,30,3.56,3.56,0,0,1,30.38,26.53Z"/><path d="M30.38,21.63a1.33,1.33,0,0,1-1.32-1.3v-19a1.32,1.32,0,0,1,2.63,0v19.1A1.25,1.25,0,0,1,30.38,21.63Z"/><path d="M23.6,8.33a1,1,0,0,1-.91-.4,1.25,1.25,0,0,1,.1-1.8L29.67.33a1.3,1.3,0,0,1,1.82.1,1.26,1.26,0,0,1-.1,1.8L24.51,8A2.39,2.39,0,0,1,23.6,8.33Z"/><path d="M37.15,8.33a1.18,1.18,0,0,1-.81-.3l-6.87-5.8a1.26,1.26,0,0,1-.11-1.8,1.3,1.3,0,0,1,1.83-.1l6.87,5.8a1.26,1.26,0,0,1,.11,1.8A1.33,1.33,0,0,1,37.15,8.33Z"/><path d="M30.38,60a1.33,1.33,0,0,1-1.32-1.3V39.63a1.32,1.32,0,0,1,2.63,0v19.1A1.33,1.33,0,0,1,30.38,60Z"/><path d="M30.38,60a1.14,1.14,0,0,1-.81-.3l-6.88-5.8a1.25,1.25,0,0,1-.1-1.8,1.21,1.21,0,0,1,1.82-.1l6.88,5.8a1.27,1.27,0,0,1,.1,1.8A1.32,1.32,0,0,1,30.38,60Z"/><path d="M30.38,60a1,1,0,0,1-.91-.4,1.25,1.25,0,0,1,.1-1.8L36.45,52a1.3,1.3,0,0,1,1.82.1,1.27,1.27,0,0,1-.1,1.8l-6.88,5.8A1.67,1.67,0,0,1,30.38,60Z"/><path d="M59.51,31.33H40.09a1.3,1.3,0,1,1,0-2.6H59.41A1.33,1.33,0,0,1,60.72,30,1.31,1.31,0,0,1,59.51,31.33Z"/><path d="M59.51,31.33a1,1,0,0,1-.91-.4l-5.87-6.8a1.27,1.27,0,0,1,.1-1.8,1.3,1.3,0,0,1,1.82.1l5.87,6.8a1.25,1.25,0,0,1-.1,1.8A2.34,2.34,0,0,1,59.51,31.33Z"/><path d="M53.54,38a1.18,1.18,0,0,1-.81-.3,1.27,1.27,0,0,1-.1-1.8l5.87-6.8a1.29,1.29,0,0,1,1.82-.1,1.25,1.25,0,0,1,.1,1.8l-5.87,6.8A1.29,1.29,0,0,1,53.54,38Z"/><path d="M20.67,31.33H1.34a1.3,1.3,0,1,1,0-2.6H20.67A1.33,1.33,0,0,1,22,30,1.41,1.41,0,0,1,20.67,31.33Z"/><path d="M1.24,31.33A1.18,1.18,0,0,1,.43,31a1.27,1.27,0,0,1-.1-1.8l5.87-6.8A1.29,1.29,0,0,1,8,22.33a1.25,1.25,0,0,1,.1,1.8l-5.87,6.8A1.78,1.78,0,0,1,1.24,31.33Z"/><path d="M7.21,38a1,1,0,0,1-.91-.4L.43,30.83A1.27,1.27,0,0,1,.53,29a1.31,1.31,0,0,1,1.83.1l5.86,6.7a1.25,1.25,0,0,1-.1,1.8A1.24,1.24,0,0,1,7.21,38Z"/><path d="M30.38,34.83A4.83,4.83,0,0,1,25.52,30a4.86,4.86,0,0,1,9.71,0A4.82,4.82,0,0,1,30.38,34.83Zm0-7a2.34,2.34,0,0,0-2.33,2.3,2.33,2.33,0,0,0,4.65,0A2.34,2.34,0,0,0,30.38,27.83Z"/></g></g></svg>