<svg xmlns="http://www.w3.org/2000/svg" viewBox="0 0 480 480"><title>Asset 1@3x1</title><g id="Layer_2" data-name="Layer 2"><g id="Layer_1-2" data-name="Layer 1"><path id="ytp-id-7" d="M0,180H60V60H180V0H0V180Z"/><path id="ytp-id-7-2" data-name="ytp-id-7" d="M0,180H60V60H180V0H0V180Z"/><path id="ytp-id-8" d="M300,0V60H420V180h60V0Z"/><path id="ytp-id-8-2" data-name="ytp-id-8" d="M300,0V60H420V180h60V0Z"/><path id="ytp-id-9" d="M420,420H300v60H480V300H420V420Z"/><path id="ytp-id-9-2" data-name="ytp-id-9" d="M420,420H300v60H480V300H420V420Z"/><path id="ytp-id-10" d="M60,300H0V480H180V420H60V300Z"/><path id="ytp-id-10-2" data-name="ytp-id-10" d="M60,300H0V480H180V420H60V300Z"/></g></g></svg>