<svg xmlns="http://www.w3.org/2000/svg" viewBox="0 0 713.43 538.13"><defs><style>.cls-1{isolation:isolate;}.cls-2{opacity:0.3;mix-blend-mode:multiply;}.cls-3{fill:#473575;stroke:#473575;stroke-miterlimit:10;stroke-width:1.08px;}</style></defs><title>Asset 3@3x1</title><g class="cls-1"><g id="Layer_2" data-name="Layer 2"><g id="Layer_1-2" data-name="Layer 1"><g class="cls-2"><path class="cls-3" d="M501.53,113.74c-13.35,13.35-26.48,26.54-39.67,39.66-7.63,7.59-6,8.28-14.07.16C437.22,143,426.7,132.33,416,121.86c-2.85-2.79-3.21-4.7-.13-7.76Q471.73,58.53,527.3,2.66c3.12-3.13,4.89-2.58,7.64.25q20.64,21.23,41.57,42.16Q611.12,79.61,645.9,114c4.52,4.49,4.49,4.51.09,9-11.18,11.32-22.4,22.61-33.49,34-3,3.09-4.88,4.63-8.32-.13-3.55-4.92-8.75-8.65-13.08-13-8.38-8.46-16.65-17-25-25.54-.64-.65-1.39-1.2-1.75-1.52.11,22.6.23,45.33.35,68.39,7.68,2,16.94,4.09,26,6.88,17.74,5.48,33.9,14,49,24.92a167.61,167.61,0,0,1,35.1,33.46Q718.18,306.35,712.16,377A169.41,169.41,0,0,1,684,457.48c-40.41,60.78-111,91-183.88,76.56-26.4-5.21-50.19-16.3-71.7-32.72a178.26,178.26,0,0,1-45.19-50.49,172.2,172.2,0,0,1-23.64-71.7c-2.95-28.68.5-56.46,11.1-83.19A175.9,175.9,0,0,1,423,223.82a178.54,178.54,0,0,1,76.81-37.17c1.12-.24,2.75-1.93,2.75-2.94,0-23-.14-46.07-.28-69.11C502.3,114.49,502.11,114.38,501.53,113.74ZM618.1,443.26c22.18-22.48,34.23-49.48,34.55-81.1.42-41.28-17.12-74.13-50.08-98.24C568,238.61,502.3,229.12,453.24,277.45c-46.33,45.64-46,118,.33,164.65C499.06,487.94,571.49,489.93,618.1,443.26Z"/><path class="cls-3" d="M243.72,409.43c11.46,0,22.92.11,34.38-.05,3.62-.05,5.09,1,5.06,4.85q-.26,25.32,0,50.62c0,3.87-1.38,4.88-5,4.86-22.44-.12-44.89.11-67.33-.19-5.07-.07-6.11,1.65-6,6.26.22,17,0,34.06.16,51.09,0,4.21-1.11,5.91-5.67,5.84-16.39-.25-32.79-.2-49.18,0-3.91.05-5.21-1.08-5.17-5.11.21-17.35,0-34.7.19-52.05.06-4.5-1.12-6-5.83-6-21.65.23-43.3,0-64.94.18-4.51,0-6.19-1.22-6.13-5.9q.33-24.35,0-48.7c0-4.36,1.39-5.79,5.8-5.75,21.81.18,43.62,0,65.42.16,4.4,0,5.76-1.29,5.68-5.7-.26-13.53-.39-27.07,0-40.59.17-5.2-2-7.08-6.47-7.9C124.37,352.72,111,347.4,98,340.87c-29.2-14.72-52.34-36.12-70-63.52a166.58,166.58,0,0,1-21.81-50A179.1,179.1,0,0,1,1.54,164,177.41,177.41,0,0,1,109,19.45a173.93,173.93,0,0,1,71.51-14C209,5.93,236,12.53,260.91,26.35c34.95,19.41,61.91,46.71,78.32,83.58a177.92,177.92,0,0,1-16,173.73,174.13,174.13,0,0,1-54,50.78c-7.17,4.34-14.43,8.89-22.24,11.72-12.07,4.36-24.61,7.51-37.05,10.76-3.69,1-5.31,2.11-5.23,6.21q.39,20.52,0,41.06c-.08,4.31,1.43,5.41,5.52,5.33C221.43,409.27,232.58,409.43,243.72,409.43ZM294.53,182.8C295.24,120,243.34,65.23,177.77,65.53c-64.12.29-117.75,52-117,118.45.68,62.84,50.06,115.64,116.85,115.84C243.84,300,294.73,246.55,294.53,182.8Z"/></g></g></g></g></svg>