<svg xmlns="http://www.w3.org/2000/svg" viewBox="0 0 727.25 551.31"><defs><style>.cls-1{isolation:isolate;}.cls-2,.cls-4{fill:#473575;}.cls-3{opacity:0.3;mix-blend-mode:multiply;}.cls-4{stroke:#473575;stroke-miterlimit:10;stroke-width:1.08px;}</style></defs><title>Asset 4@3x1</title><g class="cls-1"><g id="Layer_2" data-name="Layer 2"><g id="Layer_1-2" data-name="Layer 1"><rect class="cls-2" width="727.25" height="551.31"/><g class="cls-3"><path class="cls-4" d="M508.18,120.08c-13.35,13.35-26.48,26.53-39.68,39.66-7.63,7.58-6,8.27-14.07.16-10.56-10.59-21.09-21.23-31.77-31.7-2.85-2.79-3.21-4.7-.14-7.76Q478.38,64.87,534,9c3.11-3.13,4.88-2.58,7.64.25q20.64,21.23,41.57,42.16Q617.77,86,652.55,120.32c4.52,4.49,4.49,4.5.09,9-11.18,11.33-22.4,22.62-33.49,34-3,3.09-4.88,4.63-8.32-.13-3.56-4.93-8.75-8.65-13.09-13-8.37-8.47-16.65-17-25-25.54-.64-.65-1.38-1.21-1.74-1.52.11,22.6.22,45.33.34,68.38,7.68,2,16.95,4.1,26,6.89,17.74,5.47,33.91,14,49,24.91a167.67,167.67,0,0,1,35.1,33.47q43.35,55.93,37.34,126.55a169.63,169.63,0,0,1-28.17,80.53c-40.42,60.77-111,91-183.89,76.56-26.4-5.22-50.18-16.3-71.69-32.72a178.43,178.43,0,0,1-45.2-50.49,172.09,172.09,0,0,1-23.63-71.7c-3-28.69.5-56.47,11.09-83.19a175.87,175.87,0,0,1,52.35-72.13A178.59,178.59,0,0,1,506.47,193c1.12-.25,2.76-1.93,2.76-2.94,0-23-.14-46.08-.28-69.11C508.94,120.83,508.76,120.72,508.18,120.08ZM624.75,449.6c22.18-22.48,34.23-49.48,34.55-81.1.42-41.28-17.12-74.14-50.08-98.24C574.6,245,509,235.45,459.88,283.79c-46.32,45.64-46,118,.34,164.64C505.71,494.28,578.13,496.27,624.75,449.6Z"/><path class="cls-4" d="M250.37,415.77c11.46,0,22.92.1,34.38-.06,3.62,0,5.09,1,5.05,4.86q-.24,25.31,0,50.62c0,3.87-1.37,4.88-5,4.86-22.44-.12-44.89.1-67.33-.2-5.07-.07-6.11,1.66-6.05,6.27.22,17,0,34.06.16,51.09,0,4.21-1.11,5.91-5.67,5.84-16.39-.25-32.79-.21-49.19,0-3.91,0-5.21-1.08-5.16-5.11.2-17.35-.05-34.7.19-52,.06-4.51-1.13-6-5.84-6-21.64.23-43.29,0-64.94.18-4.5,0-6.18-1.21-6.12-5.89q.33-24.35,0-48.71c0-4.36,1.4-5.78,5.81-5.75,21.8.19,43.61,0,65.42.17,4.39,0,5.76-1.3,5.67-5.7-.26-13.53-.38-27.07.06-40.59.16-5.2-2-7.08-6.47-7.9-14.34-2.62-27.72-7.94-40.67-14.47-29.2-14.73-52.35-36.12-70.05-63.52a166.94,166.94,0,0,1-21.81-49.95,179.13,179.13,0,0,1-4.63-63.37A177.36,177.36,0,0,1,115.69,25.79a173.9,173.9,0,0,1,71.51-14c28.43.49,55.49,7.09,80.36,20.9,34.94,19.42,61.91,46.72,78.31,83.59A177.89,177.89,0,0,1,329.92,290a174.16,174.16,0,0,1-54,50.78c-7.16,4.34-14.43,8.89-22.23,11.71-12.08,4.37-24.61,7.52-37.06,10.77-3.68,1-5.3,2.1-5.23,6.2q.39,20.54,0,41.07c-.07,4.3,1.44,5.41,5.53,5.32C228.08,415.61,239.22,415.77,250.37,415.77Zm50.81-226.64C301.88,126.3,250,71.57,184.41,71.87c-64.11.28-117.75,52-117,118.44.68,62.84,50.07,115.64,116.85,115.85C250.48,306.36,301.37,252.89,301.18,189.13Z"/></g></g></g></g></svg>