<svg id="Layer_1" data-name="Layer 1" xmlns="http://www.w3.org/2000/svg" viewBox="0 0 192.66 131.83"><defs><style>.cls-1{opacity:0.89;}.cls-2{fill:#aea2cf;}</style></defs><title>Artboard 2@4x1</title><g class="cls-1"><path class="cls-2" d="M187.6,71a5.06,5.06,0,1,0-5.06-5.06h0A5.06,5.06,0,0,0,187.6,71Z"/><path class="cls-2" d="M172.35,71a5.06,5.06,0,1,0-5.06-5.06h0A5.06,5.06,0,0,0,172.35,71Z"/><path class="cls-2" d="M172.35,55.76a5.06,5.06,0,1,0-5.06-5.06h0A5.06,5.06,0,0,0,172.35,55.76Z"/><path class="cls-2" d="M157.17,40.55a5.06,5.06,0,1,0-5-5.07h0A5.07,5.07,0,0,0,157.17,40.55Z"/><path class="cls-2" d="M172.35,86.19a5.06,5.06,0,1,0-5.06-5.06h0A5.07,5.07,0,0,0,172.35,86.19Z"/><path class="cls-2" d="M157.17,71a5.06,5.06,0,1,0-5-5.07v0A5.06,5.06,0,0,0,157.17,71Z"/><path class="cls-2" d="M142,71a5.05,5.05,0,0,0,4.95-4,4.79,4.79,0,0,0,.11-1,5.06,5.06,0,0,0-10-1,4.79,4.79,0,0,0-.11,1A5.06,5.06,0,0,0,142,71Z"/><path class="cls-2" d="M157.17,55.76a5.06,5.06,0,1,0-5-5.07v0A5.06,5.06,0,0,0,157.17,55.76Z"/><path class="cls-2" d="M157.17,86.19a5.06,5.06,0,1,0-5-5.07h0A5.07,5.07,0,0,0,157.17,86.19Z"/><path class="cls-2" d="M157.17,101.4a5.06,5.06,0,1,0-5-5.07h0A5.07,5.07,0,0,0,157.17,101.4Z"/><path class="cls-2" d="M142,40.55a5.06,5.06,0,1,0-5.06-5.06h0A5.08,5.08,0,0,0,142,40.55Z"/><path class="cls-2" d="M142,55.76a5.06,5.06,0,0,0,4.95-4,4.79,4.79,0,0,0,.11-1,5.06,5.06,0,0,0-10-1,4.79,4.79,0,0,0-.11,1A5.06,5.06,0,0,0,142,55.76Z"/><path class="cls-2" d="M142,86.19a5.06,5.06,0,0,0,4.95-4,4.79,4.79,0,0,0,.11-1,5.06,5.06,0,0,0-10-1,4.79,4.79,0,0,0-.11,1A5.08,5.08,0,0,0,142,86.19Z"/><path class="cls-2" d="M126.75,71a5.06,5.06,0,1,0-5.06-5.06h0A5.06,5.06,0,0,0,126.75,71Z"/><path class="cls-2" d="M126.75,45.65a5.06,5.06,0,1,0,5.06,5.06h0A5.06,5.06,0,0,0,126.75,45.65Z"/><path class="cls-2" d="M126.75,86.18a5.06,5.06,0,1,0-5.06-5.06h0A5.06,5.06,0,0,0,126.75,86.18Z"/><path class="cls-2" d="M111.54,45.65a5.06,5.06,0,0,0-5.06,5.05h0a5.06,5.06,0,0,0,10.11,0h0A5.06,5.06,0,0,0,111.54,45.65Z"/><path class="cls-2" d="M111.54,71a5.06,5.06,0,0,0,5-5h0a5.06,5.06,0,0,0-10.11-.45,3.38,3.38,0,0,0,0,.45h0A5.06,5.06,0,0,0,111.54,71Z"/><path class="cls-2" d="M111.54,86.19a5.06,5.06,0,0,0,5-5.06h0a5.06,5.06,0,0,0-10.11-.45,3.38,3.38,0,0,0,0,.45h0A5.08,5.08,0,0,0,111.54,86.19Z"/><path class="cls-2" d="M96.35,71a5.06,5.06,0,1,0-5-5.07v0A5.06,5.06,0,0,0,96.35,71Z"/><path class="cls-2" d="M96.35,45.65a5.06,5.06,0,1,0,5.06,5.06h0A5.07,5.07,0,0,0,96.35,45.65Z"/><path class="cls-2" d="M96.35,86.19a5.06,5.06,0,1,0-5-5.07h0A5.07,5.07,0,0,0,96.35,86.19Z"/><path class="cls-2" d="M81.11,71a5.06,5.06,0,1,0-5-5.07v0A5.06,5.06,0,0,0,81.11,71Z"/><path class="cls-2" d="M81.11,55.76a5.06,5.06,0,1,0-5-5.07h0A5.07,5.07,0,0,0,81.11,55.76Z"/><path class="cls-2" d="M81.11,86.18a5.06,5.06,0,1,0-5-5.07v0A5.06,5.06,0,0,0,81.11,86.18Z"/><path class="cls-2" d="M65.9,71a5.06,5.06,0,1,0-5.06-5.06h0A5.06,5.06,0,0,0,65.9,71Z"/><path class="cls-2" d="M50.69,71a4.78,4.78,0,0,0,1-.1,5.06,5.06,0,0,0-1-10,4.78,4.78,0,0,0-1,.1,5.06,5.06,0,0,0,1,10Z"/><path class="cls-2" d="M65.9,55.76a5.06,5.06,0,1,0-5.06-5.06h0A5.07,5.07,0,0,0,65.9,55.76Z"/><path class="cls-2" d="M65.9,86.18a5.06,5.06,0,1,0-5.06-5.06h0a5,5,0,0,0,5,5.05Z"/><path class="cls-2" d="M50.69,55.76a5.56,5.56,0,0,0,1-.1,5.06,5.06,0,0,0-1-10,4.79,4.79,0,0,0-1,.11,5.06,5.06,0,0,0,1,10Z"/><path class="cls-2" d="M50.69,86.18a4.78,4.78,0,0,0,1-.1,5.06,5.06,0,0,0-1-10,5.56,5.56,0,0,0-1,.1,5.06,5.06,0,0,0,1,10Z"/><path class="cls-2" d="M35.48,71a5.06,5.06,0,1,0-5-5.07h0A5.07,5.07,0,0,0,35.48,71Z"/><path class="cls-2" d="M35.48,55.75a5.06,5.06,0,1,0-5-5.07v0A5.06,5.06,0,0,0,35.48,55.75Z"/><path class="cls-2" d="M35.48,86.18a5.06,5.06,0,1,0-5-5.07h0A5.07,5.07,0,0,0,35.48,86.18Z"/><path class="cls-2" d="M20.27,71a5.06,5.06,0,1,0-5-5.07h0A5.07,5.07,0,0,0,20.27,71Z"/><path class="cls-2" d="M5.06,71A5.06,5.06,0,1,0,0,65.91H0A5.07,5.07,0,0,0,5.06,71Z"/><path class="cls-2" d="M20.27,55.75a5.06,5.06,0,1,0-5-5.07v0A5.06,5.06,0,0,0,20.27,55.75Z"/><path class="cls-2" d="M20.27,86.18a5.06,5.06,0,1,0-5-5.07h0A5.07,5.07,0,0,0,20.27,86.18Z"/><path class="cls-2" d="M5.06,55.75A5.06,5.06,0,1,0,0,50.69H0a5,5,0,0,0,5,5Z"/><path class="cls-2" d="M5.06,86.18A5.06,5.06,0,1,0,0,81.12H0A5.07,5.07,0,0,0,5.06,86.18Z"/><path class="cls-2" d="M142,101.4a5.06,5.06,0,1,0-5.06-5.06h0A5.08,5.08,0,0,0,142,101.4Z"/><path class="cls-2" d="M126.75,40.55a5.06,5.06,0,1,0-5.06-5.06h0A5.07,5.07,0,0,0,126.75,40.55Z"/><path class="cls-2" d="M142,25.34a5.06,5.06,0,1,0-5.06-5.06h0A5.08,5.08,0,0,0,142,25.34Z"/><path class="cls-2" d="M126.75,25.34a5.06,5.06,0,1,0-5.06-5.06h0A5.07,5.07,0,0,0,126.75,25.34Z"/><path class="cls-2" d="M111.54,25.34a5.06,5.06,0,1,0-5.06-5.06h0A5.07,5.07,0,0,0,111.54,25.34Z"/><path class="cls-2" d="M126.75,10.12a5.06,5.06,0,1,0-5.06-5.06h0a5,5,0,0,0,5,5Z"/><path class="cls-2" d="M111.54,10.12a5.06,5.06,0,1,0-5.06-5.06h0A5.06,5.06,0,0,0,111.54,10.12Z"/><path class="cls-2" d="M96.35,10.12a5.06,5.06,0,1,0-5-5.07v0A5.06,5.06,0,0,0,96.35,10.12Z"/><path class="cls-2" d="M126.75,101.4a5.06,5.06,0,1,0-5.06-5.06h0A5.07,5.07,0,0,0,126.75,101.4Z"/><path class="cls-2" d="M142,116.61a5.06,5.06,0,1,0-5.06-5.06v.06A5.06,5.06,0,0,0,142,116.61Z"/><path class="cls-2" d="M126.75,116.61a5.06,5.06,0,1,0-5.06-5.06v.06A5.06,5.06,0,0,0,126.75,116.61Z"/><path class="cls-2" d="M126.75,131.83a5.06,5.06,0,1,0-5.06-5.06h0A5.07,5.07,0,0,0,126.75,131.83Z"/><path class="cls-2" d="M111.54,116.61a5.06,5.06,0,1,0-5.06-5.06v.06A5.06,5.06,0,0,0,111.54,116.61Z"/><path class="cls-2" d="M111.54,131.83a5.06,5.06,0,1,0-5.06-5.06h0A5.07,5.07,0,0,0,111.54,131.83Z"/><path class="cls-2" d="M96.35,131.83a5.06,5.06,0,1,0-5-5.07h0A5.07,5.07,0,0,0,96.35,131.83Z"/></g></svg>