<svg id="Layer_1" data-name="Layer 1" xmlns="http://www.w3.org/2000/svg" viewBox="0 0 266.08 252.12"><defs><style>.cls-1,.cls-2,.cls-3{fill:none;stroke-miterlimit:10;stroke-width:2.99px;}.cls-1,.cls-2{stroke:#473575;}.cls-2,.cls-3{stroke-linecap:round;}.cls-3{stroke:#344154;}.cls-4{fill:#fff;}.cls-5{fill:#aea2cf;}</style></defs><title>Artboard 53 copy@4x1</title><path class="cls-1" d="M215.68,39l-11.43-7.7A6.15,6.15,0,0,0,195.71,33L123.84,139.6a6.16,6.16,0,0,0,1.66,8.55l11.43,7.7a6.17,6.17,0,0,0,8.55-1.66L217.35,47.54A6.16,6.16,0,0,0,215.68,39Z"/><path class="cls-1" d="M67,223.89c35.9-.42,63.62-47.71,63.62-47.71a7.18,7.18,0,0,0-1.94-10L119,159.65a7.18,7.18,0,0,0-10,1.94Z"/><line class="cls-2" x1="137.68" y1="156.36" x2="130.31" y2="167.29"/><line class="cls-2" x1="117.48" y1="158.65" x2="124.85" y2="147.71"/><line class="cls-2" x1="152.68" y1="120.16" x2="188.51" y2="66.98"/><line class="cls-3" x1="105.69" y1="223.89" x2="122.82" y2="223.89"/><line class="cls-3" x1="144.35" y1="223.89" x2="161.47" y2="223.89"/><line class="cls-2" x1="183" y1="223.89" x2="200.13" y2="223.89"/><line class="cls-3" x1="221.66" y1="223.89" x2="238.78" y2="223.89"/><path class="cls-4" d="M125.57,199a141.6,141.6,0,0,1-10.49,11.19h123.7V199Z"/><path class="cls-5" d="M134,73.05H112.25A32,32,0,0,0,89.18,50.66V28.23H72.13V51.12A32,32,0,0,0,50.87,73.05H27.3v17H50.87A32,32,0,0,0,72.13,112v22.9H89.18V112.5a32,32,0,0,0,23.07-22.4H134Zm-52.44-6.3A14.83,14.83,0,1,1,66.73,81.58,14.84,14.84,0,0,1,81.56,66.75Z"/></svg>