<svg xmlns="http://www.w3.org/2000/svg" viewBox="0 0 796.72 931.05"><defs><style>.cls-1{isolation:isolate;}.cls-2{opacity:0.7;}.cls-3,.cls-4{mix-blend-mode:multiply;}.cls-4{opacity:0.8;}.cls-10,.cls-11,.cls-5,.cls-6,.cls-7,.cls-8,.cls-9{fill:#aea2cf;}.cls-5{opacity:0.1;}.cls-6{opacity:0.2;}.cls-7{opacity:0.3;}.cls-8{opacity:0.4;}.cls-9{opacity:0.5;}.cls-10{opacity:0.55;}.cls-11{opacity:0.6;}</style></defs><title>Artboard 49@4x1</title><g class="cls-1"><g id="Layer_1" data-name="Layer 1"><g class="cls-2"><g class="cls-3"><g class="cls-4"><rect class="cls-5" x="682.9" width="113.82" height="465.54" transform="matrix(-1, 0, 0, -1, 1479.62, 465.54)"/><rect class="cls-6" x="569.09" width="113.82" height="465.54" transform="matrix(-1, 0, 0, -1, 1251.99, 465.54)"/><rect class="cls-7" x="455.27" width="113.82" height="465.54" transform="matrix(-1, 0, 0, -1, 1024.35, 465.54)"/><rect class="cls-8" x="341.45" width="113.82" height="465.54" transform="matrix(-1, 0, 0, -1, 796.72, 465.54)"/><rect class="cls-9" x="227.64" width="113.82" height="465.54" transform="matrix(-1, 0, 0, -1, 569.09, 465.54)"/><rect class="cls-10" x="113.82" width="113.82" height="465.54" transform="matrix(-1, 0, 0, -1, 341.45, 465.54)"/><rect class="cls-11" width="113.82" height="465.54" transform="matrix(-1, 0, 0, -1, 113.82, 465.54)"/><rect class="cls-5" x="682.9" y="465.51" width="113.82" height="465.54" transform="matrix(-1, 0, 0, -1, 1479.62, 1396.55)"/><rect class="cls-6" x="569.09" y="465.51" width="113.82" height="465.54" transform="matrix(-1, 0, 0, -1, 1251.99, 1396.55)"/><rect class="cls-7" x="455.27" y="465.5" width="113.82" height="465.54" transform="matrix(-1, 0, 0, -1, 1024.35, 1396.55)"/><rect class="cls-8" x="341.45" y="465.5" width="113.82" height="465.54" transform="matrix(-1, 0, 0, -1, 796.72, 1396.55)"/><rect class="cls-9" x="227.63" y="465.5" width="113.82" height="465.54" transform="matrix(-1, 0, 0, -1, 569.08, 1396.55)"/><rect class="cls-10" x="113.82" y="465.5" width="113.82" height="465.54" transform="matrix(-1, 0, 0, -1, 341.45, 1396.55)"/><rect class="cls-11" y="465.5" width="113.82" height="465.54" transform="matrix(-1, 0, 0, -1, 113.82, 1396.55)"/></g></g></g></g></g></svg>