<svg id="Layer_1" data-name="Layer 1" xmlns="http://www.w3.org/2000/svg" viewBox="0 0 266.08 252.12"><defs><style>.cls-1{fill:#fff;}.cls-2,.cls-3{fill:none;stroke:#473575;stroke-miterlimit:10;stroke-width:3.02px;}.cls-3{stroke-linecap:round;}.cls-4{fill:#aea2cf;}</style></defs><title>Artboard 53@4x1</title><path class="cls-1" d="M24,142.31C21,123.69,43.4,108.86,60,124.86,41.16,83-21.6,118.45,12.57,161.54c12.79,16.41,31.29,23.69,47,48.74C59.29,172.49,31.63,168.05,24,142.31Z"/><path class="cls-2" d="M111.68,155.57C135.32,111,75,88.26,60,124.86,41.16,83-21.6,118.45,12.57,161.54c12.79,16.41,31.29,23.69,47,48.74,3.06-6.75,11.86-15.53,18.4-21.46"/><path class="cls-2" d="M95.33,161.78c.21-14.6-22.71-14.6-22.5,0C72.62,176.37,95.55,176.37,95.33,161.78Z"/><path class="cls-3" d="M82.53,140.45a19.78,19.78,0,0,0-19.77,19.78"/><path class="cls-2" d="M100.44,176.76c18.47,18.44,51.05,8.21,51.23-19.12v-54.2"/><path class="cls-2" d="M176.73,50.19c-2.67-.4-5.13-2.53-4.32-5.44h0c1.08-4.39,6.18-2.78,9.18-1.82,13.36,5.62,2.3,64.41-29.91,60.5-32.23,3.91-43.28-54.88-29.93-60.51,3.06-.93,8.08-2.57,9.18,1.83h0c.82,2.91-1.64,5-4.32,5.44"/><path class="cls-4" d="M263.52,154.5H245a27.26,27.26,0,0,0-19.68-19.1V116.27H210.75V135.8a27.3,27.3,0,0,0-18.13,18.7h-20.1v14.55h20.1a27.28,27.28,0,0,0,18.13,18.7v19.53h14.54V188.15A27.26,27.26,0,0,0,245,169.05h18.55Zm-44.73-5.37c16.41-.23,16.41,25.52,0,25.3C202.39,174.65,202.39,148.9,218.79,149.13Z"/></svg>