<svg xmlns="http://www.w3.org/2000/svg" viewBox="0 0 1920 782.53"><defs><style>.cls-1{isolation:isolate;}.cls-2,.cls-6{opacity:0.2;}.cls-2,.cls-3,.cls-4{mix-blend-mode:multiply;}.cls-4{opacity:0.8;}.cls-10,.cls-11,.cls-5,.cls-6,.cls-7,.cls-8,.cls-9{fill:#aea2cf;}.cls-5{opacity:0.1;}.cls-7{opacity:0.3;}.cls-8{opacity:0.4;}.cls-9{opacity:0.5;}.cls-10{opacity:0.55;}.cls-11{opacity:0.6;}</style></defs><title>Asset 4@3x1</title><g class="cls-1"><g id="Layer_2" data-name="Layer 2"><g id="Layer_1-2" data-name="Layer 1"><g class="cls-2"><g class="cls-3"><g class="cls-4"><rect class="cls-5" x="548.57" width="91.43" height="260.84" transform="translate(1188.57 260.84) rotate(180)"/><rect class="cls-6" x="457.14" width="91.43" height="260.84" transform="translate(1005.71 260.84) rotate(180)"/><rect class="cls-7" x="365.71" width="91.43" height="260.84" transform="translate(822.86 260.84) rotate(180)"/><rect class="cls-8" x="274.29" width="91.43" height="260.84" transform="translate(640 260.84) rotate(180)"/><rect class="cls-9" x="182.86" width="91.43" height="260.84" transform="translate(457.14 260.84) rotate(180)"/><rect class="cls-10" x="91.43" width="91.43" height="260.84" transform="translate(274.29 260.84) rotate(180)"/><rect class="cls-11" width="91.43" height="260.84" transform="translate(91.43 260.84) rotate(180)"/><rect class="cls-5" y="260.84" width="91.43" height="260.84"/><rect class="cls-6" x="91.43" y="260.84" width="91.43" height="260.84"/><rect class="cls-7" x="182.86" y="260.84" width="91.43" height="260.84"/><rect class="cls-8" x="274.29" y="260.84" width="91.43" height="260.84"/><rect class="cls-9" x="365.71" y="260.84" width="91.43" height="260.84"/><rect class="cls-10" x="457.14" y="260.84" width="91.43" height="260.84"/><rect class="cls-11" x="548.57" y="260.84" width="91.43" height="260.84"/><rect class="cls-5" x="548.57" y="521.69" width="91.43" height="260.84" transform="translate(1188.57 1304.22) rotate(180)"/><rect class="cls-6" x="457.14" y="521.69" width="91.43" height="260.84" transform="translate(1005.71 1304.22) rotate(180)"/><rect class="cls-7" x="365.71" y="521.69" width="91.43" height="260.84" transform="translate(822.86 1304.22) rotate(180)"/><rect class="cls-8" x="274.29" y="521.69" width="91.43" height="260.84" transform="translate(640 1304.22) rotate(180)"/><rect class="cls-9" x="182.86" y="521.69" width="91.43" height="260.84" transform="translate(457.14 1304.22) rotate(180)"/><rect class="cls-10" x="91.43" y="521.69" width="91.43" height="260.84" transform="translate(274.29 1304.22) rotate(180)"/><rect class="cls-11" y="521.69" width="91.43" height="260.84" transform="translate(91.43 1304.22) rotate(180)"/></g><g class="cls-4"><rect class="cls-5" x="1188.57" width="91.43" height="260.84" transform="translate(2468.57 260.84) rotate(180)"/><rect class="cls-6" x="1097.14" width="91.43" height="260.84" transform="translate(2285.71 260.84) rotate(180)"/><rect class="cls-7" x="1005.71" width="91.43" height="260.84" transform="translate(2102.86 260.84) rotate(180)"/><rect class="cls-8" x="914.29" width="91.43" height="260.84" transform="translate(1920 260.84) rotate(180)"/><rect class="cls-9" x="822.86" width="91.43" height="260.84" transform="translate(1737.14 260.84) rotate(180)"/><rect class="cls-10" x="731.43" width="91.43" height="260.84" transform="translate(1554.29 260.84) rotate(180)"/><rect class="cls-11" x="640" width="91.43" height="260.84" transform="translate(1371.43 260.84) rotate(180)"/><rect class="cls-5" x="640" y="260.84" width="91.43" height="260.84"/><rect class="cls-6" x="731.43" y="260.84" width="91.43" height="260.84"/><rect class="cls-7" x="822.86" y="260.84" width="91.43" height="260.84"/><rect class="cls-8" x="914.29" y="260.84" width="91.43" height="260.84"/><rect class="cls-9" x="1005.71" y="260.84" width="91.43" height="260.84"/><rect class="cls-10" x="1097.14" y="260.84" width="91.43" height="260.84"/><rect class="cls-11" x="1188.57" y="260.84" width="91.43" height="260.84"/><rect class="cls-5" x="1188.57" y="521.69" width="91.43" height="260.84" transform="translate(2468.57 1304.22) rotate(180)"/><rect class="cls-6" x="1097.14" y="521.69" width="91.43" height="260.84" transform="translate(2285.71 1304.22) rotate(180)"/><rect class="cls-7" x="1005.71" y="521.69" width="91.43" height="260.84" transform="translate(2102.86 1304.22) rotate(180)"/><rect class="cls-8" x="914.29" y="521.69" width="91.43" height="260.84" transform="translate(1920 1304.22) rotate(180)"/><rect class="cls-9" x="822.86" y="521.69" width="91.43" height="260.84" transform="translate(1737.14 1304.22) rotate(180)"/><rect class="cls-10" x="731.43" y="521.69" width="91.43" height="260.84" transform="translate(1554.29 1304.22) rotate(180)"/><rect class="cls-11" x="640" y="521.69" width="91.43" height="260.84" transform="translate(1371.43 1304.22) rotate(180)"/></g><g class="cls-4"><rect class="cls-5" x="1828.57" width="91.43" height="260.84" transform="translate(3748.57 260.84) rotate(180)"/><rect class="cls-6" x="1737.14" width="91.43" height="260.84" transform="translate(3565.71 260.84) rotate(180)"/><rect class="cls-7" x="1645.71" width="91.43" height="260.84" transform="translate(3382.86 260.84) rotate(180)"/><rect class="cls-8" x="1554.29" width="91.43" height="260.84" transform="translate(3200 260.84) rotate(180)"/><rect class="cls-9" x="1462.86" width="91.43" height="260.84" transform="translate(3017.14 260.84) rotate(180)"/><rect class="cls-10" x="1371.43" width="91.43" height="260.84" transform="translate(2834.29 260.84) rotate(180)"/><rect class="cls-11" x="1280" width="91.43" height="260.84" transform="translate(2651.43 260.84) rotate(180)"/><rect class="cls-5" x="1280" y="260.84" width="91.43" height="260.84"/><rect class="cls-6" x="1371.43" y="260.84" width="91.43" height="260.84"/><rect class="cls-7" x="1462.86" y="260.84" width="91.43" height="260.84"/><rect class="cls-8" x="1554.29" y="260.84" width="91.43" height="260.84"/><rect class="cls-9" x="1645.71" y="260.84" width="91.43" height="260.84"/><rect class="cls-10" x="1737.14" y="260.84" width="91.43" height="260.84"/><rect class="cls-11" x="1828.57" y="260.84" width="91.43" height="260.84"/><rect class="cls-5" x="1828.57" y="521.69" width="91.43" height="260.84" transform="translate(3748.57 1304.22) rotate(180)"/><rect class="cls-6" x="1737.14" y="521.69" width="91.43" height="260.84" transform="translate(3565.71 1304.22) rotate(180)"/><rect class="cls-7" x="1645.71" y="521.69" width="91.43" height="260.84" transform="translate(3382.86 1304.22) rotate(180)"/><rect class="cls-8" x="1554.29" y="521.69" width="91.43" height="260.84" transform="translate(3200 1304.22) rotate(180)"/><rect class="cls-9" x="1462.86" y="521.69" width="91.43" height="260.84" transform="translate(3017.14 1304.22) rotate(180)"/><rect class="cls-10" x="1371.43" y="521.69" width="91.43" height="260.84" transform="translate(2834.29 1304.22) rotate(180)"/><rect class="cls-11" x="1280" y="521.69" width="91.43" height="260.84" transform="translate(2651.43 1304.22) rotate(180)"/></g></g></g></g></g></g></svg>