<svg xmlns="http://www.w3.org/2000/svg" viewBox="0 0 272.32 276.3"><defs><style>.cls-1{isolation:isolate;}.cls-2{fill:#5b5081;}.cls-2,.cls-3,.cls-5,.cls-6,.cls-7,.cls-8{fill-rule:evenodd;}.cls-3{fill:#aea2cf;}.cls-3,.cls-8{opacity:0.5;mix-blend-mode:multiply;}.cls-4,.cls-5{fill:#fff;}.cls-6{fill:#e6e7e8;}.cls-7,.cls-8{fill:#473575;}.cls-9{fill:#17090c;}</style></defs><title>Asset 6@3x1</title><g class="cls-1"><g id="Layer_2" data-name="Layer 2"><g id="Layer_1-2" data-name="Layer 1"><path class="cls-2" d="M136.16,270.41c173.8-3.19,173.78-261.35,0-264.53C-37.64,9.1-37.61,267.22,136.16,270.41Z"/><path class="cls-3" d="M240.41,219.41c-121,144.7-328.25-45.91-193.64-178.5C-51.18,167.69,122,327.35,240.41,219.41Z"/><path class="cls-4" d="M136.16,276.3C-45.4,273-45.37,3.23,136.17,0,317.72,3.26,317.69,273.06,136.16,276.3Zm0-264.53c-166.09,3-166.06,249.81,0,252.76C302.24,261.55,302.22,14.72,136.16,11.77Z"/><path class="cls-4" d="M200.88,48.9c-13-5.95-25.18-14.67-39.5-17.26a5.88,5.88,0,0,1-4.31-7.11c3.69-13,39.72,8.86,47.14,13.63C209,41.19,206.44,49.12,200.88,48.9Z"/><path class="cls-4" d="M237.05,86.45c-3.58.19-5.35-3.28-7.09-5.91-2.91-3.37-5.24-8.74-.52-11.69,4.53-2.83,8.17,1.24,10.2,5C243.9,77.88,244.3,86.12,237.05,86.45Z"/><path class="cls-5" d="M203.7,130.86c3.94-30.9-31.69-22.07-50.16-23.26v-42a6.58,6.58,0,0,0-6.73-6.44c-3.67-.09-9.19-.5-10.37,3.92L114.3,113.77l-15.13,9V192C194.21,187.66,185.67,214,203.7,130.86Z"/><path class="cls-6" d="M203.7,130.86c2.24-8.73-2.73-18.06-10.65-21.57,7.58,8.74-8.31,50.39-9,60.24a18.93,18.93,0,0,1-18.49,14.29H99.17V192C194.21,187.66,185.67,214,203.7,130.86Z"/><path class="cls-7" d="M93.57,197.56H73.67a5.63,5.63,0,0,1-5.6-5.61V122.74a5.62,5.62,0,0,1,5.6-5.61h19.9a5.62,5.62,0,0,1,5.6,5.61V192a5.63,5.63,0,0,1-5.6,5.61Z"/><path class="cls-8" d="M93.57,197.56c-23.46-1.33-26.57,6.71-25.5-19.06a5.57,5.57,0,0,0,5.6,5.32h19.9a5.57,5.57,0,0,0,5.6-5.32c-.73,4.93,2.93,19.2-5.6,19.06Z"/><path class="cls-9" d="M174.27,197.83H99.17c-7.61.08-7.66-11.85,0-11.76h75.1a13,13,0,0,0,12.8-10.16L198,129.52c2.13-7.72-4.67-16.31-12.49-16H153.53a5.89,5.89,0,0,1-5.89-5.89v-42c-.06-1.21-4.69-.27-5.32-.56-1.66,1.82-22.24,54.24-25,53.82l-15.14,9c-6.52,4-12.61-6.34-6-10.13l13.5-8,21.38-49c1.45-4.4,5.84-7.45,11.27-7.45,8.18-1.17,17.22,3.3,17.1,12.33v36.15h26.06c15.3-.36,27.92,15.53,23.94,30.51l-10.93,46.5A24.81,24.81,0,0,1,174.27,197.83Z"/><path class="cls-9" d="M93.57,203.44c-9.72-.73-31.46,4.24-31.39-11.49V122.74c-.09-15.69,21.7-10.8,31.39-11.49a11.5,11.5,0,0,1,11.49,11.49V192A11.51,11.51,0,0,1,93.57,203.44Zm-.29-80.7L73.67,123,74,192l19.33-.28Z"/></g></g></g></svg>