<svg id="Layer_1" data-name="Layer 1" xmlns="http://www.w3.org/2000/svg" xmlns:xlink="http://www.w3.org/1999/xlink" viewBox="0 0 118.38 118.38"><defs><style>.cls-1,.cls-4{fill:none;}.cls-2{fill:#aea2cf;}.cls-3{clip-path:url(#clip-path);}.cls-4{stroke:#473575;stroke-linecap:round;stroke-linejoin:round;stroke-width:2.41px;}.cls-5{fill:#473575;}</style><clipPath id="clip-path"><circle class="cls-1" cx="59.19" cy="59.19" r="59.19"/></clipPath></defs><title>Artboard 48 copy 4@4x1</title><circle class="cls-2" cx="59.19" cy="59.19" r="59.19"/><g class="cls-3"><path class="cls-4" d="M15.89,18.6c.72,11.65,3.37,23.27,2.64,33.53C18,58.9,15.28,62.08,13.79,71.2c-1.4,8.6,4.41,15.16,15.82,14.63,9.72-.45,15.5-2.82,25.79-3,6.44-.09,17.26,2.78,29.12,3,4.57.07,7.34-1.26,9.94-1,14.87,1.67,14.08-7,12.19-7.85-.63-.3-3.43-.09-5.74-.51-1.38-.26-4.62-1.89-5.89-2.15a53.21,53.21,0,0,1-11-3.18c-3.6-1.48-11-5.92-17.9-10.29C61.77,58.09,52.91,53.76,51,50.1,48.83,46,48.25,10.94,48.65-3.34"/><path class="cls-4" d="M33.27,54.52c0,8.59,3.37,10.46,8.48,10.89"/><path class="cls-4" d="M104.68,77.36c-.55-.26-2.79-.12-4.85-.39.61,2.63,1.5,3.93,5.81,2.73A2.52,2.52,0,0,0,104.68,77.36Z"/><path class="cls-4" d="M104.68,77.36c-.55-.26-2.79-.12-4.85-.39.61,2.63,1.5,3.93,5.81,2.73A2.52,2.52,0,0,0,104.68,77.36Z"/></g><path class="cls-5" d="M65.73,91.12a1.26,1.26,0,0,1,1.65.68L73,105.22a1.27,1.27,0,0,1-2.34,1L65,92.77A1.27,1.27,0,0,1,65.73,91.12Z"/><path class="cls-5" d="M54.84,92.56a1.29,1.29,0,0,1,.65-.09,1.27,1.27,0,0,1,1.09,1.42l-1.89,14.4a1.25,1.25,0,0,1-1.42,1.09A1.26,1.26,0,0,1,52.18,108l1.89-14.4A1.27,1.27,0,0,1,54.84,92.56Z"/><path class="cls-5" d="M44.69,88.36a1.27,1.27,0,0,1,1.49,1.94l-8.84,11.53a1.27,1.27,0,0,1-2-1.54l8.84-11.53A1.35,1.35,0,0,1,44.69,88.36Z"/></svg>