<svg id="Layer_1" data-name="Layer 1" xmlns="http://www.w3.org/2000/svg" xmlns:xlink="http://www.w3.org/1999/xlink" viewBox="0 0 118.38 118.38"><defs><style>.cls-1,.cls-5{fill:none;}.cls-2{fill:#aea2cf;}.cls-3{fill:#473575;}.cls-4{clip-path:url(#clip-path);}.cls-5{stroke:#473575;stroke-linecap:round;stroke-linejoin:round;stroke-width:2.1px;}</style><clipPath id="clip-path"><circle class="cls-1" cx="59.19" cy="59.19" r="59.19"/></clipPath></defs><title>Artboard 48 copy 3@4x1</title><circle class="cls-2" cx="59.19" cy="59.19" r="59.19"/><path class="cls-3" d="M60.13,99.64a43.26,43.26,0,0,1,3.11,7.57c.67,2.46.14,3.92-.42,4.71a3,3,0,0,1-4.73.35c-.67-.7-1.41-2.06-1.1-4.59a42.92,42.92,0,0,1,2-8,.63.63,0,0,1,.55-.42.64.64,0,0,1,.57.27ZM59,111.39a1.75,1.75,0,0,0,2.79-.21c.4-.56.77-1.65.23-3.63a38.72,38.72,0,0,0-2.33-6,37.67,37.67,0,0,0-1.44,6.23,4.68,4.68,0,0,0,.52,3.28C58.85,111.22,58.93,111.31,59,111.39Z"/><path class="cls-3" d="M70.9,101.05a2.83,2.83,0,0,1-2.76,3.47c-.89,0-2.28-.34-3.81-2.12a39.56,39.56,0,0,1-4.12-6.26.64.64,0,0,1,.72-.91,39,39,0,0,1,7,2.59A7.65,7.65,0,0,1,69.65,99,4,4,0,0,1,70.9,101.05Zm-5.6.53c1.2,1.4,2.2,1.68,2.82,1.67a1.62,1.62,0,0,0,1.25-.58,1.64,1.64,0,0,0,.29-1.35c-.13-.61-.63-1.52-2.28-2.37a34.51,34.51,0,0,0-5.3-2.07A33.89,33.89,0,0,0,65.3,101.58Z"/><g class="cls-4"><path class="cls-5" d="M55.64,22.54C53.65,29.11,35.8,47.11,37.79,49S63,22.09,73.67,18.57"/><path class="cls-5" d="M88.71,30.46c-4.18,9.29-34.53,28.61-32.86,31.36C57.33,64.25,81.22,42,89.85,40"/><path class="cls-5" d="M19.14,107.52s6.09-5.55,14-5.35c6.44.16,20-4.56,25.83-10.51,2.66-2.72,8.26-4.86,12.63-6.4"/><path class="cls-5" d="M78,81.05c-.18-.93-1.21-2-4.66-2.87-6-1.59-19.57,4.31-19.59,3.64s6-9.24,7.35-10.75C64.89,66.92,87.27,52.29,92,44.3h0"/><path class="cls-5" d="M85.76,26.6h0C76.15,29.13,50,55.73,47.67,54c-2.59-2,26.8-24.5,30.09-32.66h0"/><path class="cls-5" d="M52.81,20.14c-7.93,2.08-24,25.67-23.69,25.31"/><path class="cls-5" d="M29.15,45.42s0,0,0,0c-6.7,8.47-14.27,15.4-20.56,29.36C6.91,78.47,0,87,0,87"/><path class="cls-5" d="M87.8,24.91l-4.4,3.64a2.44,2.44,0,0,0-.52,3.37h0a2.44,2.44,0,0,0,3.4.32l4.61-3.37C93.16,27.13,89.9,23.27,87.8,24.91Z"/><path class="cls-5" d="M75.71,16.68l-4.09,3.77a2.38,2.38,0,0,0-.32,3.31h0a2.38,2.38,0,0,0,3.32.14l4.3-3.54C81,18.56,77.67,15,75.71,16.68Z"/><path class="cls-5" d="M91.36,38.88,86.89,42.2a2.37,2.37,0,0,0-.68,3.25h0a2.38,2.38,0,0,0,3.29.49l4.66-3C96.46,41.33,93.49,37.4,91.36,38.88Z"/><path class="cls-5" d="M78.08,81,72.74,82.6c-1.29.37-2.17,1.24-2,2h0c.2.71,1.39,1,2.69.68l5.39-1.39C81.54,83.12,80.58,80.34,78.08,81Z"/><path class="cls-5" d="M53.67,19.15l-2.82,3.24a1.85,1.85,0,0,0,0,2.58h0a1.84,1.84,0,0,0,2.56-.18l3-3.08C57.93,20.14,55,17.67,53.67,19.15Z"/></g></svg>