<svg id="Layer_1" data-name="Layer 1" xmlns="http://www.w3.org/2000/svg" xmlns:xlink="http://www.w3.org/1999/xlink" viewBox="0 0 118.38 118.38"><defs><style>.cls-1,.cls-4{fill:none;}.cls-2{fill:#aea2cf;}.cls-3{clip-path:url(#clip-path);}.cls-4{stroke:#473575;stroke-linecap:round;stroke-linejoin:round;stroke-width:2px;}.cls-5{fill:#473575;}</style><clipPath id="clip-path"><circle class="cls-1" cx="59.24" cy="59.19" r="59.19"/></clipPath></defs><title>Artboard 48 copy 2@4x1</title><circle class="cls-2" cx="59.24" cy="59.19" r="59.19"/><g class="cls-3"><path class="cls-4" d="M-.41,133.23,6.5,105a13.5,13.5,0,0,1,9.79-9.86c7-1.77,16.48-3.64,22.71-5.45a7.77,7.77,0,0,0,5.6-7.46V75.08l-1-1.07A19.55,19.55,0,0,1,38.9,63.87s-2.54,0-2.91-2.29c-1.13-7.06-2-7.37-2-10.47s1.15-3.84,2.54-3a19.17,19.17,0,0,1-.71-4.75c-.47-16.69,10.51-27.63,23.38-27.63S83.09,26.63,82.62,43.32a18.83,18.83,0,0,1-.7,4.75c1.38-.8,2.53-.06,2.53,3s-.82,3.41-2,10.47c-.37,2.31-2.91,2.29-2.91,2.29A19.62,19.62,0,0,1,74.84,74l-1,1.07v7.18a7.77,7.77,0,0,0,5.6,7.46c6.24,1.81,15.76,3.68,22.71,5.45A13.48,13.48,0,0,1,112,105l6.91,28.2"/></g><path class="cls-5" d="M72.47,44.17a2.87,2.87,0,0,1-2.19-1.06c-.58-.7-1.17-2-.71-4.4A42.36,42.36,0,0,1,72,31.2a.46.46,0,0,1,.43-.28.49.49,0,0,1,.44.28,41.81,41.81,0,0,1,2.46,7.51c.46,2.37-.13,3.7-.71,4.4A2.84,2.84,0,0,1,72.47,44.17Zm0-11.55a39.11,39.11,0,0,0-2,6.27c-.39,2,.07,3.07.51,3.61a1.83,1.83,0,0,0,2.92,0c.45-.54.9-1.61.51-3.61A37.18,37.18,0,0,0,72.47,32.62Z"/></svg>