<svg xmlns="http://www.w3.org/2000/svg" viewBox="0 0 20.98 20.98"><defs><style>.cls-1{fill:#473575;}</style></defs><title>Asset 2@3x1</title><g id="Layer_2" data-name="Layer 2"><g id="Layer_1-2" data-name="Layer 1"><rect class="cls-1" x="0.88" y="9.69" width="5.23" height="1.6"/><rect class="cls-1" y="8.81" width="6.99" height="3.35"/><rect class="cls-1" x="14.87" y="9.69" width="5.23" height="1.6"/><rect class="cls-1" x="13.99" y="8.81" width="6.99" height="3.35"/><rect class="cls-1" x="9.69" y="14.87" width="1.6" height="5.23"/><rect class="cls-1" x="8.81" y="13.99" width="3.35" height="6.99"/><path class="cls-1" d="M16.06,10.49A5.39,5.39,0,1,1,10.67,5.1,5.4,5.4,0,0,1,16.06,10.49Zm-9.18,0A3.79,3.79,0,1,0,10.67,6.7,3.79,3.79,0,0,0,6.88,10.49Z"/><path class="cls-1" d="M10.67,16.76a6.27,6.27,0,1,1,6.27-6.27A6.27,6.27,0,0,1,10.67,16.76Zm0-9.19a2.92,2.92,0,1,0,2.91,2.92A2.92,2.92,0,0,0,10.67,7.57Z"/><rect class="cls-1" x="9.69" y="0.88" width="1.6" height="5.23"/><rect class="cls-1" x="8.81" width="3.35" height="6.99"/></g></g></svg>