<svg xmlns="http://www.w3.org/2000/svg" viewBox="0 0 1905.26 763.25"><defs><style>.cls-1{isolation:isolate;}.cls-11,.cls-2{opacity:0.5;}.cls-10,.cls-11,.cls-12,.cls-13,.cls-3,.cls-7,.cls-8,.cls-9{fill:#aea2cf;}.cls-4,.cls-8{opacity:0.2;}.cls-4,.cls-5,.cls-6{mix-blend-mode:multiply;}.cls-6{opacity:0.8;}.cls-7{opacity:0.1;}.cls-9{opacity:0.3;}.cls-10{opacity:0.4;}.cls-12{opacity:0.55;}.cls-13{opacity:0.6;}</style></defs><title>Artboard 52@4x1</title><g class="cls-1"><g id="Layer_1" data-name="Layer 1"><g class="cls-2"><rect class="cls-3" x="-5.9" y="-9.37" width="1920" height="782.53"/></g><g class="cls-4"><g class="cls-5"><g class="cls-6"><rect class="cls-7" x="542.67" y="-9.37" width="91.43" height="260.84" transform="translate(1176.76 242.1) rotate(180)"/><rect class="cls-8" x="451.24" y="-9.37" width="91.43" height="260.84" transform="translate(993.91 242.1) rotate(180)"/><rect class="cls-9" x="359.81" y="-9.37" width="91.43" height="260.84" transform="translate(811.05 242.1) rotate(180)"/><rect class="cls-10" x="268.38" y="-9.37" width="91.43" height="260.84" transform="translate(628.19 242.1) rotate(180)"/><rect class="cls-11" x="176.95" y="-9.37" width="91.43" height="260.84" transform="translate(445.34 242.1) rotate(180)"/><rect class="cls-12" x="85.52" y="-9.37" width="91.43" height="260.84" transform="translate(262.48 242.1) rotate(180)"/><rect class="cls-13" x="-5.9" y="-9.37" width="91.43" height="260.84" transform="translate(79.62 242.1) rotate(180)"/><rect class="cls-7" x="-5.9" y="251.47" width="91.43" height="260.84"/><rect class="cls-8" x="85.52" y="251.47" width="91.43" height="260.84"/><rect class="cls-9" x="176.95" y="251.47" width="91.43" height="260.84"/><rect class="cls-10" x="268.38" y="251.47" width="91.43" height="260.84"/><rect class="cls-11" x="359.81" y="251.47" width="91.43" height="260.84"/><rect class="cls-12" x="451.24" y="251.47" width="91.43" height="260.84"/><rect class="cls-13" x="542.67" y="251.47" width="91.43" height="260.84"/><rect class="cls-7" x="542.67" y="512.32" width="91.43" height="260.84" transform="translate(1176.76 1285.48) rotate(180)"/><rect class="cls-8" x="451.24" y="512.32" width="91.43" height="260.84" transform="translate(993.91 1285.48) rotate(180)"/><rect class="cls-9" x="359.81" y="512.32" width="91.43" height="260.84" transform="translate(811.05 1285.48) rotate(180)"/><rect class="cls-10" x="268.38" y="512.32" width="91.43" height="260.84" transform="translate(628.19 1285.48) rotate(180)"/><rect class="cls-11" x="176.95" y="512.32" width="91.43" height="260.84" transform="translate(445.34 1285.48) rotate(180)"/><rect class="cls-12" x="85.52" y="512.32" width="91.43" height="260.84" transform="translate(262.48 1285.48) rotate(180)"/><rect class="cls-13" x="-5.9" y="512.32" width="91.43" height="260.84" transform="translate(79.62 1285.48) rotate(180)"/></g><g class="cls-6"><rect class="cls-7" x="1182.67" y="-9.37" width="91.43" height="260.84" transform="translate(2456.76 242.1) rotate(180)"/><rect class="cls-8" x="1091.24" y="-9.37" width="91.43" height="260.84" transform="translate(2273.91 242.1) rotate(180)"/><rect class="cls-9" x="999.81" y="-9.37" width="91.43" height="260.84" transform="translate(2091.05 242.1) rotate(180)"/><rect class="cls-10" x="908.38" y="-9.37" width="91.43" height="260.84" transform="translate(1908.19 242.1) rotate(180)"/><rect class="cls-11" x="816.95" y="-9.37" width="91.43" height="260.84" transform="translate(1725.34 242.1) rotate(180)"/><rect class="cls-12" x="725.52" y="-9.37" width="91.43" height="260.84" transform="translate(1542.48 242.1) rotate(180)"/><rect class="cls-13" x="634.1" y="-9.37" width="91.43" height="260.84" transform="translate(1359.62 242.1) rotate(180)"/><rect class="cls-7" x="634.1" y="251.47" width="91.43" height="260.84"/><rect class="cls-8" x="725.52" y="251.47" width="91.43" height="260.84"/><rect class="cls-9" x="816.95" y="251.47" width="91.43" height="260.84"/><rect class="cls-10" x="908.38" y="251.47" width="91.43" height="260.84"/><rect class="cls-11" x="999.81" y="251.47" width="91.43" height="260.84"/><rect class="cls-12" x="1091.24" y="251.47" width="91.43" height="260.84"/><rect class="cls-13" x="1182.67" y="251.47" width="91.43" height="260.84"/><rect class="cls-7" x="1182.67" y="512.32" width="91.43" height="260.84" transform="translate(2456.76 1285.48) rotate(180)"/><rect class="cls-8" x="1091.24" y="512.32" width="91.43" height="260.84" transform="translate(2273.91 1285.48) rotate(180)"/><rect class="cls-9" x="999.81" y="512.32" width="91.43" height="260.84" transform="translate(2091.05 1285.48) rotate(180)"/><rect class="cls-10" x="908.38" y="512.32" width="91.43" height="260.84" transform="translate(1908.19 1285.48) rotate(180)"/><rect class="cls-11" x="816.95" y="512.32" width="91.43" height="260.84" transform="translate(1725.34 1285.48) rotate(180)"/><rect class="cls-12" x="725.52" y="512.32" width="91.43" height="260.84" transform="translate(1542.48 1285.48) rotate(180)"/><rect class="cls-13" x="634.1" y="512.32" width="91.43" height="260.84" transform="translate(1359.62 1285.48) rotate(180)"/></g><g class="cls-6"><rect class="cls-7" x="1822.67" y="-9.37" width="91.43" height="260.84" transform="translate(3736.76 242.1) rotate(180)"/><rect class="cls-8" x="1731.24" y="-9.37" width="91.43" height="260.84" transform="translate(3553.91 242.1) rotate(180)"/><rect class="cls-9" x="1639.81" y="-9.37" width="91.43" height="260.84" transform="translate(3371.05 242.1) rotate(180)"/><rect class="cls-10" x="1548.38" y="-9.37" width="91.43" height="260.84" transform="translate(3188.19 242.1) rotate(180)"/><rect class="cls-11" x="1456.95" y="-9.37" width="91.43" height="260.84" transform="translate(3005.34 242.1) rotate(180)"/><rect class="cls-12" x="1365.52" y="-9.37" width="91.43" height="260.84" transform="translate(2822.48 242.1) rotate(180)"/><rect class="cls-13" x="1274.1" y="-9.37" width="91.43" height="260.84" transform="translate(2639.62 242.1) rotate(180)"/><rect class="cls-7" x="1274.1" y="251.47" width="91.43" height="260.84"/><rect class="cls-8" x="1365.52" y="251.47" width="91.43" height="260.84"/><rect class="cls-9" x="1456.95" y="251.47" width="91.43" height="260.84"/><rect class="cls-10" x="1548.38" y="251.47" width="91.43" height="260.84"/><rect class="cls-11" x="1639.81" y="251.47" width="91.43" height="260.84"/><rect class="cls-12" x="1731.24" y="251.47" width="91.43" height="260.84"/><rect class="cls-13" x="1822.67" y="251.47" width="91.43" height="260.84"/><rect class="cls-7" x="1822.67" y="512.32" width="91.43" height="260.84" transform="translate(3736.76 1285.48) rotate(180)"/><rect class="cls-8" x="1731.24" y="512.32" width="91.43" height="260.84" transform="translate(3553.91 1285.48) rotate(180)"/><rect class="cls-9" x="1639.81" y="512.32" width="91.43" height="260.84" transform="translate(3371.05 1285.48) rotate(180)"/><rect class="cls-10" x="1548.38" y="512.32" width="91.43" height="260.84" transform="translate(3188.19 1285.48) rotate(180)"/><rect class="cls-11" x="1456.95" y="512.32" width="91.43" height="260.84" transform="translate(3005.34 1285.48) rotate(180)"/><rect class="cls-12" x="1365.52" y="512.32" width="91.43" height="260.84" transform="translate(2822.48 1285.48) rotate(180)"/><rect class="cls-13" x="1274.1" y="512.32" width="91.43" height="260.84" transform="translate(2639.62 1285.48) rotate(180)"/></g></g></g></g></g></svg>