<svg xmlns="http://www.w3.org/2000/svg" viewBox="0 0 23.02 26.13"><defs><style>.cls-1{fill:#fff;}</style></defs><title>Asset 1@3x1</title><g id="Layer_2" data-name="Layer 2"><g id="Layer_1-2" data-name="Layer 1"><path class="cls-1" d="M22.58,6.37c-3.82-.48-5.51-2.14-6-5.94L16.49,0H11.58V17.44q0,.36,0,.72a3.16,3.16,0,0,1-1.23,2.24A3.35,3.35,0,0,1,7.68,21a3.29,3.29,0,0,1-2.57-4,3.23,3.23,0,0,1,3.07-2.52h1.87v-5H8.12a8.3,8.3,0,0,0,.17,16.6,8.15,8.15,0,0,0,2.91-.54,8.28,8.28,0,0,0,5.4-7.91v-8l.23.1c.7.34,1.43.69,2.17,1a10,10,0,0,0,3.51.65H23V6.42Z"/></g></g></svg>