<svg xmlns="http://www.w3.org/2000/svg" viewBox="0 0 1920 715.79"><defs><style>.cls-1{isolation:isolate;}.cls-11,.cls-2,.cls-4{opacity:0.5;}.cls-10,.cls-11,.cls-12,.cls-13,.cls-3,.cls-7,.cls-8,.cls-9{fill:#aea2cf;}.cls-4,.cls-5,.cls-6{mix-blend-mode:multiply;}.cls-6{opacity:0.8;}.cls-7{opacity:0.1;}.cls-8{opacity:0.2;}.cls-9{opacity:0.3;}.cls-10{opacity:0.4;}.cls-12{opacity:0.55;}.cls-13{opacity:0.6;}</style></defs><title>Asset 5@3x1</title><g class="cls-1"><g id="Layer_2" data-name="Layer 2"><g id="Layer_1-2" data-name="Layer 1"><g class="cls-2"><rect class="cls-3" width="1920" height="715.79"/><g class="cls-4"><g class="cls-5"><g class="cls-6"><rect class="cls-7" x="822.86" width="137.14" height="238.6" transform="translate(1782.86 238.6) rotate(180)"/><rect class="cls-8" x="685.71" width="137.14" height="238.6" transform="translate(1508.57 238.6) rotate(180)"/><rect class="cls-9" x="548.57" width="137.14" height="238.6" transform="translate(1234.29 238.6) rotate(180)"/><rect class="cls-10" x="411.43" width="137.14" height="238.6" transform="translate(960 238.6) rotate(180)"/><rect class="cls-11" x="274.29" width="137.14" height="238.6" transform="translate(685.71 238.6) rotate(180)"/><rect class="cls-12" x="137.14" width="137.14" height="238.6" transform="translate(411.43 238.6) rotate(180)"/><rect class="cls-13" width="137.14" height="238.6" transform="translate(137.14 238.6) rotate(180)"/><rect class="cls-7" y="238.6" width="137.14" height="238.6"/><rect class="cls-8" x="137.14" y="238.6" width="137.14" height="238.6"/><rect class="cls-9" x="274.29" y="238.6" width="137.14" height="238.6"/><rect class="cls-10" x="411.43" y="238.6" width="137.14" height="238.6"/><rect class="cls-11" x="548.57" y="238.6" width="137.14" height="238.6"/><rect class="cls-12" x="685.71" y="238.6" width="137.14" height="238.6"/><rect class="cls-13" x="822.86" y="238.6" width="137.14" height="238.6"/><rect class="cls-7" x="822.86" y="477.19" width="137.14" height="238.6" transform="translate(1782.86 1192.98) rotate(180)"/><rect class="cls-8" x="685.71" y="477.19" width="137.14" height="238.6" transform="translate(1508.57 1192.98) rotate(180)"/><rect class="cls-9" x="548.57" y="477.19" width="137.14" height="238.6" transform="translate(1234.29 1192.98) rotate(180)"/><rect class="cls-10" x="411.43" y="477.19" width="137.14" height="238.6" transform="translate(960 1192.98) rotate(180)"/><rect class="cls-11" x="274.29" y="477.19" width="137.14" height="238.6" transform="translate(685.71 1192.98) rotate(180)"/><rect class="cls-12" x="137.14" y="477.19" width="137.14" height="238.6" transform="translate(411.43 1192.98) rotate(180)"/><rect class="cls-13" y="477.19" width="137.14" height="238.6" transform="translate(137.14 1192.98) rotate(180)"/></g><g class="cls-6"><rect class="cls-7" x="1782.86" width="137.14" height="238.6" transform="translate(3702.86 238.6) rotate(180)"/><rect class="cls-8" x="1645.71" width="137.14" height="238.6" transform="translate(3428.57 238.6) rotate(180)"/><rect class="cls-9" x="1508.57" width="137.14" height="238.6" transform="translate(3154.29 238.6) rotate(180)"/><rect class="cls-10" x="1371.43" width="137.14" height="238.6" transform="translate(2880 238.6) rotate(180)"/><rect class="cls-11" x="1234.29" width="137.14" height="238.6" transform="translate(2605.71 238.6) rotate(180)"/><rect class="cls-12" x="1097.14" width="137.14" height="238.6" transform="translate(2331.43 238.6) rotate(180)"/><rect class="cls-13" x="960" width="137.14" height="238.6" transform="translate(2057.14 238.6) rotate(180)"/><rect class="cls-7" x="960" y="238.6" width="137.14" height="238.6"/><rect class="cls-8" x="1097.14" y="238.6" width="137.14" height="238.6"/><rect class="cls-9" x="1234.29" y="238.6" width="137.14" height="238.6"/><rect class="cls-10" x="1371.43" y="238.6" width="137.14" height="238.6"/><rect class="cls-11" x="1508.57" y="238.6" width="137.14" height="238.6"/><rect class="cls-12" x="1645.71" y="238.6" width="137.14" height="238.6"/><rect class="cls-13" x="1782.86" y="238.6" width="137.14" height="238.6"/><rect class="cls-7" x="1782.86" y="477.19" width="137.14" height="238.6" transform="translate(3702.86 1192.98) rotate(180)"/><rect class="cls-8" x="1645.71" y="477.19" width="137.14" height="238.6" transform="translate(3428.57 1192.98) rotate(180)"/><rect class="cls-9" x="1508.57" y="477.19" width="137.14" height="238.6" transform="translate(3154.29 1192.98) rotate(180)"/><rect class="cls-10" x="1371.43" y="477.19" width="137.14" height="238.6" transform="translate(2880 1192.98) rotate(180)"/><rect class="cls-11" x="1234.29" y="477.19" width="137.14" height="238.6" transform="translate(2605.71 1192.98) rotate(180)"/><rect class="cls-12" x="1097.14" y="477.19" width="137.14" height="238.6" transform="translate(2331.43 1192.98) rotate(180)"/><rect class="cls-13" x="960" y="477.19" width="137.14" height="238.6" transform="translate(2057.14 1192.98) rotate(180)"/></g></g></g></g></g></g></g></svg>