<svg xmlns="http://www.w3.org/2000/svg" viewBox="0 0 38.99 38.99"><defs><style>.cls-1{fill:#fff;}</style></defs><title>Asset 4@3x1</title><g id="Layer_2" data-name="Layer 2"><g id="Layer_1-2" data-name="Layer 1"><path class="cls-1" d="M19.47,39A19.5,19.5,0,1,1,39,19.08,19.43,19.43,0,0,1,19.47,39Zm-8.1-18.43a29.58,29.58,0,0,0,.83,6.84c.1.44.29.56.72.55,1.66,0,3.33,0,5,0,.17,0,.35,0,.52-.05V20.56Zm9.15,7.38c2,0,3.91,0,5.82,0,.14,0,.37-.26.4-.43.27-1.34.54-2.69.73-4,.13-.95.14-1.92.21-2.94H21c-.35,0-.49.14-.49.49s0,.87,0,1.31Zm-9.14-9.49c2.29,0,4.51,0,6.73,0,.13,0,.35-.36.36-.56,0-1.29,0-2.58,0-3.87V11.09l-.73,0c-1.37,0-2.74,0-4.12,0-1.55,0-1.22-.32-1.59,1.31A25.36,25.36,0,0,0,11.38,18.45Zm9.21-7.39a1.5,1.5,0,0,0-.07.27c0,2.22,0,4.45,0,6.68,0,.49.31.45.63.45,2,0,3.95,0,5.92,0,.53,0,.66-.21.6-.67q-.45-3.11-.87-6.23c-.06-.43-.28-.52-.68-.52-1.45,0-2.91,0-4.37,0ZM2.07,18.44c.15,0,.23,0,.31,0,2.07,0,4.15,0,6.22,0,.52,0,.68-.16.71-.66.07-1.19.17-2.37.33-3.54s.35-2.11.55-3.24H4.48a.63.63,0,0,0-.41.29A16.92,16.92,0,0,0,2.07,18.44Zm26.87-7.38c.26,2.39.52,4.65.75,6.92,0,.43.25.49.61.48,1.66,0,3.32,0,5,0h1.55a2.11,2.11,0,0,0,.05-.28,16.08,16.08,0,0,0-2-6.83.8.8,0,0,0-.6-.28c-1.15,0-2.29,0-3.43,0Zm.91,9.47-1,7.38c.11,0,.29,0,.47,0,1.62,0,3.24,0,4.86,0a.78.78,0,0,0,.82-.5,18.59,18.59,0,0,0,1.7-5.19c.1-.55.1-1.13.15-1.73Zm-27.75,0c0,.23,0,.37,0,.51A17.79,17.79,0,0,0,4,27.46a.78.78,0,0,0,.82.49c1.62,0,3.25,0,4.87,0a2.66,2.66,0,0,0,.42,0c-.27-2.38-.53-4.72-.83-7,0-.14-.33-.33-.51-.33-1.33,0-2.66,0-4,0ZM20.55,30v6.71c2-.31,5-4.1,5.35-6.71Zm-2.12,6.71V30H13.09C13.84,32.92,16.4,36.45,18.43,36.72ZM25.92,9c-.66-3-3.58-6.58-5.37-6.67V9ZM18.44,9V2.28c-2,.26-4.58,3.77-5.35,6.71Zm6.73,26.95a17,17,0,0,0,8.27-6c-1.76,0-3.36,0-5,0a.59.59,0,0,0-.42.33A21.48,21.48,0,0,1,25.17,35.94ZM5.54,9c1.71,0,3.24,0,4.78,0,.41,0,.55-.17.7-.51.56-1.3,1.15-2.58,1.78-3.84A17.52,17.52,0,0,1,13.94,3,17.81,17.81,0,0,0,5.54,9Zm8.13,27c-.8-1.59-1.65-3.2-2.42-4.85C10.74,30,10.8,30,9.61,30H5.55A17.55,17.55,0,0,0,13.67,36ZM33.45,9a17.16,17.16,0,0,0-8.29-6A21.62,21.62,0,0,1,28.07,8.7c0,.12.2.3.31.3C30,9,31.66,9,33.45,9Z"/></g></g></svg>