<svg id="Layer_1" data-name="Layer 1" xmlns="http://www.w3.org/2000/svg" viewBox="0 0 266.08 252.12"><defs><style>.cls-1{fill:none;stroke:#473575;stroke-linecap:round;stroke-miterlimit:10;stroke-width:2.98px;}.cls-2{fill:#fff;}.cls-3{fill:#aea2cf;}</style></defs><title>Artboard 53 copy 2@4x1</title><path class="cls-1" d="M74.9,54.19h37.77v6.14a8.05,8.05,0,0,0,8,8h10.1a10.48,10.48,0,0,1,8.94,5l5.17,8.49H188.1l5.17-8.49a10.48,10.48,0,0,1,8.94-5h10.1a8.05,8.05,0,0,0,8.05-8V30.11a9.94,9.94,0,0,0-9.93-9.93H122.6a9.94,9.94,0,0,0-9.93,9.93v8.6H70.87A25.73,25.73,0,0,0,45.14,64.44V222.3"/><path class="cls-2" d="M148.93,30.65c6.72,6.52,17.52,19.66,23.44,40.77h9.85l5.18-8.49h0a10.45,10.45,0,0,1,8.93-5h11.44a2.13,2.13,0,0,0,2.13-2.13V30.65Z"/><line class="cls-1" x1="144.91" y1="94.97" x2="188.12" y2="94.97"/><path class="cls-1" d="M89.36,54.19c-14.21,0-24.63-4.19-24.63,20.72V222.3"/><path class="cls-3" d="M220.94,168.81H198.75A32.59,32.59,0,0,0,175.21,146V123.08H157.82v23.35a32.67,32.67,0,0,0-21.69,22.38h-24v17.4h24a32.63,32.63,0,0,0,21.69,22.37v23.36h17.39V209.06a32.61,32.61,0,0,0,23.54-22.85h22.19Zm-53.5-6.43a15.13,15.13,0,1,1-15.13,15.13A15.14,15.14,0,0,1,167.44,162.38Z"/></svg>