<svg xmlns="http://www.w3.org/2000/svg" xmlns:xlink="http://www.w3.org/1999/xlink" viewBox="0 0 214.51 134.49"><defs><style>.cls-1{fill:none;}.cls-2{isolation:isolate;}.cls-3{clip-path:url(#clip-path);}.cls-11,.cls-4{opacity:0.6;}.cls-4{mix-blend-mode:multiply;}.cls-10,.cls-11,.cls-5,.cls-6,.cls-7,.cls-8,.cls-9{fill:#726b8f;}.cls-5{opacity:0.1;}.cls-6{opacity:0.2;}.cls-7{opacity:0.3;}.cls-8{opacity:0.4;}.cls-9{opacity:0.5;}.cls-10{opacity:0.55;}</style><clipPath id="clip-path"><path class="cls-1" d="M36.77,0H214.51a0,0,0,0,1,0,0V97.72a36.77,36.77,0,0,1-36.77,36.77H0a0,0,0,0,1,0,0V36.77A36.77,36.77,0,0,1,36.77,0Z"/></clipPath></defs><title>Artboard 57@4x1</title><g class="cls-2"><g id="Layer_1" data-name="Layer 1"><g class="cls-3"><g class="cls-4"><rect class="cls-5" x="-7.03" y="-4.91" width="32.65" height="48.1"/><rect class="cls-6" x="25.62" y="-4.91" width="32.65" height="48.1"/><rect class="cls-7" x="58.27" y="-4.91" width="32.65" height="48.1"/><rect class="cls-8" x="90.93" y="-4.91" width="32.65" height="48.1"/><rect class="cls-9" x="123.58" y="-4.91" width="32.65" height="48.1"/><rect class="cls-10" x="156.23" y="-4.91" width="32.65" height="48.1"/><rect class="cls-11" x="188.89" y="-4.91" width="32.65" height="48.1"/><rect class="cls-5" x="188.89" y="43.19" width="32.65" height="48.1" transform="translate(410.43 134.49) rotate(180)"/><rect class="cls-6" x="156.23" y="43.19" width="32.65" height="48.1" transform="translate(345.12 134.49) rotate(180)"/><rect class="cls-7" x="123.58" y="43.19" width="32.65" height="48.1" transform="translate(279.81 134.49) rotate(180)"/><rect class="cls-8" x="90.93" y="43.19" width="32.65" height="48.1" transform="translate(214.51 134.49) rotate(180)"/><rect class="cls-9" x="58.27" y="43.19" width="32.65" height="48.1" transform="translate(149.2 134.49) rotate(180)"/><rect class="cls-10" x="25.62" y="43.19" width="32.65" height="48.1" transform="translate(83.9 134.49) rotate(180)"/><rect class="cls-11" x="-7.03" y="43.19" width="32.65" height="48.1" transform="translate(18.59 134.49) rotate(180)"/><rect class="cls-5" x="-7.03" y="91.3" width="32.65" height="48.1"/><rect class="cls-6" x="25.62" y="91.3" width="32.65" height="48.1"/><rect class="cls-7" x="58.27" y="91.3" width="32.65" height="48.1"/><rect class="cls-8" x="90.93" y="91.3" width="32.65" height="48.1"/><rect class="cls-9" x="123.58" y="91.3" width="32.65" height="48.1"/><rect class="cls-10" x="156.23" y="91.3" width="32.65" height="48.1"/><rect class="cls-11" x="188.89" y="91.3" width="32.65" height="48.1"/></g></g></g></g></svg>