<svg xmlns="http://www.w3.org/2000/svg" viewBox="0 0 1920 149.4"><defs><style>.cls-1{isolation:isolate;}.cls-2{fill:#473575;}.cls-10,.cls-3{opacity:0.6;}.cls-3{mix-blend-mode:multiply;}.cls-10,.cls-4,.cls-5,.cls-6,.cls-7,.cls-8,.cls-9{fill:#726b8f;}.cls-4{opacity:0.1;}.cls-5{opacity:0.2;}.cls-6{opacity:0.3;}.cls-7{opacity:0.4;}.cls-8{opacity:0.5;}.cls-9{opacity:0.55;}</style></defs><title>Artboard 1 copy 8@4x1</title><g class="cls-1"><g id="Layer_1" data-name="Layer 1"><rect class="cls-2" width="1920" height="149.18"/><g class="cls-3"><rect class="cls-4" width="91.43" height="49.8"/><rect class="cls-5" x="91.43" width="91.43" height="49.8"/><rect class="cls-6" x="182.86" width="91.43" height="49.8"/><rect class="cls-7" x="274.29" width="91.43" height="49.8"/><rect class="cls-8" x="365.71" width="91.43" height="49.8"/><rect class="cls-9" x="457.14" width="91.43" height="49.8"/><rect class="cls-10" x="548.57" width="91.43" height="49.8"/><rect class="cls-4" x="548.57" y="49.8" width="91.43" height="49.8" transform="translate(1188.57 149.4) rotate(180)"/><rect class="cls-5" x="457.14" y="49.8" width="91.43" height="49.8" transform="translate(1005.71 149.4) rotate(180)"/><rect class="cls-6" x="365.71" y="49.8" width="91.43" height="49.8" transform="translate(822.86 149.4) rotate(180)"/><rect class="cls-7" x="274.29" y="49.8" width="91.43" height="49.8" transform="translate(640 149.4) rotate(180)"/><rect class="cls-8" x="182.86" y="49.8" width="91.43" height="49.8" transform="translate(457.14 149.4) rotate(180)"/><rect class="cls-9" x="91.43" y="49.8" width="91.43" height="49.8" transform="translate(274.29 149.4) rotate(180)"/><rect class="cls-10" y="49.8" width="91.43" height="49.8" transform="translate(91.43 149.4) rotate(180)"/><rect class="cls-4" y="99.6" width="91.43" height="49.8"/><rect class="cls-5" x="91.43" y="99.6" width="91.43" height="49.8"/><rect class="cls-6" x="182.86" y="99.6" width="91.43" height="49.8"/><rect class="cls-7" x="274.29" y="99.6" width="91.43" height="49.8"/><rect class="cls-8" x="365.71" y="99.6" width="91.43" height="49.8"/><rect class="cls-9" x="457.14" y="99.6" width="91.43" height="49.8"/><rect class="cls-10" x="548.57" y="99.6" width="91.43" height="49.8"/></g><g class="cls-3"><rect class="cls-4" x="640" width="91.43" height="49.8"/><rect class="cls-5" x="731.43" width="91.43" height="49.8"/><rect class="cls-6" x="822.86" width="91.43" height="49.8"/><rect class="cls-7" x="914.29" width="91.43" height="49.8"/><rect class="cls-8" x="1005.71" width="91.43" height="49.8"/><rect class="cls-9" x="1097.14" width="91.43" height="49.8"/><rect class="cls-10" x="1188.57" width="91.43" height="49.8"/><rect class="cls-4" x="1188.57" y="49.8" width="91.43" height="49.8" transform="translate(2468.57 149.4) rotate(180)"/><rect class="cls-5" x="1097.14" y="49.8" width="91.43" height="49.8" transform="translate(2285.71 149.4) rotate(180)"/><rect class="cls-6" x="1005.71" y="49.8" width="91.43" height="49.8" transform="translate(2102.86 149.4) rotate(180)"/><rect class="cls-7" x="914.29" y="49.8" width="91.43" height="49.8" transform="translate(1920 149.4) rotate(180)"/><rect class="cls-8" x="822.86" y="49.8" width="91.43" height="49.8" transform="translate(1737.14 149.4) rotate(180)"/><rect class="cls-9" x="731.43" y="49.8" width="91.43" height="49.8" transform="translate(1554.29 149.4) rotate(180)"/><rect class="cls-10" x="640" y="49.8" width="91.43" height="49.8" transform="translate(1371.43 149.4) rotate(180)"/><rect class="cls-4" x="640" y="99.6" width="91.43" height="49.8"/><rect class="cls-5" x="731.43" y="99.6" width="91.43" height="49.8"/><rect class="cls-6" x="822.86" y="99.6" width="91.43" height="49.8"/><rect class="cls-7" x="914.29" y="99.6" width="91.43" height="49.8"/><rect class="cls-8" x="1005.71" y="99.6" width="91.43" height="49.8"/><rect class="cls-9" x="1097.14" y="99.6" width="91.43" height="49.8"/><rect class="cls-10" x="1188.57" y="99.6" width="91.43" height="49.8"/></g><g class="cls-3"><rect class="cls-4" x="1280" width="91.43" height="49.8"/><rect class="cls-5" x="1371.43" width="91.43" height="49.8"/><rect class="cls-6" x="1462.86" width="91.43" height="49.8"/><rect class="cls-7" x="1554.29" width="91.43" height="49.8"/><rect class="cls-8" x="1645.71" width="91.43" height="49.8"/><rect class="cls-9" x="1737.14" width="91.43" height="49.8"/><rect class="cls-10" x="1828.57" width="91.43" height="49.8"/><rect class="cls-4" x="1828.57" y="49.8" width="91.43" height="49.8" transform="translate(3748.57 149.4) rotate(180)"/><rect class="cls-5" x="1737.14" y="49.8" width="91.43" height="49.8" transform="translate(3565.71 149.4) rotate(180)"/><rect class="cls-6" x="1645.71" y="49.8" width="91.43" height="49.8" transform="translate(3382.86 149.4) rotate(180)"/><rect class="cls-7" x="1554.29" y="49.8" width="91.43" height="49.8" transform="translate(3200 149.4) rotate(180)"/><rect class="cls-8" x="1462.86" y="49.8" width="91.43" height="49.8" transform="translate(3017.14 149.4) rotate(180)"/><rect class="cls-9" x="1371.43" y="49.8" width="91.43" height="49.8" transform="translate(2834.29 149.4) rotate(180)"/><rect class="cls-10" x="1280" y="49.8" width="91.43" height="49.8" transform="translate(2651.43 149.4) rotate(180)"/><rect class="cls-4" x="1280" y="99.6" width="91.43" height="49.8"/><rect class="cls-5" x="1371.43" y="99.6" width="91.43" height="49.8"/><rect class="cls-6" x="1462.86" y="99.6" width="91.43" height="49.8"/><rect class="cls-7" x="1554.29" y="99.6" width="91.43" height="49.8"/><rect class="cls-8" x="1645.71" y="99.6" width="91.43" height="49.8"/><rect class="cls-9" x="1737.14" y="99.6" width="91.43" height="49.8"/><rect class="cls-10" x="1828.57" y="99.6" width="91.43" height="49.8"/></g></g></g></svg>