<svg xmlns="http://www.w3.org/2000/svg" viewBox="0 0 796.72 931.05"><defs><style>.cls-1{isolation:isolate;}.cls-2,.cls-9{opacity:0.5;}.cls-3,.cls-4{mix-blend-mode:multiply;}.cls-4{opacity:0.8;}.cls-10,.cls-11,.cls-13,.cls-5,.cls-6,.cls-7,.cls-8,.cls-9{fill:#aea2cf;}.cls-5{opacity:0.1;}.cls-6{opacity:0.2;}.cls-7{opacity:0.3;}.cls-8{opacity:0.4;}.cls-10{opacity:0.55;}.cls-11{opacity:0.6;}.cls-12{opacity:0.89;}</style></defs><title>Asset 12@3x1</title><g class="cls-1"><g id="Layer_2" data-name="Layer 2"><g id="Layer_1-2" data-name="Layer 1"><g class="cls-2"><g class="cls-3"><g class="cls-4"><rect class="cls-5" x="682.9" width="113.82" height="465.54" transform="matrix(-1, 0, 0, -1, 1479.62, 465.54)"/><rect class="cls-6" x="569.09" width="113.82" height="465.54" transform="matrix(-1, 0, 0, -1, 1251.99, 465.54)"/><rect class="cls-7" x="455.27" width="113.82" height="465.54" transform="matrix(-1, 0, 0, -1, 1024.35, 465.54)"/><rect class="cls-8" x="341.45" width="113.82" height="465.54" transform="matrix(-1, 0, 0, -1, 796.72, 465.54)"/><rect class="cls-9" x="227.64" width="113.82" height="465.54" transform="matrix(-1, 0, 0, -1, 569.09, 465.54)"/><rect class="cls-10" x="113.82" width="113.82" height="465.54" transform="matrix(-1, 0, 0, -1, 341.45, 465.54)"/><rect class="cls-11" width="113.82" height="465.54" transform="matrix(-1, 0, 0, -1, 113.82, 465.54)"/><rect class="cls-5" x="682.9" y="465.51" width="113.82" height="465.54" transform="matrix(-1, 0, 0, -1, 1479.62, 1396.55)"/><rect class="cls-6" x="569.09" y="465.51" width="113.82" height="465.54" transform="matrix(-1, 0, 0, -1, 1251.99, 1396.55)"/><rect class="cls-7" x="455.27" y="465.5" width="113.82" height="465.54" transform="matrix(-1, 0, 0, -1, 1024.35, 1396.55)"/><rect class="cls-8" x="341.45" y="465.5" width="113.82" height="465.54" transform="matrix(-1, 0, 0, -1, 796.72, 1396.55)"/><rect class="cls-9" x="227.63" y="465.5" width="113.82" height="465.54" transform="matrix(-1, 0, 0, -1, 569.08, 1396.55)"/><rect class="cls-10" x="113.82" y="465.5" width="113.82" height="465.54" transform="matrix(-1, 0, 0, -1, 341.45, 1396.55)"/><rect class="cls-11" y="465.5" width="113.82" height="465.54" transform="matrix(-1, 0, 0, -1, 113.82, 1396.55)"/></g></g></g><g class="cls-12"><path class="cls-13" d="M557.25,408.51a5.06,5.06,0,1,0-5.06-5.05A5.06,5.06,0,0,0,557.25,408.51Z"/><path class="cls-13" d="M542,408.51a5.06,5.06,0,1,0-5.06-5.05A5.06,5.06,0,0,0,542,408.51Z"/><path class="cls-13" d="M542,393.3a5.06,5.06,0,1,0-5.06-5.05A5.06,5.06,0,0,0,542,393.3Z"/><path class="cls-13" d="M526.82,378.09a5.06,5.06,0,1,0-5.05-5.06A5.07,5.07,0,0,0,526.82,378.09Z"/><path class="cls-13" d="M542,423.73a5.06,5.06,0,1,0-5.06-5.06A5.06,5.06,0,0,0,542,423.73Z"/><path class="cls-13" d="M526.82,408.51a5.06,5.06,0,1,0-5.05-5.05A5.06,5.06,0,0,0,526.82,408.51Z"/><path class="cls-13" d="M511.61,408.51a5.05,5.05,0,0,0,4.95-4,5,5,0,0,0,.11-1,5.06,5.06,0,0,0-10-1,4.9,4.9,0,0,0-.11,1A5.06,5.06,0,0,0,511.61,408.51Z"/><path class="cls-13" d="M526.82,393.3a5.06,5.06,0,1,0-5.05-5.05A5.06,5.06,0,0,0,526.82,393.3Z"/><path class="cls-13" d="M526.82,423.73a5.06,5.06,0,1,0-5.05-5.06A5.07,5.07,0,0,0,526.82,423.73Z"/><path class="cls-13" d="M526.82,438.94a5.06,5.06,0,1,0-5.05-5.06A5.07,5.07,0,0,0,526.82,438.94Z"/><path class="cls-13" d="M511.61,378.09a5.06,5.06,0,1,0-5.06-5.06A5.07,5.07,0,0,0,511.61,378.09Z"/><path class="cls-13" d="M511.61,393.3a5.06,5.06,0,0,0,4.95-4,4.9,4.9,0,0,0,.11-1,5.06,5.06,0,0,0-10-1,4.9,4.9,0,0,0-.11,1A5.06,5.06,0,0,0,511.61,393.3Z"/><path class="cls-13" d="M511.61,423.73a5.06,5.06,0,0,0,4.95-4,4.9,4.9,0,0,0,.11-1,5.06,5.06,0,0,0-10-1,4.9,4.9,0,0,0-.11,1A5.07,5.07,0,0,0,511.61,423.73Z"/><path class="cls-13" d="M496.4,408.51a5.06,5.06,0,1,0-5.06-5.05A5.06,5.06,0,0,0,496.4,408.51Z"/><path class="cls-13" d="M496.4,383.19a5.06,5.06,0,1,0,5.06,5.05A5.06,5.06,0,0,0,496.4,383.19Z"/><path class="cls-13" d="M496.4,423.72a5.06,5.06,0,1,0-5.06-5.05A5.06,5.06,0,0,0,496.4,423.72Z"/><path class="cls-13" d="M481.19,383.19a5.06,5.06,0,0,0-5.06,5.05h0a5.06,5.06,0,0,0,10.11,0h0A5.06,5.06,0,0,0,481.19,383.19Z"/><path class="cls-13" d="M481.19,408.51a5.06,5.06,0,0,0,5.05-5.05h0a5.06,5.06,0,1,0-10.11,0h0A5.06,5.06,0,0,0,481.19,408.51Z"/><path class="cls-13" d="M481.19,423.73a5.06,5.06,0,0,0,5.05-5.06h0a5.06,5.06,0,1,0-10.11,0h0A5.07,5.07,0,0,0,481.19,423.73Z"/><path class="cls-13" d="M466,408.51a5.06,5.06,0,1,0-5.05-5.05A5.06,5.06,0,0,0,466,408.51Z"/><path class="cls-13" d="M466,383.19a5.06,5.06,0,1,0,5.06,5.06A5.06,5.06,0,0,0,466,383.19Z"/><path class="cls-13" d="M466,423.73a5.06,5.06,0,1,0-5.05-5.06A5.07,5.07,0,0,0,466,423.73Z"/><path class="cls-13" d="M450.76,408.51a5.06,5.06,0,1,0-5.05-5.05A5.06,5.06,0,0,0,450.76,408.51Z"/><path class="cls-13" d="M450.76,393.3a5.06,5.06,0,1,0-5.05-5.06A5.07,5.07,0,0,0,450.76,393.3Z"/><path class="cls-13" d="M450.76,423.72a5.06,5.06,0,1,0-5.05-5.05A5.06,5.06,0,0,0,450.76,423.72Z"/><path class="cls-13" d="M435.55,408.51a5.06,5.06,0,1,0-5.06-5.05A5.06,5.06,0,0,0,435.55,408.51Z"/><path class="cls-13" d="M420.34,408.51a4.9,4.9,0,0,0,1-.1,5.06,5.06,0,0,0-1-10,4.9,4.9,0,0,0-1,.1,5.06,5.06,0,0,0,1,10Z"/><path class="cls-13" d="M435.55,393.3a5.06,5.06,0,1,0-5.06-5.06A5.06,5.06,0,0,0,435.55,393.3Z"/><path class="cls-13" d="M435.55,423.72a5.06,5.06,0,1,0-5.06-5.05A5,5,0,0,0,435.55,423.72Z"/><path class="cls-13" d="M420.34,393.3a5.69,5.69,0,0,0,1-.1,5.06,5.06,0,0,0-1-10,4.9,4.9,0,0,0-1,.11,5.06,5.06,0,0,0,1,10Z"/><path class="cls-13" d="M420.34,423.72a4.9,4.9,0,0,0,1-.1,5.06,5.06,0,0,0-1-10,5.69,5.69,0,0,0-1,.1,5.06,5.06,0,0,0,1,10Z"/><path class="cls-13" d="M405.13,408.51a5.06,5.06,0,1,0-5.05-5.06A5.07,5.07,0,0,0,405.13,408.51Z"/><path class="cls-13" d="M405.13,393.29a5.06,5.06,0,1,0-5.05-5.05A5.06,5.06,0,0,0,405.13,393.29Z"/><path class="cls-13" d="M405.13,423.72a5.06,5.06,0,1,0-5.05-5.06A5.07,5.07,0,0,0,405.13,423.72Z"/><path class="cls-13" d="M389.92,408.51a5.06,5.06,0,1,0-5.05-5.06A5.07,5.07,0,0,0,389.92,408.51Z"/><path class="cls-13" d="M374.71,408.51a5.06,5.06,0,1,0-5.06-5.06A5.06,5.06,0,0,0,374.71,408.51Z"/><path class="cls-13" d="M389.92,393.29a5.06,5.06,0,1,0-5.05-5.05A5.06,5.06,0,0,0,389.92,393.29Z"/><path class="cls-13" d="M389.92,423.72a5.06,5.06,0,1,0-5.05-5.06A5.07,5.07,0,0,0,389.92,423.72Z"/><path class="cls-13" d="M374.71,393.29a5.06,5.06,0,1,0-5.06-5.05A5,5,0,0,0,374.71,393.29Z"/><path class="cls-13" d="M374.71,423.72a5.06,5.06,0,1,0-5.06-5.06A5.06,5.06,0,0,0,374.71,423.72Z"/><path class="cls-13" d="M511.61,438.94a5.06,5.06,0,1,0-5.06-5.06A5.07,5.07,0,0,0,511.61,438.94Z"/><path class="cls-13" d="M496.4,378.09a5.06,5.06,0,1,0-5.06-5.06A5.06,5.06,0,0,0,496.4,378.09Z"/><path class="cls-13" d="M511.61,362.88a5.06,5.06,0,1,0-5.06-5.06A5.07,5.07,0,0,0,511.61,362.88Z"/><path class="cls-13" d="M496.4,362.88a5.06,5.06,0,1,0-5.06-5.06A5.06,5.06,0,0,0,496.4,362.88Z"/><path class="cls-13" d="M481.19,362.88a5.06,5.06,0,1,0-5.06-5.06A5.06,5.06,0,0,0,481.19,362.88Z"/><path class="cls-13" d="M496.4,347.66a5.06,5.06,0,1,0-5.06-5.05A5,5,0,0,0,496.4,347.66Z"/><path class="cls-13" d="M481.19,347.66a5.06,5.06,0,1,0-5.06-5.05A5.06,5.06,0,0,0,481.19,347.66Z"/><path class="cls-13" d="M466,347.66a5.06,5.06,0,1,0-5.05-5.05A5.06,5.06,0,0,0,466,347.66Z"/><path class="cls-13" d="M496.4,438.94a5.06,5.06,0,1,0-5.06-5.06A5.06,5.06,0,0,0,496.4,438.94Z"/><path class="cls-13" d="M511.61,454.15a5.06,5.06,0,1,0-5.06-5A5.06,5.06,0,0,0,511.61,454.15Z"/><path class="cls-13" d="M496.4,454.15a5.06,5.06,0,1,0-5.06-5A5.06,5.06,0,0,0,496.4,454.15Z"/><path class="cls-13" d="M496.4,469.37a5.06,5.06,0,1,0-5.06-5.06A5.06,5.06,0,0,0,496.4,469.37Z"/><path class="cls-13" d="M481.19,454.15a5.06,5.06,0,1,0-5.06-5A5.06,5.06,0,0,0,481.19,454.15Z"/><path class="cls-13" d="M481.19,469.37a5.06,5.06,0,1,0-5.06-5.06A5.06,5.06,0,0,0,481.19,469.37Z"/><path class="cls-13" d="M466,469.37a5.06,5.06,0,1,0-5.05-5.06A5.07,5.07,0,0,0,466,469.37Z"/></g></g></g></g></svg>