<?xml version="1.0" encoding="utf-8"?>
<!-- Generator: Adobe Illustrator 24.0.2, SVG Export Plug-In . SVG Version: 6.00 Build 0)  -->
<svg version="1.1" id="Layer_1" xmlns="http://www.w3.org/2000/svg" xmlns:xlink="http://www.w3.org/1999/xlink" x="0px" y="0px"
	 viewBox="0 0 759.3 917.4" style="enable-background:new 0 0 759.3 917.4;" xml:space="preserve">
<style type="text/css">
	.st0{opacity:0.5;}
	.st1{opacity:0.6;}
	.st2{opacity:0.1;fill:#726B8F;enable-background:new    ;}
	.st3{opacity:0.2;fill:#726B8F;enable-background:new    ;}
	.st4{opacity:0.3;fill:#726B8F;enable-background:new    ;}
	.st5{opacity:0.4;fill:#726B8F;enable-background:new    ;}
	.st6{opacity:0.5;fill:#726B8F;enable-background:new    ;}
	.st7{opacity:0.55;fill:#726B8F;enable-background:new    ;}
	.st8{opacity:0.6;fill:#726B8F;enable-background:new    ;}
	.st9{fill:#473575;}
</style>
<title>Artboard 51@4x1</title>
<g class="st0">
	<g class="st1">
		<rect y="-5.4" class="st2" width="108.5" height="51.7"/>
		<rect x="108.5" y="-5.4" class="st3" width="108.5" height="51.7"/>
		<rect x="216.9" y="-5.4" class="st4" width="108.5" height="51.7"/>
		<rect x="325.4" y="-5.4" class="st5" width="108.5" height="51.7"/>
		<rect x="433.9" y="-5.4" class="st6" width="108.5" height="51.7"/>
		<rect x="542.4" y="-5.4" class="st7" width="108.5" height="51.7"/>
		<rect x="650.8" y="-5.4" class="st8" width="108.5" height="51.7"/>
		<rect x="650.8" y="46.3" class="st2" width="108.5" height="51.7"/>
		<rect x="542.4" y="46.3" class="st3" width="108.5" height="51.7"/>
		<rect x="433.9" y="46.3" class="st4" width="108.5" height="51.7"/>
		<rect x="325.4" y="46.3" class="st5" width="108.5" height="51.7"/>
		<rect x="216.9" y="46.3" class="st6" width="108.5" height="51.7"/>
		<rect x="108.5" y="46.3" class="st7" width="108.5" height="51.7"/>
		<rect y="46.3" class="st8" width="108.5" height="51.7"/>
		<rect y="98" class="st2" width="108.5" height="51.7"/>
		<rect x="108.5" y="98" class="st3" width="108.5" height="51.7"/>
		<rect x="216.9" y="98" class="st4" width="108.5" height="51.7"/>
		<rect x="325.4" y="98" class="st5" width="108.5" height="51.7"/>
		<rect x="433.9" y="98" class="st6" width="108.5" height="51.7"/>
		<rect x="542.4" y="98" class="st7" width="108.5" height="51.7"/>
		<rect x="650.8" y="98" class="st8" width="108.5" height="51.7"/>
	</g>
	<g class="st1">
		<rect x="650.8" y="253.1" class="st2" width="108.5" height="51.7"/>
		<rect x="542.4" y="253.1" class="st3" width="108.5" height="51.7"/>
		<rect x="433.9" y="253.1" class="st4" width="108.5" height="51.7"/>
		<rect x="325.4" y="253.1" class="st5" width="108.5" height="51.7"/>
		<rect x="216.9" y="253.1" class="st6" width="108.5" height="51.7"/>
		<rect x="108.5" y="253.1" class="st7" width="108.5" height="51.7"/>
		<rect y="253.1" class="st8" width="108.5" height="51.7"/>
		<rect y="201.4" class="st2" width="108.5" height="51.7"/>
		<rect x="108.5" y="201.4" class="st3" width="108.5" height="51.7"/>
		<rect x="216.9" y="201.4" class="st4" width="108.5" height="51.7"/>
		<rect x="325.4" y="201.4" class="st5" width="108.5" height="51.7"/>
		<rect x="433.9" y="201.4" class="st6" width="108.5" height="51.7"/>
		<rect x="542.4" y="201.4" class="st7" width="108.5" height="51.7"/>
		<rect x="650.8" y="201.4" class="st8" width="108.5" height="51.7"/>
		<rect x="650.8" y="149.7" class="st2" width="108.5" height="51.7"/>
		<rect x="542.4" y="149.7" class="st3" width="108.5" height="51.7"/>
		<rect x="433.9" y="149.7" class="st4" width="108.5" height="51.7"/>
		<rect x="325.4" y="149.7" class="st5" width="108.5" height="51.7"/>
		<rect x="216.9" y="149.7" class="st6" width="108.5" height="51.7"/>
		<rect x="108.5" y="149.7" class="st7" width="108.5" height="51.7"/>
		<rect y="149.7" class="st8" width="108.5" height="51.7"/>
	</g>
	<g class="st1">
		<rect y="304.8" class="st2" width="108.5" height="51.7"/>
		<rect x="108.5" y="304.8" class="st3" width="108.5" height="51.7"/>
		<rect x="216.9" y="304.8" class="st4" width="108.5" height="51.7"/>
		<rect x="325.4" y="304.8" class="st5" width="108.5" height="51.7"/>
		<rect x="433.9" y="304.8" class="st6" width="108.5" height="51.7"/>
		<rect x="542.4" y="304.8" class="st7" width="108.5" height="51.7"/>
		<rect x="650.8" y="304.8" class="st8" width="108.5" height="51.7"/>
		<rect x="650.8" y="356.5" class="st2" width="108.5" height="51.7"/>
		<rect x="542.4" y="356.5" class="st3" width="108.5" height="51.7"/>
		<rect x="433.9" y="356.5" class="st4" width="108.5" height="51.7"/>
		<rect x="325.4" y="356.5" class="st5" width="108.5" height="51.7"/>
		<rect x="216.9" y="356.5" class="st6" width="108.5" height="51.7"/>
		<rect x="108.5" y="356.5" class="st7" width="108.5" height="51.7"/>
		<rect y="356.5" class="st8" width="108.5" height="51.7"/>
		<rect y="408.2" class="st2" width="108.5" height="51.7"/>
		<rect x="108.5" y="408.2" class="st3" width="108.5" height="51.7"/>
		<rect x="216.9" y="408.2" class="st4" width="108.5" height="51.7"/>
		<rect x="325.4" y="408.2" class="st5" width="108.5" height="51.7"/>
		<rect x="433.9" y="408.2" class="st6" width="108.5" height="51.7"/>
		<rect x="542.4" y="408.2" class="st7" width="108.5" height="51.7"/>
		<rect x="650.8" y="408.2" class="st8" width="108.5" height="51.7"/>
	</g>
	<g class="st1">
		<rect x="650.8" y="563.3" class="st2" width="108.5" height="51.7"/>
		<rect x="542.4" y="563.3" class="st3" width="108.5" height="51.7"/>
		<rect x="433.9" y="563.3" class="st4" width="108.5" height="51.7"/>
		<rect x="325.4" y="563.3" class="st5" width="108.5" height="51.7"/>
		<rect x="216.9" y="563.3" class="st6" width="108.5" height="51.7"/>
		<rect x="108.5" y="563.3" class="st7" width="108.5" height="51.7"/>
		<rect y="563.3" class="st8" width="108.5" height="51.7"/>
		<rect y="511.6" class="st2" width="108.5" height="51.7"/>
		<rect x="108.5" y="511.6" class="st3" width="108.5" height="51.7"/>
		<rect x="216.9" y="511.6" class="st4" width="108.5" height="51.7"/>
		<rect x="325.4" y="511.6" class="st5" width="108.5" height="51.7"/>
		<rect x="433.9" y="511.6" class="st6" width="108.5" height="51.7"/>
		<rect x="542.4" y="511.6" class="st7" width="108.5" height="51.7"/>
		<rect x="650.8" y="511.6" class="st8" width="108.5" height="51.7"/>
		<rect x="650.8" y="459.9" class="st2" width="108.5" height="51.7"/>
		<rect x="542.4" y="459.9" class="st3" width="108.5" height="51.7"/>
		<rect x="433.9" y="459.9" class="st4" width="108.5" height="51.7"/>
		<rect x="325.4" y="459.9" class="st5" width="108.5" height="51.7"/>
		<rect x="216.9" y="459.9" class="st6" width="108.5" height="51.7"/>
		<rect x="108.5" y="459.9" class="st7" width="108.5" height="51.7"/>
		<rect y="459.9" class="st8" width="108.5" height="51.7"/>
	</g>
	<g class="st1">
		<rect x="650.8" y="873.6" class="st2" width="108.5" height="51.7"/>
		<rect x="542.4" y="873.6" class="st3" width="108.5" height="51.7"/>
		<rect x="433.9" y="873.6" class="st4" width="108.5" height="51.7"/>
		<rect x="325.4" y="873.6" class="st5" width="108.5" height="51.7"/>
		<rect x="216.9" y="873.6" class="st6" width="108.5" height="51.7"/>
		<rect x="108.5" y="873.6" class="st7" width="108.5" height="51.7"/>
		<rect y="873.6" class="st8" width="108.5" height="51.7"/>
		<rect y="821.8" class="st2" width="108.5" height="51.7"/>
		<rect x="108.5" y="821.8" class="st3" width="108.5" height="51.7"/>
		<rect x="216.9" y="821.8" class="st4" width="108.5" height="51.7"/>
		<rect x="325.4" y="821.8" class="st5" width="108.5" height="51.7"/>
		<rect x="433.9" y="821.8" class="st6" width="108.5" height="51.7"/>
		<rect x="542.4" y="821.8" class="st7" width="108.5" height="51.7"/>
		<rect x="650.8" y="821.8" class="st8" width="108.5" height="51.7"/>
		<rect x="650.8" y="770.1" class="st2" width="108.5" height="51.7"/>
		<rect x="542.4" y="770.1" class="st3" width="108.5" height="51.7"/>
		<rect x="433.9" y="770.1" class="st4" width="108.5" height="51.7"/>
		<rect x="325.4" y="770.1" class="st5" width="108.5" height="51.7"/>
		<rect x="216.9" y="770.1" class="st6" width="108.5" height="51.7"/>
		<rect x="108.5" y="770.1" class="st7" width="108.5" height="51.7"/>
		<rect y="770.1" class="st8" width="108.5" height="51.7"/>
	</g>
	<g class="st1">
		<rect y="615" class="st2" width="108.5" height="51.7"/>
		<rect x="108.5" y="615" class="st3" width="108.5" height="51.7"/>
		<rect x="216.9" y="615" class="st4" width="108.5" height="51.7"/>
		<rect x="325.4" y="615" class="st5" width="108.5" height="51.7"/>
		<rect x="433.9" y="615" class="st6" width="108.5" height="51.7"/>
		<rect x="542.4" y="615" class="st7" width="108.5" height="51.7"/>
		<rect x="650.8" y="615" class="st8" width="108.5" height="51.7"/>
		<rect x="650.8" y="666.7" class="st2" width="108.5" height="51.7"/>
		<rect x="542.4" y="666.7" class="st3" width="108.5" height="51.7"/>
		<rect x="433.9" y="666.7" class="st4" width="108.5" height="51.7"/>
		<rect x="325.4" y="666.7" class="st5" width="108.5" height="51.7"/>
		<rect x="216.9" y="666.7" class="st6" width="108.5" height="51.7"/>
		<rect x="108.5" y="666.7" class="st7" width="108.5" height="51.7"/>
		<rect y="666.7" class="st8" width="108.5" height="51.7"/>
		<rect y="718.5" class="st2" width="108.5" height="51.7"/>
		<rect x="108.5" y="718.5" class="st3" width="108.5" height="51.7"/>
		<rect x="216.9" y="718.5" class="st4" width="108.5" height="51.7"/>
		<rect x="325.4" y="718.5" class="st5" width="108.5" height="51.7"/>
		<rect x="433.9" y="718.5" class="st6" width="108.5" height="51.7"/>
		<rect x="542.4" y="718.5" class="st7" width="108.5" height="51.7"/>
		<rect x="650.8" y="718.5" class="st8" width="108.5" height="51.7"/>
	</g>
</g>
<g id="Layer_2_1_">
	<g id="Layer_1-2">
		<path class="st9" d="M206.7,700.1c-4.2-0.2-8.3,1.1-11.6,3.6c-0.8,0.8-1.5,2.2,0,3.1l1.2,0.7c2.4-2.9,6-4.4,9.7-4.1
			c7.2,0,13,5.8,13,13c0,0.2,0,0.5,0,0.7v0.6c0,5.4-3,7.2-6.2,7.2h-19.5c-3.2,0-6.2-1.8-6.2-7.2v-30.9c-0.1-0.9,0.6-1.8,1.5-1.8
			c0.1,0,0.2,0,0.3,0h1.2v-2.8h-3.7c-2.4-0.3-4.5,1.4-4.7,3.8c0,0.1,0,0.3,0,0.4v31.2c0,5.4-2.9,7.2-6.1,7.2h-2.2
			c-3.3,0.2-6.1-2.3-6.3-5.5c0-0.4,0-0.8,0-1.2v-17.4h-11.3c-8.6,0-15.2,5.1-15.2,13.9v6.9c0.6,7-4.6,13.1-11.6,13.7
			c-0.7,0.1-1.4,0.1-2,0c-7.7,0.6-14.3-5.2-14.9-12.8c0-0.5,0-1,0-1.5c0-4.8,2.2-9.2,6.1-12l-1.1-0.8c-1.2-1-2.5-0.3-3.4,0.6
			c-3.5,3.4-5.4,8-5.2,12.9c-0.2,9.7,7.6,17.7,17.3,17.9c0.4,0,0.8,0,1.2,0c10.5,0,18.8-6,18.8-17.5v-7.2c-0.4-5.4,3.7-10,9.1-10.4
			c0.3,0,0.6,0,0.9,0h6.1v13.2c0,7.8,4.7,10.9,10.5,10.9h3.9c3.8,0.3,7.5-1.7,9.2-5.1c1,3.2,4.1,5.4,7.5,5.1h20.4
			c5.8,0,10.5-3.1,10.5-11.4c0.2-9.1-7-16.6-16.1-16.7C207.5,700.1,207.1,700.1,206.7,700.1z"/>
		<path class="st9" d="M240,685.6l-1-0.5c-0.4,0.9-1.2,1.4-2.2,1.4c-1.7,0.1-3.2-1.2-3.3-2.9c-0.1-1.3,0.8-2.4,2.1-2.5
			c0.1,0,0.2,0,0.3,0c1,0,2,0.5,2.5,1.3l0.9-0.5c1-0.6,0.7-1.2,0.3-1.7c-1.1-1.1-2.5-1.7-4.1-1.6c-2.5-0.1-4.7,1.8-4.8,4.4
			c0,0.1,0,0.1,0,0.2c0,1.3,0.6,2.5,1.5,3.4h-2.6v2.4h6.9c1.5,0.1,2.9-0.5,3.9-1.7C240.7,686.8,241.1,686.2,240,685.6z"/>
		<path class="st9" d="M231.7,695.8V724c0.1,0.9-0.6,1.7-1.5,1.7c-0.1,0-0.2,0-0.3,0h-1.3v2.8h3.6c2.4,0.2,4.5-1.5,4.7-3.8
			c0-0.1,0-0.2,0-0.4V696c-0.1-0.9,0.6-1.8,1.5-1.8c0.1,0,0.2,0,0.3,0h1.2v-2.8h-3.4c-2.3-0.3-4.5,1.3-4.8,3.6
			C231.7,695.3,231.7,695.5,231.7,695.8z"/>
		<path class="st9" d="M282,693.9c1.8,0,3.2-1.4,3.2-3.1c0,0,0,0,0,0c0.2-1.7-1.1-3.3-2.9-3.5c-1.7-0.2-3.3,1.1-3.5,2.9
			c0,0.2,0,0.4,0,0.6C278.8,692.5,280.2,693.9,282,693.9C282,693.9,282,693.9,282,693.9z"/>
		<path class="st9" d="M273.2,693.9c1.8,0,3.2-1.4,3.2-3.2c0-1.8-1.4-3.3-3.2-3.3c-1.8,0-3.2,1.3-3.3,3.1c0,0.1,0,0.1,0,0.2
			c0,1.7,1.4,3.2,3.1,3.2C273.1,693.9,273.1,693.9,273.2,693.9z"/>
		<path class="st9" d="M343.3,700.1c-8.7,0-15.8,5.8-15.8,14.2v3.5c0,5.4-2.8,7.2-6.1,7.2h-2.2c-3.2,0-6.2-1.8-6.2-7.2v-30.9
			c-0.1-0.9,0.6-1.8,1.5-1.8c0.1,0,0.2,0,0.3,0h1.2v-2.8h-3.5c-2.4-0.3-4.5,1.4-4.8,3.8c0,0.1,0,0.2,0,0.4v31.2
			c0,5.4-2.9,7.2-6.1,7.2h-2.2c-3.2,0-6.1-1.8-6.2-7.2v-20.1h-15.6c-8.7,0-15.7,5.9-15.7,14.4c0.1,8.1,6.8,14.6,14.9,14.5
			c0.2,0,0.3,0,0.5,0c4.4,0.1,8.6-2.1,11.1-5.8c0.9,4.8,5.3,8.1,10.1,7.6h3.9c3.8,0.3,7.5-1.7,9.2-5.1c1,3.3,4.1,5.4,7.5,5.1h2.1
			c3.9,0,7.3-2.7,8.3-6.5c3.1,4.3,8.2,6.8,13.5,6.6c8.7,0,15.8-5.8,15.8-14.2S352,700.2,343.3,700.1z M288,712.5
			c0.5,5.4-3.5,10.1-8.8,10.6c-0.5,0-1,0.1-1.5,0c-6.1-1-10.2-6.7-9.2-12.7c0.8-4.8,4.5-8.5,9.2-9.2H288V712.5z M343.3,725.1
			c-5.9,0.2-10.9-4.5-11.1-10.4s4.5-10.9,10.4-11.1c5.9-0.2,10.9,4.5,11.1,10.4c0,0.1,0,0.2,0,0.3c0.3,5.6-4,10.4-9.6,10.8
			C343.9,725,343.6,725,343.3,725.1L343.3,725.1z"/>
		<path class="st9" d="M422.6,686.5v31.2c0,5.4-3,7.2-6.2,7.2h-2.2c-3.2,0-6.2-1.8-6.2-7.2v-0.9c0-9.4-6.5-16.2-17-16.2h-4.2
			l14.9-15.4c0.6-0.7,1.7-0.8,2.4-0.2c0.1,0,0.1,0.1,0.2,0.2l0.9,0.9l1.8-2l-2.1-2c-1.5-1.7-4.1-1.9-5.8-0.4
			c-0.1,0.1-0.3,0.2-0.4,0.4l-17.6,18.2c-0.9,1-1.3,2.3-1.3,3.7H390c6.9-0.3,12.6,5.1,12.9,11.9c0,0.4,0,0.7,0,1.1v0.6
			c0,5.4-3,7.2-6.2,7.2h-18.5c-3.2,0-6.2-1.8-6.2-7.2v-30.9c-0.1-1,0.7-1.8,1.6-1.8c0.1,0,0.2,0,0.3,0h1.2v-2.8h-3.6
			c-2.3-0.3-4.4,1.4-4.7,3.7c0,0.1,0,0.3,0,0.4v30.9c0,7.8,4.7,10.9,10.5,10.9h20.1c3.8,0.3,7.5-1.7,9.2-5.1
			c1.1,3.3,4.2,5.4,7.7,5.1h2.8c5.8,0,10.6-3.1,10.6-11.4v-29.9c-0.1-1,0.7-1.8,1.6-1.8c0.1,0,0.2,0,0.3,0h1.2v-2.8h-3.9
			c-2.2-0.2-4.2,1.5-4.3,3.7C422.5,686.2,422.5,686.4,422.6,686.5z"/>
		<path class="st9" d="M437.3,689.6v34.2c0.1,1-0.7,1.8-1.6,1.8c-0.1,0-0.2,0-0.2,0h-1.2v2.8h3.5c2.4,0.2,4.5-1.5,4.7-3.8
			c0-0.1,0-0.2,0-0.4v-34.3c-0.1-0.9,0.6-1.8,1.5-1.8c0.1,0,0.2,0,0.3,0h1.2v-2.8H442c-2.3-0.2-4.4,1.5-4.7,3.8
			C437.3,689.2,437.3,689.4,437.3,689.6z"/>
		<path class="st9" d="M479,696.5c1.7,0.2,3.3-1.1,3.5-2.9s-1.1-3.3-2.9-3.5c-0.2,0-0.4,0-0.6,0c-1.7-0.2-3.3,1.1-3.5,2.9
			c-0.2,1.7,1.1,3.3,2.9,3.5C478.6,696.5,478.8,696.5,479,696.5z"/>
		<path class="st9" d="M487.8,696.5c1.8,0,3.2-1.4,3.2-3.1c0-1.8-1.4-3.2-3.1-3.2c-1.8,0-3.2,1.4-3.2,3.1c0,0,0,0.1,0,0.1
			C484.6,695.1,486,696.5,487.8,696.5z"/>
		<path class="st9" d="M483.4,700.1c-8.6,0-15.7,6.9-15.8,15.6c0,8.3,6.6,12.8,15.8,12.8c9.2,0,15.7-4.5,15.7-12.8
			C499,707.1,492,700.1,483.4,700.1z M483.4,725.1c-4.4,0-10.4-2.2-10.4-9.4c-0.9-5.7,3-11.1,8.8-12c5.7-0.9,11.1,3,12,8.8
			c0.2,1.1,0.2,2.2,0,3.2c0,7.1-6.1,9.3-10.4,9.3V725.1z"/>
		<path class="st9" d="M507,704.9v25.4c0,7.2-0.7,10.4-4,10.4c-1.7-0.1-3.2-1.3-3.7-2.9l-1.5,0.8c-1.8,0.9-1,2.2-0.3,3.1
			c1.5,1.8,3.8,2.9,6.2,2.8c6.5,0,8.5-5.1,8.5-14.3v-24.8c-0.1-0.9,0.6-1.8,1.5-1.8c0.1,0,0.2,0,0.3,0h1.2v-2.8h-3.5
			c-2.4-0.3-4.5,1.4-4.8,3.8C507.1,704.5,507,704.7,507,704.9z"/>
		<path class="st9" d="M616.7,686.5v31.2c0,5.4-3,7.2-6.2,7.2h-2.2c-3.3,0-6.2-1.8-6.2-7.2v-2.9c0-8-5.4-14.7-15.6-14.7
			c-6.4,0-12.4,3-16.2,8.2v-3.8c0-2.8-1.3-3.8-3.7-3.8h-1.5v24.2h-13.9v-10.4c0-8.5-7-14.4-15.7-14.4s-15.7,5.9-15.7,14.3
			c0,8.5,7.1,13.9,15.3,13.9h11c-0.4,9-4.1,12.4-9.7,12.4c-3.1,0.2-6-1.6-7.3-4.4l-1.5,0.8c-1.4,0.7-1.4,1.6-0.8,2.6
			c2.5,3.1,6.3,4.8,10.2,4.5c8.5,0,13.9-5.4,14.2-15.9h40.3c3.8,0.3,7.4-1.7,9.2-5.1c1.1,3.2,4.2,5.3,7.7,5.1h2.8
			c5.8,0,10.6-3.1,10.6-11.4v-30c-0.1-0.9,0.6-1.8,1.5-1.8c0.1,0,0.2,0,0.3,0h1.2v-2.8h-3.9c-2.2-0.1-4.1,1.6-4.2,3.8
			C616.7,686.2,616.7,686.4,616.7,686.5z M546.1,724.9h-10.5c-5.4,0.3-10-3.8-10.4-9.1c0-0.4,0-0.9,0-1.3
			c-0.4-5.6,3.8-10.5,9.4-10.9c0.3,0,0.7,0,1,0c5.9,0.1,10.7,5,10.6,11c0,0.2,0,0.4,0,0.6V724.9z M597,717.4c0,5.7-3,7.5-6.2,7.5
			h-20.3v-7.5c0-6.7,7.2-13.9,15.7-13.9c5.8-0.2,10.7,4.3,10.9,10.1c0,0.3,0,0.7,0,1L597,717.4z"/>
		<path class="st9" d="M636.2,685.4c-2.4-0.2-4.5,1.5-4.7,3.8c0,0.1,0,0.2,0,0.4v34.2c0.1,0.9-0.6,1.8-1.5,1.8c-0.1,0-0.2,0-0.3,0
			h-1.2v2.8h3.6c2.3,0.2,4.4-1.5,4.7-3.8c0-0.1,0-0.3,0-0.4v-34.3c-0.1-0.9,0.6-1.8,1.5-1.8c0.1,0,0.2,0,0.3,0h1.2v-2.8L636.2,685.4
			z"/>
		<path class="st9" d="M257.9,512.7c1.9,4.8,6.6,7.9,11.8,7.8h41c7.9,0,15.4-2.8,18.9-7c1.6-1.8,2.9-4.4-1.1-6.6l-4.4-2.4
			c-2,3.6-6,5.6-10.1,5.2h-4.5c-8.7,0-14.2-4.8-14.2-14.2s5.6-16.2,14.2-16.2c4.5-0.3,8.8,2.1,10.9,6.1l5-2.9
			c4.3-2.5,2.8-4.9,1.2-6.7c-4-4.4-11.7-7.5-20.4-7.5c-17.2,0-30,10.2-30,26.2c-0.2,5.6,1.8,11,5.6,15.2h-12.2
			c-4.2,0-7.6-2.5-7.6-8.8v-55.1c-0.1-1.8,1.2-3.3,3-3.4c0.1,0,0.3,0,0.4,0h2.3v-6.9h-9.9c-9.1,0-14.4,3.5-14.4,10.8v54.6
			c0,6.3-3.4,8.8-7.7,8.8h-2.8c-4.3,0-7.7-2.5-7.7-8.6v-31.6h-27c-17,0-28,6.9-28,24.1v12.1c0,13.7-8.7,21.6-21.4,21.6
			c-13.2,0-23.6-6.2-23.6-21.9c0.4-8,4.1-15.5,10.3-20.6l-3.5-2.6c-3.9-2.8-7.4,0.3-9.2,2.4c-5.6,6.2-8.6,14.2-8.5,22.6
			c0,20.8,14.5,33.6,34.4,33.6c23.1,0,40.1-11.1,40.1-34.8v-13.1c0-9.3,5.6-12.1,9.3-12.1h8.3v17.8c0,14.7,8.3,21.9,21.6,21.9h12.2
			C248.1,520.5,254.3,518.1,257.9,512.7z"/>
		<path class="st9" d="M416.4,534.9c0-5.4-4.4-9.7-9.7-9.7s-9.7,4.4-9.7,9.7s4.4,9.7,9.7,9.7S416.4,540.3,416.4,534.9z"/>
		<path class="st9" d="M566.6,463.8c5.4,0,9.8-4.3,9.9-9.7c0-5.4-4.3-9.8-9.7-9.9c-5.4,0-9.8,4.3-9.9,9.7c0,0,0,0.1,0,0.1
			C556.9,459.4,561.2,463.7,566.6,463.8z"/>
		<path class="st9" d="M614.7,480.4v20.4c0,6.3-3.4,8.8-7.7,8.8h-18.7c-2.1,0-4.3-0.3-6.3-0.9c7.8-5.6,13-12.7,13-21.6
			c0-14.5-11.1-17.7-28.1-17.7h-24.1c-6.8,0-10.3,4.6-9.9,9.3v6l11.9,15.2c2.3,3.1,4.8,6,7.6,8.6c-2.7,0.8-5.5,1.1-8.3,1.1h-54.9
			c-4.2,0-7.6-2.5-7.6-8.8v-55.1c-0.1-1.8,1.2-3.3,3-3.4c0.1,0,0.3,0,0.4,0h2.3v-6.9h-10c-9.1,0-14.4,3.5-14.4,10.8v54.6
			c0,6.3-3.4,8.8-7.7,8.8h-2.8c-4.2,0-7.7-2.5-7.7-8.8V480c0-7.2-3.2-10.5-12.2-10.5H426v31.4c0,6.3-3.4,8.8-7.6,8.8h-16.9
			c-12.1,0-21-4.1-21-13.2c-0.1-4.2,1.5-8.3,4.4-11.3l-3.4-2.6c-3.8-2.8-6.6,0-7.7,2.4c-2,4.2-3.1,8.7-3,13.4
			c0,14.6,12.5,22.1,28.6,22.1h23.7c7.7,0,13.9-2.4,17.6-7.7c1.9,4.8,6.6,7.9,11.8,7.7h7.5c7.7,0,13.9-2.4,17.6-7.7
			c1.9,4.8,6.6,7.9,11.8,7.7h55.2c7.1,0,14.1-1.1,20.8-3.3c7.1,2.5,14.7,3.7,22.3,3.3h24.1c13.4,0,21.6-7.1,21.6-21.8v-18.9
			c-0.1-1.8,1.2-3.3,3-3.4c0.1,0,0.3,0,0.4,0h2.4v-6.9h-11.8C618.4,469.4,614.7,473.2,614.7,480.4z M565.4,503.4
			c-2.9-2.4-5.4-5.2-7.5-8.3l-11.1-14.9h20c7,0,9,3.7,9,7.3C575.7,494.6,571.4,499.8,565.4,503.4z"/>
		<path class="st9" d="M634.4,444.8c-5,0-9.1,4.1-9.1,9.2s4.1,9.1,9.2,9.1c5,0,9-4.1,9.1-9.1c0-5-4-9.2-9.1-9.2
			C634.5,444.8,634.5,444.8,634.4,444.8z"/>
		<path class="st9" d="M613.8,463.1c5,0,9.2-4,9.2-9.1s-4-9.2-9.1-9.2c-5,0-9.2,4-9.2,9.1c0,0,0,0.1,0,0.1
			C604.8,459,608.8,463.1,613.8,463.1z"/>
		<path class="st9" d="M317,565.8c0,5,4.1,9.1,9.2,9.1s9.1-4.1,9.1-9.2c0-5-4.1-9.1-9.2-9.1C321,556.7,316.9,560.8,317,565.8
			C317,565.8,317,565.8,317,565.8z"/>
		<path class="st9" d="M296.5,565.8c0,5,4.1,9.1,9.2,9.1s9.1-4.1,9.1-9.2c0-5-4.1-9.1-9.2-9.1C300.5,556.7,296.4,560.8,296.5,565.8
			C296.5,565.8,296.5,565.8,296.5,565.8z"/>
		<path class="st9" d="M346.5,606.7c0-15.8-13.2-26.6-30.6-26.6S285,591,285,606.7c0,15.7,13.4,26.6,28.2,26.6
			c5.4,0,10.5-2.1,14.4-5.9v0.3c0,12.8-13.5,20-26.7,20c-16.1,0-34.2-7.5-34.2-26.3c0.2-9.3,3.9-18.3,10.3-25l-3.5-2.6
			c-3.9-2.8-7.5,0.2-9.2,2.4c-5.7,7.5-8.7,16.6-8.5,26c0,25.5,21.1,39,45.6,39c26.6,0,45.2-14.2,45.2-34.1V606.7z M315.9,622.5
			c-5.6,0-11.9-4.6-11.9-15.7c0-11.1,6.2-15.6,11.9-15.6s11.9,4.9,11.9,15.9S321.5,622.5,315.9,622.5L315.9,622.5z"/>
		<path class="st9" d="M580.6,558.3v54.4c0,6.3-3.4,8.8-7.7,8.8h-13.1c-2.1,0-4.3-0.3-6.3-0.9c7.8-5.4,13-12.7,13-21.6
			c0-14.5-11-17.7-28.1-17.7h-24.1c-6.8,0-10.3,4.6-9.9,9.3v6l11.9,15.2c2.2,3.1,4.8,6,7.6,8.6c-2.7,0.8-5.5,1.2-8.3,1.1H385.6
			c-4.2,0-7.6-2.5-7.6-8.8v-20.8c0-7.3-3.3-10.5-12.4-10.5h-6.3v53.8c0,8.7-1.3,14.6-5.9,14.6c-2.3,0-4.3-0.9-5.8-5l-5.1,2.8
			c-4.6,2.4-2.8,5.6-1.3,7.5c3.9,4.6,9.8,7.1,15.8,6.7c14.4,0,21-10.3,21-29.2v-3.1c2.1,2,4.9,3,7.7,2.8h130.2
			c7.1,0,14.1-1,20.8-3.1c7.1,2.6,14.7,3.7,22.3,3.3h18.6c13.4,0,21.6-7.2,21.6-22.1v-52.6c-0.1-1.8,1.2-3.3,3-3.4
			c0.1,0,0.3,0,0.4,0h2.4v-6.9h-11.8C584.3,547.3,580.6,550.9,580.6,558.3z M536.9,615.3c-2.9-2.4-5.4-5.2-7.5-8.3L518.3,592h20.1
			c7,0,9,3.7,9,7.4C547.2,606.4,542.9,611.6,536.9,615.3z"/>
		<path class="st9" d="M614,563.7v58.2c0.1,1.8-1.4,3.3-3.2,3.4c-0.1,0-0.2,0-0.2,0h-2.4v6.9h10.1c9,0,14.4-3.5,14.4-10.8v-58.2
			c-0.1-1.8,1.2-3.3,3-3.4c0.1,0,0.3,0,0.4,0h2.4v-6.9h-10.1C619.5,552.9,614,556.4,614,563.7z"/>
		<path class="st9" d="M638.1,327.3c3,0,5.4-2.4,5.4-5.4V273c0-3-2.4-5.3-5.4-5.3h-0.4v-52.5c2.9-1,4.8-3.8,4.6-6.9v-15.2
			c0.2-4.9-3.6-9.1-8.4-9.3c-0.1,0-0.2,0-0.3,0h-15.8c-3,0-5.6,1.8-6.7,4.6H474c-0.1-2.6-2.2-4.6-4.8-4.6h-50.1
			c-2.5,0.1-4.5,2.1-4.6,4.6H284.2c-1.1-2.8-3.8-4.6-6.7-4.6h-15.8c-4.9,0-8.8,4-8.8,8.9c0,0.1,0,0.2,0,0.4v15.2
			c-0.2,3.1,1.8,6,4.7,7v52.4h-0.4c-3,0-5.4,2.4-5.4,5.3v48.9c0,3,2.4,5.4,5.4,5.4h0.4v52.2c-3,1-4.9,3.8-4.7,7v15.2
			c-0.2,4.9,3.5,9.1,8.4,9.3c0.1,0,0.2,0,0.3,0h15.8c2.9,0,5.5-1.7,6.7-4.4h133.8l0,0c0,2.8,2.2,5,5,5h49.5c2.8,0,5-2.2,5-5v0l0,0
			H611c1.1,2.7,3.8,4.5,6.7,4.5h15.8c4.9,0,8.8-4,8.8-8.9c0-0.1,0-0.3,0-0.4v-15.2c0.2-3.1-1.7-6-4.7-7v-52.3H638.1z M631.8,400.8
			H510.4v-65.6h121.5V400.8z M507.4,400.8H387.3v-65.6h120.1V400.8z M263.5,335.2h120.9v65.6H263.5V335.2z M387.3,332.3v-67.8h120.1
			v67.8H387.3z M387.3,261.6v-67.4h120.1v67.5L387.3,261.6z M263.5,194.2h120.9v67.5H263.5V194.2z M510.4,194.2h121.5v67.5H510.4
			V194.2z M263.5,267.7v-3.2h120.9v67.8H263.5V267.7z M631.8,332.3H510.4v-67.8h121.5V332.3z"/>
		<path class="st9" d="M458.1,295.8h-4.3c-0.6-2.2-2.3-3.8-4.5-4.4v-4.4H446v4.5c-2,0.6-3.5,2.2-4.1,4.3h-4.6v3.3h4.6
			c0.6,2,2.1,3.6,4.1,4.3v4.5h3.3v-4.5c2.2-0.5,3.9-2.2,4.5-4.3h4.3L458.1,295.8z M448,294.6c1.5,0,2.8,1.2,2.8,2.8
			c0,1.5-1.2,2.8-2.8,2.8c-1.5,0-2.8-1.2-2.8-2.8C445.2,295.8,446.5,294.6,448,294.6z"/>
	</g>
</g>
</svg>
