<svg xmlns="http://www.w3.org/2000/svg" viewBox="0 0 759.31 930.6"><defs><style>.cls-1{isolation:isolate;}.cls-2,.cls-8{opacity:0.5;}.cls-10,.cls-3{opacity:0.6;}.cls-3{mix-blend-mode:multiply;}.cls-10,.cls-4,.cls-5,.cls-6,.cls-7,.cls-8,.cls-9{fill:#726b8f;}.cls-4{opacity:0.1;}.cls-5{opacity:0.2;}.cls-6{opacity:0.3;}.cls-7{opacity:0.4;}.cls-9{opacity:0.55;}</style></defs><title>Asset 6@3x1</title><g class="cls-1"><g id="Layer_2" data-name="Layer 2"><g id="Layer_1-2" data-name="Layer 1"><g class="cls-2"><g class="cls-3"><rect class="cls-4" width="108.47" height="51.7"/><rect class="cls-5" x="108.47" width="108.47" height="51.7"/><rect class="cls-6" x="216.95" width="108.47" height="51.7"/><rect class="cls-7" x="325.42" width="108.47" height="51.7"/><rect class="cls-8" x="433.89" width="108.47" height="51.7"/><rect class="cls-9" x="542.36" width="108.47" height="51.7"/><rect class="cls-10" x="650.84" width="108.47" height="51.7"/><rect class="cls-4" x="650.84" y="51.7" width="108.47" height="51.7" transform="translate(1410.15 155.1) rotate(180)"/><rect class="cls-5" x="542.36" y="51.7" width="108.47" height="51.7" transform="translate(1193.2 155.1) rotate(180)"/><rect class="cls-6" x="433.89" y="51.7" width="108.47" height="51.7" transform="translate(976.26 155.1) rotate(180)"/><rect class="cls-7" x="325.42" y="51.7" width="108.47" height="51.7" transform="translate(759.31 155.1) rotate(180)"/><rect class="cls-8" x="216.95" y="51.7" width="108.47" height="51.7" transform="translate(542.36 155.1) rotate(180)"/><rect class="cls-9" x="108.47" y="51.7" width="108.47" height="51.7" transform="translate(325.42 155.1) rotate(180)"/><rect class="cls-10" y="51.7" width="108.47" height="51.7" transform="translate(108.47 155.1) rotate(180)"/><rect class="cls-4" y="103.4" width="108.47" height="51.7"/><rect class="cls-5" x="108.47" y="103.4" width="108.47" height="51.7"/><rect class="cls-6" x="216.95" y="103.4" width="108.47" height="51.7"/><rect class="cls-7" x="325.42" y="103.4" width="108.47" height="51.7"/><rect class="cls-8" x="433.89" y="103.4" width="108.47" height="51.7"/><rect class="cls-9" x="542.36" y="103.4" width="108.47" height="51.7"/><rect class="cls-10" x="650.84" y="103.4" width="108.47" height="51.7"/></g><g class="cls-3"><rect class="cls-4" x="650.84" y="258.49" width="108.47" height="51.7" transform="translate(1410.15 568.69) rotate(180)"/><rect class="cls-5" x="542.36" y="258.49" width="108.47" height="51.7" transform="translate(1193.2 568.69) rotate(180)"/><rect class="cls-6" x="433.89" y="258.49" width="108.47" height="51.7" transform="translate(976.26 568.69) rotate(180)"/><rect class="cls-7" x="325.42" y="258.49" width="108.47" height="51.7" transform="translate(759.31 568.69) rotate(180)"/><rect class="cls-8" x="216.95" y="258.49" width="108.47" height="51.7" transform="translate(542.36 568.69) rotate(180)"/><rect class="cls-9" x="108.47" y="258.49" width="108.47" height="51.7" transform="translate(325.42 568.69) rotate(180)"/><rect class="cls-10" y="258.49" width="108.47" height="51.7" transform="translate(108.47 568.69) rotate(180)"/><rect class="cls-4" y="206.79" width="108.47" height="51.7"/><rect class="cls-5" x="108.47" y="206.79" width="108.47" height="51.7"/><rect class="cls-6" x="216.95" y="206.79" width="108.47" height="51.7"/><rect class="cls-7" x="325.42" y="206.79" width="108.47" height="51.7"/><rect class="cls-8" x="433.89" y="206.79" width="108.47" height="51.7"/><rect class="cls-9" x="542.36" y="206.79" width="108.47" height="51.7"/><rect class="cls-10" x="650.84" y="206.79" width="108.47" height="51.7"/><rect class="cls-4" x="650.84" y="155.1" width="108.47" height="51.7" transform="translate(1410.15 361.89) rotate(180)"/><rect class="cls-5" x="542.36" y="155.1" width="108.47" height="51.7" transform="translate(1193.2 361.89) rotate(180)"/><rect class="cls-6" x="433.89" y="155.1" width="108.47" height="51.7" transform="translate(976.26 361.89) rotate(180)"/><rect class="cls-7" x="325.42" y="155.1" width="108.47" height="51.7" transform="translate(759.31 361.89) rotate(180)"/><rect class="cls-8" x="216.95" y="155.1" width="108.47" height="51.7" transform="translate(542.36 361.89) rotate(180)"/><rect class="cls-9" x="108.47" y="155.1" width="108.47" height="51.7" transform="translate(325.42 361.89) rotate(180)"/><rect class="cls-10" y="155.1" width="108.47" height="51.7" transform="translate(108.47 361.89) rotate(180)"/></g><g class="cls-3"><rect class="cls-4" y="310.19" width="108.47" height="51.7"/><rect class="cls-5" x="108.47" y="310.19" width="108.47" height="51.7"/><rect class="cls-6" x="216.95" y="310.19" width="108.47" height="51.7"/><rect class="cls-7" x="325.42" y="310.19" width="108.47" height="51.7"/><rect class="cls-8" x="433.89" y="310.19" width="108.47" height="51.7"/><rect class="cls-9" x="542.36" y="310.19" width="108.47" height="51.7"/><rect class="cls-10" x="650.84" y="310.19" width="108.47" height="51.7"/><rect class="cls-4" x="650.84" y="361.89" width="108.47" height="51.7" transform="translate(1410.15 775.47) rotate(180)"/><rect class="cls-5" x="542.36" y="361.89" width="108.47" height="51.7" transform="translate(1193.2 775.47) rotate(180)"/><rect class="cls-6" x="433.89" y="361.89" width="108.47" height="51.7" transform="translate(976.26 775.47) rotate(180)"/><rect class="cls-7" x="325.42" y="361.89" width="108.47" height="51.7" transform="translate(759.31 775.47) rotate(180)"/><rect class="cls-8" x="216.95" y="361.89" width="108.47" height="51.7" transform="translate(542.36 775.47) rotate(180)"/><rect class="cls-9" x="108.47" y="361.89" width="108.47" height="51.7" transform="translate(325.42 775.47) rotate(180)"/><rect class="cls-10" y="361.89" width="108.47" height="51.7" transform="translate(108.47 775.47) rotate(180)"/><rect class="cls-4" y="413.58" width="108.47" height="51.7"/><rect class="cls-5" x="108.47" y="413.58" width="108.47" height="51.7"/><rect class="cls-6" x="216.95" y="413.58" width="108.47" height="51.7"/><rect class="cls-7" x="325.42" y="413.58" width="108.47" height="51.7"/><rect class="cls-8" x="433.89" y="413.58" width="108.47" height="51.7"/><rect class="cls-9" x="542.36" y="413.58" width="108.47" height="51.7"/><rect class="cls-10" x="650.84" y="413.58" width="108.47" height="51.7"/></g><g class="cls-3"><rect class="cls-4" x="650.84" y="568.68" width="108.47" height="51.7" transform="translate(1410.15 1189.06) rotate(180)"/><rect class="cls-5" x="542.36" y="568.68" width="108.47" height="51.7" transform="translate(1193.2 1189.06) rotate(180)"/><rect class="cls-6" x="433.89" y="568.68" width="108.47" height="51.7" transform="translate(976.26 1189.06) rotate(180)"/><rect class="cls-7" x="325.42" y="568.68" width="108.47" height="51.7" transform="translate(759.31 1189.06) rotate(180)"/><rect class="cls-8" x="216.95" y="568.68" width="108.47" height="51.7" transform="translate(542.36 1189.06) rotate(180)"/><rect class="cls-9" x="108.47" y="568.68" width="108.47" height="51.7" transform="translate(325.42 1189.06) rotate(180)"/><rect class="cls-10" y="568.68" width="108.47" height="51.7" transform="translate(108.47 1189.06) rotate(180)"/><rect class="cls-4" y="516.98" width="108.47" height="51.7"/><rect class="cls-5" x="108.47" y="516.98" width="108.47" height="51.7"/><rect class="cls-6" x="216.95" y="516.98" width="108.47" height="51.7"/><rect class="cls-7" x="325.42" y="516.98" width="108.47" height="51.7"/><rect class="cls-8" x="433.89" y="516.98" width="108.47" height="51.7"/><rect class="cls-9" x="542.36" y="516.98" width="108.47" height="51.7"/><rect class="cls-10" x="650.84" y="516.98" width="108.47" height="51.7"/><rect class="cls-4" x="650.84" y="465.28" width="108.47" height="51.7" transform="translate(1410.15 982.26) rotate(180)"/><rect class="cls-5" x="542.36" y="465.28" width="108.47" height="51.7" transform="translate(1193.2 982.26) rotate(180)"/><rect class="cls-6" x="433.89" y="465.28" width="108.47" height="51.7" transform="translate(976.26 982.26) rotate(180)"/><rect class="cls-7" x="325.42" y="465.28" width="108.47" height="51.7" transform="translate(759.31 982.26) rotate(180)"/><rect class="cls-8" x="216.95" y="465.28" width="108.47" height="51.7" transform="translate(542.36 982.26) rotate(180)"/><rect class="cls-9" x="108.47" y="465.28" width="108.47" height="51.7" transform="translate(325.42 982.26) rotate(180)"/><rect class="cls-10" y="465.28" width="108.47" height="51.7" transform="translate(108.47 982.26) rotate(180)"/></g><g class="cls-3"><rect class="cls-4" x="650.84" y="878.91" width="108.47" height="51.7" transform="translate(1410.15 1809.51) rotate(180)"/><rect class="cls-5" x="542.36" y="878.91" width="108.47" height="51.7" transform="translate(1193.2 1809.51) rotate(180)"/><rect class="cls-6" x="433.89" y="878.91" width="108.47" height="51.7" transform="translate(976.26 1809.51) rotate(180)"/><rect class="cls-7" x="325.42" y="878.91" width="108.47" height="51.7" transform="translate(759.31 1809.51) rotate(180)"/><rect class="cls-8" x="216.95" y="878.91" width="108.47" height="51.7" transform="translate(542.36 1809.51) rotate(180)"/><rect class="cls-9" x="108.47" y="878.91" width="108.47" height="51.7" transform="translate(325.42 1809.51) rotate(180)"/><rect class="cls-10" y="878.91" width="108.47" height="51.7" transform="translate(108.47 1809.51) rotate(180)"/><rect class="cls-4" y="827.21" width="108.47" height="51.7"/><rect class="cls-5" x="108.47" y="827.21" width="108.47" height="51.7"/><rect class="cls-6" x="216.95" y="827.21" width="108.47" height="51.7"/><rect class="cls-7" x="325.42" y="827.21" width="108.47" height="51.7"/><rect class="cls-8" x="433.89" y="827.21" width="108.47" height="51.7"/><rect class="cls-9" x="542.36" y="827.21" width="108.47" height="51.7"/><rect class="cls-10" x="650.84" y="827.21" width="108.47" height="51.7"/><rect class="cls-4" x="650.84" y="775.51" width="108.47" height="51.7" transform="translate(1410.15 1602.71) rotate(180)"/><rect class="cls-5" x="542.36" y="775.51" width="108.47" height="51.7" transform="translate(1193.2 1602.71) rotate(180)"/><rect class="cls-6" x="433.89" y="775.51" width="108.47" height="51.7" transform="translate(976.26 1602.71) rotate(180)"/><rect class="cls-7" x="325.42" y="775.51" width="108.47" height="51.7" transform="translate(759.31 1602.71) rotate(180)"/><rect class="cls-8" x="216.95" y="775.51" width="108.47" height="51.7" transform="translate(542.36 1602.71) rotate(180)"/><rect class="cls-9" x="108.47" y="775.51" width="108.47" height="51.7" transform="translate(325.42 1602.71) rotate(180)"/><rect class="cls-10" y="775.51" width="108.47" height="51.7" transform="translate(108.47 1602.71) rotate(180)"/></g><g class="cls-3"><rect class="cls-4" y="620.41" width="108.47" height="51.7"/><rect class="cls-5" x="108.47" y="620.41" width="108.47" height="51.7"/><rect class="cls-6" x="216.95" y="620.41" width="108.47" height="51.7"/><rect class="cls-7" x="325.42" y="620.41" width="108.47" height="51.7"/><rect class="cls-8" x="433.89" y="620.41" width="108.47" height="51.7"/><rect class="cls-9" x="542.36" y="620.41" width="108.47" height="51.7"/><rect class="cls-10" x="650.84" y="620.41" width="108.47" height="51.7"/><rect class="cls-4" x="650.84" y="672.11" width="108.47" height="51.7" transform="translate(1410.15 1395.92) rotate(180)"/><rect class="cls-5" x="542.36" y="672.11" width="108.47" height="51.7" transform="translate(1193.2 1395.92) rotate(180)"/><rect class="cls-6" x="433.89" y="672.11" width="108.47" height="51.7" transform="translate(976.26 1395.92) rotate(180)"/><rect class="cls-7" x="325.42" y="672.11" width="108.47" height="51.7" transform="translate(759.31 1395.92) rotate(180)"/><rect class="cls-8" x="216.95" y="672.11" width="108.47" height="51.7" transform="translate(542.36 1395.92) rotate(180)"/><rect class="cls-9" x="108.47" y="672.11" width="108.47" height="51.7" transform="translate(325.42 1395.92) rotate(180)"/><rect class="cls-10" y="672.11" width="108.47" height="51.7" transform="translate(108.47 1395.92) rotate(180)"/><rect class="cls-4" y="723.81" width="108.47" height="51.7"/><rect class="cls-5" x="108.47" y="723.81" width="108.47" height="51.7"/><rect class="cls-6" x="216.95" y="723.81" width="108.47" height="51.7"/><rect class="cls-7" x="325.42" y="723.81" width="108.47" height="51.7"/><rect class="cls-8" x="433.89" y="723.81" width="108.47" height="51.7"/><rect class="cls-9" x="542.36" y="723.81" width="108.47" height="51.7"/><rect class="cls-10" x="650.84" y="723.81" width="108.47" height="51.7"/></g></g></g></g></g></svg>