<?xml version="1.0" encoding="utf-8"?>
<!-- Generator: Adobe Illustrator 24.0.2, SVG Export Plug-In . SVG Version: 6.00 Build 0)  -->
<svg version="1.1" id="Layer_1" xmlns="http://www.w3.org/2000/svg" xmlns:xlink="http://www.w3.org/1999/xlink" x="0px" y="0px"
	 viewBox="0 0 759.3 917.4" style="enable-background:new 0 0 759.3 917.4;" xml:space="preserve">
<style type="text/css">
	.st0{opacity:0.5;}
	.st1{opacity:0.6;}
	.st2{opacity:0.1;fill:#726B8F;enable-background:new    ;}
	.st3{opacity:0.2;fill:#726B8F;enable-background:new    ;}
	.st4{opacity:0.3;fill:#726B8F;enable-background:new    ;}
	.st5{opacity:0.4;fill:#726B8F;enable-background:new    ;}
	.st6{opacity:0.5;fill:#726B8F;enable-background:new    ;}
	.st7{opacity:0.55;fill:#726B8F;enable-background:new    ;}
	.st8{opacity:0.6;fill:#726B8F;enable-background:new    ;}
	.st9{fill:#473575;}
</style>
<title>Artboard 51@4x1</title>
<g class="st0">
	<g class="st1">
		<rect x="0" y="-5.4" class="st2" width="108.5" height="51.7"/>
		<rect x="108.5" y="-5.4" class="st3" width="108.5" height="51.7"/>
		<rect x="216.9" y="-5.4" class="st4" width="108.5" height="51.7"/>
		<rect x="325.4" y="-5.4" class="st5" width="108.5" height="51.7"/>
		<rect x="433.9" y="-5.4" class="st6" width="108.5" height="51.7"/>
		<rect x="542.4" y="-5.4" class="st7" width="108.5" height="51.7"/>
		<rect x="650.8" y="-5.4" class="st8" width="108.5" height="51.7"/>
		<rect x="650.8" y="46.3" class="st2" width="108.5" height="51.7"/>
		<rect x="542.4" y="46.3" class="st3" width="108.5" height="51.7"/>
		<rect x="433.9" y="46.3" class="st4" width="108.5" height="51.7"/>
		<rect x="325.4" y="46.3" class="st5" width="108.5" height="51.7"/>
		<rect x="216.9" y="46.3" class="st6" width="108.5" height="51.7"/>
		<rect x="108.5" y="46.3" class="st7" width="108.5" height="51.7"/>
		<rect x="0" y="46.3" class="st8" width="108.5" height="51.7"/>
		<rect x="0" y="98" class="st2" width="108.5" height="51.7"/>
		<rect x="108.5" y="98" class="st3" width="108.5" height="51.7"/>
		<rect x="216.9" y="98" class="st4" width="108.5" height="51.7"/>
		<rect x="325.4" y="98" class="st5" width="108.5" height="51.7"/>
		<rect x="433.9" y="98" class="st6" width="108.5" height="51.7"/>
		<rect x="542.4" y="98" class="st7" width="108.5" height="51.7"/>
		<rect x="650.8" y="98" class="st8" width="108.5" height="51.7"/>
	</g>
	<g class="st1">
		<rect x="650.8" y="253.1" class="st2" width="108.5" height="51.7"/>
		<rect x="542.4" y="253.1" class="st3" width="108.5" height="51.7"/>
		<rect x="433.9" y="253.1" class="st4" width="108.5" height="51.7"/>
		<rect x="325.4" y="253.1" class="st5" width="108.5" height="51.7"/>
		<rect x="216.9" y="253.1" class="st6" width="108.5" height="51.7"/>
		<rect x="108.5" y="253.1" class="st7" width="108.5" height="51.7"/>
		<rect x="0" y="253.1" class="st8" width="108.5" height="51.7"/>
		<rect x="0" y="201.4" class="st2" width="108.5" height="51.7"/>
		<rect x="108.5" y="201.4" class="st3" width="108.5" height="51.7"/>
		<rect x="216.9" y="201.4" class="st4" width="108.5" height="51.7"/>
		<rect x="325.4" y="201.4" class="st5" width="108.5" height="51.7"/>
		<rect x="433.9" y="201.4" class="st6" width="108.5" height="51.7"/>
		<rect x="542.4" y="201.4" class="st7" width="108.5" height="51.7"/>
		<rect x="650.8" y="201.4" class="st8" width="108.5" height="51.7"/>
		<rect x="650.8" y="149.7" class="st2" width="108.5" height="51.7"/>
		<rect x="542.4" y="149.7" class="st3" width="108.5" height="51.7"/>
		<rect x="433.9" y="149.7" class="st4" width="108.5" height="51.7"/>
		<rect x="325.4" y="149.7" class="st5" width="108.5" height="51.7"/>
		<rect x="216.9" y="149.7" class="st6" width="108.5" height="51.7"/>
		<rect x="108.5" y="149.7" class="st7" width="108.5" height="51.7"/>
		<rect x="0" y="149.7" class="st8" width="108.5" height="51.7"/>
	</g>
	<g class="st1">
		<rect x="0" y="304.8" class="st2" width="108.5" height="51.7"/>
		<rect x="108.5" y="304.8" class="st3" width="108.5" height="51.7"/>
		<rect x="216.9" y="304.8" class="st4" width="108.5" height="51.7"/>
		<rect x="325.4" y="304.8" class="st5" width="108.5" height="51.7"/>
		<rect x="433.9" y="304.8" class="st6" width="108.5" height="51.7"/>
		<rect x="542.4" y="304.8" class="st7" width="108.5" height="51.7"/>
		<rect x="650.8" y="304.8" class="st8" width="108.5" height="51.7"/>
		<rect x="650.8" y="356.5" class="st2" width="108.5" height="51.7"/>
		<rect x="542.4" y="356.5" class="st3" width="108.5" height="51.7"/>
		<rect x="433.9" y="356.5" class="st4" width="108.5" height="51.7"/>
		<rect x="325.4" y="356.5" class="st5" width="108.5" height="51.7"/>
		<rect x="216.9" y="356.5" class="st6" width="108.5" height="51.7"/>
		<rect x="108.5" y="356.5" class="st7" width="108.5" height="51.7"/>
		<rect x="0" y="356.5" class="st8" width="108.5" height="51.7"/>
		<rect x="0" y="408.2" class="st2" width="108.5" height="51.7"/>
		<rect x="108.5" y="408.2" class="st3" width="108.5" height="51.7"/>
		<rect x="216.9" y="408.2" class="st4" width="108.5" height="51.7"/>
		<rect x="325.4" y="408.2" class="st5" width="108.5" height="51.7"/>
		<rect x="433.9" y="408.2" class="st6" width="108.5" height="51.7"/>
		<rect x="542.4" y="408.2" class="st7" width="108.5" height="51.7"/>
		<rect x="650.8" y="408.2" class="st8" width="108.5" height="51.7"/>
	</g>
	<g class="st1">
		<rect x="650.8" y="563.3" class="st2" width="108.5" height="51.7"/>
		<rect x="542.4" y="563.3" class="st3" width="108.5" height="51.7"/>
		<rect x="433.9" y="563.3" class="st4" width="108.5" height="51.7"/>
		<rect x="325.4" y="563.3" class="st5" width="108.5" height="51.7"/>
		<rect x="216.9" y="563.3" class="st6" width="108.5" height="51.7"/>
		<rect x="108.5" y="563.3" class="st7" width="108.5" height="51.7"/>
		<rect x="0" y="563.3" class="st8" width="108.5" height="51.7"/>
		<rect x="0" y="511.6" class="st2" width="108.5" height="51.7"/>
		<rect x="108.5" y="511.6" class="st3" width="108.5" height="51.7"/>
		<rect x="216.9" y="511.6" class="st4" width="108.5" height="51.7"/>
		<rect x="325.4" y="511.6" class="st5" width="108.5" height="51.7"/>
		<rect x="433.9" y="511.6" class="st6" width="108.5" height="51.7"/>
		<rect x="542.4" y="511.6" class="st7" width="108.5" height="51.7"/>
		<rect x="650.8" y="511.6" class="st8" width="108.5" height="51.7"/>
		<rect x="650.8" y="459.9" class="st2" width="108.5" height="51.7"/>
		<rect x="542.4" y="459.9" class="st3" width="108.5" height="51.7"/>
		<rect x="433.9" y="459.9" class="st4" width="108.5" height="51.7"/>
		<rect x="325.4" y="459.9" class="st5" width="108.5" height="51.7"/>
		<rect x="216.9" y="459.9" class="st6" width="108.5" height="51.7"/>
		<rect x="108.5" y="459.9" class="st7" width="108.5" height="51.7"/>
		<rect x="0" y="459.9" class="st8" width="108.5" height="51.7"/>
	</g>
	<g class="st1">
		<rect x="650.8" y="873.6" class="st2" width="108.5" height="51.7"/>
		<rect x="542.4" y="873.6" class="st3" width="108.5" height="51.7"/>
		<rect x="433.9" y="873.6" class="st4" width="108.5" height="51.7"/>
		<rect x="325.4" y="873.6" class="st5" width="108.5" height="51.7"/>
		<rect x="216.9" y="873.6" class="st6" width="108.5" height="51.7"/>
		<rect x="108.5" y="873.6" class="st7" width="108.5" height="51.7"/>
		<rect x="0" y="873.6" class="st8" width="108.5" height="51.7"/>
		<rect x="0" y="821.8" class="st2" width="108.5" height="51.7"/>
		<rect x="108.5" y="821.8" class="st3" width="108.5" height="51.7"/>
		<rect x="216.9" y="821.8" class="st4" width="108.5" height="51.7"/>
		<rect x="325.4" y="821.8" class="st5" width="108.5" height="51.7"/>
		<rect x="433.9" y="821.8" class="st6" width="108.5" height="51.7"/>
		<rect x="542.4" y="821.8" class="st7" width="108.5" height="51.7"/>
		<rect x="650.8" y="821.8" class="st8" width="108.5" height="51.7"/>
		<rect x="650.8" y="770.1" class="st2" width="108.5" height="51.7"/>
		<rect x="542.4" y="770.1" class="st3" width="108.5" height="51.7"/>
		<rect x="433.9" y="770.1" class="st4" width="108.5" height="51.7"/>
		<rect x="325.4" y="770.1" class="st5" width="108.5" height="51.7"/>
		<rect x="216.9" y="770.1" class="st6" width="108.5" height="51.7"/>
		<rect x="108.5" y="770.1" class="st7" width="108.5" height="51.7"/>
		<rect x="0" y="770.1" class="st8" width="108.5" height="51.7"/>
	</g>
	<g class="st1">
		<rect x="0" y="615" class="st2" width="108.5" height="51.7"/>
		<rect x="108.5" y="615" class="st3" width="108.5" height="51.7"/>
		<rect x="216.9" y="615" class="st4" width="108.5" height="51.7"/>
		<rect x="325.4" y="615" class="st5" width="108.5" height="51.7"/>
		<rect x="433.9" y="615" class="st6" width="108.5" height="51.7"/>
		<rect x="542.4" y="615" class="st7" width="108.5" height="51.7"/>
		<rect x="650.8" y="615" class="st8" width="108.5" height="51.7"/>
		<rect x="650.8" y="666.7" class="st2" width="108.5" height="51.7"/>
		<rect x="542.4" y="666.7" class="st3" width="108.5" height="51.7"/>
		<rect x="433.9" y="666.7" class="st4" width="108.5" height="51.7"/>
		<rect x="325.4" y="666.7" class="st5" width="108.5" height="51.7"/>
		<rect x="216.9" y="666.7" class="st6" width="108.5" height="51.7"/>
		<rect x="108.5" y="666.7" class="st7" width="108.5" height="51.7"/>
		<rect x="0" y="666.7" class="st8" width="108.5" height="51.7"/>
		<rect x="0" y="718.5" class="st2" width="108.5" height="51.7"/>
		<rect x="108.5" y="718.5" class="st3" width="108.5" height="51.7"/>
		<rect x="216.9" y="718.5" class="st4" width="108.5" height="51.7"/>
		<rect x="325.4" y="718.5" class="st5" width="108.5" height="51.7"/>
		<rect x="433.9" y="718.5" class="st6" width="108.5" height="51.7"/>
		<rect x="542.4" y="718.5" class="st7" width="108.5" height="51.7"/>
		<rect x="650.8" y="718.5" class="st8" width="108.5" height="51.7"/>
	</g>
</g>
<path class="st9" d="M174.2,490.9c9,4.1,13.9,11.5,13.9,20.6c0,14-11.6,24.2-32.8,24.2h-42.7v-87.4h40.2c20.9,0,32.2,9.9,32.2,23.4
	c0.1,7.6-4,14.6-10.7,18.1L174.2,490.9z M132,464.6v18.7h20.6c8.5,0,12.5-3.6,12.5-9.4s-4-9.4-12.5-9.4L132,464.6z M155.1,519.3
	c8.9,0,13.1-3.7,13.1-9.9s-4.3-9.9-13.1-9.9H132v19.7L155.1,519.3z"/>
<path class="st9" d="M213,518.4h45.4v17.2h-64.9v-87.4h64.2v17.3H213V483h41.7v16.2H213V518.4z"/>
<path class="st9" d="M328,535.7l-6-17.3h-37.3l-6,17.3h-20.4l32-87.4h26.4l32,87.4H328z M290.7,501.1H316l-12.1-34.7h-1.1
	L290.7,501.1z"/>
<path class="st9" d="M364.4,535.7v-69.8h-27.8v-17.6h75.2v17.6h-27.9v69.8H364.4z"/>
<path class="st9" d="M458.3,535.7v-69.8h-27.8v-17.6h75.2v17.6h-27.8v69.8H458.3z"/>
<path class="st9" d="M568.3,448.3h19.5v87.4h-19.5v-35.3h-39.2v35.3h-19.5v-87.4h19.5v33.8h39.2V448.3z"/>
<path class="st9" d="M616.5,518.4H662v17.2h-65v-87.4h64.2v17.3h-44.7V483h41.7v16.2h-41.7V518.4z"/>
<path class="st9" d="M109.1,615.1h20.4c0.1,9.1,7.7,15,20.6,15c9,0,15.2-2.9,15.2-9.6c0-6.1-4.4-8.6-18.5-10.7
	c-26-3.9-34.1-10.1-34.1-25.7c0-16.7,13.5-27.1,35.2-27.1c22.1,0,36.5,12.4,36.8,30.5h-20.4c-0.2-8.7-7.5-12.7-17.5-12.7
	c-8.6,0-14.5,2.6-14.5,8.6c0,5.7,4.4,8.1,20,10.2c23.5,3.2,32.6,10.7,32.6,26.3c0,17.5-14.1,28-35.7,28
	C124.2,647.8,109.6,634.4,109.1,615.1z"/>
<path class="st9" d="M208.1,646l-24-87.4h20.2l16.6,65.7h1.1l16.9-60.7h19.7l16.2,60.7h1l17.5-65.7h19.9L288.4,646h-24.1l-15-56.6
	h-1.1L232.6,646L208.1,646z"/>
<path class="st9" d="M336.5,628.8H382V646H317v-87.4h64.2v17.2h-44.7v17.5h41.7v16.2h-41.7V628.8z"/>
<path class="st9" d="M451.5,646l-6-17.3h-37.3l-6,17.3h-20.3l32-87.4h26.4l32,87.4H451.5z M414.2,611.5h25.3l-12.1-34.7h-1.1
	L414.2,611.5z"/>
<path class="st9" d="M487.9,646v-69.8H460v-17.6h75.2v17.6h-27.8V646H487.9z"/>
<path class="st9" d="M109,724.1v-51.3h15.2c19.8,0,29.2,11.1,29.2,25.7s-9.5,25.7-29.2,25.7H109z M113.1,720.3h11.1
	c17.1,0,25-9.2,25-21.8s-7.8-21.8-25-21.8h-11.1V720.3z"/>
<path class="st9" d="M124.2,724.7H109l-0.6-0.5v-51.3l0.6-0.6h15.2c18.7,0,29.8,9.8,29.8,26.2S142.9,724.7,124.2,724.7z
	 M109.6,723.5h14.6c18,0,28.7-9.4,28.7-25.1s-10.7-25.1-28.7-25.1h-14.6V723.5z M124.2,720.8h-11.1l-0.6-0.6v-43.6l0.6-0.6h11.1
	c16.2,0,25.6,8.2,25.6,22.4S140.4,720.9,124.2,720.8L124.2,720.8z M113.7,719.7h10.5c15.5,0,24.4-7.8,24.4-21.3s-8.9-21.3-24.4-21.3
	h-10.5V719.7z"/>
<path class="st9" d="M160,705.8c0-11.4,7.9-19.3,18.8-19.3s18.9,7.9,18.9,19.3s-7.9,19.3-18.9,19.3S160,717.2,160,705.8z
	 M193.7,705.8c0-9.4-5.9-15.5-14.8-15.5s-14.7,6.1-14.7,15.5s5.9,15.5,14.7,15.5S193.7,715.2,193.7,705.8z"/>
<path class="st9" d="M178.9,725.6c-11.4,0-19.4-8.2-19.4-19.8s8-19.8,19.4-19.8s19.5,8.2,19.5,19.8S190.4,725.6,178.9,725.6z
	 M178.9,687.1c-10.8,0-18.3,7.7-18.3,18.7s7.5,18.7,18.3,18.7s18.4-7.7,18.4-18.7S189.7,687.1,178.9,687.1L178.9,687.1z
	 M178.9,721.8c-9.1,0-15.3-6.4-15.3-16s6.1-16,15.3-16c9.3,0,15.4,6.3,15.4,16S188.2,721.8,178.9,721.8z M178.9,690.9
	c-8.6,0-14.2,5.8-14.2,14.9s5.6,14.9,14.2,14.9s14.2-5.8,14.2-14.9S187.5,690.9,178.9,690.9L178.9,690.9z"/>
<path class="st9" d="M206.6,724.1v-36.7h3.9v4.4h0.4c2.4-3.8,6.8-5.4,11.3-5.4c8.7,0,14.4,5.9,14.4,15.7v21.9h-4V702
	c0-7.5-4-11.7-11.1-11.7s-11.1,4.2-11.1,11.7v22.1H206.6z"/>
<path class="st9" d="M236.7,724.7h-4l-0.6-0.5V702c0-7.2-3.7-11.1-10.5-11.1s-10.6,4-10.6,11.1v22.1l-0.6,0.5h-3.9l-0.6-0.5v-36.7
	l0.6-0.6h4l0.6,0.6v3.3c2.4-3.1,6.3-4.8,11.2-4.8c9.2,0,15,6.2,15,16.2v21.9L236.7,724.7z M233.3,723.6h2.8v-21.4
	c0-9.3-5.3-15.1-13.9-15.1c-2.8,0-8,0.7-10.8,5.1l-0.5,0.3h-0.5l-0.6-0.5V688h-2.9v35.5h2.9V702c0-7.7,4.4-12.2,11.7-12.2
	c7.3,0,11.6,4.5,11.6,12.2L233.3,723.6z"/>
<path class="st9" d="M246,690.3l3.3-17.5h5.3l-6.2,17.5H246z"/>
<path class="st9" d="M248.4,690.9H246l-0.5-0.7l3.3-17.5l0.5-0.5h5.3l0.5,0.7l-6.1,17.5L248.4,690.9z M246.6,689.8h1.4l5.8-16.4h-4
	L246.6,689.8z"/>
<path class="st9" d="M281.4,691.1h-10.3v25.6c0,2.9,1,3.7,3.7,3.7h6.6v3.7h-6.6c-5.7,0-7.6-1.8-7.6-7.4v-25.6h-8.4v-3.7h8.4v-11.4h4
	v11.4h10.3L281.4,691.1z"/>
<path class="st9" d="M281.4,724.7h-6.6c-6,0-8.2-2.1-8.2-8v-25h-7.9l-0.6-0.6v-3.7l0.6-0.6h7.9v-10.8l0.6-0.6h4l0.6,0.6v10.8h9.7
	l0.6,0.6v3.7l-0.6,0.6h-9.7v25c0,2.5,0.7,3.2,3.1,3.2h6.6l0.6,0.6v3.7L281.4,724.7z M259.3,690.6h7.9l0.5,0.5v25.6
	c0,5.2,1.6,6.8,7.1,6.8h6V721h-6c-3.1,0-4.2-1.2-4.2-4.3v-25.6l0.5-0.5h9.7V688h-9.7l-0.5-0.5v-10.8h-2.9v10.8l-0.5,0.5h-7.9V690.6z
	"/>
<path class="st9" d="M304.1,705.8c0-11.2,7.8-19.3,18.7-19.3c8.9,0,16.2,5.6,17.5,14.2h-3.8c-1.5-7.1-7.2-10.4-13.6-10.4
	c-8.9,0-14.6,6.2-14.6,15.5s5.7,15.5,14.5,15.5c7,0,12.4-4,13.7-10.4h3.8c-1,8.4-8.4,14.2-17.5,14.2
	C311.7,725.1,304.1,717,304.1,705.8z"/>
<path class="st9" d="M322.7,725.6c-11.3,0-19.2-8.2-19.2-19.8c0-11.5,8.1-19.8,19.2-19.8c9.5,0,16.7,5.9,18,14.7l-0.5,0.6h-3.8
	l-0.5-0.4c-1.4-6.2-6.2-10-13.1-10c-8.5,0-14,5.8-14,14.9s5.5,14.9,14,14.9c6.8,0,11.9-3.9,13.2-10l0.5-0.5h3.8l0.5,0.6
	C339.8,719.5,332.2,725.6,322.7,725.6z M322.8,687.1c-10.5,0-18.1,7.9-18.1,18.7c0,11,7.4,18.7,18.1,18.7c8.7,0,15.7-5.5,16.9-13.1
	h-2.7c-1.5,6.3-7,10.4-14.1,10.4c-9,0-15.1-6.4-15.1-16s5.9-16,15.1-16c7.2,0,12.5,3.9,14.1,10.4h2.7
	C338.1,692.3,331.5,687.1,322.8,687.1L322.8,687.1z"/>
<path class="st9" d="M347.9,724.1v-36.7h4v4.6h0.4c1.6-3.6,4.4-4.8,9.3-4.8h2.4v3.8h-4c-6,0-8.2,4.6-8.2,10.6v22.4L347.9,724.1z"/>
<path class="st9" d="M351.9,724.7h-4l-0.6-0.5v-36.7l0.6-0.6h4l0.5,0.6v3.2c1.7-2.8,4.5-3.9,9.2-3.9h2.4l0.6,0.6v3.8l-0.6,0.6h-4
	c-6.3,0-7.6,5.5-7.6,10.1v22.4L351.9,724.7z M348.5,723.5h2.9v-21.8c0-7.2,3.1-11.2,8.8-11.2h3.4v-2.7h-1.9c-5,0-7.4,1.2-8.8,4.4
	l-0.5,0.3h-0.4l-0.6-0.6V688h-2.9V723.5z"/>
<path class="st9" d="M367.7,705.8c0-11.4,7.8-19.3,18.8-19.3s18.9,7.9,18.9,19.3s-7.8,19.3-18.9,19.3S367.7,717.2,367.7,705.8z
	 M401.4,705.8c0-9.4-5.9-15.5-14.8-15.5s-14.7,6.1-14.7,15.5s5.9,15.5,14.7,15.5S401.4,715.2,401.4,705.8z"/>
<path class="st9" d="M386.5,725.6c-11.4,0-19.4-8.2-19.4-19.8s8-19.8,19.4-19.8s19.5,8.2,19.5,19.8S398,725.6,386.5,725.6z
	 M386.5,687.1c-10.8,0-18.3,7.7-18.3,18.7s7.5,18.7,18.3,18.7s18.4-7.7,18.4-18.7S397.4,687.1,386.5,687.1L386.5,687.1z
	 M386.5,721.8c-9.1,0-15.3-6.4-15.3-16s6.1-16,15.3-16c9.3,0,15.4,6.3,15.4,16S395.9,721.8,386.5,721.8z M386.5,690.9
	c-8.6,0-14.2,5.8-14.2,14.9s5.6,14.9,14.2,14.9s14.2-5.8,14.2-14.9S395.2,690.9,386.5,690.9L386.5,690.9z"/>
<path class="st9" d="M414.3,738.8v-51.3h4v6.2h0.4c3-5.2,8.9-7.2,14.3-7.2c10.8,0,18.2,8.2,18.2,19.3s-7.5,19.3-18.2,19.3
	c-5.4,0-11.3-2-14.3-7.2h-0.4v20.9L414.3,738.8z M447.1,705.8c0-9.3-5.7-15.5-14.4-15.5s-14.4,6.2-14.4,15.5s5.7,15.5,14.4,15.5
	S447.1,715.1,447.1,705.8L447.1,705.8z"/>
<path class="st9" d="M418.2,739.3h-4l-0.5-0.5v-51.3l0.5-0.6h4l0.6,0.6v5c2.9-4.1,8.1-6.5,14.2-6.5c10.9,0,18.8,8.3,18.8,19.8
	s-7.9,19.8-18.8,19.8c-6.1,0-11.3-2.4-14.2-6.5v19.7L418.2,739.3z M414.8,738.2h2.8v-20.3l0.6-0.5h0.5l0.5,0.3
	c2.5,4.3,7.7,6.9,13.8,6.9c10.2,0,17.7-7.9,17.7-18.7s-7.4-18.7-17.7-18.7c-6.1,0-11.3,2.6-13.8,6.9l-0.5,0.3h-0.5l-0.6-0.5V688
	h-2.8V738.2z M432.7,721.8c-9,0-15-6.4-15-16s6-16,15-16s15,6.4,15,16S441.6,721.8,432.7,721.8z M432.7,690.9
	c-8.4,0-13.9,5.8-13.9,14.9s5.5,14.9,13.9,14.9s13.9-5.8,13.9-14.9S441.1,690.9,432.7,690.9L432.7,690.9z"/>
<path class="st9" d="M459.7,735.5L463,718h5.3l-6.2,17.5H459.7z"/>
<path class="st9" d="M462.1,736h-2.4l-0.5-0.7l3.3-17.5l0.5-0.5h5.3l0.5,0.7l-6.1,17.5L462.1,736z M460.4,734.9h1.4l5.8-16.4h-4
	L460.4,734.9z"/>
<path class="st9" d="M508.6,724.1v-47.5h-18.9v-3.8h41.9v3.8h-18.9v47.5H508.6z"/>
<path class="st9" d="M512.7,724.7h-4.1l-0.6-0.5v-47h-18.3l-0.6-0.5v-3.8l0.6-0.6h41.9l0.6,0.6v3.8l-0.6,0.5h-18.4v47L512.7,724.7z
	 M509.2,723.5h3v-46.9l0.6-0.6h18.3v-2.7h-40.8v2.7h18.3l0.6,0.6V723.5z"/>
<path class="st9" d="M533.8,724.1v-36.7h4v4.6h0.5c1.6-3.6,4.4-4.8,9.3-4.8h2.4v3.8h-4c-6,0-8.2,4.6-8.2,10.6v22.4L533.8,724.1z"/>
<path class="st9" d="M537.8,724.7h-4l-0.6-0.5v-36.7l0.6-0.6h4l0.5,0.6v3.2c1.7-2.8,4.5-3.9,9.2-3.9h2.4l0.5,0.6v3.8l-0.5,0.6h-4
	c-6.3,0-7.7,5.5-7.7,10.1v22.4L537.8,724.7z M534.4,723.5h2.8v-21.8c0-7.2,3.1-11.2,8.8-11.2h3.4v-2.7h-1.9c-5,0-7.3,1.2-8.8,4.4
	l-0.5,0.3h-0.4l-0.6-0.6V688h-2.8L534.4,723.5z"/>
<path class="st9" d="M590,706.7h-32.2c0.4,8.9,6.2,14.7,14.8,14.7c5.9,0,10.8-2.9,12.9-7.8h3.8c-1.9,6.9-8.6,11.5-16.7,11.5
	c-11.2,0-19-8.1-19-19.3s7.8-19.3,18.5-19.3C583.7,686.5,591.5,696,590,706.7z M557.9,703h28.4c-0.7-7.5-6.2-12.8-14.3-12.8
	C564.4,690.3,559,695.2,557.9,703L557.9,703z"/>
<path class="st9" d="M572.6,725.6c-11.5,0-19.5-8.2-19.5-19.8c0-11.5,8-19.8,19-19.8c5.4-0.1,10.7,2.2,14.3,6.2
	c3.4,4,5,9.3,4.2,14.6l-0.5,0.5h-31.6c0.6,8.2,6.1,13.5,14.2,13.5c5.7,0,10.5-2.8,12.4-7.4l0.5-0.3h3.8l0.5,0.7
	C587.9,720.9,580.9,725.6,572.6,725.6z M572.1,687.1c-10.4,0-17.9,7.9-17.9,18.7c0,11,7.6,18.7,18.4,18.7c7.6,0,13.9-4.1,16-10.4
	h-2.7c-2.2,4.8-7.2,7.8-13.3,7.8c-9,0-15-6-15.4-15.2l0.5-0.6h31.7c0.6-4.8-0.9-9.5-4-13.2C582.1,689.1,577.2,687,572.1,687.1
	L572.1,687.1z M586.4,703.5h-28.4l-0.5-0.6c1.1-8.2,6.7-13.2,14.7-13.2s14.1,5.3,14.8,13.2L586.4,703.5z M558.5,702.5h27.2
	c-1-7.1-6.3-11.6-13.7-11.6C564.9,690.8,559.8,695.3,558.5,702.5z"/>
<path class="st9" d="M595.7,705.8c0-11.1,7.5-19.3,18.2-19.3c5.3,0,11.3,2,14.3,7.2h0.4v-6.2h4v36.7h-4v-6.2h-0.4
	c-3,5.2-8.9,7.2-14.3,7.2C603.2,725.1,595.7,716.9,595.7,705.8z M628.7,705.8c0-9.3-5.7-15.5-14.4-15.5s-14.4,6.2-14.4,15.5
	s5.7,15.5,14.4,15.5S628.7,715.1,628.7,705.8L628.7,705.8z"/>
<path class="st9" d="M613.9,725.6c-10.9,0-18.8-8.3-18.8-19.8S603,686,613.9,686c6.1,0,11.3,2.4,14.2,6.5v-5l0.6-0.6h4l0.5,0.6v36.7
	l-0.5,0.5h-4l-0.6-0.5v-5C625.2,723.2,620,725.6,613.9,725.6z M613.9,687.1c-10.2,0-17.7,7.9-17.7,18.7s7.5,18.7,17.7,18.7
	c6.2,0,11.3-2.6,13.8-6.9l0.5-0.3h0.4l0.5,0.5v5.6h2.8V688h-2.8v5.7l-0.5,0.5h-0.4l-0.5-0.3C625.2,689.7,620.1,687.1,613.9,687.1
	L613.9,687.1z M614.2,721.8c-9,0-15-6.4-15-16s6-16,15-16s15,6.4,15,16S623.2,721.8,614.2,721.8z M614.2,690.9
	c-8.4,0-13.9,5.8-13.9,14.9s5.5,14.9,13.9,14.9s13.9-5.8,13.9-14.9S622.7,690.9,614.2,690.9L614.2,690.9z"/>
<path class="st9" d="M661.9,691.1h-10.3v25.6c0,2.9,1,3.7,3.7,3.7h6.6v3.7h-6.6c-5.7,0-7.6-1.8-7.6-7.4v-25.6h-8.4v-3.7h8.4v-11.4h4
	v11.4h10.3L661.9,691.1z"/>
<path class="st9" d="M661.9,724.7h-6.6c-6,0-8.2-2.1-8.2-8v-25h-7.9l-0.6-0.6v-3.7l0.6-0.6h7.9v-10.8l0.6-0.6h4l0.6,0.6v10.8h9.7
	l0.5,0.6v3.7l-0.5,0.6h-9.7v25c0,2.5,0.7,3.2,3.1,3.2h6.6l0.5,0.6v3.7L661.9,724.7z M639.8,690.6h7.9l0.5,0.5v25.6
	c0,5.2,1.7,6.8,7.1,6.8h6V721h-6c-3.1,0-4.2-1.2-4.2-4.3v-25.6l0.5-0.5h9.7V688h-9.7l-0.5-0.5v-10.8h-2.8v10.8l-0.5,0.5h-7.9
	L639.8,690.6z"/>
<rect x="247.6" y="185.7" class="st9" width="3" height="220"/>
<rect x="375.9" y="185.7" class="st9" width="3" height="220"/>
<rect x="118.5" y="259.2" class="st9" width="388.5" height="3.1"/>
<rect x="118.5" y="332.9" class="st9" width="388.5" height="3"/>
<path class="st9" d="M514,324.6h-5.3l0,0v-56l0,0h5.3c0.4,0,0.7,0.3,0.7,0.7l0,0v54.5C514.7,324.3,514.4,324.6,514,324.6L514,324.6
	L514,324.6z"/>
<path class="st9" d="M512.2,327.6h-6.5v-62.1h6.5c3.1,0,5.6,2.5,5.6,5.6v0v50.9C517.7,325.1,515.2,327.6,512.2,327.6z"/>
<path class="st9" d="M113.2,268.6h5.3l0,0v56l0,0h-5.3c-0.4,0-0.7-0.3-0.7-0.7v-54.6C112.5,268.9,112.8,268.6,113.2,268.6
	L113.2,268.6L113.2,268.6z"/>
<path class="st9" d="M121.6,327.6H115c-3.1,0-5.6-2.5-5.6-5.6v-50.9c0-3.1,2.5-5.6,5.6-5.6h6.6V327.6z"/>
<path class="st9" d="M508.8,384.9v22.5h-22.3c0,2.5,2,4.5,4.5,4.5h16.5c3.7,0,6.1-3,6.1-6.6v-15.9c0-2.5-1.5-4.5-4-4.5L508.8,384.9z
	"/>
<path class="st9" d="M507.5,415H491c-4.2,0-7.6-3.4-7.6-7.6v-3h22.3v-22.6h3.8c4.1,0,7,3.2,7,7.6v15.9
	C516.6,410.9,512.7,415,507.5,415z"/>
<path class="st9" d="M511.7,410.4H115.5V182.8h396.2V410.4z M121.6,404.3h384V188.9h-384V404.3z"/>
<path class="st9" d="M285.6,412v-4.6l0,0h56l0,0v4.6c0,0.3-0.3,0.6-0.6,0.6h-54.8C285.9,412.6,285.6,412.3,285.6,412z"/>
<path class="st9" d="M339.4,415.7h-51.6c-2.9,0-5.2-2.3-5.2-5.2c0,0,0,0,0,0v-6.1h62.1v6.1C344.7,413.3,342.3,415.7,339.4,415.7z"/>
<path class="st9" d="M118.3,208.2v-22.5h22.3c0-2.5-2-4.5-4.5-4.5h-16.4c-3.7,0-6.1,3-6.1,6.6v15.9c0,2.5,1.5,4.5,4,4.5H118.3z"/>
<path class="st9" d="M121.4,211.2h-3.8c-4.1,0-7.1-3.2-7.1-7.6v-15.9c0-5.5,3.9-9.7,9.1-9.7h16.4c4.2,0,7.6,3.4,7.6,7.6v3.1h-22.3
	V211.2z"/>
<path class="st9" d="M338,181.6v4.1l0,0h-56l0,0v-4.1c0-0.3,0.2-0.5,0.5-0.5h54.9C337.8,181.1,338,181.3,338,181.6z"/>
<path class="st9" d="M341.1,188.8H279v-5.7c0-2.8,2.2-5,5-5h52.1c2.8,0,5,2.2,5,5L341.1,188.8z"/>
<path class="st9" d="M118.3,384.8v22.5h22.3c0,2.5-2,4.5-4.5,4.5l0,0h-16.4c-3.7,0-6.1-3-6.1-6.6v-15.9c0-2.5,1.5-4.5,4-4.5
	L118.3,384.8z"/>
<path class="st9" d="M136.1,414.9h-16.4c-5.2,0-9.1-4.2-9.1-9.7v-15.9c0-4.4,3-7.6,7.1-7.6h3.8v22.5h22.3v3
	C143.7,411.5,140.3,414.9,136.1,414.9z"/>
<path class="st9" d="M508.7,208.2v-22.5h-22.3c0-2.5,2-4.5,4.5-4.5h16.5c3.7,0,6.1,3,6.1,6.6v15.9c0,2.5-1.5,4.5-4,4.5H508.7z"/>
<path class="st9" d="M509.5,211.2h-3.8v-22.5h-22.3v-3.1c0-4.2,3.4-7.6,7.6-7.6h16.5c5.2,0,9.2,4.2,9.2,9.7v15.9
	C516.5,208,513.5,211.2,509.5,211.2z"/>
<rect x="303.7" y="295.8" class="st9" width="5.4" height="1.6"/>
<rect x="302.8" y="294.9" class="st9" width="7.2" height="3.5"/>
<rect x="318.1" y="295.8" class="st9" width="5.4" height="1.6"/>
<rect x="317.2" y="294.9" class="st9" width="7.2" height="3.5"/>
<rect x="312.8" y="301.1" class="st9" width="1.6" height="5.4"/>
<rect x="311.9" y="300.2" class="st9" width="3.5" height="7.2"/>
<path class="st9" d="M319.4,296.6c0,3.1-2.5,5.6-5.6,5.6c-3.1,0-5.6-2.5-5.6-5.6c0-3.1,2.5-5.6,5.6-5.6
	C316.9,291,319.4,293.5,319.4,296.6z M309.9,296.6c0,2.2,1.7,3.9,3.9,3.9s3.9-1.7,3.9-3.9c0-2.2-1.7-3.9-3.9-3.9c0,0,0,0,0,0
	C311.6,292.6,309.9,294.4,309.9,296.6L309.9,296.6z"/>
<path class="st9" d="M313.8,303.1c-3.6,0-6.5-2.9-6.5-6.5c0-3.6,2.9-6.5,6.5-6.5c3.6,0,6.5,2.9,6.5,6.5c0,0,0,0,0,0
	C320.3,300.2,317.4,303.1,313.8,303.1z M313.8,293.6c-1.7,0-3,1.3-3,3s1.3,3,3,3s3-1.3,3-3C316.8,294.9,315.5,293.6,313.8,293.6
	C313.8,293.6,313.8,293.6,313.8,293.6L313.8,293.6z"/>
<rect x="312.8" y="286.7" class="st9" width="1.6" height="5.4"/>
<rect x="311.9" y="285.8" class="st9" width="3.5" height="7.2"/>
</svg>
