<svg xmlns="http://www.w3.org/2000/svg" viewBox="0 0 28.77 30.08"><defs><style>.cls-1{fill:#473575;}</style></defs><title>Asset 6@3x1</title><g id="Layer_2" data-name="Layer 2"><g id="Layer_1-2" data-name="Layer 1"><path class="cls-1" d="M10.73,16.7,6.41,11.77a3.66,3.66,0,0,0-5.16-.34,3.64,3.64,0,0,0-.34,5.15L11.63,28.83l.08.08.34.31a1.92,1.92,0,0,0,.22.18,3.58,3.58,0,0,0,.42.25l.22.12a4.88,4.88,0,0,0,.54.18l.17.05a3.84,3.84,0,0,0,.76.08,3.77,3.77,0,0,0,.76-.08l.18-.05a4.72,4.72,0,0,0,.53-.18,1.55,1.55,0,0,0,.22-.12,3.7,3.7,0,0,0,.43-.25l.22-.18c.11-.1.23-.2.33-.31a.6.6,0,0,0,.08-.08L27.86,16.58a3.65,3.65,0,0,0-5.5-4.81L18,16.7v-13a3.66,3.66,0,1,0-7.31,0Z"/></g></g></svg>