<svg xmlns="http://www.w3.org/2000/svg" viewBox="0 0 83.43 100.14"><defs><style>.cls-1{fill:#fff;stroke:#fff;stroke-miterlimit:10;}</style></defs><title>Asset 4@3x1</title><g id="Layer_2" data-name="Layer 2"><g id="Layer_1-2" data-name="Layer 1"><path class="cls-1" d="M65.48,9.85H17.31a2.58,2.58,0,1,1,0-5.16H65.48a2.58,2.58,0,0,1,0,5.16ZM62.3,19.79a2.57,2.57,0,0,0-2.58-2.58H24.38a2.58,2.58,0,1,0,0,5.15H59.72A2.57,2.57,0,0,0,62.3,19.79Zm-11,12.52a2.58,2.58,0,0,0-2.58-2.58H35.36a2.58,2.58,0,0,0,0,5.16H48.75A2.59,2.59,0,0,0,51.33,32.31ZM68.06,93.65a2.58,2.58,0,0,0-2.58-2.58H17.31a2.58,2.58,0,1,0,0,5.16H65.48A2.57,2.57,0,0,0,68.06,93.65ZM62.3,80.49a2.57,2.57,0,0,0-2.58-2.58H24.38a2.58,2.58,0,0,0,0,5.16H59.72A2.58,2.58,0,0,0,62.3,80.49Zm-11-13.17a2.59,2.59,0,0,0-2.58-2.58H35.36a2.58,2.58,0,1,0,0,5.16H48.75A2.58,2.58,0,0,0,51.33,67.32ZM46.84,49.89C86.57,26,80.67,3.36,80.39,2.37a2.58,2.58,0,0,0-5,1.42c.06.2,5.34,20.69-33.72,43.12C2.66,24.48,7.93,4,8,3.79A2.58,2.58,0,0,0,3,2.37C2.75,3.36-3.15,26,36.58,49.89-.92,72.53.44,96.24.52,97.27a2.58,2.58,0,0,0,2.57,2.37h.19a2.59,2.59,0,0,0,2.39-2.74c0-.23-1-22.7,36-44,37,21.31,36.06,43.78,36.05,44a2.58,2.58,0,0,0,2.39,2.74h.18a2.57,2.57,0,0,0,2.57-2.37C83,96.24,84.35,72.53,46.84,49.89Z"/></g></g></svg>