<svg xmlns="http://www.w3.org/2000/svg" viewBox="0 0 122.18 97.52"><defs><style>.cls-1{fill:#fff;stroke:#fff;stroke-miterlimit:10;stroke-width:0.89px;}</style></defs><title>Asset 3@3x1</title><g id="Layer_2" data-name="Layer 2"><g id="Layer_1-2" data-name="Layer 1"><path class="cls-1" d="M13.05,38.76a31.21,31.21,0,0,1-1-7.61C12.1,12.78,27.29.45,41.48.45,53.83.45,63.26,6.87,70.3,20.07a2.09,2.09,0,1,1-3.69,2C60.36,10.32,52.14,4.63,41.48,4.63s-25.2,9.21-25.2,26.52a27.11,27.11,0,0,0,1.07,7.61ZM92.35.45A28.89,28.89,0,0,0,70.8,9.68a2.09,2.09,0,0,0,3,2.9A24.83,24.83,0,0,1,92.35,4.63c10.57,0,25.21,9.21,25.21,26.52,0,15-9,22.63-16.28,28.78-1.07.9-2.09,1.76-3,2.59C92.52,66.65,74.56,80,66.92,91c-7.7-11.4-25.42-25.54-29.17-28.47-.92-.79-2-1.67-3.31-2.66a78.19,78.19,0,0,1-9.68-8.56H19.3c4,5.16,8.9,9,12.57,11.86,1.2.93,2.27,1.77,3.14,2.52l.17.14c2.43,1.9,23.94,18.9,29.88,30.14a2.08,2.08,0,0,0,1.84,1.12h0A2.08,2.08,0,0,0,68.75,96c5.73-10.83,27.62-26.93,31.94-30l.35-.26C102,64.83,103,64,104,63.12c7.49-6.35,17.76-15,17.76-32C121.74,12.78,106.54.45,92.35.45ZM57.61,63.34l4.78-15.15H64.1l2,3a2.12,2.12,0,0,0,2,.93,2.1,2.1,0,0,0,1.74-1.29l3.38-8.24.94,3a2.09,2.09,0,0,0,2,1.46H96.23a2.09,2.09,0,0,0,0-4.18H77.63l-2.22-7.11a2.07,2.07,0,0,0-1.91-1.46,2.1,2.1,0,0,0-2,1.29S67.83,44.5,67.4,45.6C66.69,44.37,66.1,44,65.23,44H60.86a2.08,2.08,0,0,0-2,1.46l-1.95,6.17-2-28.19a2.09,2.09,0,0,0-4.11-.38L45.6,43.19l-2.2-4.68a2.09,2.09,0,0,0-3.61-.3L36.5,42.94h-34a2.09,2.09,0,0,0,0,4.18H37.59a2.1,2.1,0,0,0,1.72-.89l1.85-2.66,3.12,6.64a2.12,2.12,0,0,0,2.09,1.19,2.09,2.09,0,0,0,1.83-1.56L51.65,36.5l1.88,26.36a2.15,2.15,0,0,0,2,1.94A2.06,2.06,0,0,0,57.61,63.34Z"/></g></g></svg>