<svg xmlns="http://www.w3.org/2000/svg" viewBox="0 0 104.72 108.14"><defs><style>.cls-1{fill:#fff;}</style></defs><title>Asset 2@3x1</title><g id="Layer_2" data-name="Layer 2"><g id="Layer_1-2" data-name="Layer 1"><path class="cls-1" d="M45.77,94,69.14,70.86a2.64,2.64,0,0,0,0-3.76c-1.32-1.31-31-30.55-31-30.55l26.76-26A19.39,19.39,0,0,1,78.42,5.27a21.15,21.15,0,0,1,14.9,6.07,20.22,20.22,0,0,1,6.13,14.52,18.51,18.51,0,0,1-5.3,13.19L75.21,57.5a2.64,2.64,0,1,0,3.68,3.78l19-18.46a23.84,23.84,0,0,0,6.88-17A25.47,25.47,0,0,0,97,7.58,26.39,26.39,0,0,0,78.42,0,24.71,24.71,0,0,0,61.17,6.76S33.19,34,32.5,34.65a2.66,2.66,0,0,0,0,3.76C33.83,39.75,63.54,69,63.54,69L42.07,90.23a24.27,24.27,0,0,1-16.91,7.42,19.9,19.9,0,0,1-14-5.78A19.09,19.09,0,0,1,5.27,78.19c0-5.87,2.67-11.73,7.51-16.47l14-13.56a2.63,2.63,0,0,0-3.67-3.78L9.1,58C3.24,63.7,0,70.89,0,78.19A24.34,24.34,0,0,0,7.43,95.63a25.18,25.18,0,0,0,17.73,7.29C32.59,102.92,39.91,99.75,45.77,94Zm8.89-57.56L68.72,22.61c3.35-3.3,8.47-6.18,12.8-4.36a2.64,2.64,0,0,0,2-4.86c-6.71-2.82-14,1-18.54,5.46L51,32.68a2.63,2.63,0,1,0,3.69,3.75Zm48.69,42.72A29,29,0,0,1,51,96.23l3.8-3.74a23.67,23.67,0,0,0,42.86-9H63.9l5.35-5.27H98A23.68,23.68,0,0,0,88,59.8l3.8-3.75A28.94,28.94,0,0,1,103.35,79.15Z"/></g></g></svg>