<?xml version="1.0" encoding="utf-8"?>
<!-- Generator: Adobe Illustrator 24.0.2, SVG Export Plug-In . SVG Version: 6.00 Build 0)  -->
<svg version="1.1" id="Layer_1" xmlns="http://www.w3.org/2000/svg" xmlns:xlink="http://www.w3.org/1999/xlink" x="0px" y="0px"
	 viewBox="0 0 18.4 35" style="enable-background:new 0 0 18.4 35;" xml:space="preserve">
<style type="text/css">
	.st0{fill:#1F2F44;}
</style>
<title>Asset 10@3x1</title>
<g id="Layer_2_1_">
	<g id="Layer_1-2">
		<path class="st0" d="M13.8,0c0.9,0,1.9,0.1,2.8,0.1c0.6,0,1.2,0.1,1.8,0.2v5.6h-2.4c-0.5,0-0.9,0-1.4,0c-1.5,0-2.6,0.6-2.7,2.5
			c-0.1,1.4-0.1,4.3-0.1,4.5h6.2c-0.3,2.2-0.6,4.2-0.9,6.3h-5.3L11.8,35H5.2l0.1-15.8H0l0.1-6.3h5.4v-0.5c0-1.3,0-2.5,0-3.8
			c0-0.8,0.1-1.6,0.2-2.4C5.9,4.3,7,2.6,8.6,1.5c1.4-1,3-1.5,4.7-1.5H13.8z"/>
	</g>
</g>
</svg>
