<svg xmlns="http://www.w3.org/2000/svg" viewBox="0 0 24.43 41.05"><defs><style>.cls-1{isolation:isolate;}.cls-2{fill:#ccc;mix-blend-mode:multiply;}.cls-3{fill:#fff;}</style></defs><title>Asset 1@3x1</title><g class="cls-1"><g id="Layer_2" data-name="Layer 2"><g id="Layer_1-2" data-name="Layer 1"><path class="cls-3" d="M13.81,0c.93,0,1.88.05,2.81.09.61,0,1.22.11,1.79.18l0,5.63H16.06c-.46,0-.93,0-1.39,0-1.49,0-2.59.61-2.67,2.47-.05,1.35-.08,4.31-.08,4.47h6.22c-.3,2.16-.58,4.24-.88,6.33H11.92L11.8,35H5.24l.12-15.84H0l.05-6.3H5.44V12.4c0-1.27,0-2.54,0-3.81a15,15,0,0,1,.21-2.41A7.14,7.14,0,0,1,8.56,1.47,8.23,8.23,0,0,1,13.28,0Z"/></g></g></g></svg>
