<svg xmlns="http://www.w3.org/2000/svg" viewBox="0 0 30.99 30.98"><defs><style>.cls-1{fill:#fff;}</style></defs><title>Asset 12@3x1</title><g id="Layer_2" data-name="Layer 2"><g id="Layer_1-2" data-name="Layer 1"><path class="cls-1" d="M23.82,5.39h0a1.84,1.84,0,0,1,1.84,1.86A1.89,1.89,0,0,1,23.8,9.11a1.86,1.86,0,0,1,0-3.72Z"/><path class="cls-1" d="M30.8,7.78c.23,2.44.38,14-.34,16.66a7.92,7.92,0,0,1-6.84,6.19,74.86,74.86,0,0,1-8.54.35,52.59,52.59,0,0,1-8.61-.46A7.76,7.76,0,0,1,.3,23.76C-.12,21.15-.16,9,.59,6.37a7.91,7.91,0,0,1,6.75-6A60.12,60.12,0,0,1,15.11,0C18,0,20.92.08,22.67.17a8.57,8.57,0,0,1,5.66,2.32A8.11,8.11,0,0,1,30.8,7.78Zm-3,15.47A109.09,109.09,0,0,0,28,8,5.2,5.2,0,0,0,23.37,3.1a71.87,71.87,0,0,0-7.74-.29c-3.09,0-6.16.08-7.51.23A5.3,5.3,0,0,0,3.17,7.7a105.24,105.24,0,0,0-.11,15.64,5,5,0,0,0,3.83,4.38,47.54,47.54,0,0,0,8.33.46c3.25,0,6.44-.1,7.64-.23a5.29,5.29,0,0,0,5-4.7"/><path class="cls-1" d="M15.56,7.55a7.88,7.88,0,0,1,7.88,8,8,8,0,0,1-8,7.94,7.87,7.87,0,0,1-7.88-8A8,8,0,0,1,15.56,7.55Zm-.11,13.08a5.2,5.2,0,0,0,5.18-5.09,5.1,5.1,0,0,0-5-5.19h-.05a5.2,5.2,0,0,0-5.18,5.09,5.09,5.09,0,0,0,5.05,5.19h0"/></g></g></svg>