<?xml version="1.0" encoding="utf-8"?>
<!-- Generator: Adobe Illustrator 24.0.2, SVG Export Plug-In . SVG Version: 6.00 Build 0)  -->
<svg version="1.1" id="Layer_1" xmlns="http://www.w3.org/2000/svg" xmlns:xlink="http://www.w3.org/1999/xlink" x="0px" y="0px"
	 viewBox="0 0 31 31" style="enable-background:new 0 0 31 31;" xml:space="preserve">
<style type="text/css">
	.st0{fill:#1F2F44;}
</style>
<title>Asset 12@3x1</title>
<g id="Layer_2_1_">
	<g id="Layer_1-2">
		<path class="st0" d="M23.8,5.4L23.8,5.4c1,0,1.8,0.8,1.8,1.8c0,0,0,0,0,0c0,1-0.8,1.8-1.9,1.9c-1,0-1.9-0.8-1.9-1.9
			S22.8,5.4,23.8,5.4L23.8,5.4z"/>
		<path class="st0" d="M30.8,7.8c0.2,2.4,0.4,14-0.3,16.7c-0.7,3.3-3.5,5.8-6.8,6.2c-2.8,0.3-5.7,0.4-8.5,0.4
			c-2.9,0.1-5.8-0.1-8.6-0.5c-3.3-0.7-5.8-3.4-6.2-6.8C-0.1,21.1-0.2,9,0.6,6.4c0.8-3.2,3.5-5.6,6.8-6C9.9,0.1,12.5,0,15.1,0
			c2.9,0,5.8,0.1,7.6,0.2c2.1,0.1,4.1,0.9,5.7,2.3C29.8,3.9,30.7,5.8,30.8,7.8z M27.8,23.2C28.2,18.2,28.3,13.1,28,8
			c-0.1-2.5-2.1-4.6-4.6-4.9c-2.6-0.2-5.2-0.3-7.7-0.3c-3.1,0-6.2,0.1-7.5,0.2c-2.6,0.2-4.6,2.1-5,4.7c-0.4,5.2-0.5,10.4-0.1,15.6
			c0.2,2.1,1.7,3.9,3.8,4.4c2.8,0.4,5.5,0.6,8.3,0.5c3.3,0,6.4-0.1,7.6-0.2C25.5,27.8,27.6,25.8,27.8,23.2"/>
		<path class="st0" d="M15.6,7.6c4.4,0,7.9,3.5,7.9,7.9c0,0,0,0.1,0,0.1c0,4.4-3.6,7.9-8,7.9c-4.3,0-7.9-3.5-7.9-7.9
			c0,0,0-0.1,0-0.1C7.6,11.1,11.2,7.5,15.6,7.6z M15.5,20.6c2.8,0,5.1-2.3,5.2-5.1c0.1-2.8-2.2-5.1-5-5.2h-0.1
			c-2.8,0-5.1,2.3-5.2,5.1C10.3,18.3,12.6,20.6,15.5,20.6C15.4,20.6,15.4,20.6,15.5,20.6L15.5,20.6"/>
	</g>
</g>
</svg>
