<svg xmlns="http://www.w3.org/2000/svg" viewBox="0 0 37.02 37.03"><defs><style>.cls-1{isolation:isolate;}.cls-2{fill:#ccc;mix-blend-mode:multiply;}.cls-3{fill:#fff;}</style></defs><title>Asset 2@3x1</title><g class="cls-1"><g id="Layer_2" data-name="Layer 2"><g id="Layer_1-2" data-name="Layer 1"><path class="cls-2" d="M14.08,10.58a5.54,5.54,0,0,0-.68.25A2.47,2.47,0,0,0,13,11a5.28,5.28,0,0,0-.56.35l-.33.27a3.92,3.92,0,0,0-.46.45l-.18.18-.12.18a4,4,0,0,0-.23.34A1.7,1.7,0,0,0,11,13a2,2,0,0,0-.14.3l-.12.24a.94.94,0,0,0-.06.15,3.94,3.94,0,0,0-.21.69h0s0,0,0,.07a4.76,4.76,0,0,0-.09.66c0,.1,0,.21,0,.31s0,.38,0,.57a3.43,3.43,0,0,0,.06.34,1.43,1.43,0,0,0,0,.22,4.4,4.4,0,0,0,.22.81.33.33,0,0,1,0,.06l.07.13a4.42,4.42,0,0,0,.36.68,1.74,1.74,0,0,0,.11.18,1,1,0,0,0,.09.13,4.35,4.35,0,0,0,.49.57h0l4.25,4.27c-.22,0-.44,0-.66,0a7.8,7.8,0,0,1-5.58-2.31h0l6,6.05a7.84,7.84,0,0,0,5.58,2.31,8.49,8.49,0,0,0,.88,0l.27,0,.57-.1.32-.08.5-.15.32-.12.46-.19.31-.15.44-.24.28-.17.44-.32.23-.16.53-.47.09-.08c.19-.19.37-.4.55-.61l0,0a.21.21,0,0,1,0-.06,8.4,8.4,0,0,0,.71-1l0,0v0a7.34,7.34,0,0,0,.44-.94l.05-.1a.57.57,0,0,1,0-.14c.09-.26.17-.53.24-.8,0-.05,0-.09,0-.13v0a6.65,6.65,0,0,0,.16-1s0-.06,0-.09c0-.19,0-.37,0-.56a7.31,7.31,0,0,0,0-.81h0a8,8,0,0,0-.16-1,2.5,2.5,0,0,0-.07-.26c-.06-.25-.14-.49-.22-.73l-.05-.15,0-.07a9.37,9.37,0,0,0-.4-.85l-.09-.15a7.06,7.06,0,0,0-.42-.64.75.75,0,0,0-.07-.12.39.39,0,0,1-.08-.1,8.21,8.21,0,0,0-.67-.77h0l-6-6a7.23,7.23,0,0,1,.67.78l.16.21a7.22,7.22,0,0,1,.42.65c0,.05.06.09.09.15a8,8,0,0,1,.39.84,2.09,2.09,0,0,1,.08.23c.09.23.16.47.23.72l.06.27a6.33,6.33,0,0,1,.16,1,7.32,7.32,0,0,1,0,.81c0,.21,0,.42,0,.62l-4.26-4.27a5,5,0,0,0-3.56-1.5h-.05a5.11,5.11,0,0,0-1.11.13C14.31,10.5,14.2,10.55,14.08,10.58Zm3.33,7.91.3-.35c.15-.16.3-.31.46-.45a3.92,3.92,0,0,1,.33-.27,6.53,6.53,0,0,1,.56-.35l.36-.2a5.1,5.1,0,0,1,.69-.24,3.37,3.37,0,0,1,.34-.1,5.11,5.11,0,0,1,1.11-.13h0a4.92,4.92,0,0,1,1.72.33c0,.14,0,.29-.07.43s0,.11,0,.17a7.41,7.41,0,0,1-.25.8l-.09.25a7.9,7.9,0,0,1-.44.93l0,.06a8.24,8.24,0,0,1-.72,1.06l-.07.08a5.32,5.32,0,0,1-.55.61L21,21.2c-.17.16-.35.32-.54.47l-.22.17c-.15.1-.29.21-.45.31l-.27.17c-.15.08-.29.17-.44.24l-.31.15-.46.2L18,23l-.5.15-.32.08-.45.08a5.79,5.79,0,0,1-.21-.71c0-.07,0-.14,0-.22a5.49,5.49,0,0,1-.07-.91,4.44,4.44,0,0,1,.11-1,.15.15,0,0,1,0-.07,4.7,4.7,0,0,1,.28-.85c0-.08.07-.16.11-.25s.19-.35.29-.52Z"/><path class="cls-2" d="M8.51,34.4a8.5,8.5,0,0,0,4,2.17A52.67,52.67,0,0,0,21.1,37a75.19,75.19,0,0,0,8.55-.35,10.81,10.81,0,0,0,1.44-.34l.41-.16a7.74,7.74,0,0,0,.88-.37l.42-.23a8.21,8.21,0,0,0,.75-.51l.35-.26a8.75,8.75,0,0,0,.8-.81,1.14,1.14,0,0,1,.11-.11s0,0,0,0a8.06,8.06,0,0,0,.73-1.07l0,0c.07-.12.11-.25.17-.37s.25-.5.36-.77a.93.93,0,0,1,0-.1c.12-.33.23-.67.33-1,0-.06,0-.13,0-.21s0-.22.06-.35a.13.13,0,0,0,0-.06c0-.21.07-.44.1-.69a1.23,1.23,0,0,1,0-.19c0-.24.05-.49.07-.76a.28.28,0,0,1,0-.09v0q0-.46.06-1c0-.1,0-.21,0-.32l0-.75c0-.13,0-.27,0-.4s0-.51,0-.77,0-.26,0-.4c0-.31,0-.62,0-.94a1.93,1.93,0,0,0,0-.24c0-.4,0-.8,0-1.21V21.8c0-.3,0-.59,0-.89,0-.14,0-.28,0-.42V19.3c0-.3,0-.59,0-.88,0-.08,0-.16,0-.24,0-.37,0-.72,0-1.06v-.2c0-.27,0-.52,0-.77a2.53,2.53,0,0,1,0-.28l0-.58a2,2,0,0,0,0-.25c0-.19,0-.36,0-.52a1,1,0,0,1,0-.16c0-.19,0-.36,0-.5v0a11.71,11.71,0,0,0-.23-1.34c0-.14-.09-.27-.13-.41s-.12-.45-.2-.66-.07-.14-.1-.22-.1-.23-.16-.34a8.52,8.52,0,0,0-.46-.84l-.2-.3-.09-.15a9.08,9.08,0,0,0-.77-.89l-6-6a8.38,8.38,0,0,1,.86,1c.07.1.13.2.19.3A8.6,8.6,0,0,1,30,4.8c.05.11.11.23.16.35a8.1,8.1,0,0,1,.3.87c0,.14.09.27.12.41a8.65,8.65,0,0,1,.23,1.35c0,.14,0,.32,0,.52a1.21,1.21,0,0,1,0,.19c0,.15,0,.31,0,.49V9L26.5,4.6a5.53,5.53,0,0,0-3.13-1.5,71.87,71.87,0,0,0-7.74-.29c-3.09,0-6.16.08-7.51.23a6.14,6.14,0,0,0-1.07.21l-.31.11a4.47,4.47,0,0,0-.64.25,3.41,3.41,0,0,0-.33.17c-.18.11-.36.22-.52.34L5,4.35a3.82,3.82,0,0,0-.45.45s-.12.1-.17.16l-.06.09c-.09.11-.16.24-.24.36a2.75,2.75,0,0,0-.19.28,1.17,1.17,0,0,0-.05.11,3,3,0,0,0-.15.31c0,.1-.1.2-.15.32s0,.11,0,.17-.08.25-.11.38l-.09.28c0,.15-.06.29-.08.44s0,.38-.08.6,0,.17,0,.26S3,8.83,3,9v.07c0,.07,0,.16,0,.24s0,.39,0,.6,0,.21,0,.32,0,.41,0,.63,0,.24,0,.36,0,.46,0,.7,0,.22,0,.33l0,1.07v.2c0,.3,0,.61,0,.92,0,.14,0,.27,0,.41v.72c0,.15,0,.3,0,.45v1.12c0,.32,0,.63,0,.94v.15c0,.36,0,.71,0,1.05v.27c0,.25,0,.48,0,.72s0,.21,0,.31,0,.4,0,.59,0,.2,0,.29,0,.38,0,.56,0,.13,0,.2,0,.42,0,.6H3c0,.21,0,.38.06.52a6.9,6.9,0,0,0,.31,1.19s0,.11,0,.15l.06.11a5.1,5.1,0,0,0,.56,1l0,.05a4.23,4.23,0,0,0,.44.51l4.42,4.44a15.72,15.72,0,0,1-2.45-.3c-.41-.11-.8-.23-1.18-.37a8,8,0,0,1-2.81-1.79h0ZM30.9,9.58c0,.08,0,.15,0,.23s0,.2,0,.31,0,.46,0,.71c0,.08,0,.16,0,.25s0,.46,0,.69L28.23,9c.46,0,.87.07,1.17.12A6.24,6.24,0,0,1,30.9,9.58Zm-6.25-.7-.09.06-.09,0a1.86,1.86,0,0,1-.67.14,1.91,1.91,0,0,1-.86-.25Zm-3,0h1.14l5.73,5.75a1.89,1.89,0,0,0,1.3.55,1.86,1.86,0,0,0,.67-.14l.09,0a1.84,1.84,0,0,0,.41-.24v1.34c0,.4,0,.8,0,1.19v.24c0,.32,0,.64,0,.95,0,.13,0,.26,0,.39l0,.78c0,.13,0,.26,0,.39s0,.51,0,.76,0,.21,0,.32c0,.34,0,.67-.07,1a.28.28,0,0,1,0,.09c0,.27,0,.52-.07.76a1.23,1.23,0,0,1,0,.19c0,.25-.06.49-.09.69,0,0,0,0,0,.06a5.08,5.08,0,0,1-.12.57,10,10,0,0,1-.38,1.13c-.1.27-.23.51-.35.76s-.13.29-.21.42a7.15,7.15,0,0,1-.72,1.07,1.59,1.59,0,0,1-.13.13,6.12,6.12,0,0,1-.8.81l-.34.27a7.52,7.52,0,0,1-.75.5l-.42.23c-.28.14-.58.26-.89.38l-.41.15a10.45,10.45,0,0,1-1.44.34,74.86,74.86,0,0,1-8.54.35c-2,0-4,0-5.58-.13v0l-.09-.25a5.46,5.46,0,0,1-.31-1.19A3.4,3.4,0,0,1,9,28.87c0-.18,0-.39,0-.62,0-.06,0-.13,0-.2s0-.35,0-.55,0-.2,0-.3,0-.38,0-.57,0-.22,0-.34,0-.44,0-.67,0-.21,0-.32c0-.33,0-.67,0-1v-.23c0-.28,0-.58,0-.87V21.63c0-.26,0-.52,0-.78v-.36c0-.32,0-.63,0-.94,0-.07,0-.13,0-.19,0-.37,0-.73,0-1.08a2.81,2.81,0,0,0,0-.29l0-.75c0-.11,0-.22,0-.33s0-.44,0-.64,0-.22,0-.32,0-.42,0-.62,0-.15,0-.22,0-.35,0-.52a2.12,2.12,0,0,1,0-.24c0-.22.05-.43.07-.6s.11-.49.17-.72.07-.26.12-.38a4.34,4.34,0,0,1,.2-.5c0-.1.09-.21.14-.31s.16-.26.24-.38a3.27,3.27,0,0,1,.25-.36l.22-.26a4.89,4.89,0,0,1,.46-.45l.28-.22a4.79,4.79,0,0,1,.53-.34l.32-.17a6.29,6.29,0,0,1,.65-.26l.31-.1a7.11,7.11,0,0,1,1.06-.22C15.49,8.94,18.56,8.85,21.65,8.85Z"/><path class="cls-3" d="M23.82,5.39h0a1.84,1.84,0,0,1,1.84,1.86A1.89,1.89,0,0,1,23.8,9.11a1.86,1.86,0,0,1,0-3.72Z"/><path class="cls-3" d="M30.8,7.78c.23,2.44.38,14-.34,16.66a7.92,7.92,0,0,1-6.84,6.19,74.86,74.86,0,0,1-8.54.35,52.59,52.59,0,0,1-8.61-.46A7.76,7.76,0,0,1,.3,23.76C-.12,21.15-.16,9,.59,6.37a7.91,7.91,0,0,1,6.75-6A60.12,60.12,0,0,1,15.11,0C18,0,20.92.08,22.67.17a8.57,8.57,0,0,1,5.66,2.32A8.11,8.11,0,0,1,30.8,7.78Zm-3,15.47A109.09,109.09,0,0,0,28,8,5.2,5.2,0,0,0,23.37,3.1a71.87,71.87,0,0,0-7.74-.29c-3.09,0-6.16.08-7.51.23A5.3,5.3,0,0,0,3.17,7.7a105.24,105.24,0,0,0-.11,15.64,5,5,0,0,0,3.83,4.38,47.54,47.54,0,0,0,8.33.46c3.25,0,6.44-.1,7.64-.23a5.29,5.29,0,0,0,5-4.7"/><path class="cls-3" d="M15.56,7.55a7.88,7.88,0,0,1,7.88,8,8,8,0,0,1-8,7.94,7.87,7.87,0,0,1-7.88-8A8,8,0,0,1,15.56,7.55Zm-.11,13.08a5.2,5.2,0,0,0,5.18-5.09,5.1,5.1,0,0,0-5-5.19h-.05a5.2,5.2,0,0,0-5.18,5.09,5.09,5.09,0,0,0,5.05,5.19h0"/></g></g></g></svg>