<?xml version="1.0" encoding="utf-8"?>
<!-- Generator: Adobe Illustrator 24.0.2, SVG Export Plug-In . SVG Version: 6.00 Build 0)  -->
<svg version="1.1" id="Layer_1" xmlns="http://www.w3.org/2000/svg" xmlns:xlink="http://www.w3.org/1999/xlink" x="0px" y="0px"
	 viewBox="0 0 34.3 34.4" style="enable-background:new 0 0 34.3 34.4;" xml:space="preserve">
<style type="text/css">
	.st0{fill:#FFFFFF;}
</style>
<title>Asset 6@3x1</title>
<g id="Layer_1-2">
	<path class="st0" d="M6.4,3c1.9,0,3.4,1.5,3.4,3.4c0,0,0,0,0,0c0,1.9-1.6,3.4-3.4,3.4C4.5,9.8,3,8.3,3,6.4c0,0,0,0,0,0
		C3,4.5,4.6,3,6.4,3z"/>
	<polygon class="st0" points="9.3,12.4 9.2,31.3 3.3,31.3 3.4,12.4 	"/>
	<path class="st0" d="M24.3,11.9c6,0,7,3.9,7,9l-0.1,10.4h-5.9l0.1-9.2c0-2.2,0-5-3-5s-3.6,2.4-3.6,4.9l-0.1,9.4h-5.9l0.1-19h5.6V15
		h0.1C19.9,13,22,11.9,24.3,11.9z"/>
</g>
</svg>
