<svg xmlns="http://www.w3.org/2000/svg" viewBox="0 0 28.3 28.4"><defs><style>.cls-1{fill:#1f2f44;}</style></defs><title>Asset 1@3x1</title><g id="Layer_2" data-name="Layer 2"><g id="Layer_1-2" data-name="Layer 1"><g id="Layer_1-2-2" data-name="Layer 1-2"><path class="cls-1" d="M3.4,0A3.37,3.37,0,0,1,6.8,3.4h0A3.44,3.44,0,0,1,3.4,6.8,3.37,3.37,0,0,1,0,3.4H0A3.44,3.44,0,0,1,3.4,0Z"/><polygon class="cls-1" points="6.3 9.4 6.2 28.3 0.3 28.3 0.4 9.4 6.3 9.4"/><path class="cls-1" d="M21.3,8.9c6,0,7,3.9,7,9l-.1,10.4H22.3l.1-9.2c0-2.2,0-5-3-5s-3.6,2.4-3.6,4.9l-.1,9.4H9.8l.1-19h5.6V12h.1A6.7,6.7,0,0,1,21.3,8.9Z"/></g></g></g></svg>