<svg xmlns="http://www.w3.org/2000/svg" viewBox="0 0 32.72 40.52"><defs><style>.cls-1{isolation:isolate;}.cls-2{fill:#ccc;mix-blend-mode:multiply;}.cls-3{fill:#fff;}</style></defs><title>Asset 4@3x1</title><g class="cls-1"><g id="Layer_2" data-name="Layer 2"><g id="Layer_1-2" data-name="Layer 1"><path class="cls-2" d="M10,26l.14,0c-.05.17-.09.34-.13.5l0,.17c0,.16-.08.32-.13.47a1.05,1.05,0,0,1,0,.19c0,.16-.09.3-.13.45a.56.56,0,0,1,0,.12c-.05.17-.1.34-.16.5s0,.08,0,.12l-.13.37s0,.07,0,.11c-.12.31-.25.62-.4.93h0c-.14.31-.3.62-.49,1l-.12.22a26.46,26.46,0,0,1-2.12,3.13,1,1,0,0,1-.1.11.08.08,0,0,1,0,0,.23.23,0,0,1-.16.08.34.34,0,0,1-.17-.09l6,6a.38.38,0,0,0,.17.08.26.26,0,0,0,.16-.07l0,0,0,0,.08-.1a26.66,26.66,0,0,0,2.11-3.12,1.62,1.62,0,0,0,.1-.18l0,0c.19-.34.36-.66.5-1h0c.14-.3.27-.61.39-.92l0,0,0-.08a3,3,0,0,0,.13-.36l.05-.12c.05-.16.1-.33.16-.5a.65.65,0,0,1,0-.13l.12-.44.06-.19.12-.45.06-.21c.05-.21.11-.43.17-.67l.07-.25c.05-.19.1-.4.16-.62l.18-.7c0-.14.07-.29.11-.43.09-.34.18-.69.27-1.06l.06-.17.63.63A6.28,6.28,0,0,0,22.2,31a9.57,9.57,0,0,0,7.36-3.71h0a13.22,13.22,0,0,0,.94-1.36l.14-.22c0-.06.07-.11.1-.16.22-.4.41-.81.59-1.22a2.33,2.33,0,0,0,.11-.28c.06-.13.12-.25.17-.38.12-.34.23-.67.33-1l0-.09c.11-.38.21-.76.29-1.13,0-.09,0-.17,0-.26s.07-.38.11-.57.1-.6.13-.88,0-.37.07-.55,0-.24,0-.35,0-.25,0-.38l0-.69c0-.2,0-.39,0-.58s0-.39,0-.57a2.18,2.18,0,0,1,0-.25c0-.16,0-.31,0-.45a11,11,0,0,0-.35-1.51c0-.14-.09-.28-.13-.41s-.09-.31-.15-.46-.18-.39-.27-.58l-.24-.52c-.2-.37-.42-.72-.65-1.07a3.53,3.53,0,0,0-.21-.32l0-.06a9.22,9.22,0,0,0-1.08-1.26l-6-6A12.62,12.62,0,0,1,24.61,5c.07.1.13.22.2.32a10,10,0,0,1,.65,1.08c.09.16.16.34.24.51a10.28,10.28,0,0,1,.42,1c.05.14.09.27.13.41a9.73,9.73,0,0,1,.35,1.51,6.79,6.79,0,0,1,.06.7c0,.18,0,.37,0,.57v.59c0,.21,0,.44,0,.68s0,.48-.06.73l-.06.55c0,.28-.08.58-.14.88s-.06.38-.1.57c-.1.46-.21.92-.35,1.39l0,.09a14.43,14.43,0,0,1-.5,1.39l-.12.27a12.69,12.69,0,0,1-.69,1.38l-.13.22a12.74,12.74,0,0,1-.95,1.36,10,10,0,0,1-5.21,3.42V24.5a3.37,3.37,0,0,1,.1-.75c.14-.53.28-1,.42-1.5,0-.18.11-.36.16-.55s.21-.69.31-1,.19-.6.27-.89.1-.32.14-.47.16-.56.22-.82a2.1,2.1,0,0,0,.06-.24v0a8.93,8.93,0,0,0,.17-1.06s0-.08,0-.12a1.92,1.92,0,0,0,0-.24c0-.14,0-.28,0-.41v-.14a3.4,3.4,0,0,0-.08-.46,2.54,2.54,0,0,0-.13-.44.91.91,0,0,0-.09-.17,2.14,2.14,0,0,0-.17-.3.91.91,0,0,0-.09-.17,3.11,3.11,0,0,0-.23-.28l-4.09-4.1h0a10.6,10.6,0,0,1,4.42-.95,9.9,9.9,0,0,1,3.35.56,7.4,7.4,0,0,1,2.8,1.74h0l-6-6a8.62,8.62,0,0,0-6.15-2.29,10.64,10.64,0,0,0-4.43.94,10.12,10.12,0,0,0-1,.52L8,5c-.2.13-.4.26-.58.4l-.32.29a6,6,0,0,0-.46.4c-.11.1-.2.22-.3.32s-.27.28-.39.43v0s0,0,0,.05a9.17,9.17,0,0,0-.8,1.19L5,8.25a.36.36,0,0,0,0,.09,10.5,10.5,0,0,0-.53,1.13l0,.07c0,.06,0,.12-.05.18-.11.31-.21.62-.29.93,0,.06,0,.12,0,.18s0,.07,0,.11a9.39,9.39,0,0,0-.17,1.15s0,0,0,.05a.41.41,0,0,1,0,.11,8.51,8.51,0,0,0,0,1.13v.15a.29.29,0,0,0,0,.09c0,.22.06.44.1.65a1.57,1.57,0,0,0,0,.23,5.72,5.72,0,0,0,.26.83v0l0,.05a5.06,5.06,0,0,0,.49.92s0,.08.07.12l.13.18.23.28.06.1a1.63,1.63,0,0,1,.11.17,1,1,0,0,1,0,.16s0,0,0,0a.64.64,0,0,1,0,.27c-.15.62-.31,1.24-.48,1.85a.73.73,0,0,1-.21.34l-.06.05a.62.62,0,0,1-.35.12A1.15,1.15,0,0,1,4,19.93a5.75,5.75,0,0,1-1.81-1.21l6,6.05A5.35,5.35,0,0,0,10,26ZM12,13a.18.18,0,0,1,0-.07c.12-.15.26-.29.39-.43s.19-.22.29-.32.32-.28.47-.42l.32-.27c.18-.14.38-.27.58-.4l.11-.08v.13A9.19,9.19,0,0,1,14,12.2l-.06.26c-.07.27-.14.54-.22.83s-.09.31-.14.47-.18.57-.27.88-.21.67-.31,1c-.06.18-.11.36-.17.55-.14.47-.28,1-.41,1.49l0,.11a4,4,0,0,0-.08.48c0,.06,0,.11,0,.16a1,1,0,0,0,0,.17,1.21,1.21,0,0,0,0,.19c0,.08,0,.15,0,.23s.06.28.1.41l0,.14c0,.07.08.13.11.19a2,2,0,0,0,.18.32.83.83,0,0,0,.07.13,2.22,2.22,0,0,0,.28.33l4.23,4.25a9.52,9.52,0,0,1-1.18.09,6.53,6.53,0,0,1-3.88-1.2l-1.21-1.21-.06.18h0a2.9,2.9,0,0,1-.19-.29,5.5,5.5,0,0,1-.5-.93l0-.07a5.22,5.22,0,0,1-.25-.82c0-.08,0-.16-.05-.24s-.08-.42-.1-.64,0-.16,0-.24a8.52,8.52,0,0,1,0-1.13v-.16A9.15,9.15,0,0,1,10.06,17c0-.1,0-.19.07-.29.08-.31.17-.63.28-.93a1.84,1.84,0,0,1,.09-.25A8.8,8.8,0,0,1,11,14.39c0-.07.09-.14.13-.22A9.16,9.16,0,0,1,12,13Z"/><path class="cls-3" d="M14,0c.61,0,1.23,0,1.83.1C22,.8,25.9,5,26.6,9.82c.32,2.19,0,7.57-3.06,11.37a9.59,9.59,0,0,1-7.36,3.71,6.26,6.26,0,0,1-4.54-1.73c-.19-.2-.35-.43-.55-.68l-.09.26c-1.3,5-1.45,6.06-2.76,8.37a26.46,26.46,0,0,1-2.12,3.13c-.08.1-.16.23-.3.23s-.25-.22-.27-.38a26.48,26.48,0,0,1-.24-4.54c.08-2,.33-2.67,3-13.4a.73.73,0,0,0-.06-.45,7.55,7.55,0,0,1-.15-5,3.91,3.91,0,0,1,3.54-3,2.5,2.5,0,0,1,2.5,2.07c.43,1.87-.77,4.32-1.7,7.94a3,3,0,0,0,3.14,3.82,4.37,4.37,0,0,0,2.59-.9c2.79-2,3.9-6.83,3.73-10.24-.26-4.89-4.18-7-8.13-7a10.64,10.64,0,0,0-4.43.94C3.87,6.81,2.57,13.53,5,16.62c.31.38.55.62.44,1-.15.62-.31,1.24-.48,1.85a.63.63,0,0,1-.62.51A1.15,1.15,0,0,1,4,19.93a5.59,5.59,0,0,1-2.25-1.71c-2.07-2.58-2.62-7.68.17-12A14.23,14.23,0,0,1,14,0Z"/></g></g></g></svg>