<svg xmlns="http://www.w3.org/2000/svg" viewBox="0 0 26.66 24.5"><defs><style>.cls-1{fill:#fff;}</style></defs><title>Asset 5@3x1</title><g id="Layer_2" data-name="Layer 2"><g id="Layer_1-2" data-name="Layer 1"><path class="cls-1" d="M26.41,18.63l-.33-.1-.25-.07a5.91,5.91,0,0,1-2.14-1A8.74,8.74,0,0,1,21,14.16c-.42-.88-.14-1.25.18-1.49a2.71,2.71,0,0,1,.59-.3l.35-.16.41-.2c.35-.16.72-.34,1.07-.54a.79.79,0,0,0,.39-.64.85.85,0,0,0-.41-.72A1.43,1.43,0,0,0,22.12,10a2,2,0,0,1-1.36.2.38.38,0,0,1-.19-.09l0-.76c0-.85.07-1.7.08-2.55a8.29,8.29,0,0,0-.09-1.62,6.14,6.14,0,0,0-1.35-2.73A6.77,6.77,0,0,0,14.66.06,8.14,8.14,0,0,0,11.4.33,6.85,6.85,0,0,0,8.43,2,5.65,5.65,0,0,0,6.78,4.82,11.58,11.58,0,0,0,6.55,7.2c0,.89.07,1.79.14,2.65l0,.18a.17.17,0,0,1,0,.11l-.07,0a1.82,1.82,0,0,1-.71.1A4.6,4.6,0,0,1,5,10L4.83,10a1.24,1.24,0,0,0-1.42.54A.92.92,0,0,0,4,11.72c.38.18.77.34,1.16.51l.54.22c.15.07.9.42.79,1.08a2.13,2.13,0,0,1-.24.7A22.68,22.68,0,0,1,5,16.15a6.38,6.38,0,0,1-3.22,2.26L0,19l1,.69a2.17,2.17,0,0,0,.32.21,7.68,7.68,0,0,0,2.36.7l.3.05c.19,0,.2.08.21.13a2.8,2.8,0,0,1,.06.28,4.39,4.39,0,0,0,.13.52,1,1,0,0,0,.59.72,1.51,1.51,0,0,0,.88-.05,5.06,5.06,0,0,1,2.29,0,4.57,4.57,0,0,1,1.88,1,5.5,5.5,0,0,0,2.86,1.28l.59,0A8.4,8.4,0,0,0,15,24.37a5.73,5.73,0,0,0,2.33-1.19l.18-.14a4.16,4.16,0,0,1,1.61-.86,6.58,6.58,0,0,1,2.73.06.72.72,0,0,0,1-.43,2.93,2.93,0,0,0,.18-.65c.08-.52.15-.59.7-.65a7,7,0,0,0,2.21-.64,2.37,2.37,0,0,0,.37-.25l.41-.31Z"/></g></g></svg>