<svg xmlns="http://www.w3.org/2000/svg" viewBox="0 0 37.12 36.19"><defs><style>.cls-1{isolation:isolate;}.cls-2{fill:#ccc;mix-blend-mode:multiply;}.cls-3{fill:#fff;}</style></defs><title>Asset 7@3x1</title><g class="cls-1"><g id="Layer_2" data-name="Layer 2"><g id="Layer_1-2" data-name="Layer 1"><path class="cls-2" d="M10.73,20.52a6.05,6.05,0,0,1,2.15,1.08l-6-6.05a6.4,6.4,0,0,0-2.15-1.08,3.17,3.17,0,0,1-1.1-.65l6,6.05A3.26,3.26,0,0,0,10.73,20.52Z"/><path class="cls-2" d="M37.12,29.18s0-.05,0-.06,0,0,0,0a1.57,1.57,0,0,0,0-.16v0h0l-6-6.05s0,0,0,0,0,.1,0,.16v.19a1.5,1.5,0,0,1,0,.2h0a.65.65,0,0,1-.08.22l0,0a.87.87,0,0,1-.16.23.3.3,0,0,1-.08.08,1.62,1.62,0,0,1-.19.17l0,0-.16-.34c-.05-.1-.1-.19-.14-.29a5.48,5.48,0,0,1-.28-.93,1.27,1.27,0,0,1,.08-.44v0a1.74,1.74,0,0,1,.18-.33l.05-.06a.43.43,0,0,1,.09-.1,2,2,0,0,1,.35-.31l.12-.09a5.21,5.21,0,0,1,.52-.28l.09,0,.51-.2.63-.24a3.7,3.7,0,0,0,.69-.34h0a2,2,0,0,0,.46-.38l0,0v0l0,0s0-.07.06-.1a.47.47,0,0,0,0-.1h0a.19.19,0,0,0,0-.07.28.28,0,0,0,0-.09s0,0,0-.06v0h0a.47.47,0,0,0,0-.17.08.08,0,0,0,0,0l0-.06-.05-.09-.11-.13h0L29.83,14.9v-.85q0-.42,0-.81h0a8,8,0,0,0-.16-1c0-.09-.05-.18-.07-.27-.07-.25-.14-.49-.23-.73,0-.05,0-.11-.05-.16l0-.06a8.42,8.42,0,0,0-.4-.86L28.77,10c-.13-.22-.27-.44-.42-.65a.41.41,0,0,0-.07-.11l-.09-.1a7.23,7.23,0,0,0-.67-.78h0l-6-6a8.34,8.34,0,0,1,.67.78l.16.21c.15.21.29.43.42.65,0,0,.06.1.09.16a8.26,8.26,0,0,1,.4.85c0,.07.05.15.08.22.08.24.16.48.22.73a2.68,2.68,0,0,1,.07.27,8,8,0,0,1,.16,1,7.38,7.38,0,0,1,0,.82c0,1.73,0,3.43,0,4.79l2,2-.36.15-.1,0a4.21,4.21,0,0,0-.51.29l-.12.08a2.1,2.1,0,0,0-.35.31l-.07.06,0,0a.43.43,0,0,0,0,.07l-.09.12a1.08,1.08,0,0,0-.08.19h0v0c0,.05,0,.1,0,.15a1.43,1.43,0,0,0,0,.22v.07a6.62,6.62,0,0,0,.28.9v0c0,.1.09.19.13.29s.19.43.31.65.16.24.24.36.2.34.33.51l0,.06a9.78,9.78,0,0,0,.87,1l4,4-.15.07a4.94,4.94,0,0,1-.58.19l-.61.14-.18,0-.35.06L28,25l-.2,0-.31.06h0l-.23.08-.06,0a.51.51,0,0,0-.13.09l-.06.06s0,0,0,0a1,1,0,0,0-.08.11l0,0v0a2.73,2.73,0,0,0-.13.29l0,.05c0,.11-.06.19-.09.29s-.1.29-.13.41a2.66,2.66,0,0,1-.11.36.55.55,0,0,1-.12.23l0,0a.41.41,0,0,1-.25.07c-.32,0-1.78-.28-3.05-.28a4,4,0,0,0-1.52.23c-1.19.54-3.07,2.79-5.86,2.93-2.77-.14-4.62-2.39-5.8-2.93A4,4,0,0,0,8.17,27,16.13,16.13,0,0,0,6,27.18L4.08,25.3c-.36-.36-.94-.26-2.4-.64a3.34,3.34,0,0,1-1.11-.47A1,1,0,0,1,.35,24h0l6,6.05a2.81,2.81,0,0,0,1.34.66c.31.08.58.14.82.18l2.33,2.34a.37.37,0,0,0,.27.09c.33,0,1.79-.28,3.07-.28a3.93,3.93,0,0,1,1.51.23c1.18.54,3,2.79,5.8,2.92,2.79-.13,4.67-2.38,5.86-2.92A4,4,0,0,1,28.89,33c1.28,0,2.73.28,3.06.28a.35.35,0,0,0,.24-.08l0,0,0,0,0-.06a1,1,0,0,0,0-.1s0,0,0,0a3.09,3.09,0,0,0,.1-.37c0-.11.09-.26.13-.41s.06-.2.11-.33a3,3,0,0,1,.15-.31l0,0a.61.61,0,0,1,.12-.16.1.1,0,0,1,.06-.05l.13-.1.06,0a1.23,1.23,0,0,1,.23-.09h0l.31-.07L34,31l.28-.05.34-.07.18,0,.61-.14a4.57,4.57,0,0,0,.59-.19l.15-.07.29-.15.12-.09a1.75,1.75,0,0,0,.2-.16l.08-.08,0,0a.94.94,0,0,0,.12-.18v-.05a.47.47,0,0,0,0-.1.56.56,0,0,0,0-.12v0h0a1.1,1.1,0,0,0,0-.16v-.13Z"/><path class="cls-3" d="M15.88,0a7.92,7.92,0,0,1,7.93,8c0,1.73,0,3.43,0,4.79a3.09,3.09,0,0,0,.74.1,2.1,2.1,0,0,0,1-.22,2.81,2.81,0,0,1,1.22-.4,1.28,1.28,0,0,1,.95.45c.67.68,0,1.33-1.13,1.75s-2.58.8-2.63,2.12a8.66,8.66,0,0,0,3.42,4.85,5.28,5.28,0,0,0,3.3,1.39h.28c.1,0,.15,0,.17.05.06.26.26,1.29-1.68,1.78s-2.32.16-2.71,1.17-.26,1.44-.75,1.44c-.32,0-1.78-.28-3.05-.28a4,4,0,0,0-1.52.23c-1.19.54-3.07,2.79-5.86,2.93-2.77-.14-4.62-2.39-5.8-2.93A4,4,0,0,0,8.17,27c-1.28,0-2.74.28-3.06.28-.49,0-.35-.43-.72-1.44s-.78-.67-2.71-1.17S0,23.14,0,22.88q0-.06.15-.06H.48a5.4,5.4,0,0,0,3.33-1.39,8.85,8.85,0,0,0,3.5-4.85c0-1.32-1.6-1.72-2.6-2.12S2.93,13.4,3.6,12.72a1.32,1.32,0,0,1,1-.45,2.77,2.77,0,0,1,1.22.4,2.07,2.07,0,0,0,1,.22,3,3,0,0,0,.73-.1c0-1.36,0-3.06,0-4.79a8.06,8.06,0,0,1,8.05-8Z"/></g></g></g></svg>