<?xml version="1.0" encoding="utf-8"?>
<!-- Generator: Adobe Illustrator 24.0.2, SVG Export Plug-In . SVG Version: 6.00 Build 0)  -->
<svg version="1.1" id="Layer_1" xmlns="http://www.w3.org/2000/svg" xmlns:xlink="http://www.w3.org/1999/xlink" x="0px" y="0px"
	 viewBox="0 0 38.5 32.4" style="enable-background:new 0 0 38.5 32.4;" xml:space="preserve">
<style type="text/css">
	.st0{fill:#1F2F44;}
</style>
<title>Asset 3@3x1</title>
<path class="st0" d="M11.6,11.1c-0.6-0.6-1-1-1.5-1.6l-7-7C3.6,3,4.1,3.5,4.5,4L11.6,11.1z"/>
<path class="st0" d="M4.3,11.8l7,7.1c0.3,0.3,0.7,0.7,1,0.9l-7-7C5,12.5,4.6,12.1,4.3,11.8z"/>
<path class="st0" d="M4.2,17.4l7,7c1,1,2.4,1.7,3.8,2.1l-7-7C6.6,19.1,5.2,18.4,4.2,17.4z"/>
<path class="st0" d="M38.2,4.7c-0.2,0.3-0.6,0.8-0.9,1.2c-0.8,0.9-1.7,1.9-2.8,2.6l-0.1,0.2c0,1.2,0,2.3-0.1,3.5
	c-0.3,2.4-1,4.8-2.1,6.9c-1,2.2-2.4,4.3-4.2,6.1c-2.9,3-6.6,5.1-10.7,5.9c-1.4,0.3-2.9,0.5-4.3,0.5h-0.7c-4.1,0-8.2-1.2-11.6-3.4
	l-0.2,0.1c0.6,0.1,1.2,0.1,1.9,0.1c2,0,4.1-0.3,5.9-1.2c1.3-0.6,2.6-1.3,3.7-2.2c-3.4-0.1-6.3-2.2-7.2-5.4c0.5,0.1,0.9,0.1,1.4,0.1
	c0.6,0,1.3-0.1,1.9-0.2L8,19.3c-2.1-0.5-3.8-1.6-5-3.5c-0.7-1.3-1.2-2.7-1.2-4.1c1,0.6,2.3,0.9,3.5,0.9c-1.5-1-2.6-2.7-3-4.7
	c-0.5-1.9-0.2-4,0.8-5.7c4,4.9,9.7,7.8,15.8,8.2c0-0.2,0-0.6-0.1-0.8c-0.2-1.7,0.2-3.6,1.2-5c1.2-1.9,3.1-3.1,5.2-3.5
	c0.6-0.1,1-0.2,1.5-0.2c2,0,4,0.8,5.4,2.3c0.1,0.1,0.1,0.1,0.2,0.1h0.1C34.1,3,35.6,2.5,37,1.6h0.1c-0.6,1.7-1.7,3.3-3.3,4.2
	C35.4,5.6,36.8,5.3,38.2,4.7z"/>
</svg>
