<?xml version="1.0" encoding="utf-8"?>
<!-- Generator: Adobe Illustrator 24.0.2, SVG Export Plug-In . SVG Version: 6.00 Build 0)  -->
<svg version="1.1" id="Layer_1" xmlns="http://www.w3.org/2000/svg" xmlns:xlink="http://www.w3.org/1999/xlink" x="0px" y="0px"
	 viewBox="0 0 38.5 32.4" style="enable-background:new 0 0 38.5 32.4;" xml:space="preserve">
<style type="text/css">
	.st0{fill:#CCCCCC;}
	.st1{fill:#FFFFFF;}
</style>
<title>Asset 3@3x1</title>
<path class="st0" d="M9.7,8.7C9.2,8.2,8.8,7.8,8.4,7.3l-6-6c0.4,0.5,0.8,0.9,1.2,1.3L9.7,8.7z"/>
<path class="st0" d="M3.4,9.3l6,6.1c0.3,0.3,0.6,0.6,0.9,0.8l-6-6C4,9.9,3.7,9.6,3.4,9.3z"/>
<path class="st0" d="M3.3,14.1l6,6c0.9,0.9,2.1,1.5,3.3,1.8l-6-6C5.4,15.6,4.2,15,3.3,14.1z"/>
<path class="st1" d="M32.5,3.2c-0.2,0.3-0.5,0.7-0.8,1C31,5,30.2,5.8,29.3,6.4l-0.1,0.2c0,1,0,2-0.1,3c-0.3,2.1-0.9,4.1-1.8,5.9
	c-0.9,1.9-2.1,3.7-3.6,5.2c-2.5,2.6-5.7,4.4-9.2,5.1c-1.2,0.3-2.5,0.4-3.7,0.4h-0.6c-3.5,0-7-1-10-2.9L0,23.4c0.5,0.1,1,0.1,1.6,0.1
	c1.7,0,3.5-0.3,5.1-1c1.1-0.5,2.2-1.1,3.2-1.9C7,20.5,4.5,18.7,3.7,16c0.4,0.1,0.8,0.1,1.2,0.1c0.5,0,1.1-0.1,1.6-0.2l0.1-0.1
	c-1.8-0.4-3.3-1.4-4.3-3c-0.6-1.1-1-2.3-1-3.5c0.9,0.5,2,0.8,3,0.8C3,9.2,2.1,7.8,1.7,6.1C1.3,4.5,1.5,2.7,2.4,1.2
	c3.4,4.2,8.3,6.7,13.6,7C16,8,16,7.7,15.9,7.5c-0.2-1.5,0.2-3.1,1-4.3c1-1.6,2.7-2.7,4.5-3C21.9,0.1,22.3,0,22.7,0
	c1.7,0,3.4,0.7,4.6,2c0.1,0.1,0.1,0.1,0.2,0.1h0.1c1.4-0.3,2.7-0.8,3.9-1.5h0.1c-0.5,1.5-1.5,2.8-2.8,3.6C30.1,4,31.3,3.7,32.5,3.2z
	"/>
</svg>
