<svg xmlns="http://www.w3.org/2000/svg" viewBox="0 0 33.01 33.05"><defs><style>.cls-1{fill:#fff;}</style></defs><title>Asset 11@3x1</title><g id="Layer_2" data-name="Layer 2"><g id="Layer_1-2" data-name="Layer 1"><path class="cls-1" d="M11.07,8.83a5.23,5.23,0,0,1,.95.11c.18,0,.35.29.45.49.46,1.06.91,2.12,1.3,3.2.22.57-.19,1.12-1,2.07a.73.73,0,0,0-.12.93,11.09,11.09,0,0,0,5.67,4.89.89.89,0,0,0,.31.06.71.71,0,0,0,.55-.3c1.05-1.27,1.35-1.83,1.78-1.83a.94.94,0,0,1,.36.1c3.29,1.58,3.56,1.65,3.56,2a3.6,3.6,0,0,1-3.78,3.69h-.24c-3.19-.11-8.28-2.64-11.73-8.71a4.94,4.94,0,0,1,.81-6.29A1.59,1.59,0,0,1,11.07,8.83Z"/><path class="cls-1" d="M32.76,13.35A16.58,16.58,0,0,1,19.35,32.58a17.55,17.55,0,0,1-2.87.24,16.53,16.53,0,0,1-7.34-1.74,1.57,1.57,0,0,0-.68-.15,1.66,1.66,0,0,0-.33,0C3.78,32.07.88,32.87,0,33.05c.19-.71.36-1.33.52-1.95.57-2,1.14-4,1.67-6a1.57,1.57,0,0,0-.08-1A16.59,16.59,0,0,1,16.88,0,16.19,16.19,0,0,1,32.76,13.35ZM18.67,29.94A13.82,13.82,0,0,0,30.19,14.37,13.56,13.56,0,0,0,16.77,2.7a13.26,13.26,0,0,0-2.49.23A13.76,13.76,0,0,0,4.61,23a2.8,2.8,0,0,1,.27,2.6c-.4,1.16-.66,2.35-1,3.66,1.63-.42,3.14-.8,4.64-1.22A1.37,1.37,0,0,1,8.88,28a1.41,1.41,0,0,1,.72.22,13.48,13.48,0,0,0,6.84,1.9,14.16,14.16,0,0,0,2.23-.18"/></g></g></svg>