<svg xmlns="http://www.w3.org/2000/svg" viewBox="0 0 39.03 39.1"><defs><style>.cls-1{isolation:isolate;}.cls-2{fill:#ccc;mix-blend-mode:multiply;}.cls-3{fill:#fff;}</style></defs><title>Asset 9@3x1</title><g class="cls-1"><g id="Layer_2" data-name="Layer 2"><g id="Layer_1-2" data-name="Layer 1"><path class="cls-2" d="M39,21.49c0-.18,0-.36,0-.55v-.18c0-.45-.11-.9-.18-1.36s-.2-.94-.32-1.4c0-.14-.09-.28-.13-.42-.09-.32-.2-.64-.31-.95,0-.08-.05-.16-.08-.24a1.09,1.09,0,0,0-.08-.15,14.6,14.6,0,0,0-.79-1.7c0-.09-.1-.17-.14-.26a19,19,0,0,0-1-1.64h0v0a18,18,0,0,0-1.56-1.82l-6-6.05a15.79,15.79,0,0,1,1.56,1.82l0,0a14.73,14.73,0,0,1,1.05,1.64l.15.25a17.48,17.48,0,0,1,.79,1.7l.15.39c.12.31.22.63.32.95,0,.14.09.28.12.42a13.5,13.5,0,0,1,.32,1.4c.09.52.15,1,.19,1.55l0,.54c0,.34,0,.68,0,1s0,.4,0,.59c0,.35,0,.7-.08,1,0,.14,0,.28,0,.42-.07.48-.15,1-.25,1.43a.24.24,0,0,0,0,.08c-.11.45-.23.88-.37,1.32,0,.13-.09.26-.14.39-.11.34-.25.67-.39,1-.05.13-.1.26-.16.39-.2.43-.41.86-.64,1.28l-.16.26c-.2.34-.41.68-.64,1l-5.34-5.36a.31.31,0,0,1,.09.12v0a.25.25,0,0,1,0,.12,3.83,3.83,0,0,1-.06.85s0,.06,0,.09a2.86,2.86,0,0,1-.23.68s0,.09-.05.12a3.38,3.38,0,0,1-.37.58,3.68,3.68,0,0,1-.62.57l-.21.13a3.63,3.63,0,0,1-.51.28l-.25.11a5.26,5.26,0,0,1-.53.15l-.22.06a4.6,4.6,0,0,1-.71.07h-.24c-2.27-.08-5.49-1.38-8.41-4.3l6,6.05a14.55,14.55,0,0,0,7.08,4.12l-.31.2-.78.46c-.19.1-.38.21-.58.3s-.57.27-.86.39l-.57.25c-.32.12-.66.23-1,.33l-.5.17c-.52.14-1,.26-1.58.36a17.55,17.55,0,0,1-2.87.24,16.4,16.4,0,0,1-5.62-1c0-.05,0-.1.05-.15a4.29,4.29,0,0,0,.13-.44,1.13,1.13,0,0,0,0-.18.36.36,0,0,1,0-.11s0-.07,0-.11a2.8,2.8,0,0,0,0-.41s0,0,0,0a2.49,2.49,0,0,0-.17-.69v0a4.12,4.12,0,0,0-.29-.6,13.59,13.59,0,0,1-.75-1.6c-.05-.12-.08-.25-.13-.38a13.35,13.35,0,0,1-.41-1.32c-.05-.21-.08-.42-.13-.62-.07-.37-.14-.74-.18-1.11S9,23.25,9,22.85c0-.05,0-.1,0-.14,0-.45,0-.9.06-1.34a15.46,15.46,0,0,1,.27-1.79v0a14.13,14.13,0,0,1,.51-1.68c.06-.17.14-.33.2-.49.18-.42.37-.84.59-1.25.12-.23.24-.46.37-.68s.16-.26.25-.39c.2-.32.43-.63.66-.94l.18-.23a13.57,13.57,0,0,1,1-1.06,3.2,3.2,0,0,1,.27-.25c.11-.12.24-.22.36-.33l.15.38h0a.87.87,0,0,1,.05.42v0a1.35,1.35,0,0,1-.15.44v0l-.1.14a4.6,4.6,0,0,1-.31.45l-.5.58,0,0a.76.76,0,0,0-.11.16h0v0l0,.07,0,.09a.09.09,0,0,1,0,.05h0v0a.41.41,0,0,0,0,.11.43.43,0,0,1,0,.05s0,.06,0,.08a.64.64,0,0,0,0,.07l.06.14a11.66,11.66,0,0,0,.77,1.16l0,.05a13,13,0,0,0,1,1.19l6,6a10.5,10.5,0,0,1-1-1.19,14.16,14.16,0,0,1-.81-1.21.9.9,0,0,1-.08-.21.24.24,0,0,1,0-.08.41.41,0,0,1,0-.19v0a.53.53,0,0,1,.07-.2v0a.86.86,0,0,1,.15-.22l.47-.54,0,0c.13-.17.23-.31.32-.45a1,1,0,0,1,.09-.13h0v0l.1-.2a1.42,1.42,0,0,0,0-.16.22.22,0,0,1,0-.08v0s0,0,0,0v-.15a1,1,0,0,0-.06-.23h0c-.07-.21-.15-.42-.23-.63s-.11-.27-.17-.4c-.29-.73-.59-1.45-.89-2.17a2.92,2.92,0,0,0-.17-.27.31.31,0,0,0-.09-.11L14.6,11.45c.29-.21.58-.42.88-.61l.14-.09a13.5,13.5,0,0,1,1.3-.69l.38-.17c.35-.15.71-.28,1.07-.4l.42-.14A14.49,14.49,0,0,1,20.3,9a14.24,14.24,0,0,1,2.5-.22,13.55,13.55,0,0,1,9.59,4l-6-6.05a13.52,13.52,0,0,0-9.59-4,13.26,13.26,0,0,0-2.49.23,12.33,12.33,0,0,0-1.51.37c-.15,0-.28.09-.42.14-.37.12-.72.26-1.07.41L10.9,4a14.63,14.63,0,0,0-1.3.69l-.15.09c-.36.23-.71.48-1,.74l-.34.27c-.29.23-.56.47-.83.73L7,6.78c-.31.32-.62.65-.9,1l0,.07-.17.24c-.24.3-.46.61-.67.93l-.24.4c-.08.13-.17.25-.24.38s-.09.2-.14.29c-.21.41-.41.83-.58,1.26l-.16.32c0,.05,0,.11,0,.16a12.2,12.2,0,0,0-.51,1.69v0h0A13.57,13.57,0,0,0,3,15.32l0,.17a11.43,11.43,0,0,0,0,1.17v.14c0,.32,0,.64.05,1,0,.08,0,.16,0,.24,0,.36.11.73.18,1.1,0,.21.07.41.12.62A13.43,13.43,0,0,0,3.73,21c0,.12.06.23.1.35a.05.05,0,0,1,0,0A13.55,13.55,0,0,0,4.61,23a4.88,4.88,0,0,1,.29.62,2.86,2.86,0,0,1,.17.7,2.54,2.54,0,0,1,0,.55A.43.43,0,0,1,5,25a3.15,3.15,0,0,1-.16.62c-.2.58-.37,1.17-.53,1.77s-.32,1.24-.5,1.89h0L6.06,31.5C2.87,32.32.73,32.9,0,33.05L6,39.1c.89-.18,3.78-1,8.13-2.08a1.15,1.15,0,0,1,.33,0,1.57,1.57,0,0,1,.68.15,16.45,16.45,0,0,0,10.22,1.49A13.75,13.75,0,0,0,27,38.26c.17,0,.33-.11.5-.16.34-.1.68-.21,1-.34s.38-.16.56-.24.59-.25.87-.39l.57-.31c.26-.14.53-.29.78-.45l.55-.36.72-.52.51-.4c.23-.19.45-.39.66-.59l.47-.44c.21-.21.42-.44.62-.66s.28-.3.41-.46l.12-.14c.17-.2.31-.42.47-.63l.33-.44c.22-.33.44-.67.64-1l.16-.26,0,0c.22-.4.43-.83.63-1.25.05-.13.1-.26.16-.39s.17-.38.24-.58.1-.28.15-.43.09-.26.13-.39c.14-.43.27-.87.37-1.31,0,0,0-.05,0-.08v0c.11-.46.19-.94.26-1.41,0-.14,0-.28,0-.42s0-.37.07-.56,0-.32,0-.48,0-.39,0-.59S39,21.83,39,21.49Z"/><path class="cls-3" d="M11.07,8.83a5.23,5.23,0,0,1,.95.11c.18,0,.35.29.45.49.46,1.06.91,2.12,1.3,3.2.22.57-.19,1.12-1,2.07a.73.73,0,0,0-.12.93,11.09,11.09,0,0,0,5.67,4.89.89.89,0,0,0,.31.06.71.71,0,0,0,.55-.3c1.05-1.27,1.35-1.83,1.78-1.83a.94.94,0,0,1,.36.1c3.29,1.58,3.56,1.65,3.56,2a3.6,3.6,0,0,1-3.78,3.69h-.24c-3.19-.11-8.28-2.64-11.73-8.71a4.94,4.94,0,0,1,.81-6.29A1.59,1.59,0,0,1,11.07,8.83Z"/><path class="cls-3" d="M32.76,13.35A16.58,16.58,0,0,1,19.35,32.58a17.55,17.55,0,0,1-2.87.24,16.53,16.53,0,0,1-7.34-1.74,1.57,1.57,0,0,0-.68-.15,1.66,1.66,0,0,0-.33,0C3.78,32.07.88,32.87,0,33.05c.19-.71.36-1.33.52-1.95.57-2,1.14-4,1.67-6a1.57,1.57,0,0,0-.08-1A16.59,16.59,0,0,1,16.88,0,16.19,16.19,0,0,1,32.76,13.35ZM18.67,29.94A13.82,13.82,0,0,0,30.19,14.37,13.56,13.56,0,0,0,16.77,2.7a13.26,13.26,0,0,0-2.49.23A13.76,13.76,0,0,0,4.61,23a2.8,2.8,0,0,1,.27,2.6c-.4,1.16-.66,2.35-1,3.66,1.63-.42,3.14-.8,4.64-1.22A1.37,1.37,0,0,1,8.88,28a1.41,1.41,0,0,1,.72.22,13.48,13.48,0,0,0,6.84,1.9,14.16,14.16,0,0,0,2.23-.18"/></g></g></g></svg>