<?xml version="1.0" encoding="utf-8"?>
<!-- Generator: Adobe Illustrator 24.0.2, SVG Export Plug-In . SVG Version: 6.00 Build 0)  -->
<svg version="1.1" id="Layer_1" xmlns="http://www.w3.org/2000/svg" xmlns:xlink="http://www.w3.org/1999/xlink" x="0px" y="0px"
	 viewBox="0 0 33 33" style="enable-background:new 0 0 33 33;" xml:space="preserve">
<style type="text/css">
	.st0{fill:#1F2F44;}
</style>
<title>Asset 11@3x1</title>
<g id="Layer_2_1_">
	<g id="Layer_1-2">
		<path class="st0" d="M11.1,8.8c0.3,0,0.6,0,0.9,0.1c0.2,0,0.4,0.3,0.4,0.5c0.5,1.1,0.9,2.1,1.3,3.2c0.2,0.6-0.2,1.1-1,2.1
			c-0.3,0.2-0.3,0.6-0.1,0.9c1.3,2.2,3.3,4,5.7,4.9c0.1,0,0.2,0.1,0.3,0.1c0.2,0,0.4-0.1,0.5-0.3c1-1.3,1.4-1.8,1.8-1.8
			c0.1,0,0.2,0,0.4,0.1c3.3,1.6,3.6,1.6,3.6,2c0.1,2-1.5,3.6-3.5,3.7c-0.1,0-0.2,0-0.3,0h-0.2c-3.2-0.1-8.3-2.6-11.7-8.7
			c-1.3-2-0.9-4.7,0.8-6.3C10.2,9,10.7,8.8,11.1,8.8z"/>
		<path class="st0" d="M32.8,13.4c1.6,9-4.4,17.6-13.4,19.2c-0.9,0.2-1.9,0.2-2.9,0.2c-2.5,0-5.1-0.6-7.3-1.7
			c-0.2-0.1-0.4-0.2-0.7-0.1c-0.1,0-0.2,0-0.3,0C3.8,32.1,0.9,32.9,0,33c0.2-0.7,0.4-1.3,0.5-2c0.6-2,1.1-4,1.7-6
			c0.1-0.3,0.1-0.7-0.1-1C-2,15.9,1.2,5.9,9.4,1.8C11.7,0.6,14.3,0,16.9,0C24.7,0,31.4,5.6,32.8,13.4z M18.7,29.9
			c7.4-1.2,12.6-8.1,11.5-15.6C29.2,7.7,23.5,2.7,16.8,2.7c-0.8,0-1.7,0.1-2.5,0.2c-7.5,1.3-12.4,8.5-11.1,16
			c0.3,1.4,0.7,2.8,1.4,4.1c0.5,0.8,0.6,1.7,0.3,2.6c-0.4,1.2-0.7,2.4-1,3.7C5.5,28.8,7,28.5,8.5,28c0.1,0,0.2,0,0.4,0
			c0.3,0,0.5,0.1,0.7,0.2c2.1,1.2,4.4,1.9,6.8,1.9C17.2,30.1,17.9,30.1,18.7,29.9"/>
	</g>
</g>
</svg>
