<svg xmlns="http://www.w3.org/2000/svg" viewBox="0 0 38.04 28.48"><defs><style>.cls-1{isolation:isolate;}.cls-2{fill:#ccc;mix-blend-mode:multiply;}.cls-3{fill:#fff;}</style></defs><title>Asset 8@3x1</title><g class="cls-1"><g id="Layer_2" data-name="Layer 2"><g id="Layer_1-2" data-name="Layer 1"><path class="cls-2" d="M28,16.93l-6-6L12.11,5.7c0,3.46,0,6.88-.08,10.35l6,6.05c0-3.48.05-6.9.08-10.36h0Z"/><path class="cls-2" d="M38,18.7c0-.64,0-1.29,0-1.93v-.34c0-.63,0-1.25,0-1.86,0-.12,0-.24,0-.36,0-.61-.07-1.21-.12-1.77v0c0-.22,0-.42-.07-.63s0-.28,0-.41-.07-.44-.1-.65,0-.21,0-.3-.08-.4-.12-.58,0-.17,0-.24a5.09,5.09,0,0,0-.2-.65l0-.05a.41.41,0,0,0-.05-.09,3.49,3.49,0,0,0-.4-.74l0-.1c-.11-.14-.22-.27-.34-.4l-6-6a3.72,3.72,0,0,1,.4.49,4.36,4.36,0,0,1,.4.74s.05.09.07.14.13.41.2.65c0,.09,0,.2.06.3s.07.33.11.52,0,.23.05.34l.09.61c0,.13,0,.28.05.41s.05.43.07.65c.05.56.09,1.16.11,1.78,0,.12,0,.23,0,.35,0,.6,0,1.23,0,1.86,0,.11,0,.23,0,.35,0,.64,0,1.28,0,1.91v.07c0,.65-.05,1.28-.1,1.89l0,.46c0,.14,0,.27,0,.41s0,.47-.07.7,0,.26,0,.38l-.09.67c0,.11,0,.22-.05.32-.05.29-.1.57-.16.83a.11.11,0,0,1,0,.05c-.06.26-.12.49-.19.71s0,.12-.05.18-.14.39-.21.55a3.48,3.48,0,0,1-.23.38,2.2,2.2,0,0,1-.17.25c-.05.07-.11.13-.16.19a3.5,3.5,0,0,1-.39.38l-.17.14a4.44,4.44,0,0,1-.62.41c-1.08.56-7.35.82-13.49.82-5.64,0-11.19-.22-12.48-.65a3.72,3.72,0,0,1-1.55-.93l6,6a3.79,3.79,0,0,0,1.55.93c1.3.42,6.84.65,12.49.65,6.14,0,12.4-.27,13.48-.82a4.54,4.54,0,0,0,.63-.41l.17-.14a4.54,4.54,0,0,0,.38-.38l.11-.1a.47.47,0,0,1,.06-.09c.06-.08.11-.17.16-.25a1.77,1.77,0,0,0,.12-.17A1.51,1.51,0,0,0,37,25.9a3.09,3.09,0,0,0,.14-.32l.07-.22.06-.18c.06-.22.13-.45.19-.71h0a.07.07,0,0,1,0,0c0-.26.11-.54.15-.83a3.06,3.06,0,0,0,0-.32c0-.22.07-.44.1-.67s0-.26,0-.39.05-.46.08-.69l0-.42a1.79,1.79,0,0,0,0-.23c0-.07,0-.15,0-.22,0-.62.08-1.25.1-1.89Z"/><path class="cls-3" d="M31.21,2.91c1.14,3,1.1,14-.28,17a3.88,3.88,0,0,1-1.74,1.75c-1.08.56-7.35.82-13.49.82-5.64,0-11.19-.22-12.48-.65A3.69,3.69,0,0,1,.77,19.4c-1-2.93-1.26-15.17.81-17.59A4,4,0,0,1,4.26.4C6.73.13,11.48,0,16.16,0,22,0,27.72.2,28.81.6A3.78,3.78,0,0,1,31.21,2.91ZM12,16.05l10-5.17L12.11,5.7c0,3.46,0,6.88-.08,10.35"/></g></g></g></svg>