<svg xmlns="http://www.w3.org/2000/svg" viewBox="0 0 26.1 18.57"><defs><style>.cls-1{fill:#fff;}</style></defs><title>Asset 2@3x1</title><g id="Layer_2" data-name="Layer 2"><g id="Layer_1-2" data-name="Layer 1"><g id="n7hIeX"><path class="cls-1" d="M26.06,7.42l0-.32c0-.29,0-.57-.05-.85s-.08-.86-.13-1.29a14.71,14.71,0,0,0-.3-1.71A3.61,3.61,0,0,0,23.31.66,5,5,0,0,0,22,.35L20.16.2c-.5,0-1-.06-1.49-.08L17,.06,15.34,0,13.56,0H11.92L10.25,0,8.66.07H8.34L7.82.1H7.53L6.21.19c-.37,0-.75,0-1.12.09s-1,.11-1.44.18A5.78,5.78,0,0,0,3,.6a3.47,3.47,0,0,0-1.31.73A3.55,3.55,0,0,0,.49,3.24,15.59,15.59,0,0,0,.2,5.15C.14,5.72.09,6.28.06,6.85S0,8,0,8.54s0,1.29,0,1.94c0,.48,0,1,.06,1.45S.16,13,.21,13.55a15.21,15.21,0,0,0,.27,1.67A3.64,3.64,0,0,0,1.74,17.3a3.28,3.28,0,0,0,1.56.75c.38.07.76.13,1.15.17l1.64.14,1.47.08,1.53.06,1.56,0,1.72,0h.77l1.9,0,1.26,0,1.45-.05c.58,0,1.16,0,1.73-.08s.92-.06,1.43-.1,1-.1,1.54-.18a4,4,0,0,0,1.29-.42,3.58,3.58,0,0,0,1.83-2.41A17.05,17.05,0,0,0,25.91,13c.05-.44.08-.89.11-1.34s.06-1.15.07-1.72C26.11,9,26.1,8.17,26.06,7.42ZM10.31,13.78,10.12,13v-.12l0-7.9.58.1c.22,0,6.68,3.8,6.71,3.83l.56.46Z"/></g></g></g></svg>