<svg id="Layer_1" data-name="Layer 1" xmlns="http://www.w3.org/2000/svg" xmlns:xlink="http://www.w3.org/1999/xlink" viewBox="0 0 118.38 118.38"><defs><style>.cls-1,.cls-4{fill:none;}.cls-2{fill:#aea2cf;}.cls-3{clip-path:url(#clip-path);}.cls-4{stroke:#473575;stroke-linecap:round;stroke-linejoin:round;stroke-width:2.57px;}.cls-5{fill:#473575;}</style><clipPath id="clip-path"><circle class="cls-1" cx="59.19" cy="59.19" r="59.19"/></clipPath></defs><title>Artboard 48 copy 6@4x1</title><circle class="cls-2" cx="59.19" cy="59.19" r="59.19"/><g class="cls-3"><path class="cls-4" d="M-2.85,87.81c-1.78-105,42.3-47.22,48-93.48"/><path class="cls-4" d="M17.25,54.22c1,16.43-1.22,39-2.71,48.49"/><path class="cls-4" d="M20.39,130.79c4.42-11.65,6.56-24.15,5.19-36.59C24.68,86,21.9,78.38,20,70.43a145.14,145.14,0,0,1-3.1-19.66"/><path class="cls-4" d="M48.94,28.88c.7,18.69-4.18,27.14-13.38,37.39"/><path class="cls-4" d="M121.23,87.81c1.78-105-42.3-47.22-48-93.48"/><path class="cls-4" d="M100.94,57.34c-.82,14.32,1.71,38.6,3.65,46.34"/><path class="cls-4" d="M98,130.79c-5.34-11.38-6.28-24.48-5.34-36.65,1.87-15,8.42-28.07,8.81-43.37"/><path class="cls-4" d="M69.44,28.88C68.74,47.57,73.62,56,82.82,66.27"/><line class="cls-4" x1="59.19" y1="128.04" x2="59.19" y2="87.81"/><line class="cls-4" x1="59.19" y1="128.04" x2="59.19" y2="87.81"/></g><path class="cls-5" d="M44.26,68.62a43.1,43.1,0,0,1-.42,8.24c-.45,2.53-1.55,3.63-2.4,4.11A3.06,3.06,0,0,1,37,79.25c-.3-.93-.38-2.48,1-4.66a43.89,43.89,0,0,1,5.23-6.39.64.64,0,0,1,.68-.15.67.67,0,0,1,.41.5ZM38.18,78.84a1.76,1.76,0,0,0,2.63,1c.61-.34,1.41-1.18,1.77-3.21A38.22,38.22,0,0,0,43,70.22a38.54,38.54,0,0,0-4,5,4.72,4.72,0,0,0-.93,3.21A1.58,1.58,0,0,0,38.18,78.84Z"/><path class="cls-5" d="M53.47,74.54a2.84,2.84,0,0,1-4,2c-.83-.37-1.94-1.29-2.56-3.58a38.55,38.55,0,0,1-1.06-7.48.65.65,0,0,1,.35-.6.66.66,0,0,1,.7.08,40.38,40.38,0,0,1,5.29,5.4,7.7,7.7,0,0,1,1,1.77A4,4,0,0,1,53.47,74.54Zm-5.33-1.93c.5,1.8,1.28,2.48,1.85,2.74a1.61,1.61,0,0,0,1.39,0,1.63,1.63,0,0,0,.85-1.1c.14-.61.08-1.65-1.06-3.14a35.06,35.06,0,0,0-3.94-4.17A35.54,35.54,0,0,0,48.14,72.61Z"/></svg>