<svg id="Layer_1" data-name="Layer 1" xmlns="http://www.w3.org/2000/svg" xmlns:xlink="http://www.w3.org/1999/xlink" viewBox="0 0 118.38 118.38"><defs><style>.cls-1,.cls-4{fill:none;}.cls-2{fill:#aea2cf;}.cls-3{clip-path:url(#clip-path);}.cls-4{stroke:#473575;stroke-linecap:round;stroke-linejoin:round;stroke-width:2.57px;}</style><clipPath id="clip-path"><circle class="cls-1" cx="59.19" cy="59.19" r="59.19"/></clipPath></defs><title>Artboard 48@4x1</title><circle class="cls-2" cx="59.19" cy="59.19" r="59.19"/><g class="cls-3"><path class="cls-4" d="M-42,85.4c-1.42-13.74.1-24,2.85-37.39.95-12.24,4.72-21.09,15-24.32a32.32,32.32,0,0,0,7.18-3.47c6.53-4,11.27-6.78,18.22-9.41a11.35,11.35,0,0,0,7-9.5h0"/><line class="cls-4" x1="21.7" y1="59.6" x2="21.67" y2="35.29"/><path class="cls-4" d="M87.35,114c1.91-13.37-.95-52.51-4.83-66-.94-12.24-4.72-21.09-15-24.32a32.32,32.32,0,0,1-7.18-3.47c-6.53-4-11.26-6.78-18.22-9.41a11.34,11.34,0,0,1-7-9.5h0"/><path class="cls-4" d="M60.45,66c-1.74,10.77-.78,50.87,3,53.73"/><path class="cls-4" d="M54.25,121.37l-1.16-18.22c.34-31.78,6.62-27,12.18-55.14"/><path class="cls-4" d="M17.22,63.66c-7.76,6-20.91,6.4-27.47,2.52"/><path class="cls-4" d="M26.12,63.66c7.76,6,20.91,6.4,27.47,2.52"/><path class="cls-4" d="M23.14,118.14a3,3,0,0,1-2.94,0"/><path class="cls-4" d="M45.87,62.11a3.07,3.07,0,0,0,2.94,0"/><path class="cls-4" d="M17.53,81.24c-1,2.26-4.74,6.83-8.83,7.57"/><path class="cls-4" d="M25.87,81.24c1,2.26,4.74,6.83,8.83,7.57"/><line class="cls-4" x1="-7.21" y1="24.57" x2="16.31" y2="30.19"/><line class="cls-4" x1="50.55" y1="24.57" x2="27.03" y2="30.19"/></g></svg>