<svg id="Layer_1" data-name="Layer 1" xmlns="http://www.w3.org/2000/svg" xmlns:xlink="http://www.w3.org/1999/xlink" viewBox="0 0 118.38 118.38"><defs><style>.cls-1,.cls-6{fill:none;}.cls-2{fill:#aea2cf;}.cls-3{clip-path:url(#clip-path);}.cls-4{fill:#473575;}.cls-5{clip-path:url(#clip-path-2);}.cls-6{stroke:#473575;stroke-linecap:round;stroke-linejoin:round;stroke-width:2.57px;}</style><clipPath id="clip-path"><circle class="cls-1" cx="59.19" cy="59.19" r="59.19"/></clipPath><clipPath id="clip-path-2"><circle class="cls-1" cx="-67.69" cy="67.37" r="59.19"/></clipPath></defs><title>Artboard 48 copy@4x1</title><circle class="cls-2" cx="59.19" cy="59.19" r="59.19"/><g class="cls-3"><g id="PBLgo0"><path class="cls-4" d="M1.81,121.91a1,1,0,0,1-1-1c0-.14,0-.28,0-.4.16-1.14.27-2.29.39-3.43.2-2,.39-4,.61-6,.25-2.15.53-4.3.78-6.45.1-.86.08-.86-.75-1-.22,0-.42-.11-.63-.16-2.23-.51-4.47-1-6.68-1.54a40,40,0,0,1-6.86-2.37c-.13-.06-.28-.07-.47-.13v.5l-.09,13.62c0,2.22,0,4.44,0,6.65a1,1,0,0,1-1.22,1.13,1,1,0,0,1-.84-1.17c0-3.5.11-7,.14-10.49s0-7.24,0-10.86a.72.72,0,0,0-.39-.69c-.26-.15-.53-.29-.78-.46a12.52,12.52,0,0,1-4.28-4.22,9.58,9.58,0,0,1-1-2.94V88.39c.08-.79.17-1.58.25-2.36.14-1.6.22-3.21.44-4.8.26-2,.63-3.89,1-5.84a51.15,51.15,0,0,1,2.32-8.78,32.76,32.76,0,0,1,4.91-9.27,19.24,19.24,0,0,1,7.92-6.13c.64-.26,1.31-.48,2-.69a.71.71,0,0,0,.61-.76c.06-3.09.13-6.18.3-9.26.15-2.74.39-5.48.69-8.2.24-2.31.58-4.61,1-6.9s.76-4.48,1.28-6.69,1.11-4.44,1.85-6.6S4.92,7.7,5.88,5.54A31.13,31.13,0,0,1,7.94,1.73a35.9,35.9,0,0,1,7.52-9,39.66,39.66,0,0,1,4.92-3.52,40.15,40.15,0,0,1,8.68-3.93c1.65-.53,3.33-1,5-1.42,1.14-.3,2.29-.56,3.46-.76A18,18,0,0,1,42.92-17a17,17,0,0,1,7.88,3.16,16.15,16.15,0,0,1,3.36,3.14,2.7,2.7,0,0,0,1.53.77c4.5,1.45,8.63,3.52,11.86,7.09a20.37,20.37,0,0,1,4.2,7.1,31.39,31.39,0,0,1,1.31,4.57,56.82,56.82,0,0,1,.74,5.84A58,58,0,0,1,73.72,25a9.86,9.86,0,0,0,1.64,6.83,23.73,23.73,0,0,0,2.19,2.37c.6-.55,1.14-1,1.64-1.51,3.48-3.58,7-7.18,10.43-10.76a1.46,1.46,0,0,0,.46-1.06c.07-4.22.17-8.43.27-12.64.07-3.23.17-6.46.25-9.69a11.61,11.61,0,0,0-2.17-7c-1.41-2-3-3.89-4.5-5.82a7.74,7.74,0,0,1-.74-1.06.93.93,0,0,1,.39-1.2,1.08,1.08,0,0,1,1.21.15c.53.59,1,1.19,1.53,1.81,1.35,1.75,2.68,3.51,4,5.27a.26.26,0,0,0,.19.1c-.19-.74-.37-1.49-.57-2.23a3,3,0,0,0-.13-.39,1.09,1.09,0,0,1,.56-1.38,1,1,0,0,1,1.32.62,16.17,16.17,0,0,1,1.07,5.53c0,3.27-.17,6.55-.25,9.83,0,2.37-.06,4.74-.11,7.11-.06,2.93-.13,5.85-.19,8.77a3.94,3.94,0,0,0,0,.53c.4-.4.74-.73,1.06-1.07.53-.54,1-1.11,1.58-1.65a1,1,0,0,1,1.69.15,1,1,0,0,1-.23,1.27L93,21.35q-6.7,6.93-13.41,13.86c-.29.29-.26.44,0,.68,2,1.62,4,3.24,6,4.89A28.72,28.72,0,0,1,91,46.46c0,.06.1.12.19.23l1.16-1.22c2.41-2.54,4.84-5.06,7.23-7.62a70.9,70.9,0,0,0,6.87-8.4,22.08,22.08,0,0,0,3.13-6.18,6.32,6.32,0,0,0,.31-1.87,58.58,58.58,0,0,0-.31-5.93,48.79,48.79,0,0,0-1.11-5.86A56.48,56.48,0,0,0,105.51.93c-1.28-2.93-2.66-5.81-3.9-8.76a35.89,35.89,0,0,1-1.54-4.63c-.42-1.56-.68-3.16-1-4.74a1.14,1.14,0,0,1,.71-1.38l.57,0a1.28,1.28,0,0,1,.75,1c.19,1.05.38,2.11.58,3.16a25.59,25.59,0,0,0,1.58,5.36c.89,2.11,1.88,4.18,2.82,6.28.57,1.28,1.17,2.54,1.65,3.85.85,2.33,1.67,4.67,2.4,7a36.79,36.79,0,0,1,.94,4.13c.24,1.25.39,2.52.57,3.78.09.59.17,1.19.25,1.79v4.59c-.37,1.15-.67,2.33-1.11,3.45a26.58,26.58,0,0,1-3.24,5.61A122,122,0,0,1,96.27,44.29c-1.28,1.33-2.54,2.69-3.83,4a.72.72,0,0,0-.19.8A6.74,6.74,0,0,1,91,55.39a29,29,0,0,1-5.62,5.5c-3.2,2.42-6.47,4.74-9.73,7.08-1.65,1.19-3.33,2.34-5,3.49a7.93,7.93,0,0,0-2.83,3.85A21.75,21.75,0,0,0,66.42,81a58.63,58.63,0,0,0-.5,6.62c0,3.36.12,6.73.3,10.1.11,2,.44,3.9.67,5.85.14,1.26.28,2.53.43,3.8.23,2,.5,4.09.69,6.14.16,1.84.23,3.7.33,5.55a.94.94,0,0,1-.93,1,1,1,0,0,1-1-.92c-.1-1.5-.2-3-.34-4.52-.11-1.31-.28-2.62-.42-3.94-.05-.41-.07-.84-.11-1.25-.1-1-.2-2-.32-3-.22-1.75-.47-3.48-.7-5.23-.07-.56-.08-1.14-.15-1.71-.11-1-.18-2-.23-2.93q-.14-2.42-.21-4.83A9.66,9.66,0,0,0,63,87.83a3.62,3.62,0,0,0-.41-.68.87.87,0,0,0-1.5-.08c-.6.63-1.14,1.31-1.76,1.92a5.56,5.56,0,0,1-1.28,1,1.23,1.23,0,0,1-1.79-.78A4.85,4.85,0,0,1,56,87.74c0-1.13.13-2.27.12-3.41a9.84,9.84,0,0,0-1-5c-.49-.84-1.07-1.63-1.53-2.49a7,7,0,0,1-.7-1.91,2,2,0,0,1,1.41-2.45c.73-.26,1.47-.49,2.21-.74a4.45,4.45,0,0,0,2.56-2.49c.74-1.48,1.46-3,2.25-4.43a2.91,2.91,0,0,1,1.75-1.65,1.54,1.54,0,0,1,1.84.78q.6,1.18,1.11,2.4a3.05,3.05,0,0,0,3.47,2,12.26,12.26,0,0,0,5.55-2.39c2.55-1.85,5.15-3.64,7.67-5.53a34.61,34.61,0,0,0,6.55-6.13,5,5,0,0,0,1.14-3.19,6.57,6.57,0,0,0-1.14-3.36,20.25,20.25,0,0,0-4-4.45c-2.55-2.18-5.19-4.26-7.73-6.45-1.31-1.13-2.5-2.38-3.71-3.6a8.17,8.17,0,0,1-.79-1.15c-.08.49-.14.89-.2,1.3L72,38.8c-.11.74-.24,1.48-.34,2.22s-.43,1.09-1,1.15a1,1,0,0,1-1.09-1.27c.17-.84.28-1.69.41-2.53.18-1.12.36-2.24.51-3.36.14-1,.24-1.92.37-2.87s.3-1.84.42-2.76c.07-.55.1-1.11.14-1.67.08-1.06.2-2.11.23-3.16.09-2.67.18-5.34.18-8a23.12,23.12,0,0,0-.28-3.72,55.82,55.82,0,0,0-1.13-5.9,20.18,20.18,0,0,0-3.81-7.6A18.29,18.29,0,0,0,61.51-5.1c-1.46-.82-3-1.48-4.51-2.21a2.08,2.08,0,0,0-.48-.1l.42.83a1,1,0,0,1-.34,1.45,1.06,1.06,0,0,1-1.45-.52,17.83,17.83,0,0,0-7.63-7.81,14.53,14.53,0,0,0-6.89-1.61,23.47,23.47,0,0,0-4.8.63,50.79,50.79,0,0,0-8,2.36c-1.58.62-3.11,1.35-4.62,2.11a27.83,27.83,0,0,0-3.38,2c-1.23.86-2.4,1.82-3.54,2.79a28.38,28.38,0,0,0-3.86,4,40.39,40.39,0,0,0-3.3,4.9,48.06,48.06,0,0,0-3.58,7.91C4.92,13.32,4.43,15,4,16.77s-.91,3.51-1.28,5.29C2.4,23.47,2.21,24.9,2,26.33s-.47,3.13-.7,4.7c-.05.37-.07.74-.1,1.12-.11,1.24-.2,2.48-.32,3.72C.5,39.29.34,42.73.27,46.17c0,1-.07,2-.13,3,0,.17,0,.33,0,.55l1.78-.36c.79-.17,1.58-.36,2.37-.5,1.58-.3,3.16-.53,4.73-.86,1.34-.29,2.67-.68,4-1,.28-.07.32-.22.3-.5-.17-2.21-.4-4.42-.44-6.63a26.36,26.36,0,0,1,.94-7.11,19.91,19.91,0,0,1,5.81-9.88,19.2,19.2,0,0,1,7.44-4.12,28,28,0,0,1,7.45-1.12c2.16-.05,4.32-.13,6.48-.26,2.4-.15,4.81-.29,7.19-.6a60.05,60.05,0,0,0,6.1-1.13,14.51,14.51,0,0,0,5.08-2.15A5.92,5.92,0,0,0,62,9.16a9.13,9.13,0,0,0-.11-3,12.77,12.77,0,0,0-1.49-3.7c-.49-.92-1-1.83-1.47-2.75a1,1,0,0,1,.49-1.49,1,1,0,0,1,1.37.65C61.34,0,62,1.15,62.57,2.29a11.67,11.67,0,0,1,1.54,6.4,8.16,8.16,0,0,1-4.43,7,19,19,0,0,1-5.43,2c-1.9.39-3.81.76-5.73,1.06-1.23.19-2.47.26-3.72.35-2,.15-4,.29-6.07.41-1.42.08-2.84.12-4.26.13a25.72,25.72,0,0,0-5.18.61,19.12,19.12,0,0,0-6.15,2.48.74.74,0,0,0-.37.69c.05,1.17,0,2.35.16,3.5a15.12,15.12,0,0,0,1,4.24,3.65,3.65,0,0,0,.58.83.8.8,0,0,0,1,.18,14.84,14.84,0,0,0,1.49-.87,1,1,0,0,1,1.48.13,1,1,0,0,1-.21,1.43,8.11,8.11,0,0,1-1.19.82.65.65,0,0,0-.4.65c0,1.47,0,2.94,0,4.4A12,12,0,0,0,28,43.55,18,18,0,0,0,37.15,52a8.94,8.94,0,0,0,4.74.7,11.78,11.78,0,0,0,2.3-.59A25,25,0,0,0,52.75,47a42.46,42.46,0,0,0,7.36-8.31A38.15,38.15,0,0,0,64.2,31a34.16,34.16,0,0,0,1.7-5.69,22.86,22.86,0,0,0,.4-6.28,16.38,16.38,0,0,0-1.46-5.65A1,1,0,0,1,65.37,12a1,1,0,0,1,1.31.62,19.76,19.76,0,0,1,1.5,5.22,21,21,0,0,1,.1,5.42,35.6,35.6,0,0,1-1,5,34.63,34.63,0,0,1-3.22,7.88,44.78,44.78,0,0,1-5.15,7.53,38,38,0,0,1-7.49,7,34,34,0,0,1-4.9,2.88,12.82,12.82,0,0,1-8,1.16,13.79,13.79,0,0,1-2.91-1.09,20.52,20.52,0,0,1-6.22-4.46,17.5,17.5,0,0,1-4-6.5,12.85,12.85,0,0,1-.74-4.31c0-1.22,0-2.43,0-3.65,0-.29-.1-.39-.37-.49a11.12,11.12,0,0,1-1.25-.62c-.18.82-.35,1.65-.55,2.48a30.67,30.67,0,0,1-2.73,8.13,10.13,10.13,0,0,1-5.12,4.43A23,23,0,0,1,9.38,50c-1.58.26-3.17.5-4.73.85-2.3.51-4.62,1-6.87,1.7a17.4,17.4,0,0,0-9.46,7.27,30.43,30.43,0,0,0-3.71,7.6c-.66,2-1.21,4-1.73,6-.36,1.43-.63,2.89-.85,4.35-.33,2.25-.6,4.5-.86,6.76-.17,1.5-.31,3-.4,4.51A6.08,6.08,0,0,0-18,93.16a12.56,12.56,0,0,0,4.24,3.45,30.24,30.24,0,0,0,6.41,2.6c2.23.63,4.48,1.18,6.72,1.75,1,.26,2.06.47,3.09.69a1.72,1.72,0,0,0,.4,0c.1-.76.21-1.48.29-2.2.19-1.66.37-3.32.53-5,.12-1.27.22-2.55.32-3.82.05-.64.05-1.27.09-1.91a1.13,1.13,0,0,1,1-1,1.14,1.14,0,0,1,1,1.12c-.1,1.55-.25,3.1-.38,4.65,0,.28,0,.57,0,.84-.13,1.43-.25,2.86-.4,4.28-.17,1.63-.36,3.25-.55,4.87l-.57,5c-.18,1.64-.37,3.28-.55,4.92-.2,1.83-.39,3.66-.59,5.49-.08.75-.18,1.5-.27,2.25h0a.85.85,0,0,1-.84.76Zm56.11-34.3c.17-.19.26-.27.34-.37.47-.53.91-1.1,1.41-1.6a2.75,2.75,0,0,1,3.22-.8,9.4,9.4,0,0,1,1,.64c0-.36.11-.68.14-1,.1-1,.2-2,.28-3a25.85,25.85,0,0,1,1-5.08,13.65,13.65,0,0,1,1.53-3.68c.51-.8,1.11-1.54,1.7-2.34-3.09-.28-4.34-2.45-5-5.31-.26.4-.47.65-.61.93-.64,1.31-1.26,2.64-1.9,4a7.41,7.41,0,0,1-2.27,3,9.89,9.89,0,0,1-3.18,1.28c-.62.16-.77.4-.5,1a15.38,15.38,0,0,0,1.08,2,10.2,10.2,0,0,1,1.76,3.83A18.79,18.79,0,0,1,57.92,87.61ZM20.65,24.74a1.9,1.9,0,0,0-.29.23c-.77,1-1.62,1.9-2.28,2.93a21,21,0,0,0-3,9.26,33.68,33.68,0,0,0,.18,8.21,1.8,1.8,0,0,0,.11.41,1.16,1.16,0,0,0,.19-.09,10.09,10.09,0,0,0,3.65-5.34c.5-1.53.9-3.1,1.3-4.67.35-1.37.64-2.76.93-4.14a3,3,0,0,0,.12-1.1c-.19-1.24-.45-2.47-.66-3.71C20.77,26.1,20.73,25.46,20.65,24.74Z"/><path class="cls-4" d="M96.93,78l-8.21-.44a.6.6,0,0,1-.63-.61c0-.41.27-.61.63-.7a2.1,2.1,0,0,1,.56,0l4.52.25,3.83.18a.76.76,0,0,1,.76.67c0,.38-.33.65-.81.66h-.65Z"/><path class="cls-4" d="M77.19,91.23c-.18.18-.32.47-.52.51a.9.9,0,0,1-.73-.23c-.53-.6-1-1.25-1.51-1.89-.72-.91-1.44-1.82-2.15-2.74-.34-.44-.31-.8,0-1.06s.66-.18,1,.25c.89,1.1,1.75,2.22,2.63,3.33.32.42.65.83,1,1.26A4.34,4.34,0,0,1,77.19,91.23Z"/><path class="cls-4" d="M83.3,99c-.15.17-.29.44-.47.48a.89.89,0,0,1-.74-.16c-.57-.63-1.08-1.31-1.62-2-.19-.24-.39-.48-.56-.73a.69.69,0,0,1,.07-1,.68.68,0,0,1,1,.16c.72.89,1.43,1.8,2.13,2.7A2.79,2.79,0,0,1,83.3,99Z"/><path class="cls-4" d="M80,75.83l2.2.1a.67.67,0,0,1,.73.67.6.6,0,0,1-.7.63c-1.07,0-2.15-.1-3.22-.19a.58.58,0,0,1-.6-.64.56.56,0,0,1,.61-.58h1Z"/><path class="cls-4" d="M91.13,91.1c0-.57.46-.89.87-.7a8.05,8.05,0,0,1,1.2.71.57.57,0,0,1,.13.83c-.18.27-.43.46-.78.26s-.79-.44-1.16-.7A1.17,1.17,0,0,1,91.13,91.1Z"/><path class="cls-4" d="M85.34,86.57a.67.67,0,0,1-.94.64,8.85,8.85,0,0,1-1.1-.69.63.63,0,0,1,.54-1.12,9.71,9.71,0,0,1,1.36.86C85.29,86.33,85.31,86.5,85.34,86.57Z"/><path class="cls-4" d="M80.61,84.93a17.58,17.58,0,0,1-1.54-1.14c-.11-.1,0-.55.09-.7a.76.76,0,0,1,.69-.16,4.52,4.52,0,0,1,1.21.77.78.78,0,0,1,.14.7C81.15,84.59,80.87,84.72,80.61,84.93Z"/><path class="cls-4" d="M87.68,87.8a3.59,3.59,0,0,1,1.62,1,.69.69,0,0,1-.07.65.8.8,0,0,1-.68.23A4.29,4.29,0,0,1,87.32,89a1,1,0,0,1-.15-.75C87.22,88.05,87.51,87.94,87.68,87.8Z"/><path class="cls-4" d="M77.2,81.64c0,.46-.39.77-.74.61a8.78,8.78,0,0,1-1.35-.81c-.13-.1-.23-.5-.14-.59s.56-.51.71-.45a8,8,0,0,1,1.39.92C77.16,81.39,77.17,81.57,77.2,81.64Z"/></g></g><g class="cls-5"><path class="cls-6" d="M75.51,119.81C74.79,73.9,66.09,30.43,60,11,49.6-21.83,16-7.92,1.62-25.6-1.09-29-2.58-33.27-3.65-39"/><path class="cls-6" d="M35.31,67.65c.2,14.63,4,34.41,6.78,52.16"/><path class="cls-6" d="M26.64,152.74a151.78,151.78,0,0,1,1.54-28.56C32.57,95,32.91,84.41,33.09,73.61"/><polyline class="cls-6" points="26.98 27.48 29.36 -13.53 22.33 -15.17 19.27 30.66"/><path class="cls-6" d="M-21.75,74.9C-8.27,50.49-1.39,38.13,27,27.47c2.38,7.43,9.22,14.72,9.56,29.23.39,16.4-10.41,34.52-27.38,34.52-10.17,0-20.9-3.93-30.9-16.32"/></g></svg>