<svg id="Layer_1" data-name="Layer 1" xmlns="http://www.w3.org/2000/svg" xmlns:xlink="http://www.w3.org/1999/xlink" viewBox="0 0 118.38 118.38"><defs><style>.cls-1,.cls-6{fill:none;}.cls-2{clip-path:url(#clip-path);}.cls-3{fill:#473575;}.cls-4{fill:#aea2cf;}.cls-5{clip-path:url(#clip-path-2);}.cls-6{stroke:#473575;stroke-linecap:round;stroke-linejoin:round;stroke-width:2.57px;}</style><clipPath id="clip-path"><circle class="cls-1" cx="186.07" cy="51.01" r="59.19"/></clipPath><clipPath id="clip-path-2"><circle class="cls-1" cx="59.19" cy="59.19" r="59.19"/></clipPath></defs><title>Artboard 48 copy 5@4x1</title><g class="cls-2"><g id="PBLgo0"><path class="cls-3" d="M128.69,113.72a1,1,0,0,1-1-1,2.38,2.38,0,0,1,0-.39c.15-1.14.26-2.29.38-3.44.21-2,.39-4,.61-6,.25-2.15.53-4.29.78-6.45.1-.85.08-.85-.75-1-.21,0-.42-.11-.63-.15-2.23-.51-4.47-1-6.68-1.54a41.83,41.83,0,0,1-6.86-2.37,2.78,2.78,0,0,0-.47-.13v.5L114,105.32c0,2.22,0,4.43,0,6.65a1,1,0,0,1-1.22,1.13,1.06,1.06,0,0,1-.84-1.18c0-3.49.11-7,.14-10.48s0-7.24,0-10.86a.71.71,0,0,0-.38-.69l-.79-.46a12.7,12.7,0,0,1-4.28-4.22,9.67,9.67,0,0,1-1-2.94V80.21c.09-.79.18-1.58.25-2.37.15-1.6.22-3.2.44-4.79.26-2,.63-3.9,1-5.84a51.15,51.15,0,0,1,2.32-8.78,32.74,32.74,0,0,1,4.91-9.27A19.24,19.24,0,0,1,122.43,43c.65-.26,1.31-.48,2-.69.39-.13.6-.28.61-.76.07-3.09.13-6.18.3-9.27.15-2.74.39-5.47.69-8.2.24-2.3.58-4.6,1-6.89s.76-4.48,1.28-6.69,1.11-4.44,1.85-6.6,1.7-4.42,2.66-6.57a31.13,31.13,0,0,1,2.06-3.81,35.93,35.93,0,0,1,7.52-9,39.73,39.73,0,0,1,4.92-3.53,40.86,40.86,0,0,1,8.68-3.93c1.65-.52,3.33-1,5-1.41,1.14-.3,2.3-.56,3.46-.76a18,18,0,0,1,5.39-.12A17,17,0,0,1,177.68-22,16.43,16.43,0,0,1,181-18.86a2.59,2.59,0,0,0,1.53.77c4.5,1.46,8.64,3.52,11.86,7.1a20.42,20.42,0,0,1,4.2,7.09A32.12,32.12,0,0,1,199.94.67a57.53,57.53,0,0,1,.74,5.84,58,58,0,0,1-.08,10.29,9.94,9.94,0,0,0,1.64,6.84A23.73,23.73,0,0,0,204.43,26c.6-.55,1.15-1,1.64-1.52L216.5,13.74a1.47,1.47,0,0,0,.46-1.07c.07-4.21.17-8.42.27-12.63.07-3.23.17-6.46.25-9.69a11.52,11.52,0,0,0-2.17-7c-1.4-2-3-3.89-4.49-5.83a7,7,0,0,1-.75-1.06.94.94,0,0,1,.39-1.2,1.08,1.08,0,0,1,1.21.15c.53.59,1.05,1.19,1.53,1.82,1.35,1.75,2.68,3.51,4,5.26a.23.23,0,0,0,.19.11c-.19-.75-.38-1.49-.58-2.23a2.55,2.55,0,0,0-.13-.39,1.11,1.11,0,0,1,.56-1.39,1,1,0,0,1,1.32.63,16.11,16.11,0,0,1,1.07,5.52c0,3.28-.17,6.56-.25,9.83-.05,2.37-.06,4.75-.11,7.12-.06,2.92-.13,5.85-.19,8.77,0,.13,0,.27,0,.53.4-.41.74-.73,1.06-1.07.53-.55,1-1.12,1.58-1.65a1,1,0,0,1,1.69.15,1,1,0,0,1-.23,1.27l-3.38,3.48Q213.16,20.09,206.44,27c-.29.3-.26.45,0,.69,2,1.62,4,3.23,6,4.88a29,29,0,0,1,5.43,5.69,2.64,2.64,0,0,0,.2.22l1.15-1.22c2.41-2.53,4.84-5.05,7.23-7.61a72.93,72.93,0,0,0,6.88-8.41,22.26,22.26,0,0,0,3.12-6.17,6.38,6.38,0,0,0,.32-1.87c0-2-.08-4-.32-5.93a48.79,48.79,0,0,0-1.11-5.86,55.43,55.43,0,0,0-2.94-8.68c-1.28-2.93-2.66-5.82-3.9-8.76A36,36,0,0,1,227-20.65c-.42-1.55-.68-3.15-1-4.73a1.16,1.16,0,0,1,.71-1.39l.57,0a1.29,1.29,0,0,1,.75,1c.19,1.05.38,2.11.58,3.16a25.5,25.5,0,0,0,1.58,5.35C231-15.19,232-13.12,233-11c.57,1.27,1.17,2.54,1.65,3.84.85,2.33,1.67,4.68,2.41,7.05A38.54,38.54,0,0,1,237.94,4c.24,1.25.39,2.51.57,3.77.09.6.17,1.2.25,1.8v4.59c-.37,1.15-.67,2.33-1.11,3.45a26.51,26.51,0,0,1-3.24,5.6A120,120,0,0,1,223.15,36.1c-1.28,1.34-2.54,2.7-3.83,4a.74.74,0,0,0-.19.8,6.71,6.71,0,0,1-1.28,6.28,28.71,28.71,0,0,1-5.62,5.5c-3.2,2.42-6.47,4.74-9.72,7.08-1.66,1.19-3.34,2.34-5,3.48a8,8,0,0,0-2.83,3.86,22.19,22.19,0,0,0-1.36,5.65,59,59,0,0,0-.5,6.62c0,3.37.12,6.74.3,10.1.11,2,.44,3.9.67,5.85.15,1.27.28,2.54.43,3.81.23,2,.5,4.08.69,6.13.16,1.85.24,3.7.33,5.56a1,1,0,0,1-2,.1c-.1-1.51-.2-3-.34-4.52-.11-1.32-.28-2.63-.42-3.94-.05-.42-.07-.84-.11-1.26-.1-1-.19-2-.32-3-.22-1.74-.47-3.48-.7-5.22-.07-.57-.08-1.14-.15-1.71-.11-1-.18-2-.23-2.93q-.13-2.41-.21-4.83a9.51,9.51,0,0,0-.88-3.93,3.54,3.54,0,0,0-.41-.67.87.87,0,0,0-1.49-.09c-.61.63-1.15,1.32-1.76,1.93a6.15,6.15,0,0,1-1.29,1,1.23,1.23,0,0,1-1.79-.78,4.85,4.85,0,0,1-.24-1.46c0-1.14.13-2.27.12-3.41a9.89,9.89,0,0,0-1-5c-.5-.84-1.08-1.64-1.54-2.5a7.62,7.62,0,0,1-.7-1.9,2,2,0,0,1,1.41-2.46c.73-.26,1.47-.48,2.21-.73A4.44,4.44,0,0,0,186,61c.74-1.48,1.46-3,2.25-4.43A2.9,2.9,0,0,1,190,55a1.54,1.54,0,0,1,1.84.78c.4.78.77,1.59,1.11,2.4a3,3,0,0,0,3.47,2A12.24,12.24,0,0,0,202,57.73c2.55-1.85,5.15-3.64,7.67-5.54a34.56,34.56,0,0,0,6.55-6.12,5,5,0,0,0,1.14-3.19,6.53,6.53,0,0,0-1.14-3.36,20,20,0,0,0-4-4.45c-2.54-2.19-5.19-4.27-7.73-6.46-1.3-1.12-2.5-2.37-3.71-3.6a7.62,7.62,0,0,1-.79-1.15c-.08.49-.14.9-.2,1.31l-.81,5.45c-.11.74-.24,1.48-.34,2.22a1.16,1.16,0,0,1-1,1.15,1,1,0,0,1-1.09-1.27c.17-.84.28-1.69.41-2.53.18-1.12.36-2.24.52-3.37.13-.95.23-1.91.36-2.86s.3-1.84.42-2.76c.08-.55.1-1.12.14-1.67.08-1.06.2-2.11.23-3.17.09-2.67.18-5.33.19-8a24.55,24.55,0,0,0-.28-3.73,58.86,58.86,0,0,0-1.14-5.89,20.18,20.18,0,0,0-3.81-7.6,18.13,18.13,0,0,0-5.18-4.42c-1.46-.82-3-1.49-4.51-2.21a2.08,2.08,0,0,0-.48-.1l.42.83a1,1,0,0,1-.34,1.45,1.08,1.08,0,0,1-1.45-.53,17.8,17.8,0,0,0-7.63-7.8,14.41,14.41,0,0,0-6.89-1.61,23.46,23.46,0,0,0-4.8.62,53,53,0,0,0-8,2.36c-1.58.62-3.11,1.35-4.62,2.11a27.9,27.9,0,0,0-3.38,2,44.69,44.69,0,0,0-3.54,2.79,29.43,29.43,0,0,0-3.86,4,40.39,40.39,0,0,0-3.3,4.9,47.79,47.79,0,0,0-3.58,7.92c-.59,1.68-1.08,3.4-1.54,5.12s-.9,3.52-1.28,5.29c-.29,1.41-.48,2.85-.7,4.28s-.48,3.13-.71,4.7c0,.37-.07.74-.1,1.11-.11,1.24-.2,2.49-.32,3.72-.35,3.43-.52,6.86-.59,10.3,0,1-.07,2-.13,3,0,.16,0,.32,0,.54l1.78-.35c.79-.17,1.58-.36,2.37-.51,1.58-.29,3.16-.52,4.73-.85,1.35-.29,2.67-.69,4-1,.28-.07.32-.22.3-.51-.17-2.2-.4-4.41-.43-6.62a26,26,0,0,1,.93-7.12,19.93,19.93,0,0,1,5.81-9.87A19.2,19.2,0,0,1,154,10.56a28.13,28.13,0,0,1,7.45-1.13c2.16,0,4.32-.12,6.48-.25,2.4-.16,4.81-.3,7.19-.61a57.38,57.38,0,0,0,6.1-1.12,14.7,14.7,0,0,0,5.08-2.15A5.94,5.94,0,0,0,188.85,1a9.46,9.46,0,0,0-.1-3,13.08,13.08,0,0,0-1.5-3.7c-.49-.91-1-1.82-1.47-2.74a1,1,0,0,1,.49-1.49c.56-.25,1.07,0,1.38.64.57,1.16,1.19,2.29,1.8,3.42A11.61,11.61,0,0,1,191,.51a8.16,8.16,0,0,1-4.43,7,19.27,19.27,0,0,1-5.43,2c-1.9.39-3.81.76-5.73,1.06-1.22.19-2.47.25-3.72.35-2,.15-4,.29-6.07.4-1.42.08-2.84.12-4.26.14a25.72,25.72,0,0,0-5.18.61A18.76,18.76,0,0,0,150,14.54a.71.71,0,0,0-.38.69c0,1.17,0,2.35.16,3.5a15,15,0,0,0,1,4.23,3.49,3.49,0,0,0,.58.84.8.8,0,0,0,1,.18,17,17,0,0,0,1.49-.87,1,1,0,0,1,1.48.13,1,1,0,0,1-.21,1.43,9,9,0,0,1-1.19.82.64.64,0,0,0-.4.65c0,1.46,0,2.93,0,4.4a12,12,0,0,0,1.29,4.83A18,18,0,0,0,164,43.86a8.78,8.78,0,0,0,4.73.69,11.75,11.75,0,0,0,2.3-.58,25.14,25.14,0,0,0,8.57-5.13A42.5,42.5,0,0,0,187,30.52a38.07,38.07,0,0,0,4.09-7.66,34,34,0,0,0,1.7-5.7,22.41,22.41,0,0,0,.4-6.27,16.38,16.38,0,0,0-1.46-5.65,1,1,0,0,1,.53-1.48,1,1,0,0,1,1.31.63,19.65,19.65,0,0,1,1.5,5.22,20.87,20.87,0,0,1,.1,5.41,35.46,35.46,0,0,1-1,5A34.38,34.38,0,0,1,191,27.88a45,45,0,0,1-5.14,7.54,38.64,38.64,0,0,1-7.5,7,33.92,33.92,0,0,1-4.9,2.87,11.31,11.31,0,0,1-10.9.07,20.61,20.61,0,0,1-6.22-4.45,17.5,17.5,0,0,1-4-6.5,12.89,12.89,0,0,1-.74-4.31c0-1.22,0-2.44,0-3.66,0-.28-.1-.39-.37-.48s-.8-.4-1.25-.62c-.18.82-.35,1.65-.55,2.47A30.86,30.86,0,0,1,146.67,36a10.22,10.22,0,0,1-5.12,4.43,23,23,0,0,1-5.29,1.45c-1.58.25-3.17.5-4.73.85-2.3.51-4.62,1-6.87,1.69a17.42,17.42,0,0,0-9.46,7.28,30.43,30.43,0,0,0-3.71,7.6c-.66,2-1.21,4-1.73,6-.36,1.43-.63,2.89-.85,4.35-.33,2.24-.6,4.5-.85,6.76-.18,1.5-.32,3-.41,4.51A6.08,6.08,0,0,0,108.9,85a12.41,12.41,0,0,0,4.24,3.44A29.75,29.75,0,0,0,119.55,91c2.23.63,4.48,1.18,6.72,1.74,1,.26,2.06.47,3.09.7a2.66,2.66,0,0,0,.4,0c.1-.75.21-1.47.29-2.2.19-1.65.37-3.31.53-5,.12-1.27.22-2.55.32-3.82,0-.64,0-1.28.09-1.91a1.15,1.15,0,0,1,1-1,1.17,1.17,0,0,1,1.05,1.13c-.11,1.55-.26,3.1-.39,4.65,0,.28,0,.56,0,.84-.13,1.43-.25,2.86-.4,4.28-.17,1.62-.36,3.24-.55,4.87l-.57,5c-.18,1.64-.37,3.28-.55,4.91-.2,1.84-.39,3.67-.59,5.5-.08.75-.18,1.5-.27,2.24v0a.84.84,0,0,1-.84.75ZM184.8,79.43l.34-.37c.47-.54.91-1.11,1.41-1.61a2.76,2.76,0,0,1,3.22-.79,7.44,7.44,0,0,1,1,.64c.06-.36.11-.68.14-1,.1-1,.2-2,.28-3a25.72,25.72,0,0,1,.95-5.08,13.52,13.52,0,0,1,1.53-3.68c.51-.8,1.12-1.54,1.7-2.34-3.09-.29-4.34-2.45-5-5.31a9.88,9.88,0,0,0-.62.93c-.64,1.31-1.25,2.63-1.9,3.94a7.28,7.28,0,0,1-2.27,3A9.45,9.45,0,0,1,182.45,66c-.62.17-.77.41-.5,1a15.51,15.51,0,0,0,1.08,2,10.2,10.2,0,0,1,1.76,3.83A18.79,18.79,0,0,1,184.8,79.43ZM147.53,16.56a1.42,1.42,0,0,0-.29.23A35.42,35.42,0,0,0,145,19.72a20.86,20.86,0,0,0-3,9.25,33.75,33.75,0,0,0,.18,8.22c0,.13.07.25.11.41a1.16,1.16,0,0,0,.19-.09,10.09,10.09,0,0,0,3.65-5.34c.5-1.54.9-3.11,1.3-4.67.35-1.37.64-2.76.94-4.14a3.47,3.47,0,0,0,.12-1.1c-.2-1.24-.46-2.47-.67-3.72C147.65,17.92,147.61,17.28,147.53,16.56Z"/></g></g><circle class="cls-4" cx="59.19" cy="59.19" r="59.19"/><g class="cls-5"><path class="cls-6" d="M.34,111.62C1.07,65.71,9.76,22.24,15.89,2.83,26.26-30,59.9-16.11,74.23-33.79c2.72-3.35,4.21-7.66,5.27-13.38"/><path class="cls-6" d="M40.54,59.47c-.19,14.63-4.47,40.09-7.26,57.84"/><path class="cls-6" d="M42.76,65.42c.18,10.8.53,21.41,4.92,50.58a151.71,151.71,0,0,1,1.53,28.55"/><path class="cls-6" d="M115.78,30.44c-5.66,4-10.87,11.31-14.41,18.79C97.83,41.75,92.62,34.41,87,30.44"/><line class="cls-6" x1="91.06" y1="73.58" x2="111.67" y2="73.58"/><polyline class="cls-6" points="56.58 22.47 53.52 -23.35 46.5 -21.72 48.88 19.29"/><line class="cls-6" x1="97.6" y1="66.72" x2="105.13" y2="66.72"/><path class="cls-6" d="M97.6,66.72C84.12,42.3,77.24,30,48.88,19.29,46.5,26.72,39.67,34,39.32,48.52,38.93,64.92,49.73,83,66.71,83c10.16,0,20.9-3.94,30.89-16.32"/><path class="cls-6" d="M105.13,66.72C118.61,42.3,125.49,30,153.85,19.29c2.38,7.43,9.22,14.71,9.56,29.23C163.8,64.92,153,83,136,83c-10.17,0-20.9-3.94-30.9-16.32"/></g><path class="cls-3" d="M79.21,86.65a1,1,0,0,1,1.28.43l4.84,9.8a1,1,0,0,1-.43,1.28,1,1,0,0,1-1.28-.43l-4.84-9.8A1,1,0,0,1,79.21,86.65Z"/><path class="cls-3" d="M71.11,88.27a.95.95,0,0,1,1.37.92l-.71,10.9a1,1,0,0,1-1.9-.12l.71-10.91A.93.93,0,0,1,71.11,88.27Z"/><path class="cls-3" d="M63.27,85.62a.93.93,0,0,1,.95.06A1,1,0,0,1,64.49,87l-6.07,9.1a1,1,0,0,1-1.32.26A.94.94,0,0,1,56.84,95l6.06-9.1A1,1,0,0,1,63.27,85.62Z"/></svg>