<svg xmlns="http://www.w3.org/2000/svg" viewBox="0 0 276.03 276.3"><defs><style>.cls-1{isolation:isolate;}.cls-2,.cls-3{fill:#473575;}.cls-2,.cls-3,.cls-5,.cls-6{fill-rule:evenodd;}.cls-3{opacity:0.5;mix-blend-mode:multiply;}.cls-4,.cls-5{fill:#fff;}.cls-6{fill:#e6e7e8;}.cls-7{fill:#17090c;}</style></defs><title>Asset 7@3x1</title><g class="cls-1"><g id="Layer_2" data-name="Layer 2"><g id="Layer_1-2" data-name="Layer 1"><path class="cls-2" d="M138.15,270.41c72.58,0,132-59.4,132-132.26S210.73,5.88,138.15,5.88C65.29,5.88,5.89,65.29,5.89,138.15s59.4,132.26,132.26,132.26Z"/><path class="cls-3" d="M242.39,219.41A132.22,132.22,0,1,1,48.48,40.91a131.86,131.86,0,0,0-27.74,81.27c0,72.85,59.12,132.26,132,132.26a132.25,132.25,0,0,0,89.67-35Z"/><path class="cls-4" d="M138.15,276.3C62,276.3,0,214.32,0,138.15S62,0,138.15,0C214.17,0,276,62,276,138.15S214.17,276.3,138.15,276.3Zm0-264.53a126.38,126.38,0,0,0,0,252.76c69.54,0,126.1-56.69,126.1-126.38S207.69,11.77,138.15,11.77Z"/><path class="cls-5" d="M205.4,145.71a18.34,18.34,0,0,1-3.36,16,19.3,19.3,0,0,1-14.85,7H155.24v42a6.34,6.34,0,0,1-6.44,6.44H144a6.33,6.33,0,0,1-5.89-3.92L116,162.53l-14.85-9V84.35h75.1a18.58,18.58,0,0,1,18.22,14.57Z"/><path class="cls-6" d="M205.4,145.71a18.34,18.34,0,0,1-3.36,16,21.16,21.16,0,0,1-7,5.32,18.45,18.45,0,0,0,1.68-13.45L185.79,107a18.58,18.58,0,0,0-18.22-14.57H101.16V84.35h75.1a18.58,18.58,0,0,1,18.22,14.57Z"/><path class="cls-3" d="M95.56,78.74H75.66a5.62,5.62,0,0,0-5.6,5.61v69.21a5.63,5.63,0,0,0,5.6,5.61h19.9a5.63,5.63,0,0,0,5.6-5.61V84.35a5.62,5.62,0,0,0-5.6-5.61Z"/><path class="cls-3" d="M95.56,78.74H75.66a5.62,5.62,0,0,0-5.6,5.61V98.08a5.62,5.62,0,0,1,5.6-5.61h19.9a5.62,5.62,0,0,1,5.6,5.61V84.35a5.62,5.62,0,0,0-5.6-5.61Z"/><path class="cls-7" d="M148.8,223.05H144a12.21,12.21,0,0,1-11.27-7.42l-21.4-49-13.25-8a5.89,5.89,0,0,1,6.08-10.08l14.85,9a5.9,5.9,0,0,1,2.36,2.68l22.13,50.72,5.26.4.56-42.6a5.88,5.88,0,0,1,5.89-5.88h31.94a13.45,13.45,0,0,0,10.42-5,12.35,12.35,0,0,0,2.09-10.67l-11-46.88a12.74,12.74,0,0,0-12.48-10h-75.1a5.89,5.89,0,1,1,0-11.77h75.1a24.44,24.44,0,0,1,24,19.16l10.93,46.76a24.19,24.19,0,0,1-4.43,20.89c-5.41,6.19-12.07,9.31-19.52,9.31H161.13v36.15A12.2,12.2,0,0,1,148.8,223.05Z"/><path class="cls-7" d="M95.55,165.05H75.66a11.51,11.51,0,0,1-11.49-11.49V84.35A11.5,11.5,0,0,1,75.66,72.86H95.55a11.51,11.51,0,0,1,11.5,11.49v69.21A11.51,11.51,0,0,1,95.55,165.05ZM75.66,84.63,76,153.56l19.6-.28-.27-68.65Z"/><path class="cls-4" d="M200.77,47.1a5.87,5.87,0,0,1-3.26-1,116.3,116.3,0,0,0-35.87-16.17,6.16,6.16,0,0,1-4.8-6.63,5.85,5.85,0,0,1,7.25-4.9A128,128,0,0,1,203.7,36.1,6.16,6.16,0,0,1,206,44,5.85,5.85,0,0,1,200.77,47.1Z"/><path class="cls-4" d="M236.6,84.63a5.81,5.81,0,0,1-4.95-2.75l0-.07c-1.24-2-2.47-4-3.93-5.93a6.17,6.17,0,0,1,.49-8.16,5.89,5.89,0,0,1,8.7.79c1.7,2.26,3.12,4.52,4.53,6.78a6.13,6.13,0,0,1-1.52,8.34A6,6,0,0,1,236.6,84.63Z"/></g></g></g></svg>