<svg xmlns="http://www.w3.org/2000/svg" viewBox="0 0 37.62 37.62"><defs><style>.cls-1{isolation:isolate;}.cls-2{fill:#5b5081;}.cls-2,.cls-3{fill-rule:evenodd;}.cls-3{fill:#aea2cf;opacity:0.5;mix-blend-mode:multiply;}.cls-4{fill:#fff;}</style></defs><title>Asset 8@3x1</title><g class="cls-1"><g id="Layer_2" data-name="Layer 2"><g id="Layer_1-2" data-name="Layer 1"><path class="cls-2" d="M18.81,36.82c23.66-.44,23.66-35.59,0-36C-4.85,1.24-4.85,36.38,18.81,36.82Z"/><path class="cls-3" d="M33,29.87A18,18,0,1,1,6.64,5.57,17.77,17.77,0,0,0,2.82,16.63,18,18,0,0,0,33,29.87Z"/><path class="cls-4" d="M18.81,37.62A18.81,18.81,0,1,1,37.62,18.81,18.83,18.83,0,0,1,18.81,37.62Zm0-36A17.21,17.21,0,1,0,36,18.81,17.23,17.23,0,0,0,18.81,1.6Z"/><path class="cls-4" d="M27.62,6.66a.85.85,0,0,1-.45-.14,15.07,15.07,0,0,0-4.93-2.21.8.8,0,0,1,.39-1.56A16.76,16.76,0,0,1,28.07,5.2a.79.79,0,0,1,.21,1.11A.78.78,0,0,1,27.62,6.66Z"/><path class="cls-4" d="M32.55,11.77a.78.78,0,0,1-.68-.38L31.58,11l-.33-.49a.8.8,0,1,1,1.36-.85l.29.43.32.48A.8.8,0,0,1,33,11.65.81.81,0,0,1,32.55,11.77Z"/></g></g></g></svg>