<svg xmlns="http://www.w3.org/2000/svg" viewBox="0 0 1186.94 202.8"><defs><style>.cls-1,.cls-4{fill:#fff;}.cls-1,.cls-2,.cls-3{stroke:#fff;stroke-miterlimit:10;}.cls-1{stroke-width:2px;}.cls-2,.cls-3{fill:none;}.cls-2{stroke-width:3px;}</style></defs><title>Asset 2@3x1</title><g id="Layer_2" data-name="Layer 2"><g id="Layer_1-2" data-name="Layer 1"><path class="cls-1" d="M1185.94,76.53h0a0,0,0,0,1,0,0v49.33a0,0,0,0,1,0,0h0a5.32,5.32,0,0,1-5.32-5.32V81.85A5.32,5.32,0,0,1,1185.94,76.53Z" transform="translate(2366.57 202.39) rotate(180)"/><path class="cls-1" d="M6.32,76.53h0a0,0,0,0,1,0,0v49.33a0,0,0,0,1,0,0h0A5.32,5.32,0,0,1,1,120.54V81.85A5.32,5.32,0,0,1,6.32,76.53Z"/><path class="cls-1" d="M1180.94,177v19.84h-19.67a4,4,0,0,0,4,4h14.49c3.23,0,5.37-2.62,5.37-5.85V181c0-2.21-1.31-4-3.52-4Z"/><rect class="cls-2" x="495.69" y="-487.62" width="195.03" height="1177.63" transform="translate(492.01 694.4) rotate(-90)"/><path class="cls-1" d="M594,174.85h1.48a0,0,0,0,1,0,0v49.33a0,0,0,0,1,0,0H594a3.09,3.09,0,0,1-3.09-3.09V177.95A3.09,3.09,0,0,1,594,174.85Z" transform="translate(393.69 792.72) rotate(-90)"/><path class="cls-1" d="M6.36,24.84V5H26a4,4,0,0,0-4-4H7.54C4.31,1,2.17,3.62,2.17,6.85v14c0,2.21,1.31,4,3.52,4Z"/><path class="cls-1" d="M594.25-21.59h1a0,0,0,0,1,0,0V27.73a0,0,0,0,1,0,0h-1a3.09,3.09,0,0,1-3.09-3.09V-18.5a3.09,3.09,0,0,1,3.09-3.09Z" transform="translate(596.27 -590.14) rotate(90)"/><path class="cls-1" d="M6.34,177v19.84H26a4,4,0,0,1-4,4H7.53c-3.23,0-5.37-2.62-5.37-5.85V181c0-2.21,1.31-4,3.52-4Z"/><path class="cls-1" d="M1180.64,24.84V5H1161a4,4,0,0,1,4-4h14.49c3.23,0,5.37,2.62,5.37,5.85v14c0,2.21-1.31,4-3.52,4Z"/><line class="cls-3" x1="400.26" y1="3.5" x2="400.26" y2="198.23"/><line class="cls-3" x1="786.15" y1="3.5" x2="786.15" y2="198.23"/><line class="cls-3" x1="4.39" y1="69.58" x2="1182.02" y2="69.58"/><line class="cls-3" x1="4.39" y1="134.49" x2="1182.02" y2="134.49"/><path class="cls-4" d="M178.78,98.45c8.08,3.7,12.45,10.32,12.45,18.51,0,12.56-10.43,21.77-29.5,21.77H123.35V60.19h36.13c18.74,0,29,8.86,29,21a18,18,0,0,1-9.65,16.27ZM140.86,74.88V91.71h18.51c7.63,0,11.22-3.25,11.22-8.41s-3.59-8.42-11.22-8.42ZM161.61,124c8,0,11.78-3.37,11.78-8.87s-3.81-8.86-11.78-8.86H140.86V124Z"/><path class="cls-4" d="M217.15,123.24H258v15.49H199.65V60.19h57.67V75.67H217.15V91.38h37.48V106H217.15Z"/><path class="cls-4" d="M324,138.73l-5.39-15.6H285l-5.38,15.6H261.36l28.72-78.54h23.68l28.72,78.54Zm-33.55-31.08h22.77L302.31,76.46h-1Z"/><path class="cls-4" d="M360.1,138.73V76h-25V60.19h67.55V76h-25v62.72Z"/><path class="cls-4" d="M451.43,138.73V76h-25V60.19H494V76h-25v62.72Z"/><path class="cls-4" d="M553.75,60.19h17.5v78.54h-17.5V107H518.52v31.76H501V60.19h17.5v30.4h35.23Z"/><path class="cls-4" d="M600.54,123.24h40.84v15.49H583V60.19h57.67V75.67H600.54V91.38H638V106H600.54Z"/><path class="cls-4" d="M673.24,110.9h18.29c.11,8.19,7,13.46,18.51,13.46,8.08,0,13.69-2.58,13.69-8.64,0-5.49-3.92-7.74-16.6-9.64C683.79,102.6,676.5,97,676.5,83c0-15,12.11-24.34,31.64-24.34,19.86,0,32.76,11.1,33.09,27.37H723c-.23-7.85-6.73-11.44-15.71-11.44-7.74,0-13,2.35-13,7.74,0,5.16,3.93,7.29,18,9.2,21.09,2.92,29.28,9.65,29.28,23.67,0,15.71-12.68,25.14-32.09,25.14C686.82,140.3,673.69,128.29,673.24,110.9Z"/><path class="cls-4" d="M765.7,138.73,744.15,60.19h18.18l14.92,59h1l15.15-54.53h17.73l14.58,54.53h.9l15.71-59h17.84l-22.33,78.54H816.18L802.72,87.9h-1l-14,50.83Z"/><path class="cls-4" d="M884.52,123.24h40.83v15.49H867V60.19h57.67V75.67H884.52V91.38H922V106H884.52Z"/><path class="cls-4" d="M991.33,138.73l-5.39-15.6H952.4L947,138.73H928.72l28.72-78.54h23.68l28.72,78.54Zm-33.55-31.08h22.78L969.67,76.46h-1Z"/><path class="cls-4" d="M1027.46,138.73V76h-25V60.19H1070V76h-25v62.72Z"/></g></g></svg>