<svg xmlns="http://www.w3.org/2000/svg" viewBox="0 0 1186.94 202.8"><defs><style>.cls-1,.cls-4{fill:#fff;}.cls-1,.cls-2,.cls-3{stroke:#fff;stroke-miterlimit:10;}.cls-1{stroke-width:2px;}.cls-2,.cls-3{fill:none;}.cls-2{stroke-width:3px;}</style></defs><title>Asset 1@3x1</title><g id="Layer_2" data-name="Layer 2"><g id="Layer_1-2" data-name="Layer 1"><path class="cls-1" d="M1185.94,76.53h0a0,0,0,0,1,0,0v49.33a0,0,0,0,1,0,0h0a5.32,5.32,0,0,1-5.32-5.32V81.85A5.32,5.32,0,0,1,1185.94,76.53Z" transform="translate(2366.57 202.39) rotate(180)"/><path class="cls-1" d="M6.32,76.53h0a0,0,0,0,1,0,0v49.33a0,0,0,0,1,0,0h0A5.32,5.32,0,0,1,1,120.54V81.85a5.32,5.32,0,0,1,5.32-5.32Z"/><path class="cls-1" d="M1180.94,177v19.84h-19.67a4,4,0,0,0,4,4h14.49c3.23,0,5.37-2.62,5.37-5.85V181c0-2.21-1.31-4-3.52-4Z"/><rect class="cls-2" x="495.69" y="-487.62" width="195.03" height="1177.63" transform="translate(492.01 694.4) rotate(-90)"/><path class="cls-1" d="M594,174.85h1.48a0,0,0,0,1,0,0v49.33a0,0,0,0,1,0,0H594a3.09,3.09,0,0,1-3.09-3.09V177.95A3.09,3.09,0,0,1,594,174.85Z" transform="translate(393.69 792.72) rotate(-90)"/><path class="cls-1" d="M6.36,24.84V5H26a4,4,0,0,0-4-4H7.54C4.31,1,2.17,3.62,2.17,6.85v14c0,2.21,1.31,4,3.52,4Z"/><path class="cls-1" d="M594.25-21.59h1a0,0,0,0,1,0,0V27.73a0,0,0,0,1,0,0h-1a3.09,3.09,0,0,1-3.09-3.09V-18.5a3.09,3.09,0,0,1,3.09-3.09Z" transform="translate(596.27 -590.14) rotate(90)"/><path class="cls-1" d="M6.34,177v19.84H26a4,4,0,0,1-4,4H7.53c-3.23,0-5.37-2.62-5.37-5.85V181c0-2.21,1.31-4,3.52-4Z"/><path class="cls-1" d="M1180.64,24.84V5H1161a4,4,0,0,1,4-4h14.49c3.23,0,5.37,2.62,5.37,5.85v14c0,2.21-1.31,4-3.52,4Z"/><line class="cls-3" x1="400.26" y1="3.5" x2="400.26" y2="198.23"/><line class="cls-3" x1="786.15" y1="3.5" x2="786.15" y2="198.23"/><line class="cls-3" x1="4.39" y1="69.58" x2="1182.02" y2="69.58"/><line class="cls-3" x1="4.39" y1="134.49" x2="1182.02" y2="134.49"/><path class="cls-4" d="M212.54,108.49v20.64c0,20.07-18.71,34.32-45.5,34.32-24.63,0-45.84-13.46-45.84-39.11,0-10.83,3.53-20.07,8.55-26.23,1.71-2.16,5.36-5.24,9.24-2.39l3.53,2.62a37.44,37.44,0,0,0-10.38,25.09c0,18.92,18.25,26.45,34.44,26.45,13.34,0,26.91-7.3,26.91-20.18v-.34A20.74,20.74,0,0,1,179,135.29c-14.94,0-28.39-10.95-28.39-26.8s13.34-26.8,31-26.8S212.54,92.64,212.54,108.49ZM162.13,67.32a9.18,9.18,0,1,1,9.13,9.13A9.17,9.17,0,0,1,162.13,67.32Zm31.48,41.4c0-11.06-6.27-16-12-16s-12,4.68-12,15.74,6.27,15.85,12,15.85S193.49,119.89,193.61,108.72Zm-10.84-41.4a9.18,9.18,0,1,1,9.13,9.13A9.17,9.17,0,0,1,182.77,67.32Z"/><path class="cls-4" d="M207.28,157.06c-1.59-2.05-3.42-5.13,1.26-7.52l5.13-2.85c1.48,4.1,3.53,5,5.81,5,4.68,0,5.93-5.93,5.93-14.71V82.83h6.39c9.12,0,12.43,3.31,12.43,10.61v21c0,6.38,3.42,8.89,7.64,8.89h2.62v10.83H252c-2.73,0-5.81-.68-7.75-2.85v3.08c0,19-6.62,29.42-21.1,29.42C219.14,163.79,212.87,163.45,207.28,157.06Z"/><path class="cls-4" d="M252.21,134.14V123.31h40v10.83Z"/><path class="cls-4" d="M290,134.14V123.31h40v10.83Z"/><path class="cls-4" d="M327.69,134.14V123.31h17.1a28.94,28.94,0,0,0,8.44-1.14,59.6,59.6,0,0,1-7.64-8.66l-12-15.28v-6c-.46-4.67,3.08-9.35,9.92-9.35h24.29c17.21,0,28.28,3.19,28.28,17.79,0,9-5.25,16.31-13.12,21.78a22.15,22.15,0,0,0,6.39.91h13v10.83H388.69c-9.35,0-16.42-.79-22.46-3.3a69.76,69.76,0,0,1-21,3.3Zm49-33.06c0-3.65-1.94-7.42-9-7.42H347.53l11.29,15.06a36.33,36.33,0,0,0,7.52,8.32C372.39,113.39,376.72,108.15,376.72,101.08Z"/><path class="cls-4" d="M400.09,134.14V123.31h2.51c4.33,0,7.75-2.51,7.75-8.89V59.68c0-7.41,3.65-11.06,12.78-11.06H435v7h-2.39A3.23,3.23,0,0,0,429.17,59v52.91c0,15-8.33,22.23-21.78,22.23Z"/><path class="cls-4" d="M438.29,134.14v-6.95h2.39a3.29,3.29,0,0,0,3.42-3.42L444,65.16c0-7.3,5.47-10.84,14.48-10.84h10.15v7h-2.39a3.24,3.24,0,0,0-3.43,3.42l.12,58.61c0,7.3-5.47,10.83-14.48,10.83Z"/><path class="cls-4" d="M504,120.8a33.14,33.14,0,0,1,8.56-22.69c1.82-2,5.36-5.24,9.23-2.39l3.54,2.62c-6.73,5.93-10.38,13.68-10.38,20.75,0,15.74,10.49,22,23.72,22,12.77,0,21.55-8,21.55-21.78v-12.2c0-17.33,11.06-24.29,28.16-24.29H615.6v31.82c0,6.15,3.42,8.66,7.75,8.66h2.51v10.83h-7.3c-13.45,0-21.78-7.18-21.78-22V94.23h-8.44c-3.64,0-9.34,2.86-9.34,12.21v13.22c0,23.84-17.11,35-40.37,35C518.56,154.67,504,141.79,504,120.8Z"/><path class="cls-4" d="M623.57,134.14V123.31h2.51c4.33,0,7.75-2.51,7.75-8.89v-55c0-7.3,5.36-10.84,14.49-10.84h10v7h-2.28A3.23,3.23,0,0,0,652.65,59v55.42c0,6.38,3.42,8.89,7.64,8.89h2.62v10.83H660.4c-4.56,0-9.69-2.16-11.86-7.75-3.64,5.36-9.92,7.75-17.67,7.75Z"/><path class="cls-4" d="M660.63,134.14V123.31h12A21.79,21.79,0,0,1,666.9,108c0-16.08,12.89-26.34,30.22-26.34,8.78,0,16.53,3.08,20.52,7.53,1.71,1.82,3.08,4.22-1.25,6.73l-5,3c-2.28-4-5.81-6.16-11-6.16-8.78,0-14.25,6.73-14.25,16.31s5.47,14.25,14.25,14.25H705c4.67,0,8.09-1.48,10.14-5.24l4.45,2.39c4.11,2.17,2.74,4.79,1.14,6.61-3.53,4.22-11.06,7.07-19,7.07Z"/><path class="cls-4" d="M786.4,134.14c-16.2,0-28.74-7.52-28.74-22.23a29.41,29.41,0,0,1,3-13.57c1.13-2.51,3.87-5.25,7.75-2.39l3.42,2.62a16.13,16.13,0,0,0-4.45,11.4c0,9.24,8.9,13.23,21.1,13.34h17c4.22,0,7.64-2.51,7.64-8.89V82.83h6.5c9.12,0,12.31,3.31,12.31,10.61v21c0,6.38,3.54,8.89,7.76,8.89h2.62v10.83h-2.51c-4.56,0-9.69-2.16-11.86-7.75-3.65,5.36-9.92,7.75-17.67,7.75Zm-2.51,14.6a9.81,9.81,0,1,1,9.8,9.69A9.7,9.7,0,0,1,783.89,148.74Z"/><path class="cls-4" d="M840,134.14V123.31h2.51c4.33,0,7.76-2.51,7.76-8.89v-55c0-7.3,5.35-10.84,14.48-10.84h10v7h-2.28A3.23,3.23,0,0,0,869.06,59v55.42c0,6.38,3.42,8.89,7.64,8.89h2.62v10.83h-2.51c-4.56,0-9.69-2.16-11.85-7.75-3.65,5.36-9.93,7.75-17.68,7.75Z"/><path class="cls-4" d="M877,134.14V123.31h40v10.83Z"/><path class="cls-4" d="M914.78,134.14V123.31h40v10.83Z"/><path class="cls-4" d="M952.52,134.14V123.31h17.11a28.92,28.92,0,0,0,8.43-1.14,60.2,60.2,0,0,1-7.64-8.66l-12-15.28v-6c-.46-4.67,3.08-9.35,9.92-9.35h24.29c17.22,0,28.28,3.19,28.28,17.79,0,9-5.25,16.31-13.11,21.78a22.08,22.08,0,0,0,6.38.91h13v10.83h-13.68c-9.35,0-16.42-.79-22.47-3.3a69.66,69.66,0,0,1-21,3.3Zm49-33.06c0-3.65-1.93-7.42-9-7.42H972.36l11.29,15.06a36.13,36.13,0,0,0,7.53,8.32C997.22,113.39,1001.55,108.15,1001.55,101.08Zm-19-33.76a9.81,9.81,0,1,1,9.81,9.81A9.83,9.83,0,0,1,982.51,67.32Z"/><path class="cls-4" d="M1024.92,134.14V123.31h8.1c4.33,0,7.75-2.51,7.75-8.89V93.89c0-7.41,3.65-11.06,12.78-11.06h11.85v7H1063a3.23,3.23,0,0,0-3.42,3.42v19c0,14.71-8.33,21.89-21.78,21.89Zm5.82-66.82a9.18,9.18,0,1,1,9.12,9.13A9.17,9.17,0,0,1,1030.74,67.32Zm20.64,0a9.18,9.18,0,1,1,9.12,9.13A9.17,9.17,0,0,1,1051.38,67.32Z"/></g></g></svg>