<?xml version="1.0" encoding="utf-8"?>
<!-- Generator: Adobe Illustrator 24.0.2, SVG Export Plug-In . SVG Version: 6.00 Build 0)  -->
<svg version="1.1" id="Layer_1" xmlns="http://www.w3.org/2000/svg" xmlns:xlink="http://www.w3.org/1999/xlink" x="0px" y="0px"
	 viewBox="0 0 1186.9 202.8" style="enable-background:new 0 0 1186.9 202.8;" xml:space="preserve">
<style type="text/css">
	.st0{fill:#473575;stroke:#473575;stroke-width:2;stroke-miterlimit:10;}
	.st1{fill:none;stroke:#473575;stroke-width:3;stroke-miterlimit:10;}
	.st2{fill:none;stroke:#473575;stroke-miterlimit:10;}
	.st3{fill:#473575;}
</style>
<title>Asset 9@3x1</title>
<g>
	<path class="st0" d="M1179.9,125.9L1179.9,125.9c2.9,0,5.3-2.4,5.3-5.3V81.8c0-2.9-2.4-5.3-5.3-5.3l0,0V125.9z"/>
	<path class="st0" d="M5.5,125.9L5.5,125.9c-2.9,0-5.3-2.4-5.3-5.3V81.8c0-2.9,2.4-5.3,5.3-5.3l0,0V125.9z"/>
	<path class="st0" d="M1180.2,177v19.8h-19.7l0,0c0,2.2,1.8,4,4,4h14.5c3.2,0,5.4-2.6,5.4-5.9v-14c0-2.2-1.3-4-3.5-4L1180.2,177
		L1180.2,177z"/>
	<rect x="3.7" y="3.7" class="st1" width="1177.6" height="195"/>
	<path class="st0" d="M617.1,197.2v1.5c0,1.7-1.4,3.1-3.1,3.1h-43.1c-1.7,0-3.1-1.4-3.1-3.1v-1.5H617.1z"/>
	<path class="st0" d="M5.6,24.8V5h19.7l0,0c0-2.2-1.8-4-4-4H6.8C3.6,1,1.4,3.6,1.4,6.9v14c0,2.2,1.3,4,3.5,4h0.7V24.8z"/>
	<path class="st0" d="M567.8,5.1v-1c0-1.7,1.4-3.1,3.1-3.1H614c1.7,0,3.1,1.4,3.1,3.1v1H567.8z"/>
	<path class="st0" d="M5.6,177v19.8h19.7l0,0c0,2.2-1.8,4-4,4H6.8c-3.2,0-5.4-2.6-5.4-5.9v-14c0-2.2,1.3-4,3.5-4L5.6,177L5.6,177z"
		/>
	<path class="st0" d="M1179.9,24.8V5h-19.7l0,0c0-2.2,1.8-4,4-4h14.5c3.2,0,5.4,2.6,5.4,5.9v14c0,2.2-1.3,4-3.5,4h-0.7V24.8z"/>
	<g>
		<g>
			<line class="st2" x1="399.5" y1="3.5" x2="399.5" y2="198.2"/>
			<line class="st2" x1="785.4" y1="3.5" x2="785.4" y2="198.2"/>
		</g>
		<line class="st2" x1="3.6" y1="69.6" x2="1181.3" y2="69.6"/>
		<line class="st2" x1="3.6" y1="134.5" x2="1181.3" y2="134.5"/>
	</g>
	<g>
		<g>
			<path class="st3" d="M211.8,108.5v20.6c0,20.1-18.7,34.3-45.5,34.3c-24.6,0-45.8-13.5-45.8-39.1c0-10.8,3.5-20.1,8.6-26.2
				c1.7-2.2,5.4-5.2,9.2-2.4l3.5,2.6c-6.7,7.2-10.4,16.4-10.4,25.1c0,18.9,18.2,26.5,34.4,26.5c13.3,0,26.9-7.3,26.9-20.2v-0.3
				c-3.6,3.8-9.2,5.9-14.5,5.9c-14.9,0-28.4-10.9-28.4-26.8s13.3-26.8,31-26.8C198.4,81.7,211.8,92.6,211.8,108.5z M161.4,67.3
				c0-5.1,4.1-9.2,9.1-9.2c5.1,0,9.2,4.1,9.2,9.2c0,5-4.1,9.1-9.2,9.1C165.5,76.4,161.4,72.3,161.4,67.3z M192.8,108.7
				c0-11.1-6.3-16-12-16s-12,4.7-12,15.7c0,11.2,6.3,15.8,12,15.8C186.6,124.3,192.7,119.9,192.8,108.7z M182,67.3
				c0-5.1,4.1-9.2,9.1-9.2c5.1,0,9.2,4.1,9.2,9.2c0,5-4.1,9.1-9.2,9.1C186.1,76.4,182,72.3,182,67.3z"/>
			<path class="st3" d="M206.5,157.1c-1.6-2.1-3.4-5.1,1.3-7.5l5.1-2.9c1.5,4.1,3.5,5,5.8,5c4.7,0,5.9-5.9,5.9-14.7V82.8h6.4
				c9.1,0,12.4,3.3,12.4,10.6v21c0,6.4,3.4,8.9,7.6,8.9h2.6v10.8h-2.5c-2.7,0-5.8-0.7-7.8-2.9v3.1c0,19-6.6,29.4-21.1,29.4
				C218.4,163.8,212.1,163.4,206.5,157.1z"/>
			<path class="st3" d="M251.4,134.1v-10.8h40v10.8H251.4z"/>
			<path class="st3" d="M289.2,134.1v-10.8h40v10.8H289.2z"/>
			<path class="st3" d="M326.9,134.1v-10.8H344c3,0,5.8-0.3,8.4-1.1c-2.5-2.3-5-5.1-7.6-8.7l-12-15.3v-6c-0.5-4.7,3.1-9.3,9.9-9.3
				H367c17.2,0,28.3,3.2,28.3,17.8c0,9-5.2,16.3-13.1,21.8c1.9,0.6,4,0.9,6.4,0.9h13v10.8h-13.7c-9.4,0-16.4-0.8-22.5-3.3
				c-6.7,2.2-14,3.3-21,3.3L326.9,134.1L326.9,134.1z M376,101.1c0-3.6-1.9-7.4-9-7.4h-20.2l11.3,15.1c2.5,3.6,4.9,6.3,7.5,8.3
				C371.6,113.4,376,108.1,376,101.1z"/>
			<path class="st3" d="M399.3,134.1v-10.8h2.5c4.3,0,7.8-2.5,7.8-8.9V59.7c0-7.4,3.6-11.1,12.8-11.1h11.9v7h-2.4
				c-2.1,0-3.4,1.4-3.4,3.4v52.9c0,15.1-8.3,22.2-21.8,22.2H399.3z"/>
			<path class="st3" d="M437.5,134.1v-7h2.4c1.9,0,3.4-1.4,3.4-3.4l-0.1-58.6c0-7.3,5.5-10.8,14.5-10.8h10.1v7h-2.4
				c-2.1,0-3.4,1.4-3.4,3.4l0.1,58.6c0,7.3-5.5,10.8-14.5,10.8H437.5z"/>
			<path class="st3" d="M503.2,120.8c0-9.3,3.5-17.3,8.6-22.7c1.8-2.1,5.4-5.2,9.2-2.4l3.5,2.6c-6.7,5.9-10.4,13.7-10.4,20.8
				c0,15.7,10.5,22,23.7,22c12.8,0,21.6-8,21.6-21.8v-12.2c0-17.3,11.1-24.3,28.2-24.3h27.3v31.8c0,6.2,3.4,8.7,7.8,8.7h2.5v10.8
				h-7.3c-13.5,0-21.8-7.2-21.8-22V94.2h-8.4c-3.6,0-9.3,2.9-9.3,12.2v13.2c0,23.8-17.1,35-40.4,35
				C517.8,154.7,503.2,141.8,503.2,120.8z"/>
			<path class="st3" d="M622.8,134.1v-10.8h2.5c4.3,0,7.8-2.5,7.8-8.9v-55c0-7.3,5.4-10.8,14.5-10.8h10v7h-2.3
				c-2.1,0-3.4,1.4-3.4,3.4v55.4c0,6.4,3.4,8.9,7.6,8.9h2.6v10.8h-2.5c-4.6,0-9.7-2.2-11.9-7.8c-3.6,5.4-9.9,7.8-17.7,7.8H622.8z"/>
			<path class="st3" d="M659.9,134.1v-10.8h12c-3.6-3.9-5.7-9.1-5.7-15.3c0-16.1,12.9-26.3,30.2-26.3c8.8,0,16.5,3.1,20.5,7.5
				c1.7,1.8,3.1,4.2-1.3,6.7l-5,3c-2.3-4-5.8-6.2-10.9-6.2c-8.8,0-14.3,6.7-14.3,16.3c0,9.5,5.5,14.3,14.3,14.3h4.6
				c4.7,0,8.1-1.5,10.1-5.2l4.4,2.4c4.1,2.2,2.7,4.8,1.1,6.6c-3.5,4.2-11.1,7.1-19,7.1h-41V134.1z"/>
			<path class="st3" d="M785.6,134.1c-16.2,0-28.7-7.5-28.7-22.2c0-5,0.8-9,3-13.6c1.1-2.5,3.9-5.2,7.8-2.4l3.4,2.6
				c-3,3.2-4.4,7-4.4,11.4c0,9.2,8.9,13.2,21.1,13.3h17c4.2,0,7.6-2.5,7.6-8.9V82.8h6.5c9.1,0,12.3,3.3,12.3,10.6v21
				c0,6.4,3.5,8.9,7.8,8.9h2.6v10.8h-2.5c-4.6,0-9.7-2.2-11.9-7.8c-3.6,5.4-9.9,7.8-17.7,7.8H785.6z M783.1,148.7
				c0-5.5,4.3-9.9,9.8-9.9c5.4,0,9.8,4.4,9.8,9.9c0,5.4-4.4,9.7-9.8,9.7C787.4,158.4,783.1,154.1,783.1,148.7z"/>
			<path class="st3" d="M839.2,134.1v-10.8h2.5c4.3,0,7.8-2.5,7.8-8.9v-55c0-7.3,5.4-10.8,14.5-10.8h10v7h-2.3
				c-2.1,0-3.4,1.4-3.4,3.4v55.4c0,6.4,3.4,8.9,7.6,8.9h2.6v10.8H876c-4.6,0-9.7-2.2-11.9-7.8c-3.6,5.4-9.9,7.8-17.7,7.8H839.2z"/>
			<path class="st3" d="M876.3,134.1v-10.8h40v10.8H876.3z"/>
			<path class="st3" d="M914,134.1v-10.8h40v10.8H914z"/>
			<path class="st3" d="M951.7,134.1v-10.8h17.1c3,0,5.8-0.3,8.4-1.1c-2.5-2.3-5-5.1-7.6-8.7l-12-15.3v-6c-0.5-4.7,3.1-9.3,9.9-9.3
				h24.3c17.2,0,28.3,3.2,28.3,17.8c0,9-5.2,16.3-13.1,21.8c1.9,0.6,4,0.9,6.4,0.9h13v10.8h-13.7c-9.4,0-16.4-0.8-22.5-3.3
				c-6.7,2.2-14,3.3-21,3.3L951.7,134.1L951.7,134.1z M1000.8,101.1c0-3.6-1.9-7.4-9-7.4h-20.2l11.3,15.1c2.5,3.6,4.9,6.3,7.5,8.3
				C996.4,113.4,1000.8,108.1,1000.8,101.1z M981.7,67.3c0-5.5,4.3-9.9,9.8-9.9c5.4,0,9.8,4.4,9.8,9.9c0,5.4-4.4,9.8-9.8,9.8
				C986.1,77.1,981.7,72.7,981.7,67.3z"/>
			<path class="st3" d="M1024.2,134.1v-10.8h8.1c4.3,0,7.8-2.5,7.8-8.9V93.9c0-7.4,3.6-11.1,12.8-11.1h11.9v7h-2.4
				c-2.1,0-3.4,1.4-3.4,3.4v19c0,14.7-8.3,21.9-21.8,21.9H1024.2z M1030,67.3c0-5.1,4.1-9.2,9.1-9.2c5.1,0,9.2,4.1,9.2,9.2
				c0,5-4.1,9.1-9.2,9.1C1034.1,76.4,1030,72.3,1030,67.3z M1050.6,67.3c0-5.1,4.1-9.2,9.1-9.2c5.1,0,9.2,4.1,9.2,9.2
				c0,5-4.1,9.1-9.2,9.1C1054.7,76.4,1050.6,72.3,1050.6,67.3z"/>
		</g>
	</g>
</g>
</svg>
