<svg xmlns="http://www.w3.org/2000/svg" viewBox="0 0 490.11 202.8"><defs><style>.cls-1{fill:#473575;stroke-width:2px;}.cls-1,.cls-2,.cls-3{stroke:#473575;stroke-miterlimit:10;}.cls-2,.cls-3{fill:none;}.cls-2{stroke-width:3px;}</style></defs><title>Asset 1@3x1</title><g id="Layer_2" data-name="Layer 2"><g id="Layer_1-2" data-name="Layer 1"><path class="cls-1" d="M489.11,76.53h0a0,0,0,0,1,0,0v49.33a0,0,0,0,1,0,0h0a5.32,5.32,0,0,1-5.32-5.32V81.85A5.32,5.32,0,0,1,489.11,76.53Z" transform="translate(972.9 202.39) rotate(-180)"/><path class="cls-1" d="M6.32,76.53h0a0,0,0,0,1,0,0v49.33a0,0,0,0,1,0,0h0A5.32,5.32,0,0,1,1,120.54V81.85A5.32,5.32,0,0,1,6.32,76.53Z"/><path class="cls-1" d="M484.11,177v19.84H464.43a4,4,0,0,0,4,4h14.48c3.24,0,5.37-2.62,5.37-5.85V181c0-2.21-1.3-4-3.51-4Z"/><rect class="cls-2" x="147.27" y="-139.2" width="195.03" height="480.8" transform="translate(143.59 345.98) rotate(-90)"/><path class="cls-1" d="M245.59,174.85h1.48a0,0,0,0,1,0,0v49.33a0,0,0,0,1,0,0h-1.48a3.09,3.09,0,0,1-3.09-3.09V177.95a3.09,3.09,0,0,1,3.09-3.09Z" transform="translate(45.27 444.3) rotate(-90)"/><path class="cls-1" d="M6.36,24.84V5H26a4,4,0,0,0-4-4H7.54C4.31,1,2.17,3.62,2.17,6.85v14c0,2.21,1.31,4,3.52,4Z"/><path class="cls-1" d="M245.84-21.59h1a0,0,0,0,1,0,0V27.73a0,0,0,0,1,0,0h-1a3.09,3.09,0,0,1-3.09-3.09V-18.5A3.09,3.09,0,0,1,245.84-21.59Z" transform="translate(247.86 -241.72) rotate(90)"/><path class="cls-1" d="M6.34,177v19.84H26a4,4,0,0,1-4,4H7.53c-3.23,0-5.37-2.62-5.37-5.85V181c0-2.21,1.31-4,3.52-4Z"/><path class="cls-1" d="M483.8,24.84V5H464.13a4,4,0,0,1,4-4h14.49C485.85,1,488,3.62,488,6.85v14c0,2.21-1.31,4-3.52,4Z"/><line class="cls-3" x1="120.3" y1="3.5" x2="120.3" y2="198.23"/><line class="cls-3" x1="369.28" y1="3.5" x2="369.28" y2="198.23"/><line class="cls-3" x1="4.39" y1="69.58" x2="485.19" y2="69.58"/><line class="cls-3" x1="4.39" y1="134.49" x2="485.19" y2="134.49"/></g></g></svg>