<svg xmlns="http://www.w3.org/2000/svg" viewBox="0 0 190.72 193.25"><defs><style>.cls-1{fill:#473575;}</style></defs><title>Asset 2@3x1</title><g id="Layer_2" data-name="Layer 2"><g id="Layer_1-2" data-name="Layer 1"><path class="cls-1" d="M22.62,107.7a7.54,7.54,0,0,1,4.77,7.09c0,4.81-4,8.34-11.3,8.34H1.38V93H15.23c7.18,0,11.09,3.39,11.09,8a6.88,6.88,0,0,1-3.7,6.23Zm-14.53-9v6.45h7.09c2.93,0,4.3-1.25,4.3-3.23s-1.37-3.22-4.3-3.22Zm8,18.83c3.06,0,4.52-1.29,4.52-3.4s-1.46-3.4-4.52-3.4H8.09v6.8Z"/><path class="cls-1" d="M36,117.2H51.64v5.93H29.29V93H51.38V99H36v6H50.35v5.59H36Z"/><path class="cls-1" d="M75.59,123.13l-2.07-6H60.67l-2.06,6h-7L62.6,93h9.08l11,30.09ZM62.73,111.22h8.73l-4.17-12H66.9Z"/><path class="cls-1" d="M88.1,123.13v-24H78.51V93h25.88V99.1H94.81v24Z"/><path class="cls-1" d="M120.43,123.13v-24h-9.59V93h25.88V99.1h-9.58v24Z"/><path class="cls-1" d="M158.31,93H165v30.09h-6.7V111h-13.5v12.17H138.1V93h6.71v11.65h13.5Z"/><path class="cls-1" d="M174.9,117.2h15.65v5.93H168.2V93h22.09V99H174.9v6h14.36v5.59H174.9Z"/><path class="cls-1" d="M.22,150.47h7c0,3.13,2.67,5.15,7.09,5.15,3.1,0,5.25-1,5.25-3.31,0-2.1-1.51-3-6.36-3.69-9-1.34-11.74-3.48-11.74-8.86,0-5.76,4.64-9.33,12.12-9.33s12.56,4.26,12.68,10.49h-7c-.09-3-2.58-4.38-6-4.38-3,0-5,.9-5,3s1.51,2.8,6.88,3.53c8.08,1.12,11.22,3.7,11.22,9.07,0,6-4.86,9.63-12.29,9.63C5.43,161.73.4,157.13.22,150.47Z"/><path class="cls-1" d="M34.32,161.13,26.06,131h7l5.71,22.61h.39l5.8-20.9h6.8l5.58,20.9h.35l6-22.61h6.83L62,161.13h-8.3L48.5,141.65h-.38l-5.38,19.48Z"/><path class="cls-1" d="M78.51,155.19H94.16v5.94H71.81V131H93.9V137H78.51v6H92.87v5.58H78.51Z"/><path class="cls-1" d="M118.11,161.13l-2.07-6H103.19l-2.06,6h-7l11-30.09h9.07l11,30.09Zm-12.86-11.91H114l-4.17-11.95h-.39Z"/><path class="cls-1" d="M130.62,161.13v-24H121V131h25.88v6.06h-9.59v24Z"/><path class="cls-1" d="M.19,188V170.35H5.42c6.81,0,10.06,3.81,10.06,8.83S12.2,188,5.42,188ZM1.6,186.7H5.42c5.9,0,8.6-3.15,8.6-7.52s-2.7-7.52-8.6-7.52H1.6Z"/><path class="cls-1" d="M5.42,188.2H.19L0,188V170.35l.19-.19H5.42c6.42,0,10.26,3.37,10.26,9S11.84,188.2,5.42,188.2Zm-5-.38h5c6.18,0,9.87-3.23,9.87-8.64s-3.69-8.64-9.87-8.64h-5Zm5-.93H1.6l-.19-.19v-15l.19-.19H5.42c5.59,0,8.79,2.81,8.79,7.71S11,186.89,5.42,186.89Zm-3.62-.38H5.42c5.34,0,8.41-2.67,8.41-7.33s-3.07-7.33-8.41-7.33H1.8Z"/><path class="cls-1" d="M17.76,181.7a6.29,6.29,0,0,1,6.48-6.63,6.64,6.64,0,0,1,0,13.27A6.29,6.29,0,0,1,17.76,181.7Zm11.58,0c0-3.23-2-5.32-5.1-5.32s-5.07,2.09-5.07,5.32,2,5.33,5.07,5.33S29.34,184.93,29.34,181.7Z"/><path class="cls-1" d="M24.24,188.53a6.83,6.83,0,0,1,0-13.66,6.83,6.83,0,0,1,0,13.66Zm0-13.27a6.45,6.45,0,0,0,0,12.89,6.45,6.45,0,0,0,0-12.89Zm0,12c-3.15,0-5.26-2.22-5.26-5.52s2.11-5.51,5.26-5.51,5.29,2.16,5.29,5.51S27.45,187.22,24.24,187.22Zm0-10.65c-3,0-4.88,2-4.88,5.13s1.92,5.14,4.88,5.14,4.91-2,4.91-5.14S27.22,176.57,24.24,176.57Z"/><path class="cls-1" d="M33.78,188V175.39h1.36v1.52h.16a4.41,4.41,0,0,1,3.88-1.84c3,0,5,2,5,5.4V188H42.79v-7.62c0-2.6-1.39-4-3.81-4s-3.84,1.46-3.84,4V188Z"/><path class="cls-1" d="M44.15,188.2H42.79L42.6,188v-7.62c0-2.46-1.29-3.82-3.62-3.82s-3.65,1.39-3.65,3.82V188l-.19.19H33.78l-.19-.19V175.39l.19-.19h1.36l.19.19v1.13a4.7,4.7,0,0,1,3.85-1.65c3.19,0,5.16,2.15,5.16,5.6V188ZM43,187.82h1v-7.35c0-3.22-1.83-5.21-4.78-5.21A4.3,4.3,0,0,0,35.46,177l-.16.09h-.16l-.19-.19v-1.32H34v12.23h1v-7.43c0-2.63,1.51-4.2,4-4.2s4,1.53,4,4.2Z"/><path class="cls-1" d="M47.33,176.38l1.14-6h1.81l-2.11,6Z"/><path class="cls-1" d="M48.17,176.57h-.84l-.19-.23,1.14-6,.19-.15h1.82l.18.25-2.12,6Zm-.61-.38H48l2-5.65H48.63Z"/><path class="cls-1" d="M59.52,176.66H56v8.8c0,1,.33,1.29,1.26,1.29h2.27V188H57.25c-2,0-2.62-.63-2.62-2.55v-8.8H51.72v-1.27h2.91v-3.91H56v3.91h3.53Z"/><path class="cls-1" d="M59.52,188.2H57.25c-2.08,0-2.82-.71-2.82-2.74v-8.61H51.72l-.19-.19v-1.27l.19-.19h2.71v-3.72l.2-.19H56l.19.19v3.72h3.34l.19.19v1.27l-.19.19H56.18v8.61c0,.86.23,1.1,1.07,1.1h2.27l.19.19V188Zm-7.6-11.74h2.71l.19.2v8.8c0,1.81.57,2.36,2.43,2.36h2.08v-.88H57.25c-1.06,0-1.45-.4-1.45-1.48v-8.8l.19-.2h3.34v-.87H56l-.19-.2v-3.72h-1v3.72l-.19.2H51.92Z"/><path class="cls-1" d="M67.34,181.7a6.31,6.31,0,0,1,6.44-6.63,5.77,5.77,0,0,1,6,4.89H78.47a4.46,4.46,0,0,0-4.69-3.58c-3,0-5,2.12-5,5.32s2,5.33,5,5.33a4.52,4.52,0,0,0,4.72-3.59h1.32a5.79,5.79,0,0,1-6,4.9A6.27,6.27,0,0,1,67.34,181.7Z"/><path class="cls-1" d="M73.76,188.53c-3.89,0-6.61-2.81-6.61-6.83a6.52,6.52,0,0,1,6.63-6.83,5.94,5.94,0,0,1,6.2,5.06l-.19.22H78.47l-.18-.15a4.28,4.28,0,0,0-4.51-3.43c-2.94,0-4.83,2-4.83,5.13s1.89,5.14,4.81,5.14a4.37,4.37,0,0,0,4.53-3.43l.18-.16h1.32l.19.22A6,6,0,0,1,73.76,188.53Zm0-13.27a6.13,6.13,0,0,0-6.24,6.44c0,3.8,2.55,6.45,6.22,6.45a5.62,5.62,0,0,0,5.81-4.51h-.94a4.74,4.74,0,0,1-4.87,3.58c-3.11,0-5.19-2.22-5.19-5.52s2-5.51,5.21-5.51a4.65,4.65,0,0,1,4.85,3.58h.93A5.56,5.56,0,0,0,73.78,175.26Z"/><path class="cls-1" d="M82.44,188V175.39H83.8V177H84c.56-1.23,1.52-1.64,3.21-1.64H88v1.32H86.62c-2.06,0-2.82,1.59-2.82,3.66V188Z"/><path class="cls-1" d="M83.8,188.2H82.44l-.19-.19V175.39l.19-.19H83.8l.19.19v1.11c.59-.95,1.54-1.35,3.17-1.35H88l.19.19v1.32l-.19.19H86.63c-2.18,0-2.64,1.88-2.64,3.46V188Zm-1.17-.38h1v-7.51c0-2.48,1.07-3.85,3-3.85H87.8v-.92h-.64c-1.71,0-2.54.41-3,1.52l-.18.12H83.8l-.19-.2v-1.39h-1Z"/><path class="cls-1" d="M89.25,181.7a6.5,6.5,0,1,1,6.49,6.64A6.29,6.29,0,0,1,89.25,181.7Zm11.58,0c0-3.23-2-5.32-5.09-5.32s-5.08,2.09-5.08,5.32,2,5.33,5.08,5.33S100.83,184.93,100.83,181.7Z"/><path class="cls-1" d="M95.74,188.53a6.83,6.83,0,1,1,6.7-6.83A6.47,6.47,0,0,1,95.74,188.53Zm0-13.27a6.45,6.45,0,1,0,6.31,6.44A6.1,6.1,0,0,0,95.74,175.26Zm0,12c-3.15,0-5.27-2.22-5.27-5.52s2.12-5.51,5.27-5.51,5.29,2.16,5.29,5.51S99,187.22,95.74,187.22Zm0-10.65c-3,0-4.88,2-4.88,5.13s1.91,5.14,4.88,5.14,4.9-2,4.9-5.14S98.72,176.57,95.74,176.57Z"/><path class="cls-1" d="M105.27,193.06V175.39h1.37v2.15h.15a5.51,5.51,0,0,1,4.92-2.47c3.71,0,6.28,2.82,6.28,6.63s-2.57,6.64-6.28,6.64a5.51,5.51,0,0,1-4.92-2.47h-.15v7.19Zm11.31-11.36c0-3.2-2-5.32-5-5.32s-5,2.12-5,5.32,2,5.33,5,5.33S116.58,184.91,116.58,181.7Z"/><path class="cls-1" d="M106.64,193.25h-1.36l-.2-.19V175.39l.2-.19h1.36l.19.19v1.73a5.81,5.81,0,0,1,4.88-2.25c3.75,0,6.48,2.88,6.48,6.83s-2.73,6.83-6.48,6.83a5.79,5.79,0,0,1-4.88-2.25v6.78Zm-1.17-.38h1v-7l.19-.2h.15l.17.1a5.3,5.3,0,0,0,4.75,2.38c3.53,0,6.09-2.71,6.09-6.45s-2.56-6.44-6.09-6.44a5.3,5.3,0,0,0-4.75,2.38l-.17.09h-.15l-.19-.19v-1.95h-1Zm6.14-5.65c-3.09,0-5.16-2.22-5.16-5.52s2.07-5.51,5.16-5.51,5.16,2.21,5.16,5.51S114.7,187.22,111.61,187.22Zm0-10.65c-2.9,0-4.78,2-4.78,5.13s1.88,5.14,4.78,5.14,4.78-2,4.78-5.14S114.51,176.57,111.61,176.57Z"/><path class="cls-1" d="M120.92,191.92l1.14-6h1.81l-2.11,6Z"/><path class="cls-1" d="M121.76,192.11h-.84l-.19-.22,1.14-6,.19-.16h1.81l.19.25-2.12,6Zm-.61-.38h.47l2-5.65h-1.39Z"/><path class="cls-1" d="M137.75,188V171.66h-6.51v-1.31h14.44v1.31h-6.51V188Z"/><path class="cls-1" d="M139.17,188.2h-1.42l-.19-.19V171.85h-6.32l-.19-.19v-1.31l.19-.19h14.44l.19.19v1.31l-.19.19h-6.32V188Zm-1.23-.38h1V171.66l.19-.19h6.32v-.93H131.43v.93h6.32l.19.19Z"/><path class="cls-1" d="M146.43,188V175.39h1.37V177H148c.56-1.23,1.51-1.64,3.2-1.64H152v1.32h-1.37c-2.06,0-2.82,1.59-2.82,3.66V188Z"/><path class="cls-1" d="M147.8,188.2h-1.36l-.2-.19V175.39l.2-.19h1.36l.19.19v1.11c.58-.95,1.54-1.35,3.16-1.35H152l.19.19v1.32l-.19.19h-1.36c-2.18,0-2.64,1.88-2.64,3.46V188Zm-1.17-.38h1v-7.51c0-2.48,1.07-3.85,3-3.85h1.17v-.92h-.65c-1.7,0-2.53.41-3,1.52l-.18.12h-.15l-.19-.2v-1.39h-1Z"/><path class="cls-1" d="M165.79,182h-11.1a4.88,4.88,0,0,0,5.1,5,4.62,4.62,0,0,0,4.44-2.67h1.31a5.72,5.72,0,0,1-5.75,4,6.64,6.64,0,0,1-.18-13.27A6,6,0,0,1,165.79,182Zm-11-1.27h9.79a4.92,4.92,0,0,0-9.79,0Z"/><path class="cls-1" d="M159.79,188.53a6.83,6.83,0,0,1-.18-13.66,6.4,6.4,0,0,1,4.92,2.15,6.32,6.32,0,0,1,1.45,5l-.19.17h-10.9a4.68,4.68,0,0,0,4.9,4.66,4.43,4.43,0,0,0,4.26-2.56l.18-.11h1.31l.18.24A5.91,5.91,0,0,1,159.79,188.53Zm-.18-13.27a6.45,6.45,0,0,0,.18,12.89,5.59,5.59,0,0,0,5.49-3.58h-.93a4.84,4.84,0,0,1-4.56,2.67A5.06,5.06,0,0,1,154.5,182l.19-.2h10.93a5.87,5.87,0,0,0-1.38-4.54A6,6,0,0,0,159.61,175.26Zm4.92,5.68h-9.79l-.19-.22a5.11,5.11,0,0,1,10.17,0Zm-9.57-.39h9.36a4.74,4.74,0,0,0-9.36,0Z"/><path class="cls-1" d="M167.74,181.7c0-3.81,2.57-6.63,6.28-6.63a5.52,5.52,0,0,1,4.92,2.47h.15v-2.15h1.36V188h-1.36v-2.14h-.15a5.52,5.52,0,0,1-4.92,2.47C170.31,188.34,167.74,185.51,167.74,181.7Zm11.35,0c0-3.2-2-5.32-5-5.32s-5,2.12-5,5.32,2,5.33,5,5.33S179.09,184.91,179.09,181.7Z"/><path class="cls-1" d="M174,188.53c-3.75,0-6.48-2.87-6.48-6.83s2.73-6.83,6.48-6.83a5.83,5.83,0,0,1,4.88,2.25v-1.73l.19-.19h1.36l.19.19V188l-.19.19h-1.36l-.19-.19v-1.72A5.82,5.82,0,0,1,174,188.53Zm0-13.27c-3.53,0-6.09,2.71-6.09,6.44s2.56,6.45,6.09,6.45a5.3,5.3,0,0,0,4.75-2.38l.17-.1h.15l.19.2v1.95h1V175.59h-1v1.95l-.19.19h-.15l-.17-.09A5.3,5.3,0,0,0,174,175.26Zm.1,12c-3.09,0-5.16-2.22-5.16-5.52s2.07-5.51,5.16-5.51,5.16,2.21,5.16,5.51S177.21,187.22,174.12,187.22Zm0-10.65c-2.9,0-4.78,2-4.78,5.13s1.88,5.14,4.78,5.14,4.78-2,4.78-5.14S177,176.57,174.12,176.57Z"/><path class="cls-1" d="M190.52,176.66H187v8.8c0,1,.33,1.29,1.26,1.29h2.27V188h-2.27c-2,0-2.62-.63-2.62-2.55v-8.8h-2.91v-1.27h2.91v-3.91H187v3.91h3.53Z"/><path class="cls-1" d="M190.52,188.2h-2.27c-2.08,0-2.81-.71-2.81-2.74v-8.61h-2.72l-.19-.19v-1.27l.19-.19h2.72v-3.72l.19-.19H187l.19.19v3.72h3.34l.2.19v1.27l-.2.19h-3.34v8.61c0,.86.23,1.1,1.07,1.1h2.27l.2.19V188Zm-7.6-11.74h2.71l.19.2v8.8c0,1.81.57,2.36,2.43,2.36h2.08v-.88h-2.08c-1.06,0-1.45-.4-1.45-1.48v-8.8l.19-.2h3.34v-.87H187l-.19-.2v-3.72h-1v3.72l-.19.2h-2.71Z"/><rect class="cls-1" x="47.89" y="2.62" width="1.05" height="75.73"/><rect class="cls-1" x="92.06" y="2.62" width="1.05" height="75.73"/><rect class="cls-1" x="3.46" y="27.93" width="133.77" height="1.05"/><rect class="cls-1" x="3.46" y="53.31" width="133.77" height="1.05"/><path class="cls-1" d="M137.77,50.46h1.37a.71.71,0,0,0,.71-.72V31.89a.71.71,0,0,0-.71-.72h-1.37Z"/><path class="cls-1" d="M139,51.51h-2.26V30.12H139a1.93,1.93,0,0,1,1.92,1.93V49.58A1.93,1.93,0,0,1,139,51.51Z"/><path class="cls-1" d="M3.46,50.46H2.1a.71.71,0,0,1-.71-.72V31.89a.71.71,0,0,1,.71-.72H3.46Z"/><path class="cls-1" d="M4.51,51.51H2.26A1.93,1.93,0,0,1,.34,49.58V32.05a1.93,1.93,0,0,1,1.92-1.93H4.51Z"/><path class="cls-1" d="M137.83,71.23V79h-7.69a1.57,1.57,0,0,0,1.57,1.57h5.66a2.14,2.14,0,0,0,2.1-2.29V72.79a1.41,1.41,0,0,0-1.38-1.56Z"/><path class="cls-1" d="M137.37,81.6h-5.66A2.62,2.62,0,0,1,129.09,79v-1h7.69V70.18h1.31a2.44,2.44,0,0,1,2.43,2.61v5.47A3.18,3.18,0,0,1,137.37,81.6Z"/><path class="cls-1" d="M138.82,80H2.41V1.64H138.82ZM4.51,77.89H136.72V3.74H4.51Z"/><path class="cls-1" d="M80.26,79v1.17a.61.61,0,0,1-.61.61H61.59a.61.61,0,0,1-.61-.61V79Z"/><path class="cls-1" d="M79.51,81.81H61.73a1.8,1.8,0,0,1-1.8-1.8V77.93H81.31V80A1.8,1.8,0,0,1,79.51,81.81Z"/><path class="cls-1" d="M3.4,10.37V2.61h7.69A1.56,1.56,0,0,0,9.53,1.05H3.86a2.14,2.14,0,0,0-2.1,2.29V8.81a1.41,1.41,0,0,0,1.38,1.56Z"/><path class="cls-1" d="M4.45,11.42H3.14A2.44,2.44,0,0,1,.71,8.81V3.34A3.18,3.18,0,0,1,3.86,0H9.53a2.61,2.61,0,0,1,2.61,2.61V3.66H4.45Z"/><path class="cls-1" d="M59.75,2.66v-1a.54.54,0,0,1,.55-.55H78.48a.55.55,0,0,1,.55.55V2.66Z"/><path class="cls-1" d="M80.08,3.71H58.7v-2A1.72,1.72,0,0,1,60.42,0H78.36a1.72,1.72,0,0,1,1.72,1.72Z"/><path class="cls-1" d="M3.4,71.19V79h7.69a1.56,1.56,0,0,1-1.56,1.56H3.86a2.14,2.14,0,0,1-2.1-2.29V72.75a1.41,1.41,0,0,1,1.38-1.56Z"/><path class="cls-1" d="M9.53,81.56H3.86A3.18,3.18,0,0,1,.71,78.22V72.75a2.44,2.44,0,0,1,2.43-2.61H4.45V77.9h7.69v1A2.61,2.61,0,0,1,9.53,81.56Z"/><path class="cls-1" d="M137.8,10.37V2.61h-7.69a1.56,1.56,0,0,1,1.56-1.56h5.66a2.13,2.13,0,0,1,2.1,2.29V8.81a1.41,1.41,0,0,1-1.37,1.56Z"/><path class="cls-1" d="M138.06,11.42h-1.31V3.66h-7.69V2.61A2.61,2.61,0,0,1,131.67,0h5.66a3.18,3.18,0,0,1,3.15,3.34V8.81A2.44,2.44,0,0,1,138.06,11.42Z"/><rect class="cls-1" x="67.2" y="40.53" width="1.86" height="0.57"/><rect class="cls-1" x="66.89" y="40.22" width="2.48" height="1.19"/><rect class="cls-1" x="72.18" y="40.53" width="1.86" height="0.57"/><rect class="cls-1" x="71.87" y="40.22" width="2.48" height="1.19"/><rect class="cls-1" x="70.33" y="42.37" width="0.57" height="1.86"/><rect class="cls-1" x="70.02" y="42.06" width="1.19" height="2.48"/><path class="cls-1" d="M72.6,40.81a1.92,1.92,0,1,1-1.92-1.91A1.92,1.92,0,0,1,72.6,40.81Zm-3.27,0a1.35,1.35,0,1,0,1.35-1.34A1.35,1.35,0,0,0,69.33,40.81Z"/><path class="cls-1" d="M70.68,43a2.23,2.23,0,1,1,2.23-2.23A2.23,2.23,0,0,1,70.68,43Zm0-3.26a1,1,0,0,0,0,2.07,1,1,0,1,0,0-2.07Z"/><rect class="cls-1" x="70.33" y="37.4" width="0.57" height="1.86"/><rect class="cls-1" x="70.02" y="37.08" width="1.19" height="2.48"/></g></g></svg>