<svg xmlns="http://www.w3.org/2000/svg" viewBox="0 0 134.22 69.38"><defs><style>.cls-1{fill:#fff;}</style></defs><title>Asset 1@3x2</title><g id="Layer_2" data-name="Layer 2"><g id="Layer_1-2" data-name="Layer 1"><path class="cls-1" d="M14.23,11.65h-9L2.81,16.86H0L7.91.23h3.68l8,16.63H16.67ZM13.44,10,9.72,2.08,6,10Z"/><rect class="cls-1" x="21.05" width="2.61" height="16.86"/><rect class="cls-1" x="27.2" width="2.62" height="16.86"/><path class="cls-1" d="M45.89,11H34.65a4.4,4.4,0,0,0,4.56,4.7,4.16,4.16,0,0,0,4.29-3l2.31.15c-.41,2.59-3.11,4.53-6.7,4.53C35,17.32,32,14.83,32,10.86s3-6.48,7.08-6.48,6.86,2.37,6.86,5.9a3.88,3.88,0,0,1,0,.68M43.36,9.7a4,4,0,0,0-4.29-3.91,4.16,4.16,0,0,0-4.37,4Z"/><path class="cls-1" d="M48.38,4.86H51L50.88,8h.2a3.81,3.81,0,0,1,4-3.23,8.58,8.58,0,0,1,1.33.14l-.07,2.21a8,8,0,0,0-1.62-.19c-2.4,0-3.72,1.69-3.72,4.65v5.33H48.38Z"/><path class="cls-1" d="M72.3,17.8c0,2.66-3.18,4.25-8.09,4.25-4.51,0-7.21-1.43-7.21-3.63a2.85,2.85,0,0,1,2.27-2.64,2.23,2.23,0,0,1-1.52-2c0-1.21,1-2,2.69-2v-.12a3.51,3.51,0,0,1-2.25-3.11c0-2.44,2.61-4.15,6.5-4.15a9.44,9.44,0,0,1,4,.78,3.18,3.18,0,0,1,3.48-2.59l.07,1.69c-1.45,0-2.35.47-2.61,1.45a3.47,3.47,0,0,1,1.47,2.77c0,2.43-2.49,4.11-6.27,4.11-1.66,0-2.77-.4-3.75-.4s-1.35.38-1.35,1,.84,1.09,2.28,1.09h4.54c3.6,0,5.76,1.35,5.76,3.56m-2.58.46c0-1.23-1.24-2-3.18-2H62a6.69,6.69,0,0,1-1.26-.1,2.47,2.47,0,0,0-1.18,1.95c0,1.64,1.9,2.68,5,2.68s5.18-1,5.18-2.54M60.77,8.49c0,1.66,1.64,2.85,4,2.85s3.78-1.14,3.78-2.81-1.57-2.85-3.92-2.85-3.82,1.13-3.82,2.81"/><path class="cls-1" d="M103.09,10.18v6.68h-2.61v-6.4c0-2.56-1.38-4.1-3.63-4.1S93.12,8,93.12,10.61v6.25H90.51v-12H93.1l0,3h.19a4.48,4.48,0,0,1,4.61-3.21c3.23,0,5.22,2.12,5.22,5.56"/><path class="cls-1" d="M79.71,4.43c2.47,0,4.58,1.33,5.17,3.16H85V4.86h2.61v12H85V14.11h-.12c-.59,1.87-2.73,3.15-5.13,3.15-4,0-6.76-2.75-6.76-6.43s2.87-6.4,6.72-6.4m.62,11.28a4.67,4.67,0,0,0,4.79-4.87A4.61,4.61,0,0,0,80.47,6a4.69,4.69,0,0,0-4.8,4.89,4.59,4.59,0,0,0,4.66,4.82"/><path class="cls-1" d="M14.23,35.57h-9l-2.42,5.2H0L7.91,24.16h3.68l8,16.62H16.67Zm-.79-1.67L9.72,26,6,33.9Z"/><path class="cls-1" d="M33.66,34.88H22.42A4.41,4.41,0,0,0,27,39.58a4.16,4.16,0,0,0,4.29-3l2.31.14c-.41,2.59-3.11,4.54-6.7,4.54-4.08,0-7.12-2.49-7.12-6.46s3-6.48,7.08-6.48,6.86,2.37,6.86,5.9a3.88,3.88,0,0,1,0,.68m-2.53-1.26a4,4,0,0,0-4.3-3.92,4.15,4.15,0,0,0-4.36,4Z"/><path class="cls-1" d="M35.4,37l2.34-.12c.36,1.8,1.93,3,4.32,3,1.93,0,3.25-.74,3.25-2,0-1.07-.9-1.76-2.58-2l-2.59-.31C37.27,35.21,36,33.88,36,32.1c0-2.25,2.25-3.75,5.48-3.75,3.47,0,5.77,1.69,6,4.11l-2.32.09c-.24-1.8-1.69-2.87-3.8-2.87-1.8,0-3,.78-3,2,0,1,.76,1.61,2.13,1.8l2.62.33c2.81.34,4.69,1.52,4.69,3.63,0,2.35-2.49,3.78-5.9,3.78-3.64,0-6.13-1.67-6.55-4.23"/><path class="cls-1" d="M72.32,34.09v6.68H69.7V34.38c0-2.56-1.35-4.11-3.61-4.11s-3.72,1.59-3.72,4.25v6.25H59.76V23.91h2.61v7.84h.14a4.47,4.47,0,0,1,4.58-3.21c3.25,0,5.23,2.11,5.23,5.55"/><path class="cls-1" d="M88.17,34.88H76.93a4.41,4.41,0,0,0,4.56,4.7,4.18,4.18,0,0,0,4.3-3l2.3.14c-.41,2.59-3.11,4.54-6.7,4.54-4.08,0-7.12-2.49-7.12-6.46s3-6.48,7.08-6.48,6.86,2.37,6.86,5.9a3.88,3.88,0,0,1,0,.68m-2.53-1.26a4,4,0,0,0-4.29-3.92,4.16,4.16,0,0,0-4.37,4Z"/><path class="cls-1" d="M100,25.31c0-.9.73-1.47,1.8-1.47s1.81.56,1.81,1.47-.72,1.45-1.81,1.45-1.8-.58-1.8-1.45m3.09,15.46h-2.6v-12h2.6Z"/><path class="cls-1" d="M105.76,34.81c0-3.94,3.16-6.51,7.39-6.51,3.87,0,6.62,2.14,6.88,5l-2.49.09a4.2,4.2,0,0,0-4.42-3.51,4.57,4.57,0,0,0-4.67,4.82,4.57,4.57,0,0,0,4.74,4.79c2.38,0,4.3-1.42,4.54-3.47l2.44.07c-.26,2.88-3,5.11-7,5.11s-7.39-2.44-7.39-6.43"/><path class="cls-1" d="M121.76,37l2.35-.12c.36,1.8,1.92,3,4.32,3,1.92,0,3.25-.74,3.25-2,0-1.07-.9-1.76-2.58-2l-2.59-.31c-2.87-.36-4.13-1.69-4.13-3.47,0-2.25,2.25-3.75,5.48-3.75,3.47,0,5.77,1.69,6,4.11l-2.32.09c-.24-1.8-1.69-2.87-3.8-2.87-1.81,0-3,.78-3,2,0,1,.76,1.61,2.13,1.8l2.61.33c2.81.34,4.7,1.52,4.7,3.63,0,2.35-2.49,3.78-5.88,3.78-3.66,0-6.15-1.67-6.58-4.23"/><path class="cls-1" d="M52.69,30.42h4.1V28.78h-4.1V25.57H50.1V36.3c0,3.16,1.71,4.65,4.32,4.65a9.88,9.88,0,0,0,2.42-.28l0-1.83a6.65,6.65,0,0,1-1.61.22c-1.64,0-2.56-1.09-2.56-3Z"/><path class="cls-1" d="M93.1,30.42h4.1V28.78H93.1V25.57H90.51V36.3c0,3.16,1.71,4.65,4.32,4.65a9.83,9.83,0,0,0,2.42-.28l0-1.83a6.8,6.8,0,0,1-1.62.22C94,39.06,93.1,38,93.1,36Z"/><path class="cls-1" d="M4.88,63.1,2.72,69H0L7.49,49.24H11L18.51,69H15.76L13.59,63.1Zm7.24-4c-1-2.74-1.91-5.29-2.85-8H9.21c-.94,2.75-1.86,5.3-2.85,8L5.69,60.9h7.07Z"/><path class="cls-1" d="M23.24,56.85a4.8,4.8,0,0,1,4.3-2.3c3.58,0,5.88,2.88,5.88,7.37s-2.3,7.41-5.91,7.41a4.74,4.74,0,0,1-4.3-2.39h-.05v2H20.74V49.25h2.45v7.6Zm-.17,5.07c0,3.34,1.5,5.44,3.83,5.44s4-2.14,4-5.44-1.55-5.4-4-5.4-3.83,2.07-3.83,5.4"/><path class="cls-1" d="M39.22,56.85a4.79,4.79,0,0,1,4.29-2.3c3.58,0,5.88,2.88,5.88,7.37s-2.3,7.41-5.91,7.41a4.74,4.74,0,0,1-4.3-2.39h0v2H36.72V49.25h2.44v7.6Zm-.17,5.07c0,3.34,1.5,5.44,3.83,5.44s4-2.14,4-5.44-1.55-5.4-4-5.4S39,58.59,39,61.92Z"/><path class="cls-1" d="M56.39,69l-6.8-19.74h2.67l3,8.79c1,2.8,1.85,5.63,2.74,8.46h0c.89-2.83,1.81-5.66,2.78-8.46l3-8.79h2.67L59.73,69Z"/><path class="cls-1" d="M68.89,49.25h2.44V52H68.89Zm0,5.66h2.44V69H68.89Z"/><path class="cls-1" d="M85,64.78h2.5c-.48,2.47-2.61,4.6-6.21,4.6-4.17,0-6.63-3-6.63-7.62,0-4.16,2.43-7.24,6.54-7.24a6,6,0,0,1,6.16,4.91,13.32,13.32,0,0,1,.28,3H77.08c.12,3.47,1.89,5,4.2,5A3.49,3.49,0,0,0,85,64.78m-7.89-4.19h8.1c-.24-2.74-1.85-4.19-4-4.19s-3.84,1.5-4.1,4.19"/></g></g></svg>