<svg xmlns="http://www.w3.org/2000/svg" viewBox="0 0 192.26 201.4"><defs><style>.cls-1{fill:#fff;}</style></defs><title>Asset 4@3x1</title><g id="Layer_2" data-name="Layer 2"><g id="Layer_1-2" data-name="Layer 1"><path class="cls-1" d="M35.27,185.55a6.26,6.26,0,0,0-4.18,1.3c-.29.28-.55.79,0,1.12l.42.26A4.11,4.11,0,0,1,35,186.76a4.67,4.67,0,0,1,4.67,4.91v.22c0,1.94-1.08,2.57-2.22,2.57h-7c-1.14,0-2.22-.63-2.22-2.57v-11.1a.61.61,0,0,1,.66-.66h.44v-1H28a1.54,1.54,0,0,0-1.71,1.5v11.23c0,1.94-1.06,2.57-2.2,2.57h-.8A2.13,2.13,0,0,1,21.05,192v-6.25H17c-3.09,0-5.46,1.85-5.46,5v2.49a4.55,4.55,0,0,1-4.89,4.91A5,5,0,0,1,1.28,193a5.37,5.37,0,0,1,2.18-4.33l-.38-.29c-.44-.37-.9-.09-1.21.22A6.16,6.16,0,0,0,0,193.23a6.31,6.31,0,0,0,6.63,6.41c3.76,0,6.76-2.14,6.76-6.3v-2.6A3.51,3.51,0,0,1,17,187h2.18v4.74c0,2.79,1.69,3.92,3.79,3.92h1.4a3.41,3.41,0,0,0,3.31-1.85,2.64,2.64,0,0,0,2.7,1.85h7.34c2.09,0,3.78-1.11,3.78-4.1A5.9,5.9,0,0,0,35.27,185.55Z"/><path class="cls-1" d="M47.25,180.35l-.35-.18a.85.85,0,0,1-.79.51,1.13,1.13,0,0,1-1.19-1.06.84.84,0,0,1,.85-.92,1.06,1.06,0,0,1,.91.48L47,179c.37-.2.24-.44.11-.6a2.07,2.07,0,0,0-1.46-.59,1.65,1.65,0,0,0-1.73,1.63,1.59,1.59,0,0,0,.55,1.21h-.95v.86H46a1.68,1.68,0,0,0,1.39-.6C47.49,180.77,47.65,180.55,47.25,180.35Z"/><path class="cls-1" d="M44.26,184v10.13a.59.59,0,0,1-.66.62h-.45v1h1.28a1.54,1.54,0,0,0,1.7-1.5V184.09a.61.61,0,0,1,.66-.66h.44v-1H46A1.53,1.53,0,0,0,44.26,184Z"/><path class="cls-1" d="M62.33,183.32a1.14,1.14,0,0,0,1.15-1.14,1.14,1.14,0,1,0-2.27,0A1.13,1.13,0,0,0,62.33,183.32Z"/><path class="cls-1" d="M59.18,183.32a1.15,1.15,0,0,0,1.15-1.14A1.17,1.17,0,0,0,59.18,181,1.15,1.15,0,0,0,58,182.18,1.13,1.13,0,0,0,59.18,183.32Z"/><path class="cls-1" d="M84.39,185.55c-3.12,0-5.68,2.09-5.68,5.1v1.24c0,1.94-1,2.57-2.2,2.57h-.79c-1.15,0-2.22-.63-2.22-2.57v-11.1a.61.61,0,0,1,.66-.66h.44v-1H73.34a1.55,1.55,0,0,0-1.72,1.5v11.23c0,1.94-1.05,2.57-2.2,2.57h-.79c-1.15,0-2.2-.63-2.22-2.57v-7.22H60.79c-3.13,0-5.64,2.11-5.64,5.17A5.28,5.28,0,0,0,60.68,195a4.7,4.7,0,0,0,4-2.07,3.37,3.37,0,0,0,3.63,2.74h1.39a3.39,3.39,0,0,0,3.3-1.85,2.65,2.65,0,0,0,2.71,1.85h.77a3.15,3.15,0,0,0,3-2.32,5.74,5.74,0,0,0,4.84,2.38c3.13,0,5.68-2.09,5.68-5.11S87.52,185.57,84.39,185.55ZM64.51,190a3.5,3.5,0,0,1-3.7,3.81,4,4,0,0,1,0-7.9h3.7Zm19.88,4.52a3.87,3.87,0,1,1,3.75-3.88A3.66,3.66,0,0,1,84.39,194.51Z"/><path class="cls-1" d="M112.86,180.68v11.21c0,1.94-1.08,2.57-2.22,2.57h-.79c-1.15,0-2.23-.63-2.23-2.57v-.31c0-3.39-2.35-5.81-6.12-5.81H100l5.37-5.53a.62.62,0,0,1,.93,0l.33.31.64-.71-.77-.73a1.47,1.47,0,0,0-2.21,0l-6.34,6.54a2.11,2.11,0,0,0-.48,1.32h3.68a4.47,4.47,0,0,1,4.64,4.69v.22c0,1.94-1.08,2.57-2.22,2.57H96.92c-1.14,0-2.22-.63-2.24-2.57v-11.1a.62.62,0,0,1,.68-.66h.44v-1H94.52a1.52,1.52,0,0,0-1.69,1.5v11.1c0,2.81,1.69,3.92,3.78,3.92h7.23a3.37,3.37,0,0,0,3.3-1.85,2.71,2.71,0,0,0,2.75,1.85h1c2.09,0,3.8-1.11,3.8-4.1V180.79a.62.62,0,0,1,.67-.66h.44v-1h-1.39A1.45,1.45,0,0,0,112.86,180.68Z"/><path class="cls-1" d="M118.15,181.76v12.29a.62.62,0,0,1-.66.66h-.44v1h1.27a1.54,1.54,0,0,0,1.7-1.5V181.89a.61.61,0,0,1,.66-.66h.44v-1h-1.28A1.53,1.53,0,0,0,118.15,181.76Z"/><path class="cls-1" d="M133.14,184.25a1.14,1.14,0,1,0,0-2.27,1.14,1.14,0,1,0,0,2.27Z"/><path class="cls-1" d="M136.29,184.25a1.14,1.14,0,1,0-1.12-1.13A1.13,1.13,0,0,0,136.29,184.25Z"/><path class="cls-1" d="M134.73,185.55a5.68,5.68,0,0,0-5.69,5.59c0,3,2.38,4.6,5.69,4.6s5.66-1.61,5.66-4.6A5.69,5.69,0,0,0,134.73,185.55Zm0,9c-1.59,0-3.75-.79-3.75-3.37a3.78,3.78,0,1,1,7.47,0C138.45,193.72,136.25,194.51,134.73,194.51Z"/><path class="cls-1" d="M143.22,187.26v9.12c0,2.6-.24,3.72-1.45,3.72a1.41,1.41,0,0,1-1.32-1.06l-.53.29c-.64.33-.37.79-.11,1.12a2.74,2.74,0,0,0,2.23,1c2.35,0,3.06-1.83,3.06-5.15V187.4a.61.61,0,0,1,.66-.66h.44v-1h-1.26A1.54,1.54,0,0,0,143.22,187.26Z"/><path class="cls-1" d="M182.64,180.68v11.21c0,1.94-1.08,2.57-2.23,2.57h-.79c-1.17,0-2.22-.63-2.22-2.57v-1.06c0-2.88-1.94-5.28-5.6-5.28a7.2,7.2,0,0,0-5.83,2.93v-1.35c0-1-.46-1.36-1.34-1.36h-.53v8.69h-5v-3.74c0-3.06-2.53-5.17-5.66-5.17s-5.65,2.11-5.65,5.15,2.55,5,5.5,5h3.94c-.13,3.25-1.47,4.44-3.48,4.44a2.69,2.69,0,0,1-2.62-1.58l-.53.28c-.52.25-.52.58-.28.93A4.32,4.32,0,0,0,154,201.4c3.06,0,5-1.94,5.1-5.72h14.47a3.37,3.37,0,0,0,3.3-1.83,2.73,2.73,0,0,0,2.75,1.83h1c2.09,0,3.81-1.11,3.81-4.1V180.79a.61.61,0,0,1,.66-.66h.44v-1h-1.39A1.44,1.44,0,0,0,182.64,180.68Zm-25.37,13.78h-3.79a3.51,3.51,0,0,1-3.72-3.76,3.65,3.65,0,0,1,3.72-3.92,3.87,3.87,0,0,1,3.79,4.16Zm18.26-2.68c0,2.05-1.08,2.68-2.23,2.68H166v-2.68c0-2.4,2.6-5,5.64-5a3.78,3.78,0,0,1,3.92,4Z"/><path class="cls-1" d="M189.62,180.26a1.54,1.54,0,0,0-1.7,1.5v12.29a.61.61,0,0,1-.66.66h-.44v1h1.28a1.53,1.53,0,0,0,1.69-1.5V181.89a.61.61,0,0,1,.66-.66h.44v-1Z"/><path class="cls-1" d="M53.7,118.21A4.37,4.37,0,0,0,57.93,121H72.67c2.85,0,5.54-1,6.8-2.52.57-.65,1.06-1.59-.4-2.36l-1.59-.86a3.74,3.74,0,0,1-3.63,1.87H72.22c-3.13,0-5.09-1.71-5.09-5.09s2-5.82,5.09-5.82a4.16,4.16,0,0,1,3.91,2.2l1.8-1.06c1.54-.9,1-1.75.44-2.4-1.42-1.59-4.19-2.69-7.33-2.69-6.19,0-10.79,3.67-10.79,9.41a7.77,7.77,0,0,0,2,5.45h-4.4c-1.5,0-2.73-.89-2.73-3.17V94.15a1.15,1.15,0,0,1,1.23-1.22h.81V90.44H53.62c-3.26,0-5.18,1.26-5.18,3.87v19.63c0,2.28-1.22,3.17-2.76,3.17h-1c-1.55,0-2.77-.89-2.77-3.09V102.66H32.2c-6.11,0-10.06,2.48-10.06,8.67v4.36c0,4.93-3.13,7.78-7.69,7.78-4.73,0-8.47-2.24-8.47-7.86a10.2,10.2,0,0,1,3.7-7.41l-1.26-.94c-1.39-1-2.65.12-3.3.85a11.87,11.87,0,0,0-3.05,8.11c0,7.49,5.21,12.09,12.38,12.09,8.3,0,14.41-4,14.41-12.5v-4.72c0-3.34,2-4.36,3.34-4.36h3v6.39c0,5.3,3,7.86,7.78,7.86h4.4C50.15,121,52.39,120.13,53.7,118.21Z"/><path class="cls-1" d="M110.66,126.19a3.5,3.5,0,1,0-7,0,3.5,3.5,0,0,0,7,0Z"/><path class="cls-1" d="M164.61,100.62a3.52,3.52,0,1,0-3.5-3.5A3.52,3.52,0,0,0,164.61,100.62Z"/><path class="cls-1" d="M181.92,106.61v7.33c0,2.28-1.23,3.17-2.77,3.17h-6.72a8,8,0,0,1-2.28-.32c2.81-2,4.68-4.56,4.68-7.78,0-5.21-4-6.35-10.1-6.35h-8.67c-2.44,0-3.7,1.67-3.54,3.34v2.16l4.27,5.45a22.41,22.41,0,0,0,2.73,3.1,10.48,10.48,0,0,1-3,.4H136.8c-1.5,0-2.73-.89-2.73-3.17V94.15a1.15,1.15,0,0,1,1.23-1.22h.81V90.44h-3.58c-3.26,0-5.17,1.26-5.17,3.87v19.63c0,2.28-1.23,3.17-2.77,3.17h-1c-1.51,0-2.77-.89-2.77-3.17v-7.5c0-2.6-1.14-3.78-4.4-3.78h-2.32v11.28c0,2.28-1.22,3.17-2.73,3.17h-6.06c-4.36,0-7.54-1.46-7.54-4.76a5.74,5.74,0,0,1,1.59-4.07l-1.22-.94c-1.38-1-2.36,0-2.77.86A10.53,10.53,0,0,0,94.29,113c0,5.25,4.48,7.94,10.26,7.94h8.51c2.77,0,5-.85,6.32-2.77a4.37,4.37,0,0,0,4.23,2.77h2.69c2.77,0,5-.85,6.31-2.77a4.37,4.37,0,0,0,4.23,2.77h19.83a24.88,24.88,0,0,0,7.49-1.18,20.69,20.69,0,0,0,8,1.18h8.67c4.8,0,7.78-2.56,7.78-7.82v-6.8a1.15,1.15,0,0,1,1.22-1.22h.85v-2.48h-4.23C183.22,102.66,181.92,104,181.92,106.61Zm-17.72,8.26a13,13,0,0,1-2.68-3l-4-5.37h7.2c2.53,0,3.22,1.34,3.22,2.64C167.91,111.7,166.36,113.57,164.2,114.87Z"/><path class="cls-1" d="M189,93.82a3.28,3.28,0,1,0,3.3,3.3A3.28,3.28,0,0,0,189,93.82Z"/><path class="cls-1" d="M181.59,100.38a3.28,3.28,0,1,0-3.26-3.26A3.28,3.28,0,0,0,181.59,100.38Z"/><path class="cls-1" d="M74.91,137.3A3.28,3.28,0,1,0,78.17,134,3.27,3.27,0,0,0,74.91,137.3Z"/><path class="cls-1" d="M67.54,137.3A3.28,3.28,0,1,0,70.8,134,3.27,3.27,0,0,0,67.54,137.3Z"/><path class="cls-1" d="M85.54,152c0-5.66-4.76-9.57-11-9.57S63.43,146.34,63.43,152s4.8,9.57,10.14,9.57a7.41,7.41,0,0,0,5.17-2.11v.12c0,4.6-4.85,7.2-9.61,7.2-5.78,0-12.3-2.68-12.3-9.44a13.39,13.39,0,0,1,3.71-9l-1.26-.94c-1.39-1-2.69.08-3.3.86a14.89,14.89,0,0,0-3.06,9.36c0,9.17,7.58,14,16.37,14,9.57,0,16.25-5.09,16.25-12.26Zm-11,5.66c-2,0-4.28-1.67-4.28-5.66s2.24-5.62,4.28-5.62,4.27,1.76,4.27,5.7S76.54,157.66,74.51,157.66Z"/><path class="cls-1" d="M169.66,134.58v19.54c0,2.28-1.22,3.18-2.77,3.18h-4.72a8,8,0,0,1-2.28-.33c2.81-1.95,4.68-4.56,4.68-7.78,0-5.21-3.95-6.35-10.1-6.35H145.8c-2.44,0-3.71,1.67-3.54,3.34v2.16l4.27,5.45a21.29,21.29,0,0,0,2.73,3.1,10.53,10.53,0,0,1-3,.41H99.59c-1.51,0-2.73-.9-2.73-3.18v-7.49c0-2.61-1.18-3.79-4.44-3.79H90.14v19.34c0,3.14-.45,5.26-2.12,5.26-.81,0-1.55-.33-2.07-1.8l-1.84,1c-1.67.86-1,2-.45,2.69a6.9,6.9,0,0,0,5.67,2.4c5.17,0,7.53-3.7,7.53-10.5v-1.1a3.68,3.68,0,0,0,2.77,1h46.78A24.64,24.64,0,0,0,153.9,160a20.65,20.65,0,0,0,8,1.19h6.68c4.81,0,7.78-2.57,7.78-7.94v-18.9a1.15,1.15,0,0,1,1.22-1.22h.86v-2.48h-4.24C171,130.63,169.66,131.93,169.66,134.58Zm-15.72,20.48a13,13,0,0,1-2.68-3l-4-5.37h7.21c2.53,0,3.22,1.34,3.22,2.65C157.65,151.88,156.1,153.75,153.94,155.06Z"/><path class="cls-1" d="M181.67,136.53l0,20.93a1.18,1.18,0,0,1-1.22,1.22h-.85v2.49h3.62c3.22,0,5.17-1.27,5.17-3.87l0-20.93a1.15,1.15,0,0,1,1.22-1.22h.86v-2.49h-3.63C183.63,132.66,181.67,133.92,181.67,136.53Z"/><path class="cls-1" d="M190.33,51.57a1.94,1.94,0,0,0,1.93-1.93V32.08a1.93,1.93,0,0,0-1.93-1.92h-.15V11.3a2.49,2.49,0,0,0,1.66-2.48V3.34A3.19,3.19,0,0,0,188.68,0H183a2.6,2.6,0,0,0-2.42,1.65H131.35A1.72,1.72,0,0,0,129.64,0h-18A1.73,1.73,0,0,0,110,1.65H63.15A2.62,2.62,0,0,0,60.73,0H55.05A3.18,3.18,0,0,0,51.9,3.34V8.82a2.51,2.51,0,0,0,1.7,2.5V30.16h-.15a1.93,1.93,0,0,0-1.93,1.92V49.64a1.94,1.94,0,0,0,1.93,1.93h.15V70.34a2.49,2.49,0,0,0-1.7,2.5v5.47a3.19,3.19,0,0,0,3.15,3.35h5.68a2.6,2.6,0,0,0,2.39-1.58h48.07v0a1.81,1.81,0,0,0,1.8,1.8h17.8a1.8,1.8,0,0,0,1.8-1.8v0h48a2.62,2.62,0,0,0,2.42,1.61h5.67a3.17,3.17,0,0,0,3.15-3.34V72.88a2.49,2.49,0,0,0-1.69-2.5V51.57ZM188.07,78H144.41V54.42h43.66Zm-44.72,0H100.19V54.42h43.16ZM55.71,54.42H99.14V78H55.71Zm44.48-1.05V29h43.16V53.37Zm0-25.4V3.75h43.16V28ZM55.71,3.75H99.14V28H55.71Zm88.7,0h43.66V28H144.41ZM55.71,30.16V29H99.14V53.37H55.71V30.16ZM188.07,53.37H144.41V29h43.66V53.37Z"/><path class="cls-1" d="M125.62,40.27h-1.53a2.23,2.23,0,0,0-1.6-1.57V37.13h-1.2v1.61a2.27,2.27,0,0,0-1.48,1.53h-1.65v1.19h1.65A2.23,2.23,0,0,0,121.29,43V44.6h1.2V43a2.2,2.2,0,0,0,1.6-1.56h1.53ZM122,39.82a1,1,0,1,1-1,1A1,1,0,0,1,122,39.82Z"/></g></g></svg>