<svg xmlns="http://www.w3.org/2000/svg" viewBox="0 0 470.48 476.73"><defs><style>.cls-1{fill:#fff;}</style></defs><title>Asset 1@3x1</title><g id="Layer_2" data-name="Layer 2"><g id="Layer_1-2" data-name="Layer 1"><path class="cls-1" d="M55.8,265.68c7.64,3.5,11.77,9.75,11.77,17.49,0,11.88-9.86,20.58-27.89,20.58H3.42V229.51H37.56c17.71,0,27.36,8.38,27.36,19.83a17,17,0,0,1-9.12,15.38ZM20,243.4v15.91h17.5c7.21,0,10.6-3.07,10.6-7.95s-3.39-8-10.6-8Zm19.62,46.45c7.53,0,11.13-3.18,11.13-8.37s-3.6-8.38-11.13-8.38H20v16.75Z"/><polygon class="cls-1" points="88.79 289.11 127.39 289.11 127.39 303.75 72.25 303.75 72.25 229.51 126.75 229.51 126.75 244.15 88.79 244.15 88.79 259 124.21 259 124.21 272.78 88.79 272.78 88.79 289.11"/><path class="cls-1" d="M186.46,303.74,181.38,289H149.67l-5.09,14.74H127.29l27.15-74.23h22.38L204,303.74Zm-31.7-29.37h21.52L166,244.89h-1Z"/><polygon class="cls-1" points="217.33 303.75 217.33 244.47 193.69 244.47 193.69 229.51 257.52 229.51 257.52 244.47 233.88 244.47 233.88 303.75 217.33 303.75"/><polygon class="cls-1" points="297.09 303.75 297.09 244.47 273.44 244.47 273.44 229.51 337.28 229.51 337.28 244.47 313.63 244.47 313.63 303.75 297.09 303.75"/><polygon class="cls-1" points="390.52 229.51 407.06 229.51 407.06 303.74 390.52 303.74 390.52 273.74 357.22 273.74 357.22 303.74 340.68 303.74 340.68 229.51 357.22 229.51 357.22 258.25 390.52 258.25 390.52 229.51"/><polygon class="cls-1" points="431.46 289.11 470.06 289.11 470.06 303.75 414.92 303.75 414.92 229.51 469.43 229.51 469.43 244.15 431.46 244.15 431.46 259 466.88 259 466.88 272.78 431.46 272.78 431.46 289.11"/><path class="cls-1" d="M.55,371.18H17.84c.1,7.74,6.57,12.73,17.49,12.73,7.64,0,12.94-2.44,12.94-8.17,0-5.19-3.71-7.31-15.69-9.12C10.52,363.34,3.63,358,3.63,344.78c0-14.21,11.45-23,29.9-23,18.77,0,31,10.5,31.28,25.87H47.53c-.21-7.42-6.36-10.81-14.85-10.81-7.31,0-12.3,2.22-12.3,7.31,0,4.88,3.71,6.9,17,8.7C57.29,355.59,65,362,65,375.21,65,390.06,53,399,34.7,399,13.38,399,1,387.62.55,371.18"/><polygon class="cls-1" points="84.66 397.48 64.29 323.25 81.47 323.25 95.58 379.03 96.53 379.03 110.85 327.49 127.6 327.49 141.39 379.03 142.24 379.03 157.08 323.25 173.94 323.25 152.84 397.48 132.38 397.48 119.65 349.44 118.7 349.44 105.44 397.48 84.66 397.48"/><polygon class="cls-1" points="193.68 382.85 232.28 382.85 232.28 397.48 177.14 397.48 177.14 323.25 231.64 323.25 231.64 337.89 193.68 337.89 193.68 352.73 229.1 352.73 229.1 366.52 193.68 366.52 193.68 382.85"/><path class="cls-1" d="M291.35,397.48l-5.08-14.74H254.56l-5.09,14.74H232.18l27.15-74.23h22.38l27.14,74.23Zm-31.7-29.37h21.52l-10.28-29.48h-1Z"/><polygon class="cls-1" points="322.22 397.48 322.22 338.2 298.58 338.2 298.58 323.25 362.41 323.25 362.41 338.2 338.76 338.2 338.76 397.48 322.22 397.48"/><path class="cls-1" d="M.47,463.81V420.23H13.36c16.8,0,24.84,9.4,24.84,21.79s-8.09,21.79-24.84,21.79ZM4,460.57h9.4c14.57,0,21.23-7.78,21.23-18.55s-6.66-18.55-21.23-18.55H4Z"/><path class="cls-1" d="M13.36,464.28H.47L0,463.81V420.23l.47-.47H13.36c15.85,0,25.31,8.32,25.31,22.26s-9.46,22.26-25.31,22.26M1,463.33H13.36c15.26,0,24.37-8,24.37-21.31S28.62,420.7,13.36,420.7H1ZM13.36,461H4l-.47-.47v-37.1L4,423h9.4c13.79,0,21.7,6.94,21.7,19s-7.91,19-21.7,19m-8.93-.94h8.93c13.19,0,20.76-6.59,20.76-18.08s-7.57-18.08-20.76-18.08H4.43Z"/><path class="cls-1" d="M43.8,448.24c0-9.65,6.67-16.37,16-16.37s16.06,6.72,16.06,16.37-6.67,16.38-16.06,16.38-16-6.73-16-16.38m28.57,0c0-8-5-13.13-12.56-13.13s-12.52,5.16-12.52,13.13,5,13.14,12.52,13.14,12.56-5.17,12.56-13.14"/><path class="cls-1" d="M59.81,465.09c-9.7,0-16.48-6.93-16.48-16.85s6.78-16.84,16.48-16.84,16.53,6.92,16.53,16.84-6.8,16.85-16.53,16.85m0-32.75c-9.15,0-15.53,6.54-15.53,15.9s6.38,15.9,15.53,15.9,15.58-6.54,15.58-15.9-6.4-15.9-15.58-15.9m0,29.51c-7.77,0-13-5.47-13-13.61s5.22-13.6,13-13.6,13,5.34,13,13.6-5.12,13.61-13,13.61m0-26.27c-7.32,0-12.05,5-12.05,12.66s4.73,12.67,12.05,12.67,12.09-5,12.09-12.67-4.75-12.66-12.09-12.66"/><path class="cls-1" d="M83.33,463.81V432.68h3.36v3.74h.38c2.06-3.24,5.79-4.55,9.59-4.55,7.4,0,12.26,5,12.26,13.33v18.61h-3.36V445c0-6.42-3.43-9.9-9.4-9.9s-9.47,3.61-9.47,9.9v18.8Z"/><path class="cls-1" d="M108.92,464.28h-3.36l-.47-.47V445c0-6.08-3.17-9.43-8.93-9.43s-9,3.44-9,9.43v18.8l-.48.47H83.33l-.47-.47V432.68l.47-.47h3.36l.48.47v2.78c2-2.63,5.35-4.06,9.49-4.06,7.85,0,12.73,5.29,12.73,13.79v18.62Zm-2.89-.95h2.42V445.19c0-7.92-4.52-12.85-11.79-12.85-2.41,0-6.8.56-9.19,4.33l-.4.22h-.38l-.47-.47v-3.27H83.81v30.18h2.41V445c0-6.5,3.72-10.37,9.94-10.37S106,438.42,106,445Z"/><polygon class="cls-1" points="116.77 435.11 119.56 420.23 124.05 420.23 118.82 435.11 116.77 435.11"/><path class="cls-1" d="M118.82,435.58h-2l-.47-.56,2.8-14.88.47-.38h4.48l.44.63-5.22,14.88Zm-1.49-.94h1.16l4.89-13.94H120Z"/><path class="cls-1" d="M146.84,435.79h-8.72v21.73c0,2.43.81,3.17,3.11,3.17h5.61v3.12h-5.61c-4.86,0-6.47-1.56-6.47-6.29V435.79H127.6v-3.11h7.16V423h3.36v9.65h8.72Z"/><path class="cls-1" d="M146.84,464.28h-5.61c-5.13,0-6.94-1.77-6.94-6.76V436.27H127.6l-.47-.48v-3.11l.47-.47h6.69V423l.47-.47h3.36l.47.47v9.18h8.25l.47.47v3.11l-.47.48h-8.25v21.25c0,2.12.57,2.7,2.64,2.7h5.61l.47.47v3.12Zm-18.77-29h6.69l.47.47v21.73c0,4.46,1.4,5.81,6,5.81h5.13v-2.16h-5.13c-2.61,0-3.58-1-3.58-3.65V435.79l.47-.47h8.24v-2.17h-8.24l-.47-.47v-9.17h-2.42v9.17l-.47.47h-6.69Z"/><path class="cls-1" d="M166.13,448.24c0-9.52,6.67-16.37,15.88-16.37,7.59,0,13.76,4.73,14.82,12.08h-3.24c-1.31-6-6.1-8.84-11.58-8.84-7.54,0-12.39,5.23-12.39,13.13s4.85,13.14,12.33,13.14c5.91,0,10.52-3.36,11.64-8.84h3.24c-.81,7.1-7.16,12.08-14.88,12.08-9.34,0-15.82-6.85-15.82-16.38"/><path class="cls-1" d="M182,465.09c-9.59,0-16.29-6.93-16.29-16.85,0-9.76,6.88-16.84,16.35-16.84,8.06,0,14.21,5,15.28,12.48l-.46.54h-3.24l-.46-.37c-1.15-5.31-5.31-8.47-11.12-8.47-7.24,0-11.92,5-11.92,12.66s4.65,12.67,11.86,12.67c5.74,0,10.12-3.32,11.18-8.46l.46-.38h3.24l.47.52c-.83,7.24-7.28,12.5-15.35,12.5m.06-32.75c-8.93,0-15.4,6.69-15.4,15.9s6.31,15.9,15.34,15.9c7.38,0,13.32-4.65,14.34-11.13H194c-1.28,5.38-6,8.84-12,8.84-7.66,0-12.8-5.47-12.8-13.61s5-13.6,12.86-13.6c6.15,0,10.59,3.29,12,8.84h2.31c-1.22-6.69-6.88-11.14-14.26-11.14"/><path class="cls-1" d="M203.36,463.81V432.68h3.36v3.92h.38c1.37-3.05,3.74-4,7.91-4h2.05v3.23h-3.37c-5.1,0-7,3.93-7,9v19Z"/><path class="cls-1" d="M206.73,464.28h-3.37l-.47-.47V432.68l.47-.47h3.37l.47.47v2.72c1.44-2.34,3.8-3.32,7.81-3.32h2.05l.47.48v3.23l-.47.48H213.7c-5.38,0-6.5,4.65-6.5,8.55v19Zm-2.89-.95h2.41V444.82c0-6.13,2.65-9.5,7.45-9.5h2.88V433H215c-4.22,0-6.25,1-7.48,3.76l-.43.29h-.37l-.48-.48v-3.45h-2.41Z"/><path class="cls-1" d="M220.17,448.24c0-9.65,6.66-16.37,16-16.37s16.06,6.72,16.06,16.37-6.66,16.38-16.06,16.38-16-6.73-16-16.38m28.58,0c0-8-5-13.13-12.58-13.13s-12.51,5.16-12.51,13.13,5,13.14,12.51,13.14,12.58-5.17,12.58-13.14"/><path class="cls-1" d="M236.17,465.09c-9.69,0-16.47-6.93-16.47-16.85s6.78-16.84,16.47-16.84,16.53,6.92,16.53,16.84-6.79,16.85-16.53,16.85m0-32.75c-9.14,0-15.52,6.54-15.52,15.9s6.38,15.9,15.52,15.9,15.59-6.54,15.59-15.9-6.41-15.9-15.59-15.9m0,29.51c-7.76,0-13-5.47-13-13.61s5.22-13.6,13-13.6c7.93,0,13.05,5.34,13.05,13.6s-5.12,13.61-13.05,13.61m0-26.27c-7.31,0-12,5-12,12.66s4.73,12.67,12,12.67,12.1-5,12.1-12.67-4.74-12.66-12.1-12.66"/><path class="cls-1" d="M259.7,476.26V432.68h3.36V438h.38c2.55-4.42,7.59-6.1,12.14-6.1,9.15,0,15.5,7,15.5,16.37s-6.35,16.38-15.5,16.38c-4.55,0-9.59-1.68-12.14-6.11h-.38v17.75Zm27.9-28c0-7.9-4.86-13.13-12.27-13.13s-12.27,5.23-12.27,13.13,4.87,13.14,12.27,13.14,12.27-5.23,12.27-13.14"/><path class="cls-1" d="M263.06,476.73H259.7l-.47-.47V432.68l.47-.47h3.36l.48.47V437c2.43-3.49,6.86-5.55,12-5.55,9.25,0,16,7.08,16,16.84s-6.72,16.85-16,16.85c-5.18,0-9.61-2.06-12-5.55v16.72Zm-2.88-.94h2.41V458.51l.47-.47h.38l.41.24c2.12,3.67,6.51,5.86,11.73,5.86,8.71,0,15-6.68,15-15.9s-6.32-15.9-15-15.9c-5.22,0-9.61,2.2-11.73,5.87l-.41.24h-.38l-.47-.48v-4.82h-2.41Zm15.15-13.94c-7.62,0-12.74-5.47-12.74-13.61s5.12-13.6,12.74-13.6,12.74,5.46,12.74,13.6-5.12,13.61-12.74,13.61m0-26.27c-7.16,0-11.79,5-11.79,12.66s4.63,12.67,11.79,12.67,11.79-5,11.79-12.67-4.62-12.66-11.79-12.66"/><polygon class="cls-1" points="298.3 473.46 301.1 458.58 305.59 458.58 300.36 473.46 298.3 473.46"/><path class="cls-1" d="M300.36,473.93h-2.05l-.47-.56,2.8-14.88.46-.39h4.49l.44.63-5.22,14.88Zm-1.49-.95H300l4.89-13.93h-3.43Z"/><polygon class="cls-1" points="339.82 463.81 339.82 423.47 323.76 423.47 323.76 420.23 359.38 420.23 359.38 423.47 343.31 423.47 343.31 463.81 339.82 463.81"/><path class="cls-1" d="M343.32,464.28h-3.5l-.47-.47V423.94H323.76l-.47-.47v-3.24l.47-.47h35.62l.47.47v3.24l-.47.47H343.79v39.87Zm-3-.95h2.54V423.47l.48-.48H358.9V420.7H324.24V423h15.58l.48.48Z"/><path class="cls-1" d="M361.24,463.81V432.68h3.36v3.92H365c1.37-3.05,3.73-4,7.9-4h2.06v3.23h-3.36c-5.11,0-7,3.93-7,9v19Z"/><path class="cls-1" d="M364.6,464.28h-3.36l-.47-.47V432.68l.47-.47h3.36l.47.47v2.73c1.45-2.35,3.8-3.33,7.81-3.33h2.06l.47.48v3.23l-.47.48h-3.36c-5.38,0-6.51,4.65-6.51,8.55v19Zm-2.89-.95h2.42V444.82c0-6.13,2.65-9.5,7.45-9.5h2.89V433h-1.59c-4.21,0-6.24,1-7.47,3.76l-.43.29h-.38l-.47-.48v-3.45h-2.42Z"/><path class="cls-1" d="M409,449H381.6c.31,7.53,5.23,12.45,12.58,12.45,5,0,9.2-2.43,10.95-6.6h3.24c-1.62,5.85-7.29,9.78-14.19,9.78-9.53,0-16.13-6.85-16.13-16.38s6.6-16.37,15.69-16.37c9.9,0,16.5,8,15.25,17.12m-27.27-3.11h24.16c-.62-6.35-5.3-10.83-12.14-10.83-6.54,0-11.15,4.17-12,10.83"/><path class="cls-1" d="M394.18,465.09c-9.78,0-16.6-6.93-16.6-16.85,0-9.76,6.8-16.84,16.16-16.84a15.8,15.8,0,0,1,12.14,5.29,15.53,15.53,0,0,1,3.58,12.36l-.47.41H382.1c.48,7,5.18,11.51,12.08,11.51,4.86,0,8.89-2.42,10.52-6.31l.43-.29h3.24l.46.6c-1.68,6-7.56,10.12-14.65,10.12m-.44-32.75c-8.82,0-15.22,6.69-15.22,15.9s6.44,15.9,15.66,15.9c6.42,0,11.78-3.52,13.55-8.83h-2.29c-1.85,4.08-6.14,6.6-11.26,6.6-7.61,0-12.73-5.06-13.05-12.9l.47-.49h27a14.61,14.61,0,0,0-3.41-11.21,14.87,14.87,0,0,0-11.43-5m12.14,14H381.73l-.47-.53c.9-6.94,5.68-11.25,12.48-11.25s11.95,4.53,12.61,11.26Zm-23.61-.94h23.08c-.81-6-5.32-9.89-11.61-9.89-6.11,0-10.46,3.77-11.47,9.89"/><path class="cls-1" d="M413.79,448.24c0-9.39,6.34-16.37,15.5-16.37,4.54,0,9.58,1.68,12.14,6.1h.37v-5.29h3.36v31.13H441.8v-5.3h-.37c-2.56,4.43-7.6,6.11-12.14,6.11-9.16,0-15.5-7-15.5-16.38m28,0c0-7.9-4.86-13.13-12.27-13.13s-12.26,5.23-12.26,13.13,4.86,13.14,12.26,13.14,12.27-5.23,12.27-13.14"/><path class="cls-1" d="M429.29,465.09c-9.26,0-16-7.09-16-16.85s6.71-16.84,16-16.84c5.18,0,9.6,2.05,12,5.54v-4.26l.47-.47h3.36l.47.47v31.13l-.47.47H441.8l-.47-.47v-4.26c-2.44,3.48-6.86,5.54-12,5.54m0-32.75c-8.71,0-15,6.69-15,15.9s6.32,15.9,15,15.9c5.22,0,9.61-2.19,11.73-5.86l.41-.24h.37l.47.47v4.82h2.42V433.15h-2.42V438l-.47.48h-.37l-.41-.24c-2.12-3.67-6.51-5.87-11.73-5.87m.25,29.51c-7.62,0-12.74-5.47-12.74-13.61s5.12-13.6,12.74-13.6,12.73,5.46,12.73,13.6-5.12,13.61-12.73,13.61m0-26.27c-7.17,0-11.79,5-11.79,12.66s4.62,12.67,11.79,12.67,11.79-5,11.79-12.67-4.63-12.66-11.79-12.66"/><path class="cls-1" d="M470,435.79h-8.72v21.73c0,2.43.81,3.17,3.12,3.17H470v3.12h-5.6c-4.86,0-6.48-1.56-6.48-6.29V435.79h-7.16v-3.11h7.16V423h3.36v9.65H470Z"/><path class="cls-1" d="M470,464.28h-5.6c-5.13,0-6.95-1.77-6.95-6.76V436.27h-6.69l-.47-.48v-3.11l.47-.47h6.69V423l.47-.47h3.36l.48.47v9.18H470l.48.47v3.11l-.48.48h-8.24v21.25c0,2.12.56,2.7,2.64,2.7H470l.48.47v3.12Zm-18.76-29h6.68l.48.47v21.73c0,4.46,1.4,5.81,6,5.81h5.13v-2.16H464.4c-2.62,0-3.59-1-3.59-3.65V435.79l.47-.47h8.25v-2.17h-8.25l-.47-.47v-9.17H458.4v9.17l-.48.47h-6.68Z"/><rect class="cls-1" x="118.14" y="6.47" width="2.59" height="186.83"/><rect class="cls-1" x="227.1" y="6.47" width="2.59" height="186.83"/><rect class="cls-1" x="8.54" y="68.91" width="329.98" height="2.59"/><rect class="cls-1" x="8.54" y="131.5" width="329.98" height="2.59"/><path class="cls-1" d="M339.88,124.47h4.41a.71.71,0,0,0,.71-.71V77.61a.71.71,0,0,0-.71-.71h-4.41Z"/><path class="cls-1" d="M342.85,127.06h-5.56V74.31h5.56a4.75,4.75,0,0,1,4.74,4.75v43.25a4.75,4.75,0,0,1-4.74,4.75"/><path class="cls-1" d="M8.55,124.47H4.13a.71.71,0,0,1-.71-.71V77.61a.71.71,0,0,1,.71-.71H8.55Z"/><path class="cls-1" d="M11.13,127.06H5.57a4.75,4.75,0,0,1-4.74-4.75V79.06a4.75,4.75,0,0,1,4.74-4.75h5.56Z"/><path class="cls-1" d="M340,175.71v19.14h-19a3.86,3.86,0,0,0,3.86,3.86h14c3.12,0,5.18-2.53,5.18-5.65V179.57c0-2.13-1.27-3.86-3.4-3.86Z"/><path class="cls-1" d="M338.88,201.29h-14a6.45,6.45,0,0,1-6.45-6.44v-2.59h19V173.12h3.24c3.46,0,6,2.71,6,6.45v13.49c0,4.69-3.34,8.23-7.77,8.23"/><path class="cls-1" d="M342.47,197.32H6V4.06H342.47ZM11.13,192.14H337.29V9.24H11.13Z"/><path class="cls-1" d="M198,194.83v3.79a.62.62,0,0,1-.62.62H151a.61.61,0,0,1-.61-.62v-3.79Z"/><path class="cls-1" d="M196.14,201.83H152.28a4.45,4.45,0,0,1-4.44-4.45v-5.14h52.75v5.14a4.46,4.46,0,0,1-4.45,4.45"/><path class="cls-1" d="M8.39,25.58V6.45h19A3.86,3.86,0,0,0,23.5,2.59h-14c-3.12,0-5.18,2.53-5.18,5.64V21.72c0,2.13,1.26,3.86,3.39,3.86Z"/><path class="cls-1" d="M11,28.17H7.74c-3.46,0-6-2.71-6-6.45V8.23C1.76,3.54,5.1,0,9.53,0h14A6.45,6.45,0,0,1,30,6.45V9H11Z"/><path class="cls-1" d="M147.39,6.56V3.16a.55.55,0,0,1,.55-.55h46.47a.55.55,0,0,1,.55.55v3.4Z"/><path class="cls-1" d="M197.55,9.15H144.8V4.27A4.26,4.26,0,0,1,149.05,0H193.3a4.26,4.26,0,0,1,4.25,4.25Z"/><path class="cls-1" d="M8.39,175.62v19.13h19a3.86,3.86,0,0,1-3.86,3.86h-14c-3.12,0-5.18-2.53-5.18-5.64V179.48c0-2.13,1.26-3.86,3.39-3.86Z"/><path class="cls-1" d="M23.5,201.2h-14c-4.43,0-7.77-3.54-7.77-8.23V179.48c0-3.74,2.52-6.45,6-6.45H11v19.13H30v2.59a6.45,6.45,0,0,1-6.45,6.45"/><path class="cls-1" d="M339.93,25.58V6.45H321a3.86,3.86,0,0,1,3.86-3.86h14c3.12,0,5.18,2.53,5.18,5.64V21.72c0,2.13-1.27,3.86-3.4,3.86Z"/><path class="cls-1" d="M340.57,28.17h-3.23V9h-19V6.45A6.45,6.45,0,0,1,324.82,0h14c4.43,0,7.77,3.54,7.77,8.23V21.72c0,3.74-2.52,6.45-6,6.45"/><rect class="cls-1" x="165.78" y="99.98" width="4.59" height="1.4"/><rect class="cls-1" x="165.01" y="99.22" width="6.13" height="2.94"/><rect class="cls-1" x="178.05" y="99.98" width="4.59" height="1.4"/><rect class="cls-1" x="177.29" y="99.22" width="6.13" height="2.94"/><rect class="cls-1" x="173.51" y="104.53" width="1.4" height="4.59"/><rect class="cls-1" x="172.74" y="103.76" width="2.94" height="6.13"/><path class="cls-1" d="M179.1,100.69A4.73,4.73,0,1,1,174.37,96a4.74,4.74,0,0,1,4.73,4.73m-8.06,0a3.33,3.33,0,1,0,3.33-3.33,3.33,3.33,0,0,0-3.33,3.33"/><path class="cls-1" d="M174.37,106.18a5.5,5.5,0,1,1,5.49-5.5,5.5,5.5,0,0,1-5.49,5.5m0-8.05a2.56,2.56,0,1,0,2.56,2.55,2.56,2.56,0,0,0-2.56-2.55"/><rect class="cls-1" x="173.51" y="92.25" width="1.4" height="4.59"/><rect class="cls-1" x="172.74" y="91.48" width="2.94" height="6.13"/></g></g></svg>