<svg xmlns="http://www.w3.org/2000/svg" viewBox="0 0 134.22 59.63"><defs><style>.cls-1{fill:#fff;}</style></defs><title>Asset 3@3x1</title><g id="Layer_2" data-name="Layer 2"><g id="Layer_1-2" data-name="Layer 1"><path class="cls-1" d="M14.49,11.62h-9L3.1,16.82H.29L8.19.23h3.67l7.93,16.59H16.93ZM13.71,10,10,2.08,6.29,10Z"/><path class="cls-1" d="M23.9,0V16.82H21.29V0Z"/><path class="cls-1" d="M30.05,0V16.82H27.43V0Z"/><path class="cls-1" d="M46.08,10.93H34.87a4.39,4.39,0,0,0,4.55,4.7,4.16,4.16,0,0,0,4.28-3l2.3.14c-.4,2.58-3.1,4.52-6.68,4.52-4.07,0-7.1-2.48-7.1-6.45s3-6.46,7.06-6.46,6.84,2.36,6.84,5.89A3,3,0,0,1,46.08,10.93ZM43.56,9.68a4,4,0,0,0-4.29-3.91,4.14,4.14,0,0,0-4.35,4Z"/><path class="cls-1" d="M48.57,4.85h2.6l-.11,3.08h.2a3.81,3.81,0,0,1,4-3.22,8.45,8.45,0,0,1,1.33.14L56.5,7.06a7.32,7.32,0,0,0-1.62-.19c-2.39,0-3.71,1.68-3.71,4.64v5.31h-2.6Z"/><path class="cls-1" d="M72.44,17.76c0,2.65-3.17,4.24-8.08,4.24-4.5,0-7.2-1.42-7.2-3.62a2.85,2.85,0,0,1,2.27-2.63,2.24,2.24,0,0,1-1.51-2c0-1.21,1-2,2.68-2v-.13a3.49,3.49,0,0,1-2.25-3.1c0-2.44,2.61-4.14,6.49-4.14a9.52,9.52,0,0,1,4,.78,3.18,3.18,0,0,1,3.47-2.58l.07,1.68c-1.44,0-2.34.47-2.6,1.45a3.42,3.42,0,0,1,1.46,2.77c0,2.41-2.48,4.09-6.25,4.09-1.65,0-2.77-.4-3.74-.4s-1.35.38-1.35.95.84,1.09,2.27,1.09h4.53C70.28,14.21,72.44,15.56,72.44,17.76Zm-2.58.46c0-1.23-1.23-2-3.18-2H62.16a6.68,6.68,0,0,1-1.26-.09,2.43,2.43,0,0,0-1.18,1.94c0,1.64,1.9,2.68,5,2.68S69.86,19.75,69.86,18.22ZM60.93,8.48c0,1.65,1.63,2.84,3.95,2.84s3.77-1.14,3.77-2.8-1.56-2.85-3.91-2.85C62.54,5.68,60.93,6.79,60.93,8.48Z"/><path class="cls-1" d="M103.16,10.16v6.66h-2.61V10.44c0-2.56-1.37-4.09-3.62-4.09s-3.72,1.58-3.72,4.23v6.24H90.6v-12h2.59l0,3h.19A4.47,4.47,0,0,1,98,4.62C101.17,4.62,103.16,6.73,103.16,10.16Z"/><path class="cls-1" d="M79.83,4.42c2.46,0,4.57,1.33,5.16,3.16h.12V4.85h2.6v12h-2.6V14.08H85c-.59,1.87-2.73,3.15-5.12,3.15-4,0-6.75-2.75-6.75-6.42S76,4.42,79.83,4.42Zm.61,11.26a4.67,4.67,0,0,0,4.79-4.86A4.6,4.6,0,0,0,80.59,6a4.67,4.67,0,0,0-4.79,4.88,4.58,4.58,0,0,0,4.64,4.81Z"/><path class="cls-1" d="M14.49,35.49h-9L3.1,40.68H.29l7.9-16.57h3.67l7.93,16.58H16.93Zm-.78-1.66L10,25.94l-3.7,7.89Z"/><path class="cls-1" d="M33.88,34.8H22.66a4.39,4.39,0,0,0,4.55,4.69,4.15,4.15,0,0,0,4.29-3l2.3.14c-.41,2.58-3.11,4.52-6.68,4.52C23,41.15,20,38.66,20,34.7s3-6.46,7.06-6.46,6.84,2.37,6.84,5.89A3.76,3.76,0,0,1,33.88,34.8Zm-2.53-1.25a4,4,0,0,0-4.28-3.91,4.15,4.15,0,0,0-4.36,4Z"/><path class="cls-1" d="M35.61,36.91,38,36.79c.35,1.8,1.91,3,4.3,3,1.92,0,3.25-.73,3.25-2,0-1.07-.9-1.75-2.58-2l-2.58-.31c-2.87-.35-4.12-1.68-4.12-3.46,0-2.24,2.24-3.74,5.47-3.74,3.46,0,5.75,1.69,6,4.1l-2.32.09c-.23-1.8-1.68-2.86-3.79-2.86-1.8,0-3,.78-3,2,0,1,.76,1.61,2.13,1.8l2.61.33c2.8.33,4.68,1.51,4.68,3.62,0,2.35-2.48,3.77-5.88,3.77C38.52,41.13,36,39.47,35.61,36.91Z"/><path class="cls-1" d="M72.45,34v6.66H69.84V34.3c0-2.55-1.35-4.09-3.6-4.09s-3.72,1.59-3.72,4.24v6.23h-2.6V23.85h2.6v7.83h.15a4.45,4.45,0,0,1,4.57-3.2C70.48,28.48,72.45,30.59,72.45,34Z"/><path class="cls-1" d="M88.27,34.8H77.06a4.39,4.39,0,0,0,4.54,4.69,4.15,4.15,0,0,0,4.29-3l2.3.14c-.41,2.58-3.1,4.52-6.68,4.52-4.07,0-7.11-2.49-7.11-6.45s3-6.46,7.06-6.46,6.85,2.37,6.85,5.89A3.77,3.77,0,0,1,88.27,34.8Zm-2.52-1.25a4,4,0,0,0-4.29-3.91,4.15,4.15,0,0,0-4.36,4Z"/><path class="cls-1" d="M100.07,25.26c0-.9.72-1.47,1.79-1.47s1.8.56,1.8,1.47-.72,1.44-1.8,1.44S100.07,26.13,100.07,25.26Zm3.08,3.46v12h-2.6v-12Z"/><path class="cls-1" d="M105.83,34.73c0-3.92,3.15-6.49,7.36-6.49,3.86,0,6.61,2.13,6.87,5l-2.49.1a4.18,4.18,0,0,0-4.4-3.51,4.57,4.57,0,0,0-4.67,4.81,4.56,4.56,0,0,0,4.74,4.78c2.37,0,4.29-1.41,4.52-3.45l2.44.07c-.26,2.87-3,5.09-7,5.09S105.83,38.71,105.83,34.73Z"/><path class="cls-1" d="M121.79,36.91l2.34-.12c.36,1.8,1.92,3,4.31,3,1.92,0,3.25-.73,3.25-2,0-1.07-.9-1.75-2.58-2l-2.59-.31c-2.86-.35-4.11-1.68-4.11-3.46,0-2.24,2.24-3.74,5.47-3.74,3.45,0,5.75,1.69,6,4.1l-2.32.09c-.24-1.8-1.68-2.86-3.79-2.86-1.8,0-3,.78-3,2,0,1,.75,1.61,2.13,1.8l2.6.33c2.81.33,4.69,1.51,4.69,3.62,0,2.35-2.48,3.77-5.87,3.77C124.7,41.13,122.21,39.47,121.79,36.91Z"/><path class="cls-1" d="M52.86,30.35H57V28.72h-4.1V25.51H50.28V36.23c0,3.14,1.71,4.64,4.31,4.64A10.33,10.33,0,0,0,57,40.59l0-1.83a7.17,7.17,0,0,1-1.61.21c-1.63,0-2.56-1.09-2.56-3Z"/><path class="cls-1" d="M93.19,30.35h4.09V28.72H93.19V25.51H90.61V36.23c0,3.14,1.7,4.64,4.31,4.64a10.31,10.31,0,0,0,2.41-.28l0-1.83a7.33,7.33,0,0,1-1.61.21c-1.64,0-2.56-1.09-2.56-3Z"/><path class="cls-1" d="M5,53.65v2.27a7,7,0,0,0,.14,1.51H4.16a3.53,3.53,0,0,1-.08-.86h0a2.28,2.28,0,0,1-2,1,1.79,1.79,0,0,1-2-1.74c0-1,.56-1.59,2.24-1.86.53-.08,1.25-.16,1.72-.2v-.23a1.23,1.23,0,0,0-1.34-1.39,1.21,1.21,0,0,0-1.36,1.18h-1a2.09,2.09,0,0,1,2.37-2A2.06,2.06,0,0,1,5,53.65Zm-1,.89c-.45,0-1.09.11-1.55.19-1,.15-1.36.44-1.36,1s.44,1,1.21,1a1.73,1.73,0,0,0,1.22-.47A1.67,1.67,0,0,0,4,54.9Z"/><path class="cls-1" d="M11.66,53.83v3.61h-1V53.9c0-1.23-.51-1.68-1.36-1.68S7.73,52.85,7.73,54v3.39h-1V51.51h1v.78h0a2.11,2.11,0,0,1,1.8-.91C10.87,51.39,11.66,52.2,11.66,53.83Z"/><path class="cls-1" d="M17.29,55l-.9,2.47H15.24l3.15-8.29h1.47L23,57.42H21.86L21,55Zm3-1.68c-.41-1.15-.8-2.22-1.19-3.36h0c-.39,1.15-.78,2.22-1.2,3.36l-.28.76h3Z"/><path class="cls-1" d="M25,52.33a2,2,0,0,1,1.81-1c1.5,0,2.47,1.21,2.47,3.1s-1,3.11-2.48,3.11a2,2,0,0,1-1.81-1h0v.86H24V49.14h1v3.19Zm-.07,2.13c0,1.4.63,2.28,1.61,2.28s1.67-.89,1.67-2.28-.65-2.27-1.67-2.27S24.93,53.06,24.93,54.46Z"/><path class="cls-1" d="M31.71,52.33a2,2,0,0,1,1.81-1c1.5,0,2.47,1.21,2.47,3.1s-1,3.11-2.48,3.11a2,2,0,0,1-1.81-1h0v.86h-1V49.14h1v3.19Zm-.07,2.13c0,1.4.63,2.28,1.61,2.28s1.67-.89,1.67-2.28-.66-2.27-1.67-2.27-1.61.87-1.61,2.27Z"/><path class="cls-1" d="M38.93,57.43l-2.86-8.29h1.12l1.27,3.69c.41,1.18.78,2.36,1.15,3.55h0c.37-1.19.75-2.37,1.16-3.55l1.26-3.69h1.12l-2.85,8.29Z"/><path class="cls-1" d="M44.17,50.29V49.14h1v1.15Zm0,7.14V51.51h1v5.92Z"/><path class="cls-1" d="M50.93,55.66h1a2.46,2.46,0,0,1-2.61,1.93c-1.75,0-2.78-1.27-2.78-3.2a2.74,2.74,0,0,1,2.74-3,2.53,2.53,0,0,1,2.59,2.06A5.47,5.47,0,0,1,52,54.68H47.62c0,1.46.79,2.12,1.76,2.12A1.47,1.47,0,0,0,50.93,55.66ZM47.62,53.9H51a1.69,1.69,0,0,0-1.68-1.76A1.73,1.73,0,0,0,47.62,53.9Z"/><path class="cls-1" d="M61,53.61H59.91a1.45,1.45,0,0,0-1.47-1.42c-1,0-1.68.87-1.68,2.28s.64,2.28,1.68,2.28a1.51,1.51,0,0,0,1.47-1.5H61a2.44,2.44,0,0,1-2.52,2.34c-1.71,0-2.78-1.2-2.78-3.12s1.07-3.12,2.78-3.12A2.41,2.41,0,0,1,61,53.61Z"/><path class="cls-1" d="M67.58,54.47c0,1.93-1.08,3.12-2.8,3.12S62,56.4,62,54.47s1.07-3.12,2.8-3.12S67.58,52.54,67.58,54.47Zm-4.55,0c0,1.4.66,2.28,1.74,2.28s1.74-.87,1.74-2.28-.66-2.28-1.74-2.28S63,53.06,63,54.47Z"/><path class="cls-1" d="M77.26,53.77v3.65h-1V53.86c0-1.19-.46-1.64-1.22-1.64s-1.4.73-1.4,1.86v3.36h-1V53.7c0-.93-.44-1.48-1.2-1.48S70,53,70,54.15v3.28H69V51.51h1v.74h0a2,2,0,0,1,1.66-.86,1.8,1.8,0,0,1,1.76,1.12,2,2,0,0,1,1.87-1.12C76.53,51.39,77.26,52.18,77.26,53.77Z"/><path class="cls-1" d="M84.35,54.46c0,1.89-1,3.11-2.47,3.11a2,2,0,0,1-1.81-1h0v3H79V51.51h1v.85h0a2,2,0,0,1,1.81-1C83.37,51.36,84.35,52.57,84.35,54.46Zm-4.35,0c0,1.4.63,2.28,1.61,2.28s1.67-.89,1.67-2.28-.66-2.27-1.67-2.27S80,53.06,80,54.46Z"/><path class="cls-1" d="M90.16,53.65v2.27a7.72,7.72,0,0,0,.14,1.51h-.93a4.91,4.91,0,0,1-.08-.86h0a2.29,2.29,0,0,1-2,1,1.79,1.79,0,0,1-2-1.74c0-1,.56-1.59,2.25-1.86.52-.08,1.24-.16,1.71-.2v-.23a1.23,1.23,0,0,0-1.34-1.39,1.2,1.2,0,0,0-1.35,1.18h-1a2.09,2.09,0,0,1,2.37-2A2.06,2.06,0,0,1,90.16,53.65Zm-1,.89c-.45,0-1.09.11-1.55.19-1,.15-1.36.44-1.36,1s.44,1,1.21,1a1.74,1.74,0,0,0,1.23-.47,1.7,1.7,0,0,0,.47-1.4Z"/><path class="cls-1" d="M96.86,53.83v3.61h-1V53.9c0-1.23-.51-1.68-1.36-1.68s-1.54.63-1.54,1.81v3.39h-1V51.51h1v.78h0a2.09,2.09,0,0,1,1.79-.91C96.07,51.39,96.86,52.2,96.86,53.83Z"/><path class="cls-1" d="M100.89,57.7c-.58,1.51-1.16,1.93-2.43,1.93a1.63,1.63,0,0,1-.54-.06v-.86a1.61,1.61,0,0,0,.49.07c.78,0,1.08-.28,1.47-1.33l-2.25-5.94h1.11l1.7,4.71h0l1.72-4.71h1.08Z"/></g></g></svg>