<?xml version="1.0" encoding="utf-8"?>
<!-- Generator: Adobe Illustrator 24.0.2, SVG Export Plug-In . SVG Version: 6.00 Build 0)  -->
<svg version="1.1" id="Layer_1" xmlns="http://www.w3.org/2000/svg" xmlns:xlink="http://www.w3.org/1999/xlink" x="0px" y="0px"
	 viewBox="0 0 1201 1201" style="enable-background:new 0 0 1201 1201;" xml:space="preserve">
<style type="text/css">
	.st0{fill:#FFFFFF;}
	@keyframes zoom-in {
		0%,100% {transform: translateY(0%) translateX(0%);}
		20% {transform: translateY(0%) translateX(30%);}
		40% {transform: translateY(30%) translateX(0%);}
		60% {transform: translateY(0%) translateX(-30%);}
		80% {transform: translateY(-30%) translateX(0%);}
	}
	.crop-icon{
		-webkit-animation: zoom-in 3s ease;
		animation: zoom-in 3s ease;
		opacity: 1;
		transform-box: fill-box;
		animation-fill-mode: forwards;
		animation-iteration-count: infinite;
	}
</style>
<title>BTS Preloader</title>
<g class="crop-icon">
	<g>
		<g>
			<g>
				<g>
					<rect x="520.4" y="465.5" class="st0" width="3.7" height="267"/>
				</g>
				<g>
					<rect x="676.1" y="465.5" class="st0" width="3.7" height="267"/>
				</g>
				<g>
					<rect x="363.8" y="554.7" class="st0" width="471.5" height="3.7"/>
				</g>
				<g>
					<rect x="363.8" y="644.2" class="st0" width="471.5" height="3.7"/>
				</g>
				<g>
					<path class="st0" d="M837.2,634.1l6.6,0c0.4,0,0.7-0.3,0.7-0.7v-66.5c0-0.4-0.3-0.7-0.7-0.7h-6.6V634.1z"/>
					<path class="st0" d="M841.5,637.8h-7.9v-75.4h7.9c3.7,0,6.8,3,6.8,6.8v61.8C848.2,634.8,845.2,637.8,841.5,637.8z"/>
				</g>
				<g>
					<path class="st0" d="M363.8,634.1l-6.6,0c-0.4,0-0.7-0.3-0.7-0.7v-66.5c0-0.4,0.3-0.7,0.7-0.7h6.6V634.1z"/>
					<path class="st0" d="M367.5,637.8h-7.9c-3.7,0-6.8-3-6.8-6.8v-61.8c0-3.7,3-6.8,6.8-6.8h7.9V637.8z"/>
				</g>
				<g>
					<path class="st0" d="M837.4,707.4v27.3h-27.1l0,0c0,3,2.5,5.5,5.5,5.5h20c4.5,0,7.4-3.6,7.4-8.1v-19.3c0-3-1.8-5.5-4.8-5.5
						H837.4z"/>
					<path class="st0" d="M835.8,743.9h-20c-5.1,0-9.2-4.1-9.2-9.2V731h27.1v-27.3h4.6c5,0,8.6,3.9,8.6,9.2v19.3
						C846.9,738.9,842.1,743.9,835.8,743.9z"/>
				</g>
				<g>
					<path class="st0" d="M840.9,738.2H360.1V462.1h480.9V738.2z M367.5,730.8h466.1V469.5H367.5V730.8z"/>
				</g>
				<g>
					<path class="st0" d="M634.5,734.7v5.7c0,0.3-0.3,0.6-0.6,0.6h-66.7c-0.3,0-0.6-0.3-0.6-0.6v-5.7H634.5z"/>
					<path class="st0" d="M631.8,744.7h-62.7c-3.5,0-6.3-2.8-6.3-6.4V731h75.4v7.4C638.2,741.8,635.3,744.7,631.8,744.7z"/>
				</g>
				<g>
					<path class="st0" d="M363.5,492.8v-27.3h27.1v0c0-3-2.5-5.5-5.5-5.5h-20c-4.5,0-7.4,3.6-7.4,8.1v19.3c0,3,1.8,5.5,4.8,5.5
						H363.5z"/>
					<path class="st0" d="M367.2,496.5h-4.6c-5,0-8.6-3.9-8.6-9.2V468c0-6.7,4.8-11.8,11.1-11.8h20c5.1,0,9.2,4.1,9.2,9.2v3.7h-27.1
						V496.5z"/>
				</g>
				<g>
					<path class="st0" d="M562.2,465.6v-5.1c0-0.3,0.2-0.5,0.5-0.5h66.9c0.3,0,0.5,0.2,0.5,0.5l0,5.1H562.2z"/>
					<path class="st0" d="M633.8,469.4h-75.4v-7c0-3.3,2.7-6.1,6.1-6.1h63.2c3.3,0,6.1,2.7,6.1,6.1V469.4z"/>
				</g>
				<g>
					<path class="st0" d="M363.5,707.2v27.3h27.1l0,0c0,3-2.5,5.5-5.5,5.5h-20c-4.5,0-7.4-3.6-7.4-8.1v-19.3c0-3,1.8-5.5,4.8-5.5
						H363.5z"/>
					<path class="st0" d="M385.1,743.8h-20c-6.3,0-11.1-5.1-11.1-11.8v-19.3c0-5.3,3.6-9.2,8.6-9.2h4.6v27.3h27.1v3.7
						C394.3,739.7,390.2,743.8,385.1,743.8z"/>
				</g>
				<g>
					<path class="st0" d="M837.3,492.8v-27.3h-27.1v0c0-3,2.5-5.5,5.5-5.5h20c4.5,0,7.4,3.6,7.4,8.1v19.3c0,3-1.8,5.5-4.8,5.5H837.3
						z"/>
					<path class="st0" d="M838.2,496.5h-4.6v-27.3h-27.1v-3.7c0-5.1,4.1-9.2,9.2-9.2h20c6.3,0,11.1,5.1,11.1,11.8v19.3
						C846.8,492.7,843.2,496.5,838.2,496.5z"/>
				</g>
			</g>
		</g>
	</g>
	<g>
		<g>
			<path class="st0" d="M436.3,530.4c6.9,3.2,10.7,8.8,10.7,15.9c0,10.8-8.9,18.7-25.3,18.7h-32.9v-67.3h31c16.1,0,24.8,7.6,24.8,18
				c0,6-2.9,11-8.3,13.9V530.4z M403.8,510.3v14.4h15.9c6.5,0,9.6-2.8,9.6-7.2c0-4.4-3.1-7.2-9.6-7.2H403.8z M421.5,552.4
				c6.8,0,10.1-2.9,10.1-7.6c0-4.7-3.3-7.6-10.1-7.6h-17.8v15.2H421.5z"/>
		</g>
		<g>
			<path class="st0" d="M466.2,551.7h35V565h-50v-67.3h49.4v13.3h-34.4v13.5h32.1v12.5h-32.1V551.7z"/>
		</g>
		<g>
			<path class="st0" d="M554.8,565l-4.6-13.4h-28.8l-4.6,13.4h-15.7l24.6-67.3H546l24.6,67.3H554.8z M526,538.3h19.5l-9.3-26.7h-0.9
				L526,538.3z"/>
		</g>
		<g>
			<path class="st0" d="M582.7,565v-53.8h-21.4v-13.6h57.9v13.6h-21.4V565H582.7z"/>
		</g>
		<g>
			<path class="st0" d="M655.1,565v-53.8h-21.4v-13.6h57.9v13.6h-21.4V565H655.1z"/>
		</g>
		<g>
			<path class="st0" d="M739.8,497.7h15V565h-15v-27.2h-30.2V565h-15v-67.3h15v26.1h30.2V497.7z"/>
		</g>
		<g>
			<path class="st0" d="M776.9,551.7h35V565h-50v-67.3h49.4v13.3h-34.4v13.5h32.1v12.5h-32.1V551.7z"/>
		</g>
		<g>
			<path class="st0" d="M386.2,626.1h15.7c0.1,7,6,11.5,15.9,11.5c6.9,0,11.7-2.2,11.7-7.4c0-4.7-3.4-6.6-14.2-8.3
				c-20-3-26.3-7.8-26.3-19.8c0-12.9,10.4-20.9,27.1-20.9c17,0,28.1,9.5,28.4,23.5h-15.7c-0.2-6.7-5.8-9.8-13.5-9.8
				c-6.6,0-11.2,2-11.2,6.6c0,4.4,3.4,6.3,15.4,7.9c18.1,2.5,25.1,8.3,25.1,20.3c0,13.5-10.9,21.5-27.5,21.5
				C397.8,651.3,386.5,641,386.2,626.1z"/>
		</g>
		<g>
			<path class="st0" d="M462.4,650L444,582.7h15.6l12.8,50.6h0.9l13-46.7h15.2l12.5,46.7h0.8l13.5-50.6h15.3L524.3,650h-18.6
				l-11.5-43.6h-0.9l-12,43.6H462.4z"/>
		</g>
		<g>
			<path class="st0" d="M561.3,636.7h35V650h-50v-67.3h49.4v13.3h-34.4v13.5h32.1v12.5h-32.1V636.7z"/>
		</g>
		<g>
			<path class="st0" d="M649.9,650l-4.6-13.4h-28.8l-4.6,13.4h-15.7l24.6-67.3h20.3l24.6,67.3H649.9z M621.1,623.3h19.5l-9.3-26.7
				h-0.9L621.1,623.3z"/>
		</g>
		<g>
			<path class="st0" d="M677.9,650v-53.8h-21.4v-13.6h57.9v13.6h-21.4V650H677.9z"/>
		</g>
	</g>
	<g>
		<g>
			<path class="st0" d="M386.1,710.1v-39.5h11.7c15.2,0,22.5,8.5,22.5,19.8c0,11.3-7.3,19.8-22.5,19.8H386.1z M389.2,707.2h8.5
				c13.2,0,19.3-7.1,19.3-16.8c0-9.8-6-16.8-19.3-16.8h-8.5V707.2z"/>
			<path class="st0" d="M397.8,710.6h-11.7l-0.4-0.4v-39.5l0.4-0.4h11.7c14.4,0,23,7.5,23,20.2C420.7,703,412.1,710.6,397.8,710.6z
				 M386.5,709.7h11.3c13.8,0,22.1-7.2,22.1-19.3c0-12.1-8.3-19.3-22.1-19.3h-11.3V709.7z M397.8,707.6h-8.5l-0.4-0.4v-33.6l0.4-0.4
				h8.5c12.5,0,19.7,6.3,19.7,17.3C417.5,701.3,410.3,707.6,397.8,707.6z M389.7,706.8h8.1c12,0,18.8-6,18.8-16.4
				c0-10.4-6.9-16.4-18.8-16.4h-8.1V706.8z"/>
		</g>
		<g>
			<path class="st0" d="M425.4,696c0-8.8,6-14.8,14.5-14.8c8.5,0,14.6,6.1,14.6,14.8c0,8.8-6,14.8-14.6,14.8
				C431.4,710.9,425.4,704.8,425.4,696z M451.3,696c0-7.2-4.5-11.9-11.4-11.9c-6.8,0-11.4,4.7-11.4,11.9c0,7.2,4.5,11.9,11.4,11.9
				C446.8,707.9,451.3,703.2,451.3,696z"/>
			<path class="st0" d="M439.9,711.3c-8.8,0-14.9-6.3-14.9-15.3c0-9,6.1-15.3,14.9-15.3c8.8,0,15,6.3,15,15.3
				C454.9,705,448.7,711.3,439.9,711.3z M439.9,681.6c-8.3,0-14.1,5.9-14.1,14.4c0,8.5,5.8,14.4,14.1,14.4c8.3,0,14.1-5.9,14.1-14.4
				C454,687.5,448.2,681.6,439.9,681.6z M439.9,708.4c-7,0-11.8-5-11.8-12.3c0-7.4,4.7-12.3,11.8-12.3c7.2,0,11.8,4.8,11.8,12.3
				C451.7,703.5,447.1,708.4,439.9,708.4z M439.9,684.5c-6.6,0-10.9,4.5-10.9,11.5c0,7,4.3,11.5,10.9,11.5c6.7,0,11-4.5,11-11.5
				C450.9,689,446.6,684.5,439.9,684.5z"/>
		</g>
		<g>
			<path class="st0" d="M461.2,710.1v-28.2h3v3.4h0.3c1.9-2.9,5.2-4.1,8.7-4.1c6.7,0,11.1,4.5,11.1,12.1v16.9h-3v-17.1
				c0-5.8-3.1-9-8.5-9c-5.4,0-8.6,3.3-8.6,9v17.1H461.2z"/>
			<path class="st0" d="M484.4,710.6h-3l-0.4-0.4v-17.1c0-5.5-2.9-8.5-8.1-8.5c-5.2,0-8.2,3.1-8.2,8.5v17.1l-0.4,0.4h-3l-0.4-0.4
				v-28.2l0.4-0.4h3l0.4,0.4v2.5c1.8-2.4,4.9-3.7,8.6-3.7c7.1,0,11.5,4.8,11.5,12.5v16.9L484.4,710.6z M481.8,709.7h2.2v-16.5
				c0-7.2-4.1-11.7-10.7-11.7c-2.2,0-6.2,0.5-8.3,3.9l-0.4,0.2h-0.3l-0.4-0.4v-3h-2.2v27.4h2.2v-16.6c0-5.9,3.4-9.4,9-9.4
				c5.7,0,9,3.4,9,9.4V709.7z"/>
		</g>
		<g>
			<path class="st0" d="M491.5,684.1l2.5-13.5h4.1l-4.7,13.5H491.5z"/>
			<path class="st0" d="M493.4,684.5h-1.9l-0.4-0.5l2.5-13.5l0.4-0.3h4.1l0.4,0.6l-4.7,13.5L493.4,684.5z M492.1,683.7h1l4.4-12.6
				h-3.1L492.1,683.7z"/>
		</g>
		<g>
			<path class="st0" d="M518.8,684.7h-7.9v19.7c0,2.2,0.7,2.9,2.8,2.9h5.1v2.8h-5.1c-4.4,0-5.9-1.4-5.9-5.7v-19.7h-6.5v-2.8h6.5
				v-8.8h3v8.8h7.9V684.7z"/>
			<path class="st0" d="M518.8,710.6h-5.1c-4.6,0-6.3-1.6-6.3-6.1v-19.3h-6.1l-0.4-0.4v-2.8l0.4-0.4h6.1v-8.3l0.4-0.4h3l0.4,0.4v8.3
				h7.5l0.4,0.4v2.8l-0.4,0.4h-7.5v19.3c0,1.9,0.5,2.5,2.4,2.5h5.1l0.4,0.4v2.8L518.8,710.6z M501.8,684.3h6.1l0.4,0.4v19.7
				c0,4,1.3,5.3,5.4,5.3h4.7v-2h-4.7c-2.4,0-3.3-0.9-3.3-3.3v-19.7l0.4-0.4h7.5v-2h-7.5l-0.4-0.4v-8.3h-2.2v8.3l-0.4,0.4h-6.1V684.3
				z"/>
		</g>
		<g>
			<path class="st0" d="M536.3,696c0-8.6,6-14.8,14.4-14.8c6.9,0,12.5,4.3,13.4,11h-2.9c-1.2-5.5-5.5-8-10.5-8
				c-6.8,0-11.2,4.7-11.2,11.9c0,7.2,4.4,11.9,11.2,11.9c5.4,0,9.5-3,10.6-8h2.9c-0.7,6.4-6.5,11-13.5,11
				C542.2,710.9,536.3,704.6,536.3,696z"/>
			<path class="st0" d="M550.7,711.3c-8.7,0-14.8-6.3-14.8-15.3c0-8.8,6.2-15.3,14.8-15.3c7.3,0,12.9,4.6,13.9,11.3l-0.4,0.5h-2.9
				l-0.4-0.3c-1-4.8-4.8-7.7-10.1-7.7c-6.6,0-10.8,4.5-10.8,11.5c0,7,4.2,11.5,10.8,11.5c5.2,0,9.2-3,10.1-7.7l0.4-0.3h2.9l0.4,0.5
				C563.8,706.5,558,711.3,550.7,711.3z M550.7,681.6c-8.1,0-14,6.1-14,14.4c0,8.5,5.7,14.4,13.9,14.4c6.7,0,12.1-4.2,13-10.1h-2.1
				c-1.2,4.9-5.4,8-10.9,8c-6.9,0-11.6-5-11.6-12.3c0-7.5,4.6-12.3,11.7-12.3c5.6,0,9.6,3,10.8,8h2.1
				C562.5,685.6,557.4,681.6,550.7,681.6z"/>
		</g>
		<g>
			<path class="st0" d="M570.1,710.1v-28.2h3v3.6h0.3c1.2-2.8,3.4-3.7,7.2-3.7h1.9v2.9h-3c-4.6,0-6.3,3.6-6.3,8.2v17.2H570.1z"/>
			<path class="st0" d="M573.1,710.6h-3l-0.4-0.4v-28.2l0.4-0.4h3l0.4,0.4v2.5c1.3-2.1,3.4-3,7.1-3h1.9l0.4,0.4v2.9l-0.4,0.4h-3
				c-4.9,0-5.9,4.2-5.9,7.8v17.2L573.1,710.6z M570.5,709.7h2.2v-16.8c0-5.6,2.4-8.6,6.7-8.6h2.6v-2.1h-1.4c-3.8,0-5.7,0.9-6.8,3.4
				l-0.4,0.3h-0.3l-0.4-0.4v-3.1h-2.2V709.7z"/>
		</g>
		<g>
			<path class="st0" d="M585.3,696c0-8.8,6-14.8,14.5-14.8c8.5,0,14.6,6.1,14.6,14.8c0,8.8-6,14.8-14.6,14.8
				C591.4,710.9,585.3,704.8,585.3,696z M611.2,696c0-7.2-4.5-11.9-11.4-11.9c-6.8,0-11.3,4.7-11.3,11.9c0,7.2,4.5,11.9,11.3,11.9
				C606.7,707.9,611.2,703.2,611.2,696z"/>
			<path class="st0" d="M599.8,711.3c-8.8,0-14.9-6.3-14.9-15.3c0-9,6.1-15.3,14.9-15.3c8.8,0,15,6.3,15,15.3
				C614.8,705,608.7,711.3,599.8,711.3z M599.8,681.6c-8.3,0-14.1,5.9-14.1,14.4c0,8.5,5.8,14.4,14.1,14.4c8.3,0,14.1-5.9,14.1-14.4
				C614,687.5,608.2,681.6,599.8,681.6z M599.8,708.4c-7,0-11.8-5-11.8-12.3c0-7.4,4.7-12.3,11.8-12.3c7.2,0,11.8,4.8,11.8,12.3
				C611.7,703.5,607,708.4,599.8,708.4z M599.8,684.5c-6.6,0-10.9,4.5-10.9,11.5c0,7,4.3,11.5,10.9,11.5c6.7,0,11-4.5,11-11.5
				C610.8,689,606.5,684.5,599.8,684.5z"/>
		</g>
		<g>
			<path class="st0" d="M621.2,721.4v-39.5h3v4.8h0.3c2.3-4,6.9-5.5,11-5.5c8.3,0,14.1,6.3,14.1,14.8c0,8.5-5.8,14.8-14.1,14.8
				c-4.1,0-8.7-1.5-11-5.5h-0.3v16.1H621.2z M646.5,696c0-7.2-4.4-11.9-11.1-11.9s-11.1,4.7-11.1,11.9c0,7.2,4.4,11.9,11.1,11.9
				S646.5,703.2,646.5,696z"/>
			<path class="st0" d="M624.2,721.8h-3l-0.4-0.4v-39.5l0.4-0.4h3l0.4,0.4v3.9c2.2-3.2,6.2-5,10.9-5c8.4,0,14.5,6.4,14.5,15.3
				c0,8.9-6.1,15.3-14.5,15.3c-4.7,0-8.7-1.9-10.9-5v15.2L624.2,721.8z M621.6,721h2.2v-15.7l0.4-0.4h0.3l0.4,0.2
				c1.9,3.3,5.9,5.3,10.6,5.3c7.9,0,13.6-6.1,13.6-14.4c0-8.4-5.7-14.4-13.6-14.4c-4.7,0-8.7,2-10.6,5.3l-0.4,0.2h-0.3l-0.4-0.4
				v-4.4h-2.2V721z M635.3,708.4c-6.9,0-11.6-5-11.6-12.3c0-7.4,4.6-12.3,11.6-12.3c6.9,0,11.5,5,11.5,12.3
				C646.9,703.4,642.3,708.4,635.3,708.4z M635.3,684.5c-6.5,0-10.7,4.5-10.7,11.5c0,7,4.2,11.5,10.7,11.5c6.5,0,10.7-4.5,10.7-11.5
				C646,689,641.8,684.5,635.3,684.5z"/>
		</g>
		<g>
			<path class="st0" d="M656.2,718.9l2.5-13.5h4.1l-4.7,13.5H656.2z"/>
			<path class="st0" d="M658,719.3h-1.9l-0.4-0.5l2.5-13.5l0.4-0.3h4.1l0.4,0.6l-4.7,13.5L658,719.3z M656.7,718.4h1l4.4-12.6h-3.1
				L656.7,718.4z"/>
		</g>
		<g>
			<path class="st0" d="M693.8,710.1v-36.6h-14.6v-2.9h32.3v2.9H697v36.6H693.8z"/>
			<path class="st0" d="M697,710.6h-3.2l-0.4-0.4V674h-14.1l-0.4-0.4v-2.9l0.4-0.4h32.3l0.4,0.4v2.9l-0.4,0.4h-14.1v36.2L697,710.6z
				 M694.3,709.7h2.3v-36.2l0.4-0.4h14.1V671h-31.4v2.1h14.1l0.4,0.4V709.7z"/>
		</g>
		<g>
			<path class="st0" d="M713.3,710.1v-28.2h3v3.6h0.3c1.2-2.8,3.4-3.7,7.2-3.7h1.9v2.9h-3c-4.6,0-6.3,3.6-6.3,8.2v17.2H713.3z"/>
			<path class="st0" d="M716.3,710.6h-3l-0.4-0.4v-28.2l0.4-0.4h3l0.4,0.4v2.5c1.3-2.1,3.4-3,7.1-3h1.9l0.4,0.4v2.9l-0.4,0.4h-3
				c-4.9,0-5.9,4.2-5.9,7.8v17.2L716.3,710.6z M713.7,709.7h2.2v-16.8c0-5.6,2.4-8.6,6.8-8.6h2.6v-2.1h-1.4c-3.8,0-5.7,0.9-6.8,3.4
				l-0.4,0.3h-0.3l-0.4-0.4v-3.1h-2.2V709.7z"/>
		</g>
		<g>
			<path class="st0" d="M756.6,696.7h-24.8c0.3,6.8,4.7,11.3,11.4,11.3c4.5,0,8.4-2.2,9.9-6h2.9c-1.5,5.3-6.6,8.9-12.9,8.9
				c-8.6,0-14.6-6.2-14.6-14.8c0-8.7,6-14.8,14.2-14.8C751.7,681.2,757.7,688.4,756.6,696.7z M731.8,693.9h21.9
				c-0.6-5.8-4.8-9.8-11-9.8C736.8,684,732.6,687.8,731.8,693.9z"/>
			<path class="st0" d="M743.1,711.3c-8.9,0-15.1-6.3-15.1-15.3c0-8.8,6.2-15.3,14.7-15.3c4.4,0,8.3,1.7,11,4.8
				c2.6,3,3.8,7.1,3.2,11.2l-0.4,0.4h-24.4c0.4,6.4,4.7,10.4,11,10.4c4.4,0,8.1-2.2,9.5-5.7l0.4-0.3h2.9l0.4,0.5
				C754.9,707.6,749.5,711.3,743.1,711.3z M742.7,681.6c-8,0-13.8,6.1-13.8,14.4c0,8.5,5.8,14.4,14.2,14.4c5.8,0,10.7-3.2,12.3-8
				h-2.1c-1.7,3.7-5.6,6-10.2,6c-6.9,0-11.5-4.6-11.8-11.7l0.4-0.4h24.5c0.4-3.7-0.7-7.4-3.1-10.2
				C750.6,683.2,746.9,681.6,742.7,681.6z M753.7,694.3h-21.9l-0.4-0.5c0.8-6.3,5.2-10.2,11.3-10.2c6.2,0,10.8,4.1,11.4,10.2
				L753.7,694.3z M732.3,693.4h20.9c-0.7-5.5-4.8-9-10.5-9C737.2,684.5,733.2,687.9,732.3,693.4z"/>
		</g>
		<g>
			<path class="st0" d="M760.9,696c0-8.5,5.8-14.8,14.1-14.8c4.1,0,8.7,1.5,11,5.5h0.3v-4.8h3v28.2h-3v-4.8H786
				c-2.3,4-6.9,5.5-11,5.5C766.7,710.9,760.9,704.5,760.9,696z M786.3,696c0-7.2-4.4-11.9-11.1-11.9s-11.1,4.7-11.1,11.9
				c0,7.2,4.4,11.9,11.1,11.9S786.3,703.2,786.3,696z"/>
			<path class="st0" d="M775,711.3c-8.4,0-14.5-6.4-14.5-15.3c0-8.8,6.1-15.3,14.5-15.3c4.7,0,8.7,1.9,10.9,5v-3.9l0.4-0.4h3
				l0.4,0.4v28.2l-0.4,0.4h-3l-0.4-0.4v-3.9C783.7,709.4,779.7,711.3,775,711.3z M775,681.6c-7.9,0-13.6,6.1-13.6,14.4
				c0,8.4,5.7,14.4,13.6,14.4c4.7,0,8.7-2,10.6-5.3l0.4-0.2h0.3l0.4,0.4v4.4h2.2v-27.4h-2.2v4.4l-0.4,0.4H786l-0.4-0.2
				C783.7,683.6,779.7,681.6,775,681.6z M775.2,708.4c-6.9,0-11.5-5-11.5-12.3c0-7.4,4.6-12.3,11.5-12.3c6.9,0,11.5,5,11.5,12.3
				C786.7,703.4,782.1,708.4,775.2,708.4z M775.2,684.5c-6.5,0-10.7,4.5-10.7,11.5c0,7,4.2,11.5,10.7,11.5s10.7-4.5,10.7-11.5
				C785.9,689,781.7,684.5,775.2,684.5z"/>
		</g>
		<g>
			<path class="st0" d="M811.9,684.7H804v19.7c0,2.2,0.7,2.9,2.8,2.9h5.1v2.8h-5.1c-4.4,0-5.9-1.4-5.9-5.7v-19.7h-6.5v-2.8h6.5v-8.8
				h3v8.8h7.9V684.7z"/>
			<path class="st0" d="M811.9,710.6h-5.1c-4.6,0-6.3-1.6-6.3-6.1v-19.3h-6.1l-0.4-0.4v-2.8l0.4-0.4h6.1v-8.3l0.4-0.4h3l0.4,0.4v8.3
				h7.5l0.4,0.4v2.8l-0.4,0.4h-7.5v19.3c0,1.9,0.5,2.5,2.4,2.5h5.1l0.4,0.4v2.8L811.9,710.6z M794.9,684.3h6.1l0.4,0.4v19.7
				c0,4,1.3,5.3,5.4,5.3h4.7v-2h-4.7c-2.4,0-3.3-0.9-3.3-3.3v-19.7l0.4-0.4h7.5v-2H804l-0.4-0.4v-8.3h-2.2v8.3l-0.4,0.4h-6.1V684.3z
				"/>
		</g>
	</g>
</g>
</svg>
