<svg xmlns="http://www.w3.org/2000/svg" viewBox="0 0 64.73 37.66"><defs><style>.cls-1{fill:#473575;}</style></defs><title>Asset 4@3x1</title><g id="Layer_2" data-name="Layer 2"><g id="Layer_1-2" data-name="Layer 1"><g id="mk8mVO"><path class="cls-1" d="M62.78,26.32l-.55.28-2,.93L55,30l-5.86,2.82-5,2.37-4.88,2.34a.9.9,0,0,1-.4.09c-1.65,0-3.31,0-5-.08-.77,0-1.54-.08-2.31-.15-1-.09-2-.18-3-.3s-2.2-.29-3.3-.46c-.86-.14-1.72-.28-2.57-.46-1.49-.32-3-.65-4.46-1s-2.93-.78-4.37-1.26c-1.7-.57-3.38-1.23-5.05-1.89a28,28,0,0,1-2.92-1.27C4.2,29.91,2.6,29,1,28.09a1.9,1.9,0,0,1-.9-.89A1,1,0,0,1,.34,26a3.51,3.51,0,0,1,1.24-.72L4.46,24,8,22.41l2.86-1.29L13.36,20a.27.27,0,0,1,.39.09A53,53,0,0,0,18,24.75a43.86,43.86,0,0,0,6,4.91,35.49,35.49,0,0,0,5.62,3.13A32.78,32.78,0,0,0,34,34.41c.74.22,1.49.38,2.24.54s1.66.29,2.49.43a1.09,1.09,0,0,0,.73-.11c1.38-.64,2.77-1.26,4.15-1.89l4.51-2.06,3.5-1.6,3.52-1.61,4.13-1.87a.83.83,0,0,1,.32-.07l3.07,0,.14,0Z"/><path class="cls-1" d="M31.61,0a4.47,4.47,0,0,1,3.7,2.55,29.48,29.48,0,0,0,3.31,5.17,31.19,31.19,0,0,0,3.72,3.9,32.15,32.15,0,0,0,5.06,3.62,32.41,32.41,0,0,0,4.68,2.24c1.11.43,2.24.8,3.38,1.14s2.15.56,3.24.78,2,.33,3,.46c.63.08,1.26.11,1.89.15a1.28,1.28,0,0,1,1.15,1A1.23,1.23,0,0,1,64,22.37l-3.41,1.55L56.07,26l-4.88,2.22-4.81,2.21-4.57,2.06c-.68.31-1.36.63-2.05.92a1.31,1.31,0,0,1-.59.06,14.72,14.72,0,0,1-1.48-.24c-.6-.14-1.22-.22-1.82-.37s-1.22-.34-1.82-.52A31.84,31.84,0,0,1,28,29.84a36.93,36.93,0,0,1-5.22-3.33A44.28,44.28,0,0,1,17,21.32a49,49,0,0,1-4.56-5.59Q11,13.66,9.66,11.53A22.62,22.62,0,0,1,8.3,9.07a2.89,2.89,0,0,1,1.54-3.9,12,12,0,0,1,1.48-.42c.85-.22,1.72-.42,2.58-.63l4-1,2.85-.67C21.84,2.23,22.91,2,24,1.69l4.06-1C29,.51,29.86.27,30.78.06A5.9,5.9,0,0,1,31.61,0ZM58.92,22v0c-.31-.07-.63-.11-.94-.19-1.14-.29-2.29-.55-3.42-.88s-2.27-.72-3.38-1.14a35.79,35.79,0,0,1-4.64-2.2,34,34,0,0,1-6.71-4.91,32.39,32.39,0,0,1-6-7.75c-.31-.54-.57-1.11-.9-1.64a1.68,1.68,0,0,0-1.55-.79,5.25,5.25,0,0,0-1,.23c-1,.22-1.92.44-2.88.68-1.14.27-2.27.56-3.41.84l-2.93.68-3.51.86-2.81.67-3.73.9c-.54.13-.71.44-.45.93s.63,1.19,1,1.77a58.43,58.43,0,0,0,3.89,5.74,50.08,50.08,0,0,0,4.35,5,35.72,35.72,0,0,0,3.8,3.38c1.11.83,2.24,1.63,3.4,2.38a28.17,28.17,0,0,0,3.91,2.09A29.74,29.74,0,0,0,34.89,30c.8.23,1.6.41,2.41.61.43.1.87.18,1.31.26a1.45,1.45,0,0,0,1.1-.12,2.15,2.15,0,0,1,.36-.11c2-1,4.12-2,6.19-2.9l6.33-2.9Z"/></g></g></g></svg>