<svg xmlns="http://www.w3.org/2000/svg" viewBox="0 0 64.73 29.57"><defs><style>.cls-1{fill:#473575;}</style></defs><title>Asset 3@3x1</title><g id="Layer_2" data-name="Layer 2"><g id="Layer_1-2" data-name="Layer 1"><path class="cls-1" d="M63.17,8.2a20.31,20.31,0,0,0-2.91-4.48L59.6,3.1c-.47-.43-.94-.87-1.39-1.32A6,6,0,0,0,55,.11,5.88,5.88,0,0,0,50.59,1c-.58.39-1.15.8-1.72,1.21l-.78.56-1.3.92L44.6,5.24l-1,.73c-1,.7-2,1.42-3,2.19a1.84,1.84,0,0,1-1.35.44h-.15L8.92,9.08c-1.87,0-3.74.05-5.61.11A3.29,3.29,0,0,0,0,12.65c0,1.2,0,2.42.05,3.59,0,.84,0,1.67.05,2.5a3.39,3.39,0,0,0,3.58,3.63h0l2,0,14-.23L25,22l3.26,0,3.11,0,4.06-.07,4.06-.07a.81.81,0,0,1,.24,0l1.85,1.08,1.22.71,1.95,1.12,2.53,1.46,2,1.13c.27.16.54.32.82.47a19.88,19.88,0,0,0,2.42,1.28,6,6,0,0,0,2.4.52,5.78,5.78,0,0,0,3.67-1.39,16.88,16.88,0,0,0,3.25-3.87,17.51,17.51,0,0,0,2.36-5.22A15.56,15.56,0,0,0,63.17,8.2ZM53.42,27a13.45,13.45,0,0,1-1.59-.83l-.42-.24-2.14-1.24-5-2.9c-.94-.55-1.88-1.09-2.84-1.68,0-.51,0-1-.06-1.51v-.09l7.85,2.92a2.54,2.54,0,0,0,.47.14,1.12,1.12,0,0,0,.61-2.14l-3.33-1.26-2.14-.8-2.94-1.09,5.77-.1a2.48,2.48,0,0,0,.27,0,1.11,1.11,0,0,0-.1-2.22l-2.61,0-1.6,0-2.44,0a.2.2,0,0,1,0-.07,5.35,5.35,0,0,1,.56-.24l2.55-1.05,1.69-.7,2.2-.89,1.69-.69a2.21,2.21,0,0,0,.53-.29,1.07,1.07,0,0,0,.3-1.41,1,1,0,0,0-1.34-.53l-1.77.7-3.39,1.39-3,1.27c0-.34,0-.66,0-1a1.81,1.81,0,0,1,.21-.18l.55-.37.54-.36,1.06-.78c.4-.3.8-.6,1.21-.89s1-.69,1.46-1L47.46,6l1-.74,1.31-1L50.25,4c.66-.46,1.34-.94,2-1.34a3.68,3.68,0,0,1,4,.43A18.69,18.69,0,0,1,60,7.18a13.72,13.72,0,0,1,2.36,9.53,14,14,0,0,1-.88,3.41,17.38,17.38,0,0,1-3.09,5l-.22.26a5.92,5.92,0,0,1-1.35,1.3A3.61,3.61,0,0,1,53.42,27Z"/></g></g></svg>