<svg xmlns="http://www.w3.org/2000/svg" viewBox="0 0 708.28 147.54"><defs><style>.cls-1{fill:#473575;}</style></defs><title>Asset 7@3x1</title><g id="Layer_2" data-name="Layer 2"><g id="Layer_1-2" data-name="Layer 1"><path class="cls-1" d="M2.25,147.54A2.25,2.25,0,0,1,0,145.29V2.25a2.25,2.25,0,1,1,4.49,0v143A2.24,2.24,0,0,1,2.25,147.54Z"/><path class="cls-1" d="M16.61,130.78a2.24,2.24,0,0,1-2.25-2.24V19a2.25,2.25,0,1,1,4.49,0V128.54A2.24,2.24,0,0,1,16.61,130.78Z"/><path class="cls-1" d="M31,143.11a2.24,2.24,0,0,1-2.24-2.25V6.67a2.25,2.25,0,0,1,4.49,0V140.86A2.25,2.25,0,0,1,31,143.11Z"/><path class="cls-1" d="M45.33,120.37a2.24,2.24,0,0,1-2.24-2.24V29.41a2.25,2.25,0,1,1,4.49,0v88.72A2.24,2.24,0,0,1,45.33,120.37Z"/><path class="cls-1" d="M59.7,139.18a2.24,2.24,0,0,1-2.25-2.24V10.6a2.25,2.25,0,1,1,4.49,0V136.94A2.24,2.24,0,0,1,59.7,139.18Z"/><path class="cls-1" d="M74.06,122.84a2.24,2.24,0,0,1-2.24-2.25V26.94a2.25,2.25,0,0,1,4.49,0v93.65A2.25,2.25,0,0,1,74.06,122.84Z"/><path class="cls-1" d="M88.42,140.92a2.24,2.24,0,0,1-2.24-2.25V8.86a2.25,2.25,0,0,1,4.49,0V138.67A2.25,2.25,0,0,1,88.42,140.92Z"/><path class="cls-1" d="M102.79,147.54a2.25,2.25,0,0,1-2.25-2.25V2.25a2.25,2.25,0,1,1,4.49,0v143A2.24,2.24,0,0,1,102.79,147.54Z"/><path class="cls-1" d="M117.15,136.81a2.25,2.25,0,0,1-2.25-2.25V13a2.25,2.25,0,0,1,4.49,0V134.56A2.24,2.24,0,0,1,117.15,136.81Z"/><path class="cls-1" d="M131.51,115.72a2.24,2.24,0,0,1-2.24-2.25V34.07a2.25,2.25,0,1,1,4.49,0v79.4A2.25,2.25,0,0,1,131.51,115.72Z"/><path class="cls-1" d="M145.88,136.81a2.25,2.25,0,0,1-2.25-2.25V13a2.25,2.25,0,0,1,4.49,0V134.56A2.24,2.24,0,0,1,145.88,136.81Z"/><path class="cls-1" d="M160.24,122.84a2.25,2.25,0,0,1-2.25-2.25V26.94a2.25,2.25,0,0,1,4.49,0v93.65A2.24,2.24,0,0,1,160.24,122.84Z"/><path class="cls-1" d="M174.6,136.81a2.24,2.24,0,0,1-2.24-2.25V13a2.25,2.25,0,0,1,4.49,0V134.56A2.25,2.25,0,0,1,174.6,136.81Z"/><path class="cls-1" d="M189,147.54a2.24,2.24,0,0,1-2.24-2.25V2.25a2.25,2.25,0,1,1,4.49,0v143A2.25,2.25,0,0,1,189,147.54Z"/><path class="cls-1" d="M203.33,130.78a2.24,2.24,0,0,1-2.25-2.24V19a2.25,2.25,0,1,1,4.49,0V128.54A2.24,2.24,0,0,1,203.33,130.78Z"/><path class="cls-1" d="M217.69,140.92a2.24,2.24,0,0,1-2.24-2.25V8.86a2.25,2.25,0,0,1,4.49,0V138.67A2.25,2.25,0,0,1,217.69,140.92Z"/><path class="cls-1" d="M232.05,120.37a2.24,2.24,0,0,1-2.24-2.24V29.41a2.25,2.25,0,1,1,4.49,0v88.72A2.24,2.24,0,0,1,232.05,120.37Z"/><path class="cls-1" d="M246.42,124.21a2.25,2.25,0,0,1-2.25-2.25V25.57a2.25,2.25,0,0,1,4.49,0V122A2.24,2.24,0,0,1,246.42,124.21Z"/><path class="cls-1" d="M260.78,139.18a2.24,2.24,0,0,1-2.25-2.24V10.6a2.25,2.25,0,1,1,4.49,0V136.94A2.24,2.24,0,0,1,260.78,139.18Z"/><path class="cls-1" d="M275.14,139.18a2.24,2.24,0,0,1-2.24-2.24V10.6a2.25,2.25,0,1,1,4.49,0V136.94A2.24,2.24,0,0,1,275.14,139.18Z"/><path class="cls-1" d="M289.5,115.72a2.24,2.24,0,0,1-2.24-2.25V34.07a2.25,2.25,0,1,1,4.49,0v79.4A2.25,2.25,0,0,1,289.5,115.72Z"/><path class="cls-1" d="M303.87,130.78a2.24,2.24,0,0,1-2.25-2.24V19a2.25,2.25,0,1,1,4.49,0V128.54A2.24,2.24,0,0,1,303.87,130.78Z"/><path class="cls-1" d="M318.23,140.92a2.24,2.24,0,0,1-2.24-2.25V8.86a2.25,2.25,0,0,1,4.49,0V138.67A2.25,2.25,0,0,1,318.23,140.92Z"/><path class="cls-1" d="M332.59,120.37a2.24,2.24,0,0,1-2.24-2.24V29.41a2.25,2.25,0,1,1,4.49,0v88.72A2.24,2.24,0,0,1,332.59,120.37Z"/><path class="cls-1" d="M347,143.11a2.25,2.25,0,0,1-2.25-2.25V6.67a2.25,2.25,0,0,1,4.49,0V140.86A2.24,2.24,0,0,1,347,143.11Z"/><path class="cls-1" d="M361.32,147.54a2.24,2.24,0,0,1-2.24-2.25V2.25a2.25,2.25,0,1,1,4.49,0v143A2.25,2.25,0,0,1,361.32,147.54Z"/><path class="cls-1" d="M375.68,147.54a2.24,2.24,0,0,1-2.24-2.25V2.25a2.25,2.25,0,1,1,4.49,0v143A2.25,2.25,0,0,1,375.68,147.54Z"/><path class="cls-1" d="M390.05,130.78a2.24,2.24,0,0,1-2.25-2.24V19a2.25,2.25,0,1,1,4.49,0V128.54A2.24,2.24,0,0,1,390.05,130.78Z"/><path class="cls-1" d="M404.41,120.37a2.24,2.24,0,0,1-2.25-2.24V29.41a2.25,2.25,0,1,1,4.49,0v88.72A2.24,2.24,0,0,1,404.41,120.37Z"/><path class="cls-1" d="M418.77,147.54a2.24,2.24,0,0,1-2.24-2.25V2.25a2.25,2.25,0,1,1,4.49,0v143A2.25,2.25,0,0,1,418.77,147.54Z"/><path class="cls-1" d="M433.13,136.81a2.24,2.24,0,0,1-2.24-2.25V13a2.25,2.25,0,0,1,4.49,0V134.56A2.25,2.25,0,0,1,433.13,136.81Z"/><path class="cls-1" d="M447.5,122.84a2.25,2.25,0,0,1-2.25-2.25V26.94a2.25,2.25,0,0,1,4.49,0v93.65A2.24,2.24,0,0,1,447.5,122.84Z"/><path class="cls-1" d="M461.86,130.78a2.24,2.24,0,0,1-2.24-2.24V19a2.25,2.25,0,1,1,4.49,0V128.54A2.24,2.24,0,0,1,461.86,130.78Z"/><path class="cls-1" d="M476.22,120.37a2.24,2.24,0,0,1-2.24-2.24V29.41a2.25,2.25,0,1,1,4.49,0v88.72A2.24,2.24,0,0,1,476.22,120.37Z"/><path class="cls-1" d="M490.59,128a2.24,2.24,0,0,1-2.25-2.24V21.74a2.25,2.25,0,1,1,4.49,0V125.8A2.24,2.24,0,0,1,490.59,128Z"/><path class="cls-1" d="M505,135.71a2.24,2.24,0,0,1-2.24-2.24V19a2.25,2.25,0,1,1,4.49,0V133.47A2.24,2.24,0,0,1,505,135.71Z"/><path class="cls-1" d="M519.31,147.54a2.24,2.24,0,0,1-2.24-2.25V2.25a2.25,2.25,0,1,1,4.49,0v143A2.25,2.25,0,0,1,519.31,147.54Z"/><path class="cls-1" d="M533.68,135.71a2.24,2.24,0,0,1-2.25-2.24V14.07a2.25,2.25,0,1,1,4.49,0v119.4A2.24,2.24,0,0,1,533.68,135.71Z"/><path class="cls-1" d="M548,120.37a2.24,2.24,0,0,1-2.25-2.24V29.41a2.25,2.25,0,1,1,4.49,0v88.72A2.24,2.24,0,0,1,548,120.37Z"/><path class="cls-1" d="M562.4,139.18a2.24,2.24,0,0,1-2.24-2.24V10.6a2.25,2.25,0,1,1,4.49,0V136.94A2.24,2.24,0,0,1,562.4,139.18Z"/><path class="cls-1" d="M576.77,120.37a2.24,2.24,0,0,1-2.25-2.24V29.41a2.25,2.25,0,1,1,4.49,0v88.72A2.24,2.24,0,0,1,576.77,120.37Z"/><path class="cls-1" d="M591.13,147.54a2.25,2.25,0,0,1-2.25-2.25V2.25a2.25,2.25,0,1,1,4.49,0v143A2.24,2.24,0,0,1,591.13,147.54Z"/><path class="cls-1" d="M605.49,128a2.24,2.24,0,0,1-2.24-2.24V21.74a2.25,2.25,0,1,1,4.49,0V125.8A2.24,2.24,0,0,1,605.49,128Z"/><path class="cls-1" d="M619.85,143.11a2.24,2.24,0,0,1-2.24-2.25V6.67a2.25,2.25,0,0,1,4.49,0V140.86A2.25,2.25,0,0,1,619.85,143.11Z"/><path class="cls-1" d="M634.22,139.18a2.24,2.24,0,0,1-2.25-2.24V10.6a2.25,2.25,0,1,1,4.49,0V136.94A2.24,2.24,0,0,1,634.22,139.18Z"/><path class="cls-1" d="M648.58,143.11a2.25,2.25,0,0,1-2.25-2.25V6.67a2.25,2.25,0,0,1,4.5,0V140.86A2.25,2.25,0,0,1,648.58,143.11Z"/><path class="cls-1" d="M662.94,122.84a2.24,2.24,0,0,1-2.24-2.25V26.94a2.25,2.25,0,0,1,4.49,0v93.65A2.25,2.25,0,0,1,662.94,122.84Z"/><path class="cls-1" d="M677.31,139.18a2.24,2.24,0,0,1-2.25-2.24V10.6a2.25,2.25,0,1,1,4.49,0V136.94A2.24,2.24,0,0,1,677.31,139.18Z"/><path class="cls-1" d="M691.67,128a2.24,2.24,0,0,1-2.25-2.24V21.74a2.25,2.25,0,1,1,4.49,0V125.8A2.24,2.24,0,0,1,691.67,128Z"/><path class="cls-1" d="M706,147.54a2.24,2.24,0,0,1-2.24-2.25V2.25a2.25,2.25,0,1,1,4.49,0v143A2.25,2.25,0,0,1,706,147.54Z"/></g></g></svg>