<svg xmlns="http://www.w3.org/2000/svg" viewBox="0 0 708.28 134.3"><defs><style>.cls-1{fill:#473575;}</style></defs><title>Asset 6@3x1</title><g id="Layer_2" data-name="Layer 2"><g id="Layer_1-2" data-name="Layer 1"><path class="cls-1" d="M2.25,86.5C1,86.5,0,84.2,0,81.38V52.92c0-2.83,1-5.12,2.25-5.12s2.24,2.29,2.24,5.12V81.38C4.49,84.2,3.49,86.5,2.25,86.5Z"/><path class="cls-1" d="M16.61,106.45c-1.24,0-2.25-2.29-2.25-5.12V33c0-2.83,1-5.12,2.25-5.12s2.24,2.29,2.24,5.12v68.36C18.85,104.16,17.85,106.45,16.61,106.45Z"/><path class="cls-1" d="M31,86.5c-1.24,0-2.24-2.3-2.24-5.12V52.92c0-2.83,1-5.12,2.24-5.12s2.25,2.29,2.25,5.12V81.38C33.22,84.2,32.21,86.5,31,86.5Z"/><path class="cls-1" d="M45.33,80.8c-1.24,0-2.24-2.3-2.24-5.13V58.62c0-2.83,1-5.12,2.24-5.12s2.25,2.29,2.25,5.12V75.67C47.58,78.5,46.57,80.8,45.33,80.8Z"/><path class="cls-1" d="M59.7,92.2c-1.24,0-2.25-2.29-2.25-5.12V47.22c0-2.83,1-5.12,2.25-5.12s2.24,2.29,2.24,5.12V87.08C61.94,89.91,60.94,92.2,59.7,92.2Z"/><path class="cls-1" d="M74.06,117.85c-1.24,0-2.24-2.29-2.24-5.12V21.57c0-2.83,1-5.13,2.24-5.13s2.25,2.3,2.25,5.13v91.16C76.31,115.56,75.3,117.85,74.06,117.85Z"/><path class="cls-1" d="M88.42,97.9c-1.24,0-2.24-2.29-2.24-5.12V41.52c0-2.83,1-5.12,2.24-5.12s2.25,2.29,2.25,5.12V92.78C90.67,95.61,89.66,97.9,88.42,97.9Z"/><path class="cls-1" d="M102.79,80.8c-1.24,0-2.25-2.3-2.25-5.13V58.62c0-2.83,1-5.12,2.25-5.12S105,55.79,105,58.62V75.67C105,78.5,104,80.8,102.79,80.8Z"/><path class="cls-1" d="M117.15,80.8c-1.24,0-2.25-2.3-2.25-5.13V58.62c0-2.83,1-5.12,2.25-5.12s2.24,2.29,2.24,5.12V75.67C119.39,78.5,118.39,80.8,117.15,80.8Z"/><path class="cls-1" d="M131.51,80.8c-1.24,0-2.24-2.3-2.24-5.13V58.62c0-2.83,1-5.12,2.24-5.12s2.25,2.29,2.25,5.12V75.67C133.76,78.5,132.75,80.8,131.51,80.8Z"/><path class="cls-1" d="M145.88,134.3c-1.25,0-2.25-2.3-2.25-5.12V5.12c0-2.83,1-5.12,2.25-5.12s2.24,2.29,2.24,5.12V129.18C148.12,132,147.12,134.3,145.88,134.3Z"/><path class="cls-1" d="M160.24,101.7c-1.24,0-2.25-2.29-2.25-5.12V37.72c0-2.83,1-5.12,2.25-5.12s2.24,2.29,2.24,5.12V96.58C162.48,99.41,161.48,101.7,160.24,101.7Z"/><path class="cls-1" d="M174.6,80.8c-1.24,0-2.24-2.3-2.24-5.13V58.62c0-2.83,1-5.12,2.24-5.12s2.25,2.29,2.25,5.12V75.67C176.85,78.5,175.84,80.8,174.6,80.8Z"/><path class="cls-1" d="M189,114.05c-1.24,0-2.24-2.29-2.24-5.12V25.37c0-2.83,1-5.13,2.24-5.13s2.25,2.3,2.25,5.13v83.56C191.21,111.76,190.2,114.05,189,114.05Z"/><path class="cls-1" d="M203.33,101.7c-1.24,0-2.25-2.29-2.25-5.12V37.72c0-2.83,1-5.12,2.25-5.12s2.24,2.29,2.24,5.12V96.58C205.57,99.41,204.57,101.7,203.33,101.7Z"/><path class="cls-1" d="M217.69,86.5c-1.24,0-2.24-2.3-2.24-5.12V52.92c0-2.83,1-5.12,2.24-5.12s2.25,2.29,2.25,5.12V81.38C219.94,84.2,218.93,86.5,217.69,86.5Z"/><path class="cls-1" d="M232.05,78.89c-1.24,0-2.24-2.29-2.24-5.12V60.52c0-2.82,1-5.12,2.24-5.12s2.25,2.3,2.25,5.12V73.77C234.3,76.6,233.29,78.89,232.05,78.89Z"/><path class="cls-1" d="M246.42,78.89c-1.24,0-2.25-2.29-2.25-5.12V60.52c0-2.82,1-5.12,2.25-5.12s2.24,2.3,2.24,5.12V73.77C248.66,76.6,247.66,78.89,246.42,78.89Z"/><path class="cls-1" d="M260.78,97.9c-1.24,0-2.25-2.29-2.25-5.12V41.52c0-2.83,1-5.12,2.25-5.12S263,38.69,263,41.52V92.78C263,95.61,262,97.9,260.78,97.9Z"/><path class="cls-1" d="M275.14,134.3c-1.24,0-2.24-2.3-2.24-5.12V5.12c0-2.83,1-5.12,2.24-5.12s2.25,2.29,2.25,5.12V129.18C277.39,132,276.38,134.3,275.14,134.3Z"/><path class="cls-1" d="M289.5,119.44c-1.24,0-2.24-2.3-2.24-5.12V20c0-2.83,1-5.12,2.24-5.12s2.25,2.29,2.25,5.12v94.34C291.75,117.14,290.75,119.44,289.5,119.44Z"/><path class="cls-1" d="M303.87,76.36c-1.24,0-2.25-2.29-2.25-5.12V63.06c0-2.83,1-5.12,2.25-5.12s2.24,2.29,2.24,5.12v8.18C306.11,74.07,305.11,76.36,303.87,76.36Z"/><path class="cls-1" d="M318.23,84.6c-1.24,0-2.24-2.3-2.24-5.13V54.82c0-2.83,1-5.12,2.24-5.12s2.25,2.29,2.25,5.12V79.47C320.48,82.3,319.47,84.6,318.23,84.6Z"/><path class="cls-1" d="M332.59,106.45c-1.24,0-2.24-2.29-2.24-5.12V33c0-2.83,1-5.12,2.24-5.12s2.25,2.29,2.25,5.12v68.36C334.84,104.16,333.83,106.45,332.59,106.45Z"/><path class="cls-1" d="M347,80.8c-1.24,0-2.25-2.3-2.25-5.13V58.62c0-2.83,1-5.12,2.25-5.12s2.24,2.29,2.24,5.12V75.67C349.2,78.5,348.2,80.8,347,80.8Z"/><path class="cls-1" d="M361.32,76.36c-1.24,0-2.24-2.29-2.24-5.12V63.06c0-2.83,1-5.12,2.24-5.12s2.25,2.29,2.25,5.12v8.18C363.57,74.07,362.56,76.36,361.32,76.36Z"/><path class="cls-1" d="M375.68,134.3c-1.24,0-2.24-2.3-2.24-5.12V5.12c0-2.83,1-5.12,2.24-5.12s2.25,2.29,2.25,5.12V129.18C377.93,132,376.92,134.3,375.68,134.3Z"/><path class="cls-1" d="M390.05,110.89c-1.24,0-2.25-2.3-2.25-5.13V28.53c0-2.83,1-5.12,2.25-5.12s2.24,2.29,2.24,5.12v77.23C392.29,108.59,391.29,110.89,390.05,110.89Z"/><path class="cls-1" d="M404.41,127.36c-1.24,0-2.25-2.3-2.25-5.13V12.06c0-2.83,1-5.12,2.25-5.12s2.24,2.29,2.24,5.12V122.23C406.65,125.06,405.65,127.36,404.41,127.36Z"/><path class="cls-1" d="M418.77,76.36c-1.24,0-2.24-2.29-2.24-5.12V63.06c0-2.83,1-5.12,2.24-5.12S421,60.23,421,63.06v8.18C421,74.07,420,76.36,418.77,76.36Z"/><path class="cls-1" d="M433.13,92.51c-1.24,0-2.24-2.29-2.24-5.12V46.9c0-2.82,1-5.12,2.24-5.12s2.25,2.3,2.25,5.12V87.39C435.38,90.22,434.38,92.51,433.13,92.51Z"/><path class="cls-1" d="M447.5,95.37c-1.24,0-2.25-2.3-2.25-5.13V44.05c0-2.83,1-5.12,2.25-5.12s2.24,2.29,2.24,5.12V90.24C449.74,93.07,448.74,95.37,447.5,95.37Z"/><path class="cls-1" d="M461.86,78.89c-1.24,0-2.24-2.29-2.24-5.12V60.52c0-2.82,1-5.12,2.24-5.12s2.25,2.3,2.25,5.12V73.77C464.11,76.6,463.1,78.89,461.86,78.89Z"/><path class="cls-1" d="M476.22,76.36c-1.24,0-2.24-2.29-2.24-5.12V63.06c0-2.83,1-5.12,2.24-5.12s2.25,2.29,2.25,5.12v8.18C478.47,74.07,477.46,76.36,476.22,76.36Z"/><path class="cls-1" d="M490.59,134.3c-1.24,0-2.25-2.3-2.25-5.12V5.12c0-2.83,1-5.12,2.25-5.12s2.24,2.29,2.24,5.12V129.18C492.83,132,491.83,134.3,490.59,134.3Z"/><path class="cls-1" d="M505,122.6c-1.24,0-2.24-2.29-2.24-5.12V8.26c0-2.83,1-5.12,2.24-5.12s2.25,2.29,2.25,5.12V117.48C507.2,120.31,506.19,122.6,505,122.6Z"/><path class="cls-1" d="M519.31,101.7c-1.24,0-2.24-2.29-2.24-5.12V37.72c0-2.83,1-5.12,2.24-5.12s2.25,2.29,2.25,5.12V96.58C521.56,99.41,520.55,101.7,519.31,101.7Z"/><path class="cls-1" d="M533.68,122.6c-1.24,0-2.25-2.29-2.25-5.12V16.81c0-2.82,1-5.12,2.25-5.12s2.24,2.3,2.24,5.12V117.48C535.92,120.31,534.92,122.6,533.68,122.6Z"/><path class="cls-1" d="M548,76.36c-1.24,0-2.25-2.29-2.25-5.12V63.06c0-2.83,1-5.12,2.25-5.12s2.24,2.29,2.24,5.12v8.18C550.28,74.07,549.28,76.36,548,76.36Z"/><path class="cls-1" d="M562.4,85.86c-1.24,0-2.24-2.29-2.24-5.12V53.56c0-2.83,1-5.13,2.24-5.13s2.25,2.3,2.25,5.13V80.74C564.65,83.57,563.64,85.86,562.4,85.86Z"/><path class="cls-1" d="M576.77,76.36c-1.24,0-2.25-2.29-2.25-5.12V63.06c0-2.83,1-5.12,2.25-5.12S579,60.23,579,63.06v8.18C579,74.07,578,76.36,576.77,76.36Z"/><path class="cls-1" d="M591.13,109.3c-1.24,0-2.25-2.29-2.25-5.12V30.12c0-2.83,1-5.12,2.25-5.12s2.24,2.29,2.24,5.12v74.06C593.37,107,592.37,109.3,591.13,109.3Z"/><path class="cls-1" d="M605.49,89.66c-1.24,0-2.24-2.29-2.24-5.12V49.75c0-2.82,1-5.12,2.24-5.12s2.25,2.3,2.25,5.12V84.54C607.74,87.37,606.73,89.66,605.49,89.66Z"/><path class="cls-1" d="M619.85,121c-1.24,0-2.24-2.29-2.24-5.12V18.4c0-2.83,1-5.12,2.24-5.12s2.25,2.29,2.25,5.12v97.5C622.1,118.73,621.09,121,619.85,121Z"/><path class="cls-1" d="M634.22,76.36c-1.24,0-2.25-2.29-2.25-5.12V63.06c0-2.83,1-5.12,2.25-5.12s2.24,2.29,2.24,5.12v8.18C636.46,74.07,635.46,76.36,634.22,76.36Z"/><path class="cls-1" d="M648.58,85.86c-1.24,0-2.25-2.29-2.25-5.12V53.56c0-2.83,1-5.13,2.25-5.13s2.25,2.3,2.25,5.13V80.74C650.83,83.57,649.82,85.86,648.58,85.86Z"/><path class="cls-1" d="M662.94,76.36c-1.24,0-2.24-2.29-2.24-5.12V63.06c0-2.83,1-5.12,2.24-5.12s2.25,2.29,2.25,5.12v8.18C665.19,74.07,664.18,76.36,662.94,76.36Z"/><path class="cls-1" d="M677.31,98.53c-1.24,0-2.25-2.29-2.25-5.12V40.89c0-2.83,1-5.13,2.25-5.13s2.24,2.3,2.24,5.13V93.41C679.55,96.24,678.55,98.53,677.31,98.53Z"/><path class="cls-1" d="M691.67,76.36c-1.24,0-2.25-2.29-2.25-5.12V63.06c0-2.83,1-5.12,2.25-5.12s2.24,2.29,2.24,5.12v8.18C693.91,74.07,692.91,76.36,691.67,76.36Z"/><path class="cls-1" d="M706,76.36c-1.24,0-2.24-2.29-2.24-5.12V63.06c0-2.83,1-5.12,2.24-5.12s2.25,2.29,2.25,5.12v8.18C708.28,74.07,707.27,76.36,706,76.36Z"/></g></g></svg>