<svg xmlns="http://www.w3.org/2000/svg" viewBox="0 0 1003.36 289.15"><defs>
  <style>
    .cls-1{fill:#473575;}
    .cls-2,.cls-5{fill:#fff;}
    @keyframes strokeAnimate {
      0%,100% {
        stroke-dasharray: 4200;
      }
      50% {
        stroke-dasharray: 1980;
      }
    }
    .cls-3 {
      fill: #5b5081;
      fill-opacity: 0;
      stroke: #5b5081;
      stroke-width: 11px;
      stroke-dasharray: 4200;
      stroke-dashoffset: 4200;
      stroke-linecap: round;
      stroke-linejoin: round;
      -webkit-animation: strokeAnimate 15s linear infinite;
      animation: strokeAnimate 15s linear infinite;
    }
    .cls-4{fill:#aea2cf;}.cls-5{font-size:32.4px;font-family:SFTSchriftedSans-Bold, SFT Schrifted Sans;font-weight:700;}.cls-6{fill:none;stroke:#fff;stroke-linecap:round;stroke-miterlimit:10;stroke-width:3.36px;fill-rule:evenodd;}</style>
</defs><title>Asset 8@3x1</title><g id="Layer_2" data-name="Layer 2"><g id="Layer_1-2" data-name="Layer 1"><path class="cls-1" d="M347,178c-4,7-10.67,7.49-16.62,11.73-9.3,6.68-.14,18.53,9.27,19.23,9.11.59,23.49-.23,31-6,10.78-11.69,25-39.95,39.61-48,13.93-8.27,27.54-14.31,28.27-31.47.65-10.13-6-18.09-11.42-24.48-12.78-13.2-4.38-22.3-3.22-64.4H416c-2.19,29.48-3.71,52.23-3.74,52.7-.16,6.07,4.2,11.25,8.81,16.73,18.94,19.57,7.7,33.12-14.86,44.2-16.05,9.19-29.41,35.08-40.57,48.69-5.72,3.82-27.66,8.13-31.36,0,6.12-5.55,14.22-5.33,19.43-15,13.44-39.13,28.2-102.17,23.71-147.28h-7.84C374.54,78.08,358.6,142.77,347,178Z"/><path class="cls-1" d="M212.49,121.41A22.62,22.62,0,0,0,195,126.8c-12.48,11.91-26.79,24.92-30.21,27.1-8.11-1.19-32.24,4.13-35.23-6.79l19.81,0c12.85,0,20.92-12.41,16-24.67,1.26-4.92-44-1.41-45.78-2.41-20.74,0-39.71,21.78-48.83,32.25-8.08,9.13-26.07,24.52-25.57,24.38-3.48,3.1,1.44,8.59,4.89,5.35.1-.1,10.71-9.79,21.73-20.13C82.73,150.42,99,128,119.63,127.25h39.65c4,18.22-24.43,11.36-33.95,12.62a3.63,3.63,0,0,0-3.61,3.63c0,10.22,8.13,17.64,19.33,17.64h24.51c1.67,0,3.95,0,34.41-29,3.74-3.84,14-5.41,18.53-.14-57.92,54.8-29.33,50-110.78,49.21C94.93,179.79,81.28,199,72.67,206c-3.41,3.19,1.64,8.54,5,5.23L97,192.71c5.21-8.26,58-2.86,66.14-4.31,14.53,2.75,52.62-46.34,62.79-53.63C230,128.16,217.77,121.9,212.49,121.41Z"/><path class="cls-2" d="M1000.75,119.75C982.53,1.46,824-42.72,747.56,52.2,688,116,749.07,214.6,631.23,237.55,583.74,243.16,537.44,210.09,529,163c-2.29-34.88-6-72.63-27.62-100.57C414.68-58.08,230.74,9,237.12,157.71c-6.64,49.54-53.44,85.31-103,79.7C31.41,226.67,22.78,75,123.75,53.53c44.59-11.17,91,15,108.57,57.13,3.64-10,6.35-19.22,10.27-27.86,2.18-8.11,17-24,12.69-30.7C159.69-61.82-24.71,26,2.76,172.11,37.5,342.29,289.44,318.3,288.87,141.9c0,0,0,0,0,0C296,18.58,477.43,24.48,476.23,147.76c0,0,0,0,0,0,8.44,185.64,279.34,186.29,288.62.82-.44-20.71,4.6-40.55,16.36-57,25.13-36.9,75-51.05,115.49-32.55,73.69,33.59,73.33,137.54.19,171.44-49.51,21.12-105.16-2.24-126.13-51.69-5.34,14.16-9.92,27.38-16.49,40.79-5.26,10.35-7.54,14.42-5.38,18.86,20.77,25.74,56.42,44.85,89.92,49,.74.11,1.48.2,2.22.28h0C933.85,301.42,1019.54,212.55,1000.75,119.75Z"/><path class="cls-2" d="M531.11,106.19a21.94,21.94,0,0,0,1.84,3.47c29.86-71.8,132.44-79.21,169.93-10,1.93,3.23,3.79,6.61,5.55,10.12,6.35-18,11.8-35.45,23.2-51,1.51-2.18,1.45-3.87.64-5.44C678.88-16,565.44-17.1,510.67,51.05c-2.11,2.47-3.26,4.56-1.12,7.67A152.8,152.8,0,0,1,531.11,106.19Z"/><path class="cls-2" d="M473,185.82c-.87-1.93-1.31-4.06-2.42-7.58-16.31,34.25-41,55-75.31,59-42.85,6.07-83.73-19-100.45-58.73-6.25,18.32-12.32,36.36-23.58,52.49-.88,1.36-.26,4.87.95,6.29,18.29,21.92,42.25,38.34,69.55,45.87,53.47,16.4,115.72-2.1,151.24-45.77a0,0,0,0,1,0,0c1.8-2.89,1.36-5.38-.57-9.2C485.42,214.33,479.37,200,473,185.82Z"/><path class="cls-3" d="M537.93,65.46q-2.13-4.15-4.46-8.17c45.77-47.8,128.28-48,174.18.12q-2.26,3.9-4.35,8C661.54,18.81,578.82,18.6,537.93,65.46Z"/><path class="cls-3" d="M381.57,268c-32-.1-63.73-13-86.13-36.34q2.25-3.94,4.28-8c42.84,46.78,125.11,47.45,166.72-1.11q1.95,4.22,4,8.44A121.88,121.88,0,0,1,381.57,268Z"/><path class="cls-3" d="M980.07,123.41c-9.56-58.6-63.19-103.64-123-102-65.43-.76-122.65,55.44-121.5,123.34-.32,62.52-52.53,114.75-114.87,114.46-69.53.67-119.41-61.43-115.33-127.58C500.08,70.12,443.85,20.2,382.49,21.16,320.31,20,263.79,71.67,259.79,133.87c.4,36.78-11.27,73-40.6,97.22-48,43-127.21,34.62-165.48-17.24C2.67,151.06,39.6,49.33,118.25,33.26c38.93-9.57,82.09,3,109.32,32.6,1.49-2.78,3-5.44,4.51-8.08C146.32-28.92.37,49.15,23.41,168.32c29.24,141.62,236.85,127.05,244-18.23l-.15-.14c.29-4.09.91-12.89,1.18-16.86l.19-.21C280.65,5,469.45-4.56,494.38,120.21a353.34,353.34,0,0,1,3.45,35.22C501.24,217,559.18,268.86,619.76,268c66.37.56,123-54.07,124.1-120.16C742.31,107,764,68.68,797.83,47.22c56.36-36.8,136.19-12,164.55,48.35,27.88,57.19-.43,130.21-58.19,154.63-42.5,17.71-97.05,8.65-128.56-26.56-1.37,3-2.6,5.38-4.2,8.54C857.46,314.89,999.88,242.63,980.07,123.41Z"/><path class="cls-1" d="M657.17,124.83c-10.52-3-33.64-3.94-38.81-4-74.3.69-69.6,36.5,2.26,35.92C659.5,158.71,704.08,138.7,657.17,124.83Zm-36.55,27.68c-85.77-3.23-51-30.9,7.21-27.23C682.38,127,694.57,150.12,620.62,152.51Zm35.79-13.68a2.7,2.7,0,0,0,0-.49,2.86,2.86,0,0,0-.31-1,3.51,3.51,0,0,0-.55-.88c-2.6-7.32-60.37-9-46.55-.62,10.46-2.22,25.17-1.6,36.32.47h0l1,.23v0c3.41.81,5.42,1.91,5.84,2.35-.67,1-6.13,2.55-8.9,3l0-.07c-1.25.23-2.88.5-4.79.76l0,.07a149.23,149.23,0,0,1-30.79.4c-4.51.49-12-3.92-13.66-.23a2.13,2.13,0,0,0,1.55,2.56c18.6,3.06,34.48,4.82,56.59-1.67C654.25,142.71,656.44,141.27,656.41,138.83Z"/><path class="cls-1" d="M668,116.16c-33.67-11.52-115-9.85-120.2,22,.77,52.05,50.39,68.67,52.35,69,29.34,9.24,87.41-2.09,93.24-69C693.41,129.12,684.33,121.38,668,116.16Zm-27.66,85.1c-29.12,9.53-81.87-3.63-86.55-63.07C557.92,111,652.21,112,673,124.47c9,3.9,14.47,8.83,14.45,13.72C687.43,183.15,644.42,199.8,640.37,201.26Z"/><path class="cls-1" d="M957.94,144.63c-2.2,128.58-193.47,128.56-195.64,0C764.49,16,955.76,16.06,957.94,144.63Z"/><path class="cls-4" d="M845.19,210.62c-2.58-1.65-7.77-3.47-5.42-7.35a3.26,3.26,0,0,1,4.47-1.21c7.34,4.14,14.52,8.43,21.9,12.54-7.32,4.3-14,8.05-21.15,12.27-5.77,2.83-9.82-4.44,1.1-8.67-59.33-2.72-88.25-75.82-46.55-118.18,3.69-4,9,1,5.24,4.56-37.61,36.78-12.33,104.1,40.36,106.34Z"/><path class="cls-4" d="M876.73,78.73c3.77,1.43,9.42,6.38,3.16,8.76-8.5-2.27-16.07-8.79-24-12.94,7.23-4.2,14.27-8.34,21.51-12.47,3.75-2.24,7.32,3.45,3.82,5.78-1.74,1.16-3.61,2-5.26,3.27,57.65,4,85.87,76.33,45,117.62-1.74,2-4.93,3.21-6.49.25-1.63-4.85,8-10.56,9.72-15.62,24.58-38.1-2.41-91.42-47.35-95.18Z"/><text class="cls-5" transform="translate(809.2 93.54)">20</text><text class="cls-5" transform="translate(870.08 212.39)">40</text><path class="cls-6" d="M843.13,120.27c-1.9-11.27,2.3-21.07,17.11-21s19,9.78,17.1,21m-2.52-.32c5.79-1.34,6.83,7.52,1.59,8.56-.71,20.83-31.6,20.83-32.31,0-5.24-1-4.19-9.9,1.58-8.57,3.77-12.55,20.77,7.48,26.65-11m-20.59,69.8,3-1c-.63-13.45,3.94-17.45-13-16.33-6.9-.22-3.56,12.57-4.3,16.33l3.05,1m5.58-17.32v-12m29.8,14v-13.4m0,13.4c-5.21-.08-5.2,8.08,0,8s5.2-8.09,0-8Zm-49.13,16.16c1.67-19.52.76-28.57,24.42-31.73l8.88,12.51L869,147.91c23.69,3.16,22.74,12.26,24.41,31.73"/></g></g></svg>
