<?xml version="1.0" encoding="utf-8"?>
<!-- Generator: Adobe Illustrator 24.0.2, SVG Export Plug-In . SVG Version: 6.00 Build 0)  -->
<svg version="1.1" id="Layer_1" xmlns="http://www.w3.org/2000/svg" xmlns:xlink="http://www.w3.org/1999/xlink" x="0px" y="0px"
	 viewBox="0 0 1003.4 289.1" style="enable-background:new 0 0 1003.4 289.1;" xml:space="preserve">
<style type="text/css">
	.st0{fill:#473575;}
	.st1{fill:#FFFFFF;}
	.st2{fill:#5B5081;}
	.st3{fill:#AEA2CF;}
	.st4{enable-background:new    ;}
	.st5{fill:none;stroke:#FFFFFF;stroke-width:3.36;stroke-linecap:round;stroke-miterlimit:10;}
</style>
<title>Asset 8@3x1</title>
<g id="Layer_2_1_">
	<g id="Layer_1-2">
		<path class="st0" d="M347,178c-4,7-10.7,7.5-16.6,11.7c-9.3,6.7-0.1,18.5,9.3,19.2c9.1,0.6,23.5-0.2,31-6
			c10.8-11.7,25-39.9,39.6-48c13.9-8.3,27.5-14.3,28.3-31.5c0.6-10.1-6-18.1-11.4-24.5c-12.8-13.2-4.4-22.3-3.2-64.4h-8
			c-2.2,29.5-3.7,52.2-3.7,52.7c-0.2,6.1,4.2,11.2,8.8,16.7c18.9,19.6,7.7,33.1-14.9,44.2c-16,9.2-29.4,35.1-40.6,48.7
			c-5.7,3.8-27.7,8.1-31.4,0c6.1-5.6,14.2-5.3,19.4-15c13.4-39.1,28.2-102.2,23.7-147.3h-7.8C374.5,78.1,358.6,142.8,347,178z"/>
		<path class="st0" d="M212.5,121.4c-6.3-0.7-12.7,1.2-17.5,5.4c-12.5,11.9-26.8,24.9-30.2,27.1c-8.1-1.2-32.2,4.1-35.2-6.8h19.8
			c12.9,0,20.9-12.4,16-24.7c1.3-4.9-44-1.4-45.8-2.4c-20.7,0-39.7,21.8-48.8,32.2c-8.1,9.1-26.1,24.5-25.6,24.4
			c-3.5,3.1,1.4,8.6,4.9,5.4c0.1-0.1,10.7-9.8,21.7-20.1c10.9-11.5,27.2-33.9,47.8-34.6h39.7c4,18.2-24.4,11.4-33.9,12.6
			c-2,0-3.6,1.6-3.6,3.6c0,10.2,8.1,17.6,19.3,17.6h24.5c1.7,0,3.9,0,34.4-29c3.7-3.8,14-5.4,18.5-0.1
			c-57.9,54.8-29.3,50-110.8,49.2c-12.8-1.4-26.4,17.8-35,24.8c-3.4,3.2,1.6,8.5,5,5.2L97,192.7c5.2-8.3,58-2.9,66.1-4.3
			c14.5,2.8,52.6-46.3,62.8-53.6C230,128.2,217.8,121.9,212.5,121.4z"/>
		<path class="st1" d="M1000.8,119.8C982.5,1.5,824-42.7,747.6,52.2C688,116,749.1,214.6,631.2,237.6
			c-47.5,5.6-93.8-27.5-102.2-74.6c-2.3-34.9-6-72.6-27.6-100.6C414.7-58.1,230.7,9,237.1,157.7c-6.6,49.5-53.4,85.3-103,79.7
			C31.4,226.7,22.8,75,123.8,53.5c44.6-11.2,91,15,108.6,57.1c3.6-10,6.4-19.2,10.3-27.9c2.2-8.1,17-24,12.7-30.7
			C159.7-61.8-24.7,26,2.8,172.1c34.7,170.2,286.7,146.2,286.1-30.2l0,0c7.1-123.3,188.6-117.4,187.4,5.9l0,0
			c8.4,185.6,279.3,186.3,288.6,0.8c-0.4-20.7,4.6-40.6,16.4-57c25.1-36.9,75-51,115.5-32.5c73.7,33.6,73.3,137.5,0.2,171.4
			c-49.5,21.1-105.2-2.2-126.1-51.7c-5.3,14.2-9.9,27.4-16.5,40.8c-5.3,10.4-7.5,14.4-5.4,18.9c20.8,25.7,56.4,44.8,89.9,49
			c0.7,0.1,1.5,0.2,2.2,0.3l0,0C933.8,301.4,1019.5,212.6,1000.8,119.8z"/>
		<path class="st1" d="M531.1,106.2c0.5,1.2,1.1,2.4,1.8,3.5c29.9-71.8,132.4-79.2,169.9-10c1.9,3.2,3.8,6.6,5.5,10.1
			c6.3-18,11.8-35.5,23.2-51c1.5-2.2,1.5-3.9,0.6-5.4C678.9-16,565.4-17.1,510.7,51c-2.1,2.5-3.3,4.6-1.1,7.7
			C519.4,73.2,526.7,89.2,531.1,106.2z"/>
		<path class="st1" d="M473,185.8c-0.9-1.9-1.3-4.1-2.4-7.6c-16.3,34.2-41,55-75.3,59c-42.9,6.1-83.7-19-100.4-58.7
			c-6.2,18.3-12.3,36.4-23.6,52.5c-0.9,1.4-0.3,4.9,1,6.3c18.3,21.9,42.2,38.3,69.6,45.9c53.5,16.4,115.7-2.1,151.2-45.8l0,0
			c1.8-2.9,1.4-5.4-0.6-9.2C485.4,214.3,479.4,200,473,185.8z"/>
		<g>
			<g>
				<path class="st2" d="M620.6,21.4c-32.1,0-64.2,12-87.1,35.9c1.6,2.7,3,5.4,4.5,8.2c20.4-23.4,51.3-35.1,82.3-35.1
					s62.2,11.7,83.1,35c1.4-2.7,2.8-5.4,4.3-8C684.7,33.4,652.6,21.4,620.6,21.4L620.6,21.4z"/>
			</g>
		</g>
		<g>
			<g>
				<path class="st2" d="M466.4,222.6c-20.9,24.3-51.9,36.3-83.1,36.3c-31.1,0-62.2-11.9-83.6-35.2c-1.4,2.7-2.8,5.4-4.3,8
					c22.4,23.3,54.1,36.2,86.1,36.3c0.5,0,0.9,0,1.4,0c32.9,0,64.5-13.3,87.5-37C469.1,228.2,467.7,225.4,466.4,222.6L466.4,222.6z"
					/>
			</g>
		</g>
		<g>
			<g>
				<path class="st2" d="M146.1,20.9C74.7,20.9,7.2,84.4,23.4,168.3c13.8,66.8,67.2,98.8,120.6,98.8c59.8,0,119.6-40.3,123.4-117.1
					l-0.1-0.1c0.3-4.1,0.9-12.9,1.2-16.9l0.2-0.2C275,66.1,329.4,31.5,383.6,31.5c49.6,0,99,28.9,110.9,88.6
					c1.7,11.7,2.9,23.4,3.4,35.2c3.4,61.1,60.4,112.6,120.4,112.6c0.5,0,1,0,1.5,0c0.3,0,0.7,0,1,0c65.9,0,122-54.4,123.1-120.2
					c-1.5-40.8,20.1-79.2,54-100.6c18-11.7,38.5-17.1,58.9-17.1c43.3,0,86.3,24.6,105.6,65.6c27.9,57.2-0.4,130.2-58.2,154.6
					c-14.1,5.9-29.6,8.8-45,8.8c-31.1,0-62.5-11.9-83.5-35.4c-1.4,3-2.6,5.4-4.2,8.5c25.6,24.6,56.2,35.5,86.1,35.5
					c70.4,0,136.5-60.6,122.6-144.3c-9.4-57.6-61.3-102-119.8-102c-1.1,0-2.1,0-3.2,0c-0.4,0-0.9,0-1.3,0
					c-64.9,0-121.3,55.9-120.2,123.3c-0.3,62.3-52.2,114.5-114.4,114.5c-0.2,0-0.3,0-0.5,0c-0.4,0-0.7,0-1.1,0
					c-69,0-118.3-61.8-114.2-127.6C500.3,70.6,445,21,384.4,21c-0.6,0-1.2,0-1.7,0c-0.7,0-1.4,0-2.1,0
					C319.2,21,263.9,72.2,260,133.7c0.4,36.8-11.3,73-40.6,97.2c-20.8,18.6-47.4,27.6-74,27.6c-34.9,0-69.8-15.4-91.5-44.8
					c-51-62.8-14.1-164.5,64.5-180.6c8.6-2.1,17.5-3.2,26.3-3.2c31,0,61.8,12.7,83,35.8c1.5-2.8,3-5.4,4.5-8.1
					C206.7,32.1,176,20.9,146.1,20.9L146.1,20.9z"/>
			</g>
		</g>
		<path class="st0" d="M657.2,124.8c-10.5-3-33.6-3.9-38.8-4c-74.3,0.7-69.6,36.5,2.3,35.9C659.5,158.7,704.1,138.7,657.2,124.8z
			 M620.6,152.5c-85.8-3.2-51-30.9,7.2-27.2C682.4,127,694.6,150.1,620.6,152.5L620.6,152.5z M656.4,138.8c0-0.2,0-0.3,0-0.5
			c0-0.3-0.1-0.7-0.3-1c-0.1-0.3-0.3-0.6-0.5-0.9c-2.6-7.3-60.4-9-46.5-0.6c10.5-2.2,25.2-1.6,36.3,0.5l0,0l1,0.2l0,0
			c3.4,0.8,5.4,1.9,5.8,2.4c-0.7,1-6.1,2.6-8.9,3v-0.1c-1.2,0.2-2.9,0.5-4.8,0.8v0.1c-10.2,1.2-20.5,1.3-30.8,0.4
			c-4.5,0.5-12-3.9-13.7-0.2c-0.3,1.1,0.4,2.3,1.5,2.6c18.6,3.1,34.5,4.8,56.6-1.7C654.2,142.7,656.4,141.3,656.4,138.8L656.4,138.8
			z"/>
		<path class="st0" d="M668,116.2c-33.7-11.5-115-9.8-120.2,22c0.8,52.1,50.4,68.7,52.3,69c29.3,9.2,87.4-2.1,93.2-69
			C693.4,129.1,684.3,121.4,668,116.2z M640.3,201.3c-29.1,9.5-81.9-3.6-86.5-63.1c4.1-27.2,98.4-26.2,119.2-13.7
			c9,3.9,14.5,8.8,14.5,13.7C687.4,183.1,644.4,199.8,640.3,201.3L640.3,201.3z"/>
		<path class="st0" d="M957.9,144.6c-2.2,128.6-193.5,128.6-195.6,0C764.5,16,955.8,16.1,957.9,144.6z"/>
		<path class="st3" d="M845.2,210.6c-2.6-1.6-7.8-3.5-5.4-7.4c0.9-1.6,2.9-2.1,4.4-1.2l0,0c7.3,4.1,14.5,8.4,21.9,12.5
			c-7.3,4.3-14,8.1-21.2,12.3c-5.8,2.8-9.8-4.4,1.1-8.7c-59.3-2.7-88.2-75.8-46.5-118.2c3.7-4,9,1,5.2,4.6
			c-37.6,36.8-12.3,104.1,40.4,106.3L845.2,210.6z"/>
		<path class="st3" d="M876.7,78.7c3.8,1.4,9.4,6.4,3.2,8.8c-8.5-2.3-16.1-8.8-24-12.9c7.2-4.2,14.3-8.3,21.5-12.5
			c3.8-2.2,7.3,3.4,3.8,5.8c-1.7,1.2-3.6,2-5.3,3.3c57.7,4,85.9,76.3,45,117.6c-1.7,2-4.9,3.2-6.5,0.2c-1.6-4.9,8-10.6,9.7-15.6
			c24.6-38.1-2.4-91.4-47.3-95.2L876.7,78.7z"/>
		<g class="st4">
			<path class="st1" d="M810.7,93.5V91c0-12.2,12-8.4,12-13.5c0-1.6-1.1-2.6-3-2.6s-3.4,1.1-3.5,3.4h-5.1c0.2-4.7,3.7-7.9,8.8-7.9
				c4.8,0,7.9,2.8,7.9,7c0,8.8-11.4,5.5-11.6,11.7l11.8-0.2v4.7L810.7,93.5L810.7,93.5z"/>
			<path class="st1" d="M830.7,82.2c0-7,3.4-11.8,9.4-11.8s9.4,4.8,9.4,11.8S846,94,840.1,94C834.1,94,830.7,89.2,830.7,82.2z
				 M844.3,82.2c0-4.5-1.2-7.2-4.2-7.2s-4.2,2.7-4.2,7.2s1.2,7.2,4.2,7.2S844.3,86.7,844.3,82.2z"/>
		</g>
		<g class="st4">
			<path class="st1" d="M890.2,203.5v4.4h-3.3v4.4h-4.6V208H871v-4.4l8.6-13.8h5.3l-8.6,13.8h6v-6.7h4.6v6.7h3.3V203.5z"/>
			<path class="st1" d="M891.9,201.1c0-7,3.4-11.8,9.4-11.8s9.4,4.8,9.4,11.8s-3.4,11.8-9.4,11.8C895.3,212.8,891.9,208,891.9,201.1
				z M905.5,201.1c0-4.5-1.2-7.2-4.2-7.2s-4.2,2.7-4.2,7.2s1.2,7.2,4.2,7.2C904.3,208.2,905.5,205.5,905.5,201.1z"/>
		</g>
		<path class="st5" d="M843.1,120.3c-1.9-11.3,2.3-21.1,17.1-21s19,9.8,17.1,21 M874.8,119.9c5.8-1.3,6.8,7.5,1.6,8.6
			c-0.7,20.8-31.6,20.8-32.3,0c-5.2-1-4.2-9.9,1.6-8.6c3.8-12.6,20.8,7.5,26.7-11 M851.7,178.7l3-1c-0.6-13.4,3.9-17.4-13-16.3
			c-6.9-0.2-3.6,12.6-4.3,16.3l3,1 M846.1,161.4v-12 M875.9,163.4V150 M875.9,163.4c-5.2-0.1-5.2,8.1,0,8S881.1,163.3,875.9,163.4z
			 M826.7,179.6c1.7-19.5,0.8-28.6,24.4-31.7l8.9,12.5l9-12.4c23.7,3.2,22.7,12.3,24.4,31.7"/>
	</g>
</g>
</svg>
