<svg xmlns="http://www.w3.org/2000/svg" viewBox="0 0 90.31 78.05"><defs><style>.cls-1{fill:#fff;}</style></defs><title>Asset 1@3x1</title><g id="Layer_2" data-name="Layer 2"><g id="Слой_1" data-name="Слой 1"><polygon class="cls-1" points="19.39 18.4 19.39 18.42 51.29 0 51.29 39.03 51.29 78.05 19.39 59.63 19.39 59.65 0 59.65 0 47.35 0 30.7 0 18.4 19.39 18.4"/><path class="cls-1" d="M72.94,39a29.62,29.62,0,0,1-8,20.23l3.62,3.55a34.77,34.77,0,0,0,0-47.55L65,18.8A29.62,29.62,0,0,1,72.94,39Z"/><path class="cls-1" d="M63.88,39A21.89,21.89,0,0,1,58,54l2.68,2.62a25.67,25.67,0,0,0,0-35.11L58,24.09A21.88,21.88,0,0,1,63.88,39Z"/><path class="cls-1" d="M83.45,39A40,40,0,0,1,72.72,66.35l4.89,4.8a47,47,0,0,0,0-64.25l-4.89,4.8A40,40,0,0,1,83.45,39Z"/></g></g></svg>