<svg xmlns="http://www.w3.org/2000/svg" viewBox="0 0 169.98 152.33"><defs><style>.cls-1{fill:#473575;}</style></defs><title>Asset 5@3x1</title><g id="Layer_2" data-name="Layer 2"><g id="Layer_1-2" data-name="Layer 1"><path class="cls-1" d="M85,152.33a3.32,3.32,0,0,1-1.83-.71c-2.72-1.92-5.47-3.8-8.21-5.69-6.09-4.2-12.4-8.53-18.33-13.12a193.48,193.48,0,0,1-37.86-38C9.66,82.51,4.18,71.25,1.57,59.38-1.56,45.21,0,33,6.28,22.11A43.7,43.7,0,0,1,44.44,0a44.39,44.39,0,0,1,6,.4A59.44,59.44,0,0,1,82.8,15.62l.34.31.65.58a1.52,1.52,0,0,0,1,.41h.39l.32-.23c1.17-.87,2.31-1.74,3.44-2.61,2.46-1.89,4.79-3.67,7.28-5.24A54.38,54.38,0,0,1,125.25,0h.26A44.29,44.29,0,0,1,168.6,34.43c2.32,9.77,1.73,19.8-1.8,30.67-1.19,3.66-2.78,7.29-4.33,10.81l-.84,1.94a2.41,2.41,0,0,1-2.11,1.71,2.28,2.28,0,0,1-1-.24,2,2,0,0,1-1.15-1.18,2.93,2.93,0,0,1,.3-2.27,74.39,74.39,0,0,0,7.41-23.62C168,29.64,154.9,9.92,133.89,5.36a40.78,40.78,0,0,0-8.66-.93,49.09,49.09,0,0,0-20.14,4.64,53.27,53.27,0,0,0-18,13A3.17,3.17,0,0,1,85,23.31,3.34,3.34,0,0,1,82.84,22C73,11.51,61.16,5.66,47.58,4.6c-1.06-.08-2.13-.12-3.18-.12A39.89,39.89,0,0,0,5.76,35.25C3.39,45,4.25,55.28,8.37,66.8,12.44,78.14,19,88.83,29,100.43c14.18,16.47,31.88,31.47,54.09,45.88a3.5,3.5,0,0,0,2,.66,3.36,3.36,0,0,0,1.9-.66c2.83-1.95,5.75-3.88,8.58-5.74l1.17-.78a3.09,3.09,0,0,1,1.68-.58,2,2,0,0,1,1.47.66,2.25,2.25,0,0,1,.63,1.79,2,2,0,0,1-.89,1.48C94.7,146.46,89.79,149.63,86,152A1.87,1.87,0,0,1,85,152.33Z"/><path class="cls-1" d="M128.09,149.09q-6.18,0-12.37,0c-2.51,0-3.13-.65-3.13-3.29v-5.12c0-4.88,0-9.93,0-14.89a3.27,3.27,0,0,0-.74-2.43,3.2,3.2,0,0,0-2.32-.76c-3.24,0-6.4,0-9.56,0l-10.37,0c-3,0-3.52-.53-3.52-3.56q0-12.16,0-24.33c0-2.42.68-3.09,3.15-3.09l10.37,0q4.91,0,9.81,0h0a3.27,3.27,0,0,0,2.44-.76,3.23,3.23,0,0,0,.75-2.39c-.07-5.06-.06-10.21,0-15.19v-5c0-2.55.64-3.18,3.23-3.18h24.49c2.46,0,3.13.67,3.13,3.11q0,6,0,12v8c0,2.8.55,3.33,3.4,3.33h19.7c2.79,0,3.36.57,3.36,3.36v24.66c0,2.23-.72,2.94-3,3l-10.66,0q-4.84,0-9.69,0h0a3.29,3.29,0,0,0-2.45.76,3.26,3.26,0,0,0-.74,2.38c.07,5.27.05,10.64,0,15.83v4.35c0,2.48-.66,3.17-3.07,3.18Zm0-4.57c2.71,0,5.41,0,8.12,0h0a2.92,2.92,0,0,0,2.17-.72,3,3,0,0,0,.69-2.25c0-2.54,0-5.13,0-7.64V121.44c0-2.81.56-3.38,3.34-3.38H152.8c3.26,0,6.51,0,9.77,0h0a2.6,2.6,0,0,0,3-3c-.08-6.38-.07-11.27,0-15.84a2.7,2.7,0,0,0-3.14-3.12c-3.45,0-6.81,0-10.17,0l-10.09,0c-2.45,0-3.12-.68-3.12-3.13V89.75c0-5.7,0-11.39,0-17.08a3.15,3.15,0,0,0-.72-2.31,3,3,0,0,0-2.15-.73c-2.78,0-5.47.06-8.16.06s-5.41,0-8.11-.06h0a3,3,0,0,0-2.23.73,3.12,3.12,0,0,0-.72,2.31c0,5.43,0,10.86,0,16.3v3.71c0,2.87-.59,3.45-3.47,3.46H103c-3.17,0-6.33,0-9.5,0h0a3.11,3.11,0,0,0-2.32.74,3,3,0,0,0-.71,2.23c.07,5.24.07,10.62,0,16a3.07,3.07,0,0,0,.71,2.25,3,3,0,0,0,2.22.74c3.22,0,6.37,0,9.52,0h10.39c3.22,0,3.67.46,3.67,3.73v4.36c0,5.17,0,10.33,0,15.49a3,3,0,0,0,.7,2.22,2.84,2.84,0,0,0,2.1.71C122.59,144.54,125.34,144.52,128.08,144.52Z"/></g></g></svg>