<svg id="Layer_1" data-name="Layer 1" xmlns="http://www.w3.org/2000/svg" viewBox="0 0 27.96 27.95"><defs><style>.cls-1{fill:#473575;}</style></defs><title>Artboard 6@4x41</title><g id="YkioLc"><path class="cls-1" d="M14.57,28H2.69a2.77,2.77,0,0,1-.9-.18A2.84,2.84,0,0,1,0,25.11c0-1.43,0-2.87,0-4.3V15Q0,8.89,0,2.81A2.72,2.72,0,0,1,1.58.28,2.62,2.62,0,0,1,2.5,0h23A2.83,2.83,0,0,1,28,2.5v.07l0,23c0,.12-.05.23-.08.34a2.8,2.8,0,0,1-2.71,2H19a.6.6,0,0,1-.67-.67V16.83a.61.61,0,0,1,.67-.68h3.63v-2.8H19.06L19,12.81l0,.54h-.23l-.22-.18a.6.6,0,0,1-.18-.46V12.4c0-.7,0-1.42.09-2.14a2.44,2.44,0,0,1,1.64-2.1,4.63,4.63,0,0,1,1.34-.27,8.39,8.39,0,0,1,1.23,0V5.07a17.64,17.64,0,0,0-2.4,0,9,9,0,0,0-1.73.33A3.82,3.82,0,0,0,16,7.6a8.58,8.58,0,0,0-.77,3.15c0,.45,0,.89,0,1.34v.59a.62.62,0,0,1-.69.67h-2.2v2.8h2.2a.63.63,0,0,1,.69.69V27.26a.61.61,0,0,1-.17.52A.6.6,0,0,1,14.57,28Zm4.85-1.08h5.72a1.72,1.72,0,0,0,1.68-1.24,1.43,1.43,0,0,0,0-.22l0-.08V2.61a1.76,1.76,0,0,0-.82-1.28,1.54,1.54,0,0,0-.67-.24l-.08,0H2.58a1.91,1.91,0,0,0-.5.15,1.68,1.68,0,0,0-1,1.58v18c0,1.43,0,2.87,0,4.31a1.75,1.75,0,0,0,1.11,1.64,1.4,1.4,0,0,0,.53.11h11.4V17.23H11.9a.61.61,0,0,1-.67-.67V12.94a.61.61,0,0,1,.68-.67h2.21v-.19c0-.46,0-.93,0-1.4A9.64,9.64,0,0,1,15,7.15,4.92,4.92,0,0,1,18.2,4.41,10.48,10.48,0,0,1,20.13,4a21.36,21.36,0,0,1,3,0,.62.62,0,0,1,.61.64v4l-.19.23A.6.6,0,0,1,23,9a10.07,10.07,0,0,0-1.55,0,3.36,3.36,0,0,0-1,.19,1.39,1.39,0,0,0-1,1.21c-.06.63-.07,1.25-.08,1.9H23l.1.54v-.54h.23l.22.18a.59.59,0,0,1,.17.46v3.64a.61.61,0,0,1-.67.68H19.42Zm3.63-14.06V13l0,0Zm-.41,0v0Zm.42-7.77Z"/></g></svg>