<svg id="Layer_1" data-name="Layer 1" xmlns="http://www.w3.org/2000/svg" viewBox="0 0 28.64 26.32"><defs><style>.cls-1{fill:#473575;}</style></defs><title>Artboard 10@4x41</title><path class="cls-1" d="M14.44,26.32l-.62,0a5.94,5.94,0,0,1-3.08-1.38,5,5,0,0,0-2-1.08,5.39,5.39,0,0,0-2.46,0,1.66,1.66,0,0,1-1,.05,1,1,0,0,1-.63-.77,5.09,5.09,0,0,1-.14-.56c0-.1,0-.2-.06-.3s0-.1-.23-.14l-.32-.06a8.27,8.27,0,0,1-2.54-.74,4.1,4.1,0,0,1-.34-.23l-1-.75,1.9-.6a6.83,6.83,0,0,0,3.46-2.42,24.48,24.48,0,0,0,1.36-2.07A2.13,2.13,0,0,0,7,14.53c.12-.7-.69-1.09-.85-1.16l-.58-.24c-.41-.17-.83-.35-1.24-.54a1,1,0,0,1-.65-1.33,1.32,1.32,0,0,1,1.52-.57l.22.07a6.34,6.34,0,0,0,1,.27,2.08,2.08,0,0,0,.76-.1l.08,0a.45.45,0,0,0,0-.12l0-.19C7.11,9.65,7,8.69,7,7.73a12.38,12.38,0,0,1,.25-2.55,6.06,6.06,0,0,1,1.77-3A7.32,7.32,0,0,1,12.25.35a8.77,8.77,0,0,1,3.5-.29,7.29,7.29,0,0,1,4.92,2.57,6.44,6.44,0,0,1,1.45,2.94,8.7,8.7,0,0,1,.1,1.73c0,.91,0,1.83-.09,2.74l0,.82h0a.45.45,0,0,0,.21.1,2.07,2.07,0,0,0,1.45-.22,1.52,1.52,0,0,1,1.54.12.91.91,0,0,1,.44.78.84.84,0,0,1-.42.68c-.38.22-.77.4-1.15.58l-.44.21-.37.17a4.07,4.07,0,0,0-.63.33c-.36.26-.66.66-.2,1.6a9.18,9.18,0,0,0,2.92,3.57,6.3,6.3,0,0,0,2.3,1l.27.08.35.1.27.73-.44.33a2.14,2.14,0,0,1-.4.27,7.14,7.14,0,0,1-2.38.69c-.58.07-.66.14-.74.7a4.45,4.45,0,0,1-.19.7.79.79,0,0,1-1.07.46,7,7,0,0,0-2.92-.06,4.49,4.49,0,0,0-1.73.92l-.2.15a6.09,6.09,0,0,1-2.49,1.28A9.9,9.9,0,0,1,14.44,26.32Zm-7-3.69a8.74,8.74,0,0,1,1.49.15A5.82,5.82,0,0,1,11.36,24a4.93,4.93,0,0,0,2.53,1.18,8.34,8.34,0,0,0,2-.1,5.28,5.28,0,0,0,2-1.09l.2-.14a5.26,5.26,0,0,1,2.18-1.12,8,8,0,0,1,3.25,0c0-.08,0-.16.05-.23A1.63,1.63,0,0,1,25.3,21a6.62,6.62,0,0,0,1.38-.32,7.55,7.55,0,0,1-1.86-1,10.37,10.37,0,0,1-3.26-4,2.13,2.13,0,0,1,.53-2.94,4.51,4.51,0,0,1,.84-.44l.32-.15.46-.22.1,0A2.83,2.83,0,0,1,22,12a1.15,1.15,0,0,1-1-1.17l0-.82c0-.91.07-1.81.08-2.72a7.77,7.77,0,0,0-.08-1.51,5.35,5.35,0,0,0-1.23-2.46,6.12,6.12,0,0,0-4.21-2.17,7.33,7.33,0,0,0-3.06.25A6.23,6.23,0,0,0,9.82,3,5,5,0,0,0,8.34,5.4a11.11,11.11,0,0,0-.23,2.34c0,.91.08,1.84.15,2.75l0,.19A1.16,1.16,0,0,1,7.43,12a3,3,0,0,1-1.21.13,3.59,3.59,0,0,1-.8-.19l.55.24.58.24A2.19,2.19,0,0,1,8,14.71a3.28,3.28,0,0,1-.4,1.13A24.78,24.78,0,0,1,6.22,18a7.81,7.81,0,0,1-3.64,2.69A10.2,10.2,0,0,0,4.12,21l.32.06A1.24,1.24,0,0,1,5.53,22c0,.11,0,.23.07.35s.06.29.1.43l0,.08L6,22.84A5,5,0,0,1,7.41,22.63Z"/></svg>