<svg id="Layer_1" data-name="Layer 1" xmlns="http://www.w3.org/2000/svg" viewBox="0 0 24.73 28.07"><defs><style>.cls-1{fill:#473575;}</style></defs><title>Artboard 8@4x41</title><path class="cls-1" d="M8.91,28.07A8.9,8.9,0,0,1,4.2,26.71,8.81,8.81,0,0,1,0,20a8.9,8.9,0,0,1,8.68-9.78h2.07v5.4h-2A3.5,3.5,0,0,0,6,21.08,3.42,3.42,0,0,0,8.25,22.6a3.63,3.63,0,0,0,2.83-.68,3.43,3.43,0,0,0,1.32-2.41c0-.25,0-.51,0-.77V0h5.28l.06.47c.56,4.08,2.38,5.86,6.48,6.37l.47.06v5.31h-.55a10.61,10.61,0,0,1-3.77-.69c-.79-.31-1.58-.68-2.33-1l-.25-.12v2.36c0,2.09,0,4.19,0,6.28a8.94,8.94,0,0,1-8.92,9.08Zm.38-16.76H8.75a7.82,7.82,0,0,0-7.64,8.6,7.73,7.73,0,0,0,3.66,5.87,7.73,7.73,0,0,0,6.88.7,7.84,7.84,0,0,0,5.1-7.5c0-2.09,0-4.19,0-6.28v-4l.76.35,1,.48c.77.36,1.5.71,2.26,1a9.76,9.76,0,0,0,2.85.59V7.85c-4.15-.64-6.18-2.64-6.86-6.77H13.51V18.74q0,.44,0,.87a4.48,4.48,0,0,1-1.74,3.16,4.73,4.73,0,0,1-3.67.89,4.48,4.48,0,0,1-3-2,4.58,4.58,0,0,1,3.66-7.11c.33,0,.65,0,1,0V11.32Z"/></svg>