<svg id="Layer_1" data-name="Layer 1" xmlns="http://www.w3.org/2000/svg" viewBox="0 0 28.05 28.6"><defs><style>.cls-1{fill:#473575;}</style></defs><title>Artboard 9@4x41</title><g id="n7hIeX"><path class="cls-1" d="M14.13,24.66h-.84l-1.84,0-1.68,0-1.64-.07-1.58-.08c-.59-.05-1.18-.09-1.77-.15-.41-.05-.82-.11-1.22-.18a3.59,3.59,0,0,1-1.68-.8A3.92,3.92,0,0,1,.52,21.07c-.13-.63-.23-1.22-.29-1.79S.12,18.11.08,17.53,0,16.49,0,16c0-.69,0-1.39,0-2.08s0-1.21.07-1.82.09-1.21.15-1.82A15.77,15.77,0,0,1,.54,8.19a3.75,3.75,0,0,1,1.23-2,3.66,3.66,0,0,1,1.41-.79,4.74,4.74,0,0,1,.75-.15c.51-.08,1-.14,1.55-.2l1.2-.09,1.41-.08.32,0L9,4.8h.34l1.71,0,1.79,0h1.77l1.9,0,1.82,0,1.76.07c.54,0,1.07,0,1.6.09s1.3.1,1.95.17a4.93,4.93,0,0,1,1.44.32,3.88,3.88,0,0,1,2.42,2.79,16.23,16.23,0,0,1,.32,1.84c.05.46.1.92.14,1.38,0,.3,0,.61.06.91v.34c.05.81.06,1.68,0,2.75,0,.61,0,1.23-.08,1.85s-.06,1-.11,1.44a20.7,20.7,0,0,1-.37,2.43,3.87,3.87,0,0,1-2,2.59,4.15,4.15,0,0,1-1.38.44c-.55.09-1.11.16-1.66.2l-1.53.11-1.86.08-1.56.05-1.36,0Zm.16-18.87H12.82L11,5.82l-1.7,0H9l-.53,0H8.15L6.75,6c-.39,0-.78,0-1.16.09s-1,.11-1.51.18a4.29,4.29,0,0,0-.6.13,2.5,2.5,0,0,0-1,.56,2.67,2.67,0,0,0-.89,1.47,15.2,15.2,0,0,0-.3,1.93c-.06.59-.11,1.18-.14,1.78s-.06,1.17-.07,1.76,0,1.37,0,2c0,.51,0,1,.07,1.51s.09,1.14.15,1.71a13.74,13.74,0,0,0,.27,1.67,2.84,2.84,0,0,0,1,1.64,2.68,2.68,0,0,0,1.19.57c.38.07.76.12,1.15.16.57.06,1.15.11,1.73.15s1,.06,1.55.09l1.63.06,1.66,0,1.83,0h.83l2,0,1.34,0,1.55,0,1.84-.09,1.45-.1c.57,0,1.1-.11,1.62-.19a3.44,3.44,0,0,0,1-.33,2.76,2.76,0,0,0,1.44-1.88,19.44,19.44,0,0,0,.34-2.3c.05-.46.09-.93.12-1.4S27,16,27,15.4c0-1,0-1.88,0-2.66l0-.34c0-.3,0-.59-.05-.88,0-.45-.09-.9-.14-1.35a16.46,16.46,0,0,0-.3-1.7,2.82,2.82,0,0,0-1.78-2.05,3.85,3.85,0,0,0-1.14-.25L21.58,6c-.52,0-1-.06-1.56-.08l-1.75-.07-1.81,0-1.89,0Zm-3.2,13.72-.21-.84v-.13l0-8.49.63.11c.23.06,7.17,4.08,7.21,4.12l.59.49ZM12,11.6v6.17l5.39-3.09C16,13.91,13.29,12.35,12,11.6Z"/></g></svg>